  0
SECTION
  2
HEADER
  9
$ACADVER
  1
AC1015
  9
$ACADMAINTVER
 70
     6
  9
$DWGCODEPAGE
  3
ANSI_1251
  9
$INSBASE
 10
0.0
 20
0.0
 30
0.0
  9
$EXTMIN
 10
1.000000000000000E+20
 20
1.000000000000000E+20
 30
1.000000000000000E+20
  9
$EXTMAX
 10
-1.000000000000000E+20
 20
-1.000000000000000E+20
 30
-1.000000000000000E+20
  9
$LIMMIN
 10
0.0
 20
0.0
  9
$LIMMAX
 10
420.0
 20
297.0
  9
$ORTHOMODE
 70
     0
  9
$REGENMODE
 70
     1
  9
$FILLMODE
 70
     1
  9
$QTEXTMODE
 70
     0
  9
$MIRRTEXT
 70
     0
  9
$LTSCALE
 40
1.0
  9
$ATTMODE
 70
     1
  9
$TEXTSIZE
 40
2.5
  9
$TRACEWID
 40
1.0
  9
$TEXTSTYLE
  7
Standard
  9
$CLAYER
  8
0
  9
$CELTYPE
  6
ByLayer
  9
$CECOLOR
 62
   256
  9
$CELTSCALE
 40
1.0
  9
$DISPSILH
 70
     0
  9
$DIMSCALE
 40
1.0
  9
$DIMASZ
 40
2.5
  9
$DIMEXO
 40
0.625
  9
$DIMDLI
 40
3.75
  9
$DIMRND
 40
0.0
  9
$DIMDLE
 40
0.0
  9
$DIMEXE
 40
1.25
  9
$DIMTP
 40
0.0
  9
$DIMTM
 40
0.0
  9
$DIMTXT
 40
2.5
  9
$DIMCEN
 40
2.5
  9
$DIMTSZ
 40
0.0
  9
$DIMTOL
 70
     0
  9
$DIMLIM
 70
     0
  9
$DIMTIH
 70
     0
  9
$DIMTOH
 70
     0
  9
$DIMSE1
 70
     0
  9
$DIMSE2
 70
     0
  9
$DIMTAD
 70
     1
  9
$DIMZIN
 70
     8
  9
$DIMBLK
  1

  9
$DIMASO
 70
     1
  9
$DIMSHO
 70
     1
  9
$DIMPOST
  1

  9
$DIMAPOST
  1

  9
$DIMALT
 70
     0
  9
$DIMALTD
 70
     3
  9
$DIMALTF
 40
0.03937007874016
  9
$DIMLFAC
 40
1.0
  9
$DIMTOFL
 70
     1
  9
$DIMTVP
 40
0.0
  9
$DIMTIX
 70
     0
  9
$DIMSOXD
 70
     0
  9
$DIMSAH
 70
     0
  9
$DIMBLK1
  1

  9
$DIMBLK2
  1

  9
$DIMSTYLE
  2
ISO-25
  9
$DIMCLRD
 70
     0
  9
$DIMCLRE
 70
     0
  9
$DIMCLRT
 70
     0
  9
$DIMTFAC
 40
1.0
  9
$DIMGAP
 40
0.625
  9
$DIMJUST
 70
     0
  9
$DIMSD1
 70
     0
  9
$DIMSD2
 70
     0
  9
$DIMTOLJ
 70
     0
  9
$DIMTZIN
 70
     8
  9
$DIMALTZ
 70
     0
  9
$DIMALTTZ
 70
     0
  9
$DIMUPT
 70
     0
  9
$DIMDEC
 70
     2
  9
$DIMTDEC
 70
     2
  9
$DIMALTU
 70
     2
  9
$DIMALTTD
 70
     3
  9
$DIMTXSTY
  7
Standard
  9
$DIMAUNIT
 70
     0
  9
$DIMADEC
 70
     0
  9
$DIMALTRND
 40
0.0
  9
$DIMAZIN
 70
     0
  9
$DIMDSEP
 70
    44
  9
$DIMATFIT
 70
     3
  9
$DIMFRAC
 70
     0
  9
$DIMLDRBLK
  1

  9
$DIMLUNIT
 70
     2
  9
$DIMLWD
 70
    -2
  9
$DIMLWE
 70
    -2
  9
$DIMTMOVE
 70
     0
  9
$LUNITS
 70
     2
  9
$LUPREC
 70
     3
  9
$SKETCHINC
 40
1.0
  9
$FILLETRAD
 40
0.0
  9
$AUNITS
 70
     0
  9
$AUPREC
 70
     0
  9
$MENU
  1
.
  9
$ELEVATION
 40
0.0
  9
$PELEVATION
 40
0.0
  9
$THICKNESS
 40
0.0
  9
$LIMCHECK
 70
     0
  9
$CHAMFERA
 40
10.0
  9
$CHAMFERB
 40
10.0
  9
$CHAMFERC
 40
20.0
  9
$CHAMFERD
 40
0.0
  9
$SKPOLY
 70
     0
  9
$TDCREATE
 40
2455022.67902618
  9
$TDUCREATE
 40
2455022.637359514
  9
$TDUPDATE
 40
2455022.679026192
  9
$TDUUPDATE
 40
2455022.637359526
  9
$TDINDWG
 40
0.0000000116
  9
$TDUSRTIMER
 40
2457006.907324769
  9
$USRTIMER
 70
     1
  9
$ANGBASE
 50
0.0
  9
$ANGDIR
 70
     0
  9
$PDMODE
 70
     0
  9
$PDSIZE
 40
5.0
  9
$PLINEWID
 40
0.0
  9
$SPLFRAME
 70
     0
  9
$SPLINETYPE
 70
     6
  9
$SPLINESEGS
 70
     8
  9
$HANDSEED
  5
585B
  9
$SURFTAB1
 70
     6
  9
$SURFTAB2
 70
     6
  9
$SURFTYPE
 70
     6
  9
$SURFU
 70
     6
  9
$SURFV
 70
     6
  9
$UCSBASE
  2

  9
$UCSNAME
  2

  9
$UCSORG
 10
0.0
 20
0.0
 30
0.0
  9
$UCSXDIR
 10
1.0
 20
0.0
 30
0.0
  9
$UCSYDIR
 10
0.0
 20
1.0
 30
0.0
  9
$UCSORTHOREF
  2

  9
$UCSORTHOVIEW
 70
     0
  9
$UCSORGTOP
 10
0.0
 20
0.0
 30
0.0
  9
$UCSORGBOTTOM
 10
0.0
 20
0.0
 30
0.0
  9
$UCSORGLEFT
 10
0.0
 20
0.0
 30
0.0
  9
$UCSORGRIGHT
 10
0.0
 20
0.0
 30
0.0
  9
$UCSORGFRONT
 10
0.0
 20
0.0
 30
0.0
  9
$UCSORGBACK
 10
0.0
 20
0.0
 30
0.0
  9
$PUCSBASE
  2

  9
$PUCSNAME
  2

  9
$PUCSORG
 10
0.0
 20
0.0
 30
0.0
  9
$PUCSXDIR
 10
1.0
 20
0.0
 30
0.0
  9
$PUCSYDIR
 10
0.0
 20
1.0
 30
0.0
  9
$PUCSORTHOREF
  2

  9
$PUCSORTHOVIEW
 70
     0
  9
$PUCSORGTOP
 10
0.0
 20
0.0
 30
0.0
  9
$PUCSORGBOTTOM
 10
0.0
 20
0.0
 30
0.0
  9
$PUCSORGLEFT
 10
0.0
 20
0.0
 30
0.0
  9
$PUCSORGRIGHT
 10
0.0
 20
0.0
 30
0.0
  9
$PUCSORGFRONT
 10
0.0
 20
0.0
 30
0.0
  9
$PUCSORGBACK
 10
0.0
 20
0.0
 30
0.0
  9
$USERI1
 70
     0
  9
$USERI2
 70
     0
  9
$USERI3
 70
     0
  9
$USERI4
 70
     0
  9
$USERI5
 70
     0
  9
$USERR1
 40
0.0
  9
$USERR2
 40
0.0
  9
$USERR3
 40
0.0
  9
$USERR4
 40
0.0
  9
$USERR5
 40
0.0
  9
$WORLDVIEW
 70
     1
  9
$SHADEDGE
 70
     3
  9
$SHADEDIF
 70
    70
  9
$TILEMODE
 70
     1
  9
$MAXACTVP
 70
    64
  9
$PINSBASE
 10
0.0
 20
0.0
 30
0.0
  9
$PLIMCHECK
 70
     0
  9
$PEXTMIN
 10
1.000000000000000E+20
 20
1.000000000000000E+20
 30
1.000000000000000E+20
  9
$PEXTMAX
 10
-1.000000000000000E+20
 20
-1.000000000000000E+20
 30
-1.000000000000000E+20
  9
$PLIMMIN
 10
0.0
 20
0.0
  9
$PLIMMAX
 10
420.0
 20
297.0
  9
$UNITMODE
 70
     0
  9
$VISRETAIN
 70
     1
  9
$PLINEGEN
 70
     0
  9
$PSLTSCALE
 70
     1
  9
$TREEDEPTH
 70
  3020
  9
$CMLSTYLE
  2
Standard
  9
$CMLJUST
 70
     0
  9
$CMLSCALE
 40
20.0
  9
$PROXYGRAPHICS
 70
     1
  9
$MEASUREMENT
 70
     1
  9
$CELWEIGHT
370
    -1
  9
$ENDCAPS
280
     0
  9
$JOINSTYLE
280
     0
  9
$LWDISPLAY
290
     0
  9
$INSUNITS
 70
     4
  9
$HYPERLINKBASE
  1

  9
$STYLESHEET
  1

  9
$XEDIT
290
     1
  9
$CEPSNTYPE
380
     0
  9
$PSTYLEMODE
290
     1
  9
$FINGERPRINTGUID
  2
{EC6BB858-51AA-46EC-B484-6C9CC7AB3E2E}
  9
$VERSIONGUID
  2
{FAEB1C32-E019-11D5-929B-00C0DF256EC4}
  9
$EXTNAMES
290
     1
  9
$PSVPSCALE
 40
0.0
  9
$OLESTARTUP
290
     0
  0
ENDSEC
  0
SECTION
  2
CLASSES
  0
CLASS
  1
ACDBDICTIONARYWDFLT
  2
AcDbDictionaryWithDefault
  3
ObjectDBX Classes
 90
        0
280
     0
281
     0
  0
CLASS
  1
VISUALSTYLE
  2
AcDbVisualStyle
  3
ObjectDBX Classes
 90
     4095
280
     0
281
     0
  0
CLASS
  1
TABLESTYLE
  2
AcDbTableStyle
  3
ObjectDBX Classes
 90
     4095
280
     0
281
     0
  0
CLASS
  1
DICTIONARYVAR
  2
AcDbDictionaryVar
  3
ObjectDBX Classes
 90
        0
280
     0
281
     0
  0
CLASS
  1
SCALE
  2
AcDbScale
  3
ObjectDBX Classes
 90
     1153
280
     0
281
     0
  0
CLASS
  1
CELLSTYLEMAP
  2
AcDbCellStyleMap
  3
ObjectDBX Classes
 90
     1152
280
     0
281
     0
  0
CLASS
  1
RASTERVARIABLES
  2
AcDbRasterVariables
  3
ISM
 90
        0
280
     0
281
     0
  0
CLASS
  1
DIMASSOC
  2
AcDbDimAssoc
  3
"AcDbDimAssoc|Product Desc:     AcDim ARX App For Dimension|Company:          Autodesk, Inc.|WEB Address:      www.autodesk.com"
 90
        0
280
     0
281
     0
  0
CLASS
  1
ACDBPLACEHOLDER
  2
AcDbPlaceHolder
  3
ObjectDBX Classes
 90
        0
280
     0
281
     0
  0
CLASS
  1
LAYOUT
  2
AcDbLayout
  3
ObjectDBX Classes
 90
        0
280
     0
281
     0
  0
CLASS
  1
IMAGEDEF
  2
AcDbRasterImageDef
  3
ISM
 90
        0
280
     0
281
     0
  0
CLASS
  1
IMAGE
  2
AcDbRasterImage
  3
ISM
 90
      127
280
     0
281
     1
  0
CLASS
  1
IMAGEDEF_REACTOR
  2
AcDbRasterImageDefReactor
  3
ISM
 90
        1
280
     0
281
     0
  0
ENDSEC
  0
SECTION
  2
TABLES
  0
TABLE
  2
VPORT
  5
8
330
0
100
AcDbSymbolTable
 70
     1
  0
VPORT
  5
29
330
8
100
AcDbSymbolTableRecord
100
AcDbViewportTableRecord
  2
*Active
 70
     0
 10
0.0
 20
0.0
 11
1.0
 21
1.0
 12
392.9519153651189
 22
127.8229458421371
 13
0.0
 23
0.0
 14
10.0
 24
10.0
 15
10.0
 25
10.0
 16
0.0
 26
0.0
 36
1.0
 17
-134.1869158878693
 27
0.0
 37
0.0
 40
244.8000000000002
 41
2.374057315233786
 42
50.0
 43
0.0
 44
0.0
 50
0.0
 51
0.0
 71
    16
 72
  1000
 73
     1
 74
     3
 75
     0
 76
     0
 77
     0
 78
     0
281
     0
 65
     1
110
0.0
120
0.0
130
0.0
111
1.0
121
0.0
131
0.0
112
0.0
122
1.0
132
0.0
 79
     0
146
0.0
  0
ENDTAB
  0
TABLE
  2
LTYPE
  5
5
330
0
100
AcDbSymbolTable
 70
     1
  0
LTYPE
  5
14
330
5
100
AcDbSymbolTableRecord
100
AcDbLinetypeTableRecord
  2
ByBlock
 70
     0
  3

 72
    65
 73
     0
 40
0.0
  0
LTYPE
  5
15
330
5
100
AcDbSymbolTableRecord
100
AcDbLinetypeTableRecord
  2
ByLayer
 70
     0
  3

 72
    65
 73
     0
 40
0.0
  0
LTYPE
  5
16
330
5
100
AcDbSymbolTableRecord
100
AcDbLinetypeTableRecord
  2
Continuous
 70
     0
  3
Solid line
 72
    65
 73
     0
 40
0.0
  0
ENDTAB
  0
TABLE
  2
LAYER
  5
2
330
0
100
AcDbSymbolTable
 70
     2
  0
LAYER
  5
10
330
2
100
AcDbSymbolTableRecord
100
AcDbLayerTableRecord
  2
0
 70
     0
 62
     7
  6
Continuous
370
    -3
390
F
  0
LAYER
  5
132
330
2
100
AcDbSymbolTableRecord
100
AcDbLayerTableRecord
  2
Defpoints
 70
     0
 62
     7
  6
Continuous
290
     0
370
    -3
390
F
  0
ENDTAB
  0
TABLE
  2
STYLE
  5
3
330
0
100
AcDbSymbolTable
 70
     1
  0
STYLE
  5
11
330
3
100
AcDbSymbolTableRecord
100
AcDbTextStyleTableRecord
  2
Standard
 70
     0
 40
0.0
 41
1.0
 50
0.0
 71
     0
 42
2.5
  3
Organo.ttf
  4

1001
ACAD
1000
Organo (colored version at: log
1071
        0
  0
ENDTAB
  0
TABLE
  2
VIEW
  5
6
330
0
100
AcDbSymbolTable
 70
     0
  0
ENDTAB
  0
TABLE
  2
UCS
  5
7
330
0
100
AcDbSymbolTable
 70
     0
  0
ENDTAB
  0
TABLE
  2
APPID
  5
9
330
0
100
AcDbSymbolTable
 70
     1
  0
APPID
  5
12
330
9
100
AcDbSymbolTableRecord
100
AcDbRegAppTableRecord
  2
ACAD
 70
     0
  0
ENDTAB
  0
TABLE
  2
DIMSTYLE
  5
A
330
0
100
AcDbSymbolTable
 70
     1
100
AcDbDimStyleTable
  0
DIMSTYLE
105
27
330
A
100
AcDbSymbolTableRecord
100
AcDbDimStyleTableRecord
  2
ISO-25
 70
     0
 41
2.5
 42
0.625
 43
3.75
 44
1.25
 73
     0
 74
     0
 77
     1
 78
     8
140
2.5
141
2.5
143
0.03937007874016
147
0.625
171
     3
172
     1
271
     2
272
     2
274
     3
278
    44
283
     0
284
     8
340
11
  0
ENDTAB
  0
TABLE
  2
BLOCK_RECORD
  5
1
330
0
100
AcDbSymbolTable
 70
    52
  0
BLOCK_RECORD
  5
1F
330
1
100
AcDbSymbolTableRecord
100
AcDbBlockTableRecord
  2
*Model_Space
340
22
  0
BLOCK_RECORD
  5
1B
330
1
100
AcDbSymbolTableRecord
100
AcDbBlockTableRecord
  2
*Paper_Space
340
1E
  0
BLOCK_RECORD
  5
23
330
1
100
AcDbSymbolTableRecord
100
AcDbBlockTableRecord
  2
*Paper_Space0
340
26
  0
BLOCK_RECORD
  5
3FA1
330
1
100
AcDbSymbolTableRecord
100
AcDbBlockTableRecord
  2
ventola
340
0
102
{BLKREFS
331
50B0
331
509F
102
}
  0
BLOCK_RECORD
  5
3FF4
330
1
100
AcDbSymbolTableRecord
100
AcDbBlockTableRecord
  2
serpentina
340
0
102
{BLKREFS
331
50B1
331
50A0
102
}
  0
BLOCK_RECORD
  5
4036
330
1
100
AcDbSymbolTableRecord
100
AcDbBlockTableRecord
  2
umidita
340
0
  0
BLOCK_RECORD
  5
40FE
330
1
100
AcDbSymbolTableRecord
100
AcDbBlockTableRecord
  2
luci
340
0
102
{BLKREFS
331
50BE
331
50AF
102
}
  0
BLOCK_RECORD
  5
48C9
330
1
100
AcDbSymbolTableRecord
100
AcDbBlockTableRecord
  2
logo
340
0
  0
ENDTAB
  0
ENDSEC
  0
SECTION
  2
BLOCKS
  0
BLOCK
  5
20
330
1F
100
AcDbEntity
  8
0
100
AcDbBlockBegin
  2
*Model_Space
 70
     0
 10
0.0
 20
0.0
 30
0.0
  3
*Model_Space
  1

  0
ENDBLK
  5
21
330
1F
100
AcDbEntity
  8
0
100
AcDbBlockEnd
  0
BLOCK
  5
1C
330
1B
100
AcDbEntity
 67
     1
  8
0
100
AcDbBlockBegin
  2
*Paper_Space
 70
     0
 10
0.0
 20
0.0
 30
0.0
  3
*Paper_Space
  1

  0
ENDBLK
  5
1D
330
1B
100
AcDbEntity
 67
     1
  8
0
100
AcDbBlockEnd
  0
BLOCK
  5
24
330
23
100
AcDbEntity
  8
0
100
AcDbBlockBegin
  2
*Paper_Space0
 70
     0
 10
0.0
 20
0.0
 30
0.0
  3
*Paper_Space0
  1

  0
ENDBLK
  5
25
330
23
100
AcDbEntity
  8
0
100
AcDbBlockEnd
  0
BLOCK
  5
3FE4
330
3FA1
100
AcDbEntity
  8
0
100
AcDbBlockBegin
  2
ventola
 70
     0
 10
0.0
 20
0.0
 30
0.0
  3
ventola
  1

  0
SPLINE
  5
3FA2
330
3FA1
100
AcDbEntity
  8
0
 62
     1
100
AcDbSpline
210
0.0
220
0.0
230
1.0
 70
     8
 71
     3
 72
     8
 73
     4
 74
     0
 42
0.0000001
 43
0.0000001
 40
0.0
 40
0.0
 40
0.0
 40
0.0
 40
1.0
 40
1.0
 40
1.0
 40
1.0
 10
15.591469
 20
10.57992
 30
0.0
 10
16.729107
 20
10.988295
 30
0.0
 10
18.627334
 20
11.247658
 30
0.0
 10
20.450207
 20
10.235044
 30
0.0
  0
SPLINE
  5
3FA3
330
3FA1
100
AcDbEntity
  8
0
 62
     1
100
AcDbSpline
210
0.0
220
0.0
230
1.0
 70
     8
 71
     3
 72
     8
 73
     4
 74
     0
 42
0.0000001
 43
0.0000001
 40
0.0
 40
0.0
 40
0.0
 40
0.0
 40
1.0
 40
1.0
 40
1.0
 40
1.0
 10
20.450207
 20
10.235044
 30
0.0
 10
23.548725
 20
8.514335
 30
0.0
 10
26.461258
 20
11.132511
 30
0.0
 10
26.037361
 20
14.031498
 30
0.0
  0
SPLINE
  5
3FA4
330
3FA1
100
AcDbEntity
  8
0
 62
     1
100
AcDbSpline
210
0.0
220
0.0
230
1.0
 70
     8
 71
     3
 72
     8
 73
     4
 74
     0
 42
0.0000001
 43
0.0000001
 40
0.0
 40
0.0
 40
0.0
 40
0.0
 40
1.0
 40
1.0
 40
1.0
 40
1.0
 10
26.037361
 20
14.031498
 30
0.0
 10
25.661441
 20
16.600567
 30
0.0
 10
24.074787
 20
19.216202
 30
0.0
 10
22.059721
 20
20.267197
 30
0.0
  0
SPLINE
  5
3FA5
330
3FA1
100
AcDbEntity
  8
0
 62
     1
100
AcDbSpline
210
0.0
220
0.0
230
1.0
 70
     8
 71
     3
 72
     8
 73
     4
 74
     0
 42
0.0000001
 43
0.0000001
 40
0.0
 40
0.0
 40
0.0
 40
0.0
 40
1.0
 40
1.0
 40
1.0
 40
1.0
 10
22.059721
 20
20.267197
 30
0.0
 10
19.046152
 20
21.837764
 30
0.0
 10
16.764667
 20
20.963722
 30
0.0
 10
14.998803
 20
19.047151
 30
0.0
  0
SPLINE
  5
3FA6
330
3FA1
100
AcDbEntity
  8
0
 62
     1
100
AcDbSpline
210
0.0
220
0.0
230
1.0
 70
     8
 71
     3
 72
     8
 73
     4
 74
     0
 42
0.0000001
 43
0.0000001
 40
0.0
 40
0.0
 40
0.0
 40
0.0
 40
1.0
 40
1.0
 40
1.0
 40
1.0
 10
14.998803
 20
19.047151
 30
0.0
 10
13.842538
 20
17.791262
 30
0.0
 10
12.633216
 20
15.576382
 30
0.0
 10
12.539518
 20
13.469875
 30
0.0
  0
SPLINE
  5
3FA7
330
3FA1
100
AcDbEntity
  8
0
 62
     1
100
AcDbSpline
210
0.0
220
0.0
230
1.0
 70
     8
 71
     3
 72
     8
 73
     4
 74
     0
 42
0.0000001
 43
0.0000001
 40
0.0
 40
0.0
 40
0.0
 40
0.0
 40
1.0
 40
1.0
 40
1.0
 40
1.0
 10
12.539518
 20
13.469875
 30
0.0
 10
12.495209
 20
12.478147
 30
0.0
 10
11.343743
 20
12.530358
 30
0.0
 10
11.066883
 20
13.303082
 30
0.0
  0
SPLINE
  5
3FA8
330
3FA1
100
AcDbEntity
  8
0
 62
     1
100
AcDbSpline
210
0.0
220
0.0
230
1.0
 70
     8
 71
     3
 72
     8
 73
     4
 74
     0
 42
0.0000001
 43
0.0000001
 40
0.0
 40
0.0
 40
0.0
 40
0.0
 40
1.0
 40
1.0
 40
1.0
 40
1.0
 10
11.066883
 20
13.303082
 30
0.0
 10
10.658225
 20
14.44072
 30
0.0
 10
10.398863
 20
16.339229
 30
0.0
 10
11.410912
 20
18.161538
 30
0.0
  0
SPLINE
  5
3FA9
330
3FA1
100
AcDbEntity
  8
0
 62
     1
100
AcDbSpline
210
0.0
220
0.0
230
1.0
 70
     8
 71
     3
 72
     8
 73
     4
 74
     0
 42
0.0000001
 43
0.0000001
 40
0.0
 40
0.0
 40
0.0
 40
0.0
 40
1.0
 40
1.0
 40
1.0
 40
1.0
 10
11.410912
 20
18.161538
 30
0.0
 10
13.132467
 20
21.26062
 30
0.0
 10
10.514009
 20
24.173435
 30
0.0
 10
7.615305
 20
23.749255
 30
0.0
  0
SPLINE
  5
3FAA
330
3FA1
100
AcDbEntity
  8
0
 62
     1
100
AcDbSpline
210
0.0
220
0.0
230
1.0
 70
     8
 71
     3
 72
     8
 73
     4
 74
     0
 42
0.0000001
 43
0.0000001
 40
0.0
 40
0.0
 40
0.0
 40
0.0
 40
1.0
 40
1.0
 40
1.0
 40
1.0
 10
7.615305
 20
23.749255
 30
0.0
 10
5.045954
 20
23.372771
 30
0.0
 10
2.430601
 20
21.786964
 30
0.0
 10
1.379605
 20
19.771051
 30
0.0
  0
SPLINE
  5
3FAB
330
3FA1
100
AcDbEntity
  8
0
 62
     1
100
AcDbSpline
210
0.0
220
0.0
230
1.0
 70
     8
 71
     3
 72
     8
 73
     4
 74
     0
 42
0.0000001
 43
0.0000001
 40
0.0
 40
0.0
 40
0.0
 40
0.0
 40
1.0
 40
1.0
 40
1.0
 40
1.0
 10
1.379605
 20
19.771051
 30
0.0
 10
-0.191244
 20
16.757764
 30
0.0
 10
0.682798
 20
14.47628
 30
0.0
 10
2.599369
 20
12.71098
 30
0.0
  0
SPLINE
  5
3FAC
330
3FA1
100
AcDbEntity
  8
0
 62
     1
100
AcDbSpline
210
0.0
220
0.0
230
1.0
 70
     8
 71
     3
 72
     8
 73
     4
 74
     0
 42
0.0000001
 43
0.0000001
 40
0.0
 40
0.0
 40
0.0
 40
0.0
 40
1.0
 40
1.0
 40
1.0
 40
1.0
 10
2.599369
 20
12.71098
 30
0.0
 10
3.854976
 20
11.554433
 30
0.0
 10
6.070985
 20
10.344547
 30
0.0
 10
8.176645
 20
10.250849
 30
0.0
  0
SPLINE
  5
3FAD
330
3FA1
100
AcDbEntity
  8
0
 62
     1
100
AcDbSpline
210
0.0
220
0.0
230
1.0
 70
     8
 71
     3
 72
     8
 73
     4
 74
     0
 42
0.0000001
 43
0.0000001
 40
0.0
 40
0.0
 40
0.0
 40
0.0
 40
1.0
 40
1.0
 40
1.0
 40
1.0
 10
8.176645
 20
10.250849
 30
0.0
 10
9.168656
 20
10.206822
 30
0.0
 10
9.116445
 20
9.055355
 30
0.0
 10
8.343721
 20
8.778778
 30
0.0
  0
SPLINE
  5
3FAE
330
3FA1
100
AcDbEntity
  8
0
 62
     1
100
AcDbSpline
210
0.0
220
0.0
230
1.0
 70
     8
 71
     3
 72
     8
 73
     4
 74
     0
 42
0.0000001
 43
0.0000001
 40
0.0
 40
0.0
 40
0.0
 40
0.0
 40
1.0
 40
1.0
 40
1.0
 40
1.0
 10
8.343721
 20
8.778778
 30
0.0
 10
7.205518
 20
8.369838
 30
0.0
 10
5.307009
 20
8.110193
 30
0.0
 10
3.484983
 20
9.122807
 30
0.0
  0
SPLINE
  5
3FAF
330
3FA1
100
AcDbEntity
  8
0
 62
     1
100
AcDbSpline
210
0.0
220
0.0
230
1.0
 70
     8
 71
     3
 72
     8
 73
     4
 74
     0
 42
0.0000001
 43
0.0000001
 40
0.0
 40
0.0
 40
0.0
 40
0.0
 40
1.0
 40
1.0
 40
1.0
 40
1.0
 10
3.484983
 20
9.122807
 30
0.0
 10
0.385901
 20
10.844362
 30
0.0
 10
-2.526915
 20
8.225622
 30
0.0
 10
-2.102453
 20
5.326635
 30
0.0
  0
SPLINE
  5
3FB0
330
3FA1
100
AcDbEntity
  8
0
 62
     1
100
AcDbSpline
210
0.0
220
0.0
230
1.0
 70
     8
 71
     3
 72
     8
 73
     4
 74
     0
 42
0.0000001
 43
0.0000001
 40
0.0
 40
0.0
 40
0.0
 40
0.0
 40
1.0
 40
1.0
 40
1.0
 40
1.0
 10
-2.102453
 20
5.326635
 30
0.0
 10
-1.726533
 20
2.757284
 30
0.0
 10
-0.140162
 20
0.141931
 30
0.0
 10
1.875752
 20
-0.908782
 30
0.0
  0
SPLINE
  5
3FB1
330
3FA1
100
AcDbEntity
  8
0
 62
     1
100
AcDbSpline
210
0.0
220
0.0
230
1.0
 70
     8
 71
     3
 72
     8
 73
     4
 74
     0
 42
0.0000001
 43
0.0000001
 40
0.0
 40
0.0
 40
0.0
 40
0.0
 40
1.0
 40
1.0
 40
1.0
 40
1.0
 10
1.875752
 20
-0.908782
 30
0.0
 10
4.889038
 20
-2.479913
 30
0.0
 10
7.170523
 20
-1.605589
 30
0.0
 10
8.935823
 20
0.310982
 30
0.0
  0
SPLINE
  5
3FB2
330
3FA1
100
AcDbEntity
  8
0
 62
     1
100
AcDbSpline
210
0.0
220
0.0
230
1.0
 70
     8
 71
     3
 72
     8
 73
     4
 74
     0
 42
0.0000001
 43
0.0000001
 40
0.0
 40
0.0
 40
0.0
 40
0.0
 40
1.0
 40
1.0
 40
1.0
 40
1.0
 10
8.935823
 20
0.310982
 30
0.0
 10
10.092369
 20
1.566307
 30
0.0
 10
11.301974
 20
3.782033
 30
0.0
 10
11.395389
 20
5.887975
 30
0.0
  0
SPLINE
  5
3FB3
330
3FA1
100
AcDbEntity
  8
0
 62
     1
100
AcDbSpline
210
0.0
220
0.0
230
1.0
 70
     8
 71
     3
 72
     8
 73
     4
 74
     0
 42
0.0000001
 43
0.0000001
 40
0.0
 40
0.0
 40
0.0
 40
0.0
 40
1.0
 40
1.0
 40
1.0
 40
1.0
 10
11.395389
 20
5.887975
 30
0.0
 10
11.439698
 20
6.880269
 30
0.0
 10
12.590883
 20
6.827493
 30
0.0
 10
12.868025
 20
6.05618
 30
0.0
  0
SPLINE
  5
3FB4
330
3FA1
100
AcDbEntity
  8
0
 62
     1
100
AcDbSpline
210
0.0
220
0.0
230
1.0
 70
     8
 71
     3
 72
     8
 73
     4
 74
     0
 42
0.0000001
 43
0.0000001
 40
0.0
 40
0.0
 40
0.0
 40
0.0
 40
1.0
 40
1.0
 40
1.0
 40
1.0
 10
12.868025
 20
6.05618
 30
0.0
 10
13.276401
 20
4.917695
 30
0.0
 10
13.536045
 20
3.019469
 30
0.0
 10
12.523714
 20
1.196595
 30
0.0
  0
SPLINE
  5
3FB5
330
3FA1
100
AcDbEntity
  8
0
 62
     1
100
AcDbSpline
210
0.0
220
0.0
230
1.0
 70
     8
 71
     3
 72
     8
 73
     4
 74
     0
 42
0.0000001
 43
0.0000001
 40
0.0
 40
0.0
 40
0.0
 40
0.0
 40
1.0
 40
1.0
 40
1.0
 40
1.0
 10
12.523714
 20
1.196595
 30
0.0
 10
10.802158
 20
-1.90164
 30
0.0
 10
13.420616
 20
-4.814456
 30
0.0
 10
16.319603
 20
-4.389993
 30
0.0
  0
SPLINE
  5
3FB6
330
3FA1
100
AcDbEntity
  8
0
 62
     1
100
AcDbSpline
210
0.0
220
0.0
230
1.0
 70
     8
 71
     3
 72
     8
 73
     4
 74
     0
 42
0.0000001
 43
0.0000001
 40
0.0
 40
0.0
 40
0.0
 40
0.0
 40
1.0
 40
1.0
 40
1.0
 40
1.0
 10
16.319603
 20
-4.389993
 30
0.0
 10
18.888954
 20
-4.014073
 30
0.0
 10
21.504307
 20
-2.428831
 30
0.0
 10
22.555021
 20
-0.412918
 30
0.0
  0
SPLINE
  5
3FB7
330
3FA1
100
AcDbEntity
  8
0
 62
     1
100
AcDbSpline
210
0.0
220
0.0
230
1.0
 70
     8
 71
     3
 72
     8
 73
     4
 74
     0
 42
0.0000001
 43
0.0000001
 40
0.0
 40
0.0
 40
0.0
 40
0.0
 40
1.0
 40
1.0
 40
1.0
 40
1.0
 10
22.555021
 20
-0.412918
 30
0.0
 10
24.126716
 20
2.600933
 30
0.0
 10
23.252109
 20
4.881571
 30
0.0
 10
21.335538
 20
6.648
 30
0.0
  0
SPLINE
  5
3FB8
330
3FA1
100
AcDbEntity
  8
0
 62
     1
100
AcDbSpline
210
0.0
220
0.0
230
1.0
 70
     8
 71
     3
 72
     8
 73
     4
 74
     0
 42
0.0000001
 43
0.0000001
 40
0.0
 40
0.0
 40
0.0
 40
0.0
 40
1.0
 40
1.0
 40
1.0
 40
1.0
 10
21.335538
 20
6.648
 30
0.0
 10
20.080214
 20
7.8037
 30
0.0
 10
17.863923
 20
9.013869
 30
0.0
 10
15.758545
 20
9.107002
 30
0.0
  0
SPLINE
  5
3FB9
330
3FA1
100
AcDbEntity
  8
0
 62
     1
100
AcDbSpline
210
0.0
220
0.0
230
1.0
 70
     8
 71
     3
 72
     8
 73
     4
 74
     0
 42
0.0000001
 43
0.0000001
 40
0.0
 40
0.0
 40
0.0
 40
0.0
 40
1.0
 40
1.0
 40
1.0
 40
1.0
 10
15.758545
 20
9.107002
 30
0.0
 10
14.766534
 20
9.151311
 30
0.0
 10
14.819027
 20
10.302495
 30
0.0
 10
15.591469
 20
10.57992
 30
0.0
  0
SPLINE
  5
3FBA
330
3FA1
100
AcDbEntity
  8
0
 62
     1
100
AcDbSpline
210
0.0
220
0.0
230
1.0
 70
     8
 71
     3
 72
     8
 73
     4
 74
     0
 42
0.0000001
 43
0.0000001
 40
0.0
 40
0.0
 40
0.0
 40
0.0
 40
1.0
 40
1.0
 40
1.0
 40
1.0
 10
11.967454
 20
8.247353
 30
0.0
 10
11.176949
 20
8.247353
 30
0.0
 10
10.536023
 20
8.88828
 30
0.0
 10
10.536023
 20
9.678784
 30
0.0
  0
SPLINE
  5
3FBB
330
3FA1
100
AcDbEntity
  8
0
 62
     1
100
AcDbSpline
210
0.0
220
0.0
230
1.0
 70
     8
 71
     3
 72
     8
 73
     4
 74
     0
 42
0.0000001
 43
0.0000001
 40
0.0
 40
0.0
 40
0.0
 40
0.0
 40
1.0
 40
1.0
 40
1.0
 40
1.0
 10
10.536023
 20
9.678784
 30
0.0
 10
10.536023
 20
10.469289
 30
0.0
 10
11.176949
 20
11.110215
 30
0.0
 10
11.967454
 20
11.110215
 30
0.0
  0
SPLINE
  5
3FBC
330
3FA1
100
AcDbEntity
  8
0
 62
     1
100
AcDbSpline
210
0.0
220
0.0
230
1.0
 70
     8
 71
     3
 72
     8
 73
     4
 74
     0
 42
0.0000001
 43
0.0000001
 40
0.0
 40
0.0
 40
0.0
 40
0.0
 40
1.0
 40
1.0
 40
1.0
 40
1.0
 10
11.967454
 20
11.110215
 30
0.0
 10
12.758241
 20
11.110215
 30
0.0
 10
13.398885
 20
10.469289
 30
0.0
 10
13.398885
 20
9.678784
 30
0.0
  0
SPLINE
  5
3FBD
330
3FA1
100
AcDbEntity
  8
0
 62
     1
100
AcDbSpline
210
0.0
220
0.0
230
1.0
 70
     8
 71
     3
 72
     8
 73
     4
 74
     0
 42
0.0000001
 43
0.0000001
 40
0.0
 40
0.0
 40
0.0
 40
0.0
 40
1.0
 40
1.0
 40
1.0
 40
1.0
 10
13.398885
 20
9.678784
 30
0.0
 10
13.398885
 20
8.88828
 30
0.0
 10
12.758241
 20
8.247353
 30
0.0
 10
11.967454
 20
8.247353
 30
0.0
  0
LWPOLYLINE
  5
3FBE
330
3FA1
100
AcDbEntity
  8
0
 62
     1
100
AcDbPolyline
 90
        2
 70
     0
 43
0.0
 10
15.591469
 20
10.57992
 10
15.591469
 20
10.57992
  0
LWPOLYLINE
  5
3FBF
330
3FA1
100
AcDbEntity
  8
0
 62
     1
100
AcDbPolyline
 90
        2
 70
     0
 43
0.0
 10
11.967454
 20
8.247353
 10
11.967454
 20
8.247353
  0
ENDBLK
  5
3FE5
330
3FA1
100
AcDbEntity
  8
0
100
AcDbBlockEnd
  0
BLOCK
  5
402E
330
3FF4
100
AcDbEntity
  8
0
100
AcDbBlockBegin
  2
serpentina
 70
     0
 10
0.0
 20
0.0
 30
0.0
  3
serpentina
  1

  0
SPLINE
  5
3FF5
330
3FF4
100
AcDbEntity
  8
0
 62
     1
100
AcDbSpline
210
0.0
220
0.0
230
1.0
 70
     8
 71
     3
 72
     8
 73
     4
 74
     0
 42
0.0000001
 43
0.0000001
 40
0.0
 40
0.0
 40
0.0
 40
0.0
 40
1.0
 40
1.0
 40
1.0
 40
1.0
 10
8.202224
 20
5.942614
 30
0.0
 10
8.030916
 20
6.028691
 30
0.0
 10
5.848773
 20
4.211745
 30
0.0
 10
5.848773
 20
2.872883
 30
0.0
  0
SPLINE
  5
3FF6
330
3FF4
100
AcDbEntity
  8
0
 62
     1
100
AcDbSpline
210
0.0
220
0.0
230
1.0
 70
     8
 71
     3
 72
     8
 73
     4
 74
     0
 42
0.0000001
 43
0.0000001
 40
0.0
 40
0.0
 40
0.0
 40
0.0
 40
1.0
 40
1.0
 40
1.0
 40
1.0
 10
5.848773
 20
2.872883
 30
0.0
 10
5.846516
 20
1.044929
 30
0.0
 10
8.393571
 20
-3.098375
 30
0.0
 10
8.823113
 20
-4.699422
 30
0.0
  0
SPLINE
  5
3FF7
330
3FF4
100
AcDbEntity
  8
0
 62
     1
100
AcDbSpline
210
0.0
220
0.0
230
1.0
 70
     8
 71
     3
 72
     8
 73
     4
 74
     0
 42
0.0000001
 43
0.0000001
 40
0.0
 40
0.0
 40
0.0
 40
0.0
 40
1.0
 40
1.0
 40
1.0
 40
1.0
 10
8.823113
 20
-4.699422
 30
0.0
 10
9.192542
 20
-6.073562
 30
0.0
 10
8.197144
 20
-7.722586
 30
0.0
 10
8.470336
 20
-7.797375
 30
0.0
  0
SPLINE
  5
3FF8
330
3FF4
100
AcDbEntity
  8
0
 62
     1
100
AcDbSpline
210
0.0
220
0.0
230
1.0
 70
     8
 71
     3
 72
     8
 73
     4
 74
     0
 42
0.0000001
 43
0.0000001
 40
0.0
 40
0.0
 40
0.0
 40
0.0
 40
1.0
 40
1.0
 40
1.0
 40
1.0
 10
8.470336
 20
-7.797375
 30
0.0
 10
8.720949
 20
-7.958806
 30
0.0
 10
11.09726
 20
-5.532824
 30
0.0
 10
11.190111
 20
-4.497351
 30
0.0
  0
SPLINE
  5
3FF9
330
3FF4
100
AcDbEntity
  8
0
 62
     1
100
AcDbSpline
210
0.0
220
0.0
230
1.0
 70
     8
 71
     3
 72
     8
 73
     4
 74
     0
 42
0.0000001
 43
0.0000001
 40
0.0
 40
0.0
 40
0.0
 40
0.0
 40
1.0
 40
1.0
 40
1.0
 40
1.0
 10
11.190111
 20
-4.497351
 30
0.0
 10
11.309209
 20
-2.850302
 30
0.0
 10
8.41502
 20
1.954814
 30
0.0
 10
8.184162
 20
3.196874
 30
0.0
  0
SPLINE
  5
3FFA
330
3FF4
100
AcDbEntity
  8
0
 62
     1
100
AcDbSpline
210
0.0
220
0.0
230
1.0
 70
     8
 71
     3
 72
     8
 73
     4
 74
     0
 42
0.0000001
 43
0.0000001
 40
0.0
 40
0.0
 40
0.0
 40
0.0
 40
1.0
 40
1.0
 40
1.0
 40
1.0
 10
8.184162
 20
3.196874
 30
0.0
 10
7.915204
 20
4.642134
 30
0.0
 10
8.394136
 20
5.910158
 30
0.0
 10
8.202224
 20
5.942614
 30
0.0
  0
SPLINE
  5
3FFB
330
3FF4
100
AcDbEntity
  8
0
 62
     1
100
AcDbSpline
210
0.0
220
0.0
230
1.0
 70
     8
 71
     3
 72
     8
 73
     4
 74
     0
 42
0.0000001
 43
0.0000001
 40
0.0
 40
0.0
 40
0.0
 40
0.0
 40
1.0
 40
1.0
 40
1.0
 40
1.0
 10
13.646573
 20
7.833503
 30
0.0
 10
13.428133
 20
7.943287
 30
0.0
 10
10.645422
 20
5.626525
 30
0.0
 10
10.645422
 20
3.91908
 30
0.0
  0
SPLINE
  5
3FFC
330
3FF4
100
AcDbEntity
  8
0
 62
     1
100
AcDbSpline
210
0.0
220
0.0
230
1.0
 70
     8
 71
     3
 72
     8
 73
     4
 74
     0
 42
0.0000001
 43
0.0000001
 40
0.0
 40
0.0
 40
0.0
 40
0.0
 40
1.0
 40
1.0
 40
1.0
 40
1.0
 10
10.645422
 20
3.91908
 30
0.0
 10
10.642318
 20
1.588489
 30
0.0
 10
13.890978
 20
-3.694993
 30
0.0
 10
14.438489
 20
-5.736589
 30
0.0
  0
SPLINE
  5
3FFD
330
3FF4
100
AcDbEntity
  8
0
 62
     1
100
AcDbSpline
210
0.0
220
0.0
230
1.0
 70
     8
 71
     3
 72
     8
 73
     4
 74
     0
 42
0.0000001
 43
0.0000001
 40
0.0
 40
0.0
 40
0.0
 40
0.0
 40
1.0
 40
1.0
 40
1.0
 40
1.0
 10
14.438489
 20
-5.736589
 30
0.0
 10
14.908671
 20
-7.489189
 30
0.0
 10
13.640364
 20
-9.591744
 30
0.0
 10
13.98778
 20
-9.686571
 30
0.0
  0
SPLINE
  5
3FFE
330
3FF4
100
AcDbEntity
  8
0
 62
     1
100
AcDbSpline
210
0.0
220
0.0
230
1.0
 70
     8
 71
     3
 72
     8
 73
     4
 74
     0
 42
0.0000001
 43
0.0000001
 40
0.0
 40
0.0
 40
0.0
 40
0.0
 40
1.0
 40
1.0
 40
1.0
 40
1.0
 10
13.98778
 20
-9.686571
 30
0.0
 10
14.308102
 20
-9.892593
 30
0.0
 10
17.337758
 20
-6.799437
 30
0.0
 10
17.456573
 20
-5.47892
 30
0.0
  0
SPLINE
  5
3FFF
330
3FF4
100
AcDbEntity
  8
0
 62
     1
100
AcDbSpline
210
0.0
220
0.0
230
1.0
 70
     8
 71
     3
 72
     8
 73
     4
 74
     0
 42
0.0000001
 43
0.0000001
 40
0.0
 40
0.0
 40
0.0
 40
0.0
 40
1.0
 40
1.0
 40
1.0
 40
1.0
 10
17.456573
 20
-5.47892
 30
0.0
 10
17.608973
 20
-3.378904
 30
0.0
 10
13.917507
 20
2.748423
 30
0.0
 10
13.623149
 20
4.332254
 30
0.0
  0
SPLINE
  5
4000
330
3FF4
100
AcDbEntity
  8
0
 62
     1
100
AcDbSpline
210
0.0
220
0.0
230
1.0
 70
     8
 71
     3
 72
     8
 73
     4
 74
     0
 42
0.0000001
 43
0.0000001
 40
0.0
 40
0.0
 40
0.0
 40
0.0
 40
1.0
 40
1.0
 40
1.0
 40
1.0
 10
13.623149
 20
4.332254
 30
0.0
 10
13.280531
 20
6.175729
 30
0.0
 10
13.890978
 20
7.792298
 30
0.0
 10
13.646573
 20
7.833503
 30
0.0
  0
LWPOLYLINE
  5
4001
330
3FF4
100
AcDbEntity
  8
0
 62
     1
100
AcDbPolyline
 90
        2
 70
     0
 43
0.0
 10
8.202224
 20
5.942614
 10
8.202224
 20
5.942614
  0
SPLINE
  5
4002
330
3FF4
100
AcDbEntity
  8
0
 62
     1
100
AcDbSpline
210
0.0
220
0.0
230
1.0
 70
     8
 71
     3
 72
     8
 73
     4
 74
     0
 42
0.0000001
 43
0.0000001
 40
0.0
 40
0.0
 40
0.0
 40
0.0
 40
1.0
 40
1.0
 40
1.0
 40
1.0
 10
19.266182
 20
5.942614
 30
0.0
 10
19.095156
 20
6.028691
 30
0.0
 10
16.913013
 20
4.211745
 30
0.0
 10
16.913013
 20
2.872883
 30
0.0
  0
SPLINE
  5
4003
330
3FF4
100
AcDbEntity
  8
0
 62
     1
100
AcDbSpline
210
0.0
220
0.0
230
1.0
 70
     8
 71
     3
 72
     8
 73
     4
 74
     0
 42
0.0000001
 43
0.0000001
 40
0.0
 40
0.0
 40
0.0
 40
0.0
 40
1.0
 40
1.0
 40
1.0
 40
1.0
 10
16.913013
 20
2.872883
 30
0.0
 10
16.910191
 20
1.044929
 30
0.0
 10
19.457529
 20
-3.098375
 30
0.0
 10
19.887353
 20
-4.699422
 30
0.0
  0
SPLINE
  5
4004
330
3FF4
100
AcDbEntity
  8
0
 62
     1
100
AcDbSpline
210
0.0
220
0.0
230
1.0
 70
     8
 71
     3
 72
     8
 73
     4
 74
     0
 42
0.0000001
 43
0.0000001
 40
0.0
 40
0.0
 40
0.0
 40
0.0
 40
1.0
 40
1.0
 40
1.0
 40
1.0
 10
19.887353
 20
-4.699422
 30
0.0
 10
20.256218
 20
-6.073562
 30
0.0
 10
19.261384
 20
-7.722586
 30
0.0
 10
19.534011
 20
-7.797375
 30
0.0
  0
SPLINE
  5
4005
330
3FF4
100
AcDbEntity
  8
0
 62
     1
100
AcDbSpline
210
0.0
220
0.0
230
1.0
 70
     8
 71
     3
 72
     8
 73
     4
 74
     0
 42
0.0000001
 43
0.0000001
 40
0.0
 40
0.0
 40
0.0
 40
0.0
 40
1.0
 40
1.0
 40
1.0
 40
1.0
 10
19.534011
 20
-7.797375
 30
0.0
 10
19.784907
 20
-7.958806
 30
0.0
 10
22.1615
 20
-5.532824
 30
0.0
 10
22.253787
 20
-4.497351
 30
0.0
  0
SPLINE
  5
4006
330
3FF4
100
AcDbEntity
  8
0
 62
     1
100
AcDbSpline
210
0.0
220
0.0
230
1.0
 70
     8
 71
     3
 72
     8
 73
     4
 74
     0
 42
0.0000001
 43
0.0000001
 40
0.0
 40
0.0
 40
0.0
 40
0.0
 40
1.0
 40
1.0
 40
1.0
 40
1.0
 10
22.253787
 20
-4.497351
 30
0.0
 10
22.373449
 20
-2.850302
 30
0.0
 10
19.478696
 20
1.954814
 30
0.0
 10
19.24812
 20
3.196874
 30
0.0
  0
SPLINE
  5
4007
330
3FF4
100
AcDbEntity
  8
0
 62
     1
100
AcDbSpline
210
0.0
220
0.0
230
1.0
 70
     8
 71
     3
 72
     8
 73
     4
 74
     0
 42
0.0000001
 43
0.0000001
 40
0.0
 40
0.0
 40
0.0
 40
0.0
 40
1.0
 40
1.0
 40
1.0
 40
1.0
 10
19.24812
 20
3.196874
 30
0.0
 10
18.979162
 20
4.642134
 30
0.0
 10
19.458093
 20
5.910158
 30
0.0
 10
19.266182
 20
5.942614
 30
0.0
  0
LWPOLYLINE
  5
4008
330
3FF4
100
AcDbEntity
  8
0
 62
     1
100
AcDbPolyline
 90
        2
 70
     0
 43
0.0
 10
13.646573
 20
7.833503
 10
13.646573
 20
7.833503
  0
LWPOLYLINE
  5
4009
330
3FF4
100
AcDbEntity
  8
0
 62
     1
100
AcDbPolyline
 90
        2
 70
     0
 43
0.0
 10
19.266182
 20
5.942614
 10
19.266182
 20
5.942614
  0
ENDBLK
  5
402F
330
3FF4
100
AcDbEntity
  8
0
100
AcDbBlockEnd
  0
BLOCK
  5
4070
330
4036
100
AcDbEntity
  8
0
100
AcDbBlockBegin
  2
umidita
 70
     0
 10
0.0
 20
0.0
 30
0.0
  3
umidita
  1

  0
SPLINE
  5
4037
330
4036
100
AcDbEntity
  8
0
 62
     7
100
AcDbSpline
210
0.0
220
0.0
230
1.0
 70
     8
 71
     3
 72
     8
 73
     4
 74
     0
 42
0.0000001
 43
0.0000001
 40
0.0
 40
0.0
 40
0.0
 40
0.0
 40
1.0
 40
1.0
 40
1.0
 40
1.0
 10
3.906839
 20
1.293357
 30
0.0
 10
3.677393
 20
1.293357
 30
0.0
 10
3.452744
 20
1.404835
 30
0.0
 10
3.317277
 20
1.610575
 30
0.0
  0
SPLINE
  5
4038
330
4036
100
AcDbEntity
  8
0
 62
     7
100
AcDbSpline
210
0.0
220
0.0
230
1.0
 70
     8
 71
     3
 72
     8
 73
     4
 74
     0
 42
0.0000001
 43
0.0000001
 40
0.0
 40
0.0
 40
0.0
 40
0.0
 40
1.0
 40
1.0
 40
1.0
 40
1.0
 10
3.317277
 20
1.610575
 30
0.0
 10
2.708241
 20
2.534006
 30
0.0
 10
2.386226
 20
3.606733
 30
0.0
 10
2.386226
 20
4.712197
 30
0.0
  0
SPLINE
  5
4039
330
4036
100
AcDbEntity
  8
0
 62
     7
100
AcDbSpline
210
0.0
220
0.0
230
1.0
 70
     8
 71
     3
 72
     8
 73
     4
 74
     0
 42
0.0000001
 43
0.0000001
 40
0.0
 40
0.0
 40
0.0
 40
0.0
 40
1.0
 40
1.0
 40
1.0
 40
1.0
 10
2.386226
 20
4.712197
 30
0.0
 10
2.386226
 20
6.842975
 30
0.0
 10
3.247004
 20
8.231508
 30
0.0
 10
4.286993
 20
9.699064
 30
0.0
  0
SPLINE
  5
403A
330
4036
100
AcDbEntity
  8
0
 62
     7
100
AcDbSpline
210
0.0
220
0.0
230
1.0
 70
     8
 71
     3
 72
     8
 73
     4
 74
     0
 42
0.0000001
 43
0.0000001
 40
0.0
 40
0.0
 40
0.0
 40
0.0
 40
1.0
 40
1.0
 40
1.0
 40
1.0
 10
4.286993
 20
9.699064
 30
0.0
 10
4.512488
 20
10.016846
 30
0.0
 10
4.952755
 20
10.092482
 30
0.0
 10
5.270537
 20
9.866986
 30
0.0
  0
SPLINE
  5
403B
330
4036
100
AcDbEntity
  8
0
 62
     7
100
AcDbSpline
210
0.0
220
0.0
230
1.0
 70
     8
 71
     3
 72
     8
 73
     4
 74
     0
 42
0.0000001
 43
0.0000001
 40
0.0
 40
0.0
 40
0.0
 40
0.0
 40
1.0
 40
1.0
 40
1.0
 40
1.0
 10
5.270537
 20
9.866986
 30
0.0
 10
5.588319
 20
9.641773
 30
0.0
 10
5.663673
 20
9.201224
 30
0.0
 10
5.438459
 20
8.883442
 30
0.0
  0
SPLINE
  5
403C
330
4036
100
AcDbEntity
  8
0
 62
     7
100
AcDbSpline
210
0.0
220
0.0
230
1.0
 70
     8
 71
     3
 72
     8
 73
     4
 74
     0
 42
0.0000001
 43
0.0000001
 40
0.0
 40
0.0
 40
0.0
 40
0.0
 40
1.0
 40
1.0
 40
1.0
 40
1.0
 10
5.438459
 20
8.883442
 30
0.0
 10
4.508537
 20
7.571108
 30
0.0
 10
3.797337
 20
6.430648
 30
0.0
 10
3.797337
 20
4.712197
 30
0.0
  0
SPLINE
  5
403D
330
4036
100
AcDbEntity
  8
0
 62
     7
100
AcDbSpline
210
0.0
220
0.0
230
1.0
 70
     8
 71
     3
 72
     8
 73
     4
 74
     0
 42
0.0000001
 43
0.0000001
 40
0.0
 40
0.0
 40
0.0
 40
0.0
 40
1.0
 40
1.0
 40
1.0
 40
1.0
 10
3.797337
 20
4.712197
 30
0.0
 10
3.797337
 20
3.883311
 30
0.0
 10
4.038637
 20
3.079542
 30
0.0
 10
4.495273
 20
2.387251
 30
0.0
  0
SPLINE
  5
403E
330
4036
100
AcDbEntity
  8
0
 62
     7
100
AcDbSpline
210
0.0
220
0.0
230
1.0
 70
     8
 71
     3
 72
     8
 73
     4
 74
     0
 42
0.0000001
 43
0.0000001
 40
0.0
 40
0.0
 40
0.0
 40
0.0
 40
1.0
 40
1.0
 40
1.0
 40
1.0
 10
4.495273
 20
2.387251
 30
0.0
 10
4.709761
 20
2.062131
 30
0.0
 10
4.620015
 20
1.624404
 30
0.0
 10
4.294895
 20
1.409915
 30
0.0
  0
SPLINE
  5
403F
330
4036
100
AcDbEntity
  8
0
 62
     7
100
AcDbSpline
210
0.0
220
0.0
230
1.0
 70
     8
 71
     3
 72
     8
 73
     4
 74
     0
 42
0.0000001
 43
0.0000001
 40
0.0
 40
0.0
 40
0.0
 40
0.0
 40
1.0
 40
1.0
 40
1.0
 40
1.0
 10
4.294895
 20
1.409915
 30
0.0
 10
4.17495
 20
1.331175
 30
0.0
 10
4.040048
 20
1.293357
 30
0.0
 10
3.906839
 20
1.293357
 30
0.0
  0
SPLINE
  5
4040
330
4036
100
AcDbEntity
  8
0
 62
     1
100
AcDbSpline
210
0.0
220
0.0
230
1.0
 70
     8
 71
     3
 72
     8
 73
     4
 74
     0
 42
0.0000001
 43
0.0000001
 40
0.0
 40
0.0
 40
0.0
 40
0.0
 40
1.0
 40
1.0
 40
1.0
 40
1.0
 10
7.787243
 20
18.334217
 30
0.0
 10
9.028174
 20
15.977662
 30
0.0
 10
10.339096
 20
14.153942
 30
0.0
 10
11.450205
 20
12.608493
 30
0.0
  0
SPLINE
  5
4041
330
4036
100
AcDbEntity
  8
0
 62
     1
100
AcDbSpline
210
0.0
220
0.0
230
1.0
 70
     8
 71
     3
 72
     8
 73
     4
 74
     0
 42
0.0000001
 43
0.0000001
 40
0.0
 40
0.0
 40
0.0
 40
0.0
 40
1.0
 40
1.0
 40
1.0
 40
1.0
 10
11.450205
 20
12.608493
 30
0.0
 10
13.419834
 20
9.868679
 30
0.0
 10
14.842798
 20
7.889173
 30
0.0
 10
14.842798
 20
4.712197
 30
0.0
  0
SPLINE
  5
4042
330
4036
100
AcDbEntity
  8
0
 62
     1
100
AcDbSpline
210
0.0
220
0.0
230
1.0
 70
     8
 71
     3
 72
     8
 73
     4
 74
     0
 42
0.0000001
 43
0.0000001
 40
0.0
 40
0.0
 40
0.0
 40
0.0
 40
1.0
 40
1.0
 40
1.0
 40
1.0
 10
14.842798
 20
4.712197
 30
0.0
 10
14.842798
 20
0.821764
 30
0.0
 10
11.677676
 20
-2.343358
 30
0.0
 10
7.787243
 20
-2.343358
 30
0.0
  0
SPLINE
  5
4043
330
4036
100
AcDbEntity
  8
0
 62
     1
100
AcDbSpline
210
0.0
220
0.0
230
1.0
 70
     8
 71
     3
 72
     8
 73
     4
 74
     0
 42
0.0000001
 43
0.0000001
 40
0.0
 40
0.0
 40
0.0
 40
0.0
 40
1.0
 40
1.0
 40
1.0
 40
1.0
 10
7.787243
 20
-2.343358
 30
0.0
 10
3.896809
 20
-2.343358
 30
0.0
 10
0.731687
 20
0.821764
 30
0.0
 10
0.731687
 20
4.712197
 30
0.0
  0
SPLINE
  5
4044
330
4036
100
AcDbEntity
  8
0
 62
     1
100
AcDbSpline
210
0.0
220
0.0
230
1.0
 70
     8
 71
     3
 72
     8
 73
     4
 74
     0
 42
0.0000001
 43
0.0000001
 40
0.0
 40
0.0
 40
0.0
 40
0.0
 40
1.0
 40
1.0
 40
1.0
 40
1.0
 10
0.731687
 20
4.712197
 30
0.0
 10
0.731687
 20
7.889173
 30
0.0
 10
2.154652
 20
9.868679
 30
0.0
 10
4.12428
 20
12.608493
 30
0.0
  0
SPLINE
  5
4045
330
4036
100
AcDbEntity
  8
0
 62
     1
100
AcDbSpline
210
0.0
220
0.0
230
1.0
 70
     8
 71
     3
 72
     8
 73
     4
 74
     0
 42
0.0000001
 43
0.0000001
 40
0.0
 40
0.0
 40
0.0
 40
0.0
 40
1.0
 40
1.0
 40
1.0
 40
1.0
 10
4.12428
 20
12.608493
 30
0.0
 10
5.235389
 20
14.154224
 30
0.0
 10
6.546312
 20
15.977662
 30
0.0
 10
7.787243
 20
18.334217
 30
0.0
  0
SPLINE
  5
4046
330
4036
100
AcDbEntity
  8
0
 62
     1
100
AcDbSpline
210
0.0
220
0.0
230
1.0
 70
     8
 71
     3
 72
     8
 73
     4
 74
     0
 42
0.0000001
 43
0.0000001
 40
0.0
 40
0.0
 40
0.0
 40
0.0
 40
1.0
 40
1.0
 40
1.0
 40
1.0
 10
7.787243
 20
21.645531
 30
0.0
 10
4.259465
 20
13.178864
 30
0.0
 10
-0.679424
 20
11.062197
 30
0.0
 10
-0.679424
 20
4.712197
 30
0.0
  0
SPLINE
  5
4047
330
4036
100
AcDbEntity
  8
0
 62
     1
100
AcDbSpline
210
0.0
220
0.0
230
1.0
 70
     8
 71
     3
 72
     8
 73
     4
 74
     0
 42
0.0000001
 43
0.0000001
 40
0.0
 40
0.0
 40
0.0
 40
0.0
 40
1.0
 40
1.0
 40
1.0
 40
1.0
 10
-0.679424
 20
4.712197
 30
0.0
 10
-0.679424
 20
0.036339
 30
0.0
 10
3.111103
 20
-3.754469
 30
0.0
 10
7.787243
 20
-3.754469
 30
0.0
  0
SPLINE
  5
4048
330
4036
100
AcDbEntity
  8
0
 62
     1
100
AcDbSpline
210
0.0
220
0.0
230
1.0
 70
     8
 71
     3
 72
     8
 73
     4
 74
     0
 42
0.0000001
 43
0.0000001
 40
0.0
 40
0.0
 40
0.0
 40
0.0
 40
1.0
 40
1.0
 40
1.0
 40
1.0
 10
7.787243
 20
-3.754469
 30
0.0
 10
12.4631
 20
-3.754469
 30
0.0
 10
16.253909
 20
0.036339
 30
0.0
 10
16.253909
 20
4.712197
 30
0.0
  0
SPLINE
  5
4049
330
4036
100
AcDbEntity
  8
0
 62
     1
100
AcDbSpline
210
0.0
220
0.0
230
1.0
 70
     8
 71
     3
 72
     8
 73
     4
 74
     0
 42
0.0000001
 43
0.0000001
 40
0.0
 40
0.0
 40
0.0
 40
0.0
 40
1.0
 40
1.0
 40
1.0
 40
1.0
 10
16.253909
 20
4.712197
 30
0.0
 10
16.253909
 20
11.062197
 30
0.0
 10
11.31502
 20
13.178864
 30
0.0
 10
7.787243
 20
21.645531
 30
0.0
  0
LWPOLYLINE
  5
404A
330
4036
100
AcDbEntity
  8
0
 62
     7
100
AcDbPolyline
 90
        2
 70
     0
 43
0.0
 10
3.906839
 20
1.293357
 10
3.906839
 20
1.293357
  0
LWPOLYLINE
  5
404B
330
4036
100
AcDbEntity
  8
0
 62
     1
100
AcDbPolyline
 90
        3
 70
     0
 43
0.0
 10
7.787243
 20
21.645531
 10
7.787243
 20
21.645531
 10
7.787243
 20
21.645531
  0
ENDBLK
  5
4071
330
4036
100
AcDbEntity
  8
0
100
AcDbBlockEnd
  0
BLOCK
  5
4168
330
40FE
100
AcDbEntity
  8
0
100
AcDbBlockBegin
  2
luci
 70
     0
 10
0.0
 20
0.0
 30
0.0
  3
luci
  1

  0
SPLINE
  5
40FF
330
40FE
100
AcDbEntity
  8
0
 62
     1
100
AcDbSpline
210
0.0
220
0.0
230
1.0
 70
     8
 71
     3
 72
     8
 73
     4
 74
     0
 42
0.0000001
 43
0.0000001
 40
0.0
 40
0.0
 40
0.0
 40
0.0
 40
1.0
 40
1.0
 40
1.0
 40
1.0
 10
6.63702
 20
19.459787
 30
0.0
 10
6.684433
 20
19.525544
 30
0.0
 10
6.73862
 20
19.58848
 30
0.0
 10
6.788291
 20
19.653956
 30
0.0
  0
LWPOLYLINE
  5
4100
330
40FE
100
AcDbEntity
  8
0
 62
     1
100
AcDbPolyline
 90
        2
 70
     0
 43
0.0
 10
6.410396
 20
19.142569
 10
6.63702
 20
19.459787
  0
SPLINE
  5
4101
330
40FE
100
AcDbEntity
  8
0
 62
     1
100
AcDbSpline
210
0.0
220
0.0
230
1.0
 70
     8
 71
     3
 72
     8
 73
     4
 74
     0
 42
0.0000001
 43
0.0000001
 40
0.0
 40
0.0
 40
0.0
 40
0.0
 40
1.0
 40
1.0
 40
1.0
 40
1.0
 10
7.058378
 20
19.950289
 30
0.0
 10
7.402124
 20
20.363462
 30
0.0
 10
7.793849
 20
20.763936
 30
0.0
 10
8.202507
 20
21.108529
 30
0.0
  0
LWPOLYLINE
  5
4102
330
40FE
100
AcDbEntity
  8
0
 62
     1
100
AcDbPolyline
 90
        3
 70
     0
 43
0.0
 10
6.788291
 20
19.653956
 10
6.795911
 20
19.636176
 10
7.058378
 20
19.950289
  0
SPLINE
  5
4103
330
40FE
100
AcDbEntity
  8
0
 62
     1
100
AcDbSpline
210
0.0
220
0.0
230
1.0
 70
     8
 71
     3
 72
     8
 73
     4
 74
     0
 42
0.0000001
 43
0.0000001
 40
0.0
 40
0.0
 40
0.0
 40
0.0
 40
1.0
 40
1.0
 40
1.0
 40
1.0
 10
8.501944
 20
21.381156
 30
0.0
 10
8.558953
 20
21.423771
 30
0.0
 10
8.612858
 20
21.472596
 30
0.0
 10
8.670713
 20
21.514929
 30
0.0
  0
LWPOLYLINE
  5
4104
330
40FE
100
AcDbEntity
  8
0
 62
     1
100
AcDbPolyline
 90
        3
 70
     0
 43
0.0
 10
8.202507
 20
21.108529
 10
8.516902
 20
21.373818
 10
8.501944
 20
21.381156
  0
SPLINE
  5
4105
330
40FE
100
AcDbEntity
  8
0
 62
     1
100
AcDbSpline
210
0.0
220
0.0
230
1.0
 70
     8
 71
     3
 72
     8
 73
     4
 74
     0
 42
0.0000001
 43
0.0000001
 40
0.0
 40
0.0
 40
0.0
 40
0.0
 40
1.0
 40
1.0
 40
1.0
 40
1.0
 10
5.036538
 20
12.684478
 30
0.0
 10
5.024684
 20
12.759831
 30
0.0
 10
5.019604
 20
12.837442
 30
0.0
 10
5.009444
 20
12.913642
 30
0.0
  0
LWPOLYLINE
  5
4106
330
40FE
100
AcDbEntity
  8
0
 62
     1
100
AcDbPolyline
 90
        6
 70
     0
 43
0.0
 10
8.670713
 20
21.514929
 10
8.981158
 20
21.7424
 10
4.102664
 20
24.09952
 10
4.375009
 20
23.515038
 10
6.410396
 20
19.142569
 10
6.410396
 20
19.142569
  0
SPLINE
  5
4107
330
40FE
100
AcDbEntity
  8
0
 62
     1
100
AcDbSpline
210
0.0
220
0.0
230
1.0
 70
     8
 71
     3
 72
     8
 73
     4
 74
     0
 42
0.0000001
 43
0.0000001
 40
0.0
 40
0.0
 40
0.0
 40
0.0
 40
1.0
 40
1.0
 40
1.0
 40
1.0
 10
4.994769
 20
13.315527
 30
0.0
 10
4.971909
 20
13.580251
 30
0.0
 10
4.95808
 20
13.84554
 30
0.0
 10
4.95808
 20
14.111111
 30
0.0
  0
SPLINE
  5
4108
330
40FE
100
AcDbEntity
  8
0
 62
     1
100
AcDbSpline
210
0.0
220
0.0
230
1.0
 70
     8
 71
     3
 72
     8
 73
     4
 74
     0
 42
0.0000001
 43
0.0000001
 40
0.0
 40
0.0
 40
0.0
 40
0.0
 40
1.0
 40
1.0
 40
1.0
 40
1.0
 10
4.95808
 20
14.111111
 30
0.0
 10
4.95808
 20
14.392769
 30
0.0
 10
4.97078
 20
14.67104
 30
0.0
 10
4.994769
 20
14.945924
 30
0.0
  0
LWPOLYLINE
  5
4109
330
40FE
100
AcDbEntity
  8
0
 62
     1
100
AcDbPolyline
 90
        3
 70
     0
 43
0.0
 10
5.009444
 20
12.913642
 10
5.030893
 20
12.906587
 10
4.994769
 20
13.315527
  0
SPLINE
  5
410A
330
40FE
100
AcDbEntity
  8
0
 62
     1
100
AcDbSpline
210
0.0
220
0.0
230
1.0
 70
     8
 71
     3
 72
     8
 73
     4
 74
     0
 42
0.0000001
 43
0.0000001
 40
0.0
 40
0.0
 40
0.0
 40
0.0
 40
1.0
 40
1.0
 40
1.0
 40
1.0
 10
5.010009
 20
15.348656
 30
0.0
 10
5.019887
 20
15.425702
 30
0.0
 10
5.024684
 20
15.502467
 30
0.0
 10
5.036538
 20
15.57782
 30
0.0
  0
LWPOLYLINE
  5
410B
330
40FE
100
AcDbEntity
  8
0
 62
     1
100
AcDbPolyline
 90
        3
 70
     0
 43
0.0
 10
4.994769
 20
14.945924
 10
5.032022
 20
15.357687
 10
5.010009
 20
15.348656
  0
LWPOLYLINE
  5
410C
330
40FE
100
AcDbEntity
  8
0
 62
     1
100
AcDbPolyline
 90
        7
 70
     0
 43
0.0
 10
5.036538
 20
15.57782
 10
5.09778
 20
15.96136
 10
4.735971
 20
15.831538
 10
0.0
 20
14.131149
 10
5.096369
 20
12.302349
 10
5.036538
 20
12.684478
 10
5.036538
 20
12.684478
  0
SPLINE
  5
410D
330
40FE
100
AcDbEntity
  8
0
 62
     1
100
AcDbSpline
210
0.0
220
0.0
230
1.0
 70
     8
 71
     3
 72
     8
 73
     4
 74
     0
 42
0.0000001
 43
0.0000001
 40
0.0
 40
0.0
 40
0.0
 40
0.0
 40
1.0
 40
1.0
 40
1.0
 40
1.0
 10
13.153531
 20
23.17496
 30
0.0
 10
13.421078
 20
23.198102
 30
0.0
 10
13.689471
 20
23.211931
 30
0.0
 10
13.960404
 20
23.211931
 30
0.0
  0
SPLINE
  5
410E
330
40FE
100
AcDbEntity
  8
0
 62
     1
100
AcDbSpline
210
0.0
220
0.0
230
1.0
 70
     8
 71
     3
 72
     8
 73
     4
 74
     0
 42
0.0000001
 43
0.0000001
 40
0.0
 40
0.0
 40
0.0
 40
0.0
 40
1.0
 40
1.0
 40
1.0
 40
1.0
 10
13.960404
 20
23.211931
 30
0.0
 10
14.231338
 20
23.211931
 30
0.0
 10
14.500013
 20
23.198102
 30
0.0
 10
14.76756
 20
23.17496
 30
0.0
  0
LWPOLYLINE
  5
410F
330
40FE
100
AcDbEntity
  8
0
 62
     1
100
AcDbPolyline
 90
        3
 70
     0
 43
0.0
 10
12.756444
 20
23.160284
 10
12.748824
 20
23.137424
 10
13.153531
 20
23.17496
  0
SPLINE
  5
4110
330
40FE
100
AcDbEntity
  8
0
 62
     1
100
AcDbSpline
210
0.0
220
0.0
230
1.0
 70
     8
 71
     3
 72
     8
 73
     4
 74
     0
 42
0.0000001
 43
0.0000001
 40
0.0
 40
0.0
 40
0.0
 40
0.0
 40
1.0
 40
1.0
 40
1.0
 40
1.0
 10
15.164082
 20
23.160284
 30
0.0
 10
15.24
 20
23.149842
 30
0.0
 10
15.317047
 20
23.145044
 30
0.0
 10
15.392118
 20
23.132627
 30
0.0
  0
LWPOLYLINE
  5
4111
330
40FE
100
AcDbEntity
  8
0
 62
     1
100
AcDbPolyline
 90
        3
 70
     0
 43
0.0
 10
14.76756
 20
23.17496
 10
15.171984
 20
23.137424
 10
15.164082
 20
23.160284
  0
SPLINE
  5
4112
330
40FE
100
AcDbEntity
  8
0
 62
     1
100
AcDbSpline
210
0.0
220
0.0
230
1.0
 70
     8
 71
     3
 72
     8
 73
     4
 74
     0
 42
0.0000001
 43
0.0000001
 40
0.0
 40
0.0
 40
0.0
 40
0.0
 40
1.0
 40
1.0
 40
1.0
 40
1.0
 10
12.528973
 20
23.132909
 30
0.0
 10
12.604044
 20
23.145044
 30
0.0
 10
12.681091
 20
23.149842
 30
0.0
 10
12.756444
 20
23.160284
 30
0.0
  0
LWPOLYLINE
  5
4113
330
40FE
100
AcDbEntity
  8
0
 62
     1
100
AcDbPolyline
 90
        6
 70
     0
 43
0.0
 10
15.392118
 20
23.132627
 10
15.770013
 20
23.07082
 10
13.960122
 20
28.222222
 10
13.745916
 20
27.611776
 10
12.149667
 20
23.071102
 10
12.528973
 20
23.132909
  0
LWPOLYLINE
  5
4114
330
40FE
100
AcDbEntity
  8
0
 62
     1
100
AcDbPolyline
 90
        2
 70
     0
 43
0.0
 10
12.756444
 20
23.160284
 10
12.756444
 20
23.160284
  0
SPLINE
  5
4115
330
40FE
100
AcDbEntity
  8
0
 62
     1
100
AcDbSpline
210
0.0
220
0.0
230
1.0
 70
     8
 71
     3
 72
     8
 73
     4
 74
     0
 42
0.0000001
 43
0.0000001
 40
0.0
 40
0.0
 40
0.0
 40
0.0
 40
1.0
 40
1.0
 40
1.0
 40
1.0
 10
19.498451
 20
21.310882
 30
0.0
 10
19.650851
 20
21.190656
 30
0.0
 10
19.789422
 20
21.055189
 30
0.0
 10
19.933356
 20
20.925367
 30
0.0
  0
SPLINE
  5
4116
330
40FE
100
AcDbEntity
  8
0
 62
     1
100
AcDbSpline
210
0.0
220
0.0
230
1.0
 70
     8
 71
     3
 72
     8
 73
     4
 74
     0
 42
0.0000001
 43
0.0000001
 40
0.0
 40
0.0
 40
0.0
 40
0.0
 40
1.0
 40
1.0
 40
1.0
 40
1.0
 10
19.933356
 20
20.925367
 30
0.0
 10
20.197516
 20
20.688864
 30
0.0
 10
20.447847
 20
20.435711
 30
0.0
 10
20.68322
 20
20.17014
 30
0.0
  0
SPLINE
  5
4117
330
40FE
100
AcDbEntity
  8
0
 62
     1
100
AcDbSpline
210
0.0
220
0.0
230
1.0
 70
     8
 71
     3
 72
     8
 73
     4
 74
     0
 42
0.0000001
 43
0.0000001
 40
0.0
 40
0.0
 40
0.0
 40
0.0
 40
1.0
 40
1.0
 40
1.0
 40
1.0
 10
20.68322
 20
20.17014
 30
0.0
 10
20.806551
 20
20.031287
 30
0.0
 10
20.932987
 20
19.896102
 30
0.0
 10
21.047287
 20
19.749629
 30
0.0
  0
LWPOLYLINE
  5
4118
330
40FE
100
AcDbEntity
  8
0
 62
     1
100
AcDbPolyline
 90
        3
 70
     0
 43
0.0
 10
19.426202
 20
21.373818
 10
19.424227
 20
21.373818
 10
19.498451
 20
21.310882
  0
SPLINE
  5
4119
330
40FE
100
AcDbEntity
  8
0
 62
     1
100
AcDbSpline
210
0.0
220
0.0
230
1.0
 70
     8
 71
     3
 72
     8
 73
     4
 74
     0
 42
0.0000001
 43
0.0000001
 40
0.0
 40
0.0
 40
0.0
 40
0.0
 40
1.0
 40
1.0
 40
1.0
 40
1.0
 10
21.144089
 20
19.637022
 30
0.0
 10
21.189809
 20
19.577473
 30
0.0
 10
21.239198
 20
19.520747
 30
0.0
 10
21.283224
 20
19.459222
 30
0.0
  0
LWPOLYLINE
  5
411A
330
40FE
100
AcDbEntity
  8
0
 62
     1
100
AcDbPolyline
 90
        3
 70
     0
 43
0.0
 10
21.047287
 20
19.749629
 10
21.142396
 20
19.633636
 10
21.144089
 20
19.637022
  0
SPLINE
  5
411B
330
40FE
100
AcDbEntity
  8
0
 62
     1
100
AcDbSpline
210
0.0
220
0.0
230
1.0
 70
     8
 71
     3
 72
     8
 73
     4
 74
     0
 42
0.0000001
 43
0.0000001
 40
0.0
 40
0.0
 40
0.0
 40
0.0
 40
1.0
 40
1.0
 40
1.0
 40
1.0
 10
19.250096
 20
21.514364
 30
0.0
 10
19.310773
 20
21.47062
 30
0.0
 10
19.367218
 20
21.420384
 30
0.0
 10
19.426202
 20
21.373818
 30
0.0
  0
LWPOLYLINE
  5
411C
330
40FE
100
AcDbEntity
  8
0
 62
     1
100
AcDbPolyline
 90
        6
 70
     0
 43
0.0
 10
21.283224
 20
19.459222
 10
21.507591
 20
19.143698
 10
23.841569
 20
24.101778
 10
23.261038
 20
23.820967
 10
18.939651
 20
21.740424
 10
19.250096
 20
21.514364
  0
LWPOLYLINE
  5
411D
330
40FE
100
AcDbEntity
  8
0
 62
     1
100
AcDbPolyline
 90
        2
 70
     0
 43
0.0
 10
19.426202
 20
21.373818
 10
19.426202
 20
21.373818
  0
SPLINE
  5
411E
330
40FE
100
AcDbEntity
  8
0
 62
     1
100
AcDbSpline
210
0.0
220
0.0
230
1.0
 70
     8
 71
     3
 72
     8
 73
     4
 74
     0
 42
0.0000001
 43
0.0000001
 40
0.0
 40
0.0
 40
0.0
 40
0.0
 40
1.0
 40
1.0
 40
1.0
 40
1.0
 10
22.883989
 20
15.558347
 30
0.0
 10
22.895278
 20
15.482993
 30
0.0
 10
22.901204
 20
15.405382
 30
0.0
 10
22.911082
 20
15.329182
 30
0.0
  0
LWPOLYLINE
  5
411F
330
40FE
100
AcDbEntity
  8
0
 62
     1
100
AcDbPolyline
 90
        4
 70
     0
 43
0.0
 10
22.822464
 20
12.282593
 10
27.920809
 20
14.113087
 10
22.822464
 20
15.940476
 10
22.883989
 20
15.558347
  0
SPLINE
  5
4120
330
40FE
100
AcDbEntity
  8
0
 62
     1
100
AcDbSpline
210
0.0
220
0.0
230
1.0
 70
     8
 71
     3
 72
     8
 73
     4
 74
     0
 42
0.0000001
 43
0.0000001
 40
0.0
 40
0.0
 40
0.0
 40
0.0
 40
1.0
 40
1.0
 40
1.0
 40
1.0
 10
22.92604
 20
14.926451
 30
0.0
 10
22.948618
 20
14.656647
 30
0.0
 10
22.962729
 20
14.384867
 30
0.0
 10
22.962729
 20
14.110829
 30
0.0
  0
SPLINE
  5
4121
330
40FE
100
AcDbEntity
  8
0
 62
     1
100
AcDbSpline
210
0.0
220
0.0
230
1.0
 70
     8
 71
     3
 72
     8
 73
     4
 74
     0
 42
0.0000001
 43
0.0000001
 40
0.0
 40
0.0
 40
0.0
 40
0.0
 40
1.0
 40
1.0
 40
1.0
 40
1.0
 10
22.962729
 20
14.110829
 30
0.0
 10
22.962729
 20
13.837638
 30
0.0
 10
22.948618
 20
13.565576
 30
0.0
 10
22.92604
 20
13.296053
 30
0.0
  0
LWPOLYLINE
  5
4122
330
40FE
100
AcDbEntity
  8
0
 62
     1
100
AcDbPolyline
 90
        3
 70
     0
 43
0.0
 10
22.911082
 20
15.329182
 10
22.889069
 20
15.338213
 10
22.92604
 20
14.926451
  0
SPLINE
  5
4123
330
40FE
100
AcDbEntity
  8
0
 62
     1
100
AcDbSpline
210
0.0
220
0.0
230
1.0
 70
     8
 71
     3
 72
     8
 73
     4
 74
     0
 42
0.0000001
 43
0.0000001
 40
0.0
 40
0.0
 40
0.0
 40
0.0
 40
1.0
 40
1.0
 40
1.0
 40
1.0
 10
22.911082
 20
12.893322
 30
0.0
 10
22.901204
 20
12.81684
 30
0.0
 10
22.895278
 20
12.739511
 30
0.0
 10
22.883989
 20
12.664158
 30
0.0
  0
LWPOLYLINE
  5
4124
330
40FE
100
AcDbEntity
  8
0
 62
     1
100
AcDbPolyline
 90
        3
 70
     0
 43
0.0
 10
22.92604
 20
13.296053
 10
22.889069
 20
12.885138
 10
22.911082
 20
12.893322
  0
LWPOLYLINE
  5
4125
330
40FE
100
AcDbEntity
  8
0
 62
     1
100
AcDbPolyline
 90
        3
 70
     0
 43
0.0
 10
22.883989
 20
12.664158
 10
22.822464
 20
12.282593
 10
22.822464
 20
12.282593
  0
SPLINE
  5
4126
330
40FE
100
AcDbEntity
  8
0
 62
     1
100
AcDbSpline
210
0.0
220
0.0
230
1.0
 70
     8
 71
     3
 72
     8
 73
     4
 74
     0
 42
0.0000001
 43
0.0000001
 40
0.0
 40
0.0
 40
0.0
 40
0.0
 40
1.0
 40
1.0
 40
1.0
 40
1.0
 10
14.766996
 20
5.047827
 30
0.0
 10
14.499449
 20
5.024684
 30
0.0
 10
14.231056
 20
5.010573
 30
0.0
 10
13.95984
 20
5.010573
 30
0.0
  0
SPLINE
  5
4127
330
40FE
100
AcDbEntity
  8
0
 62
     1
100
AcDbSpline
210
0.0
220
0.0
230
1.0
 70
     8
 71
     3
 72
     8
 73
     4
 74
     0
 42
0.0000001
 43
0.0000001
 40
0.0
 40
0.0
 40
0.0
 40
0.0
 40
1.0
 40
1.0
 40
1.0
 40
1.0
 10
13.95984
 20
5.010573
 30
0.0
 10
13.688907
 20
5.010573
 30
0.0
 10
13.420513
 20
5.024684
 30
0.0
 10
13.152967
 20
5.047827
 30
0.0
  0
LWPOLYLINE
  5
4128
330
40FE
100
AcDbEntity
  8
0
 62
     1
100
AcDbPolyline
 90
        3
 70
     0
 43
0.0
 10
15.164929
 20
5.062502
 10
15.172831
 20
5.085362
 10
14.766996
 20
5.047827
  0
SPLINE
  5
4129
330
40FE
100
AcDbEntity
  8
0
 62
     1
100
AcDbSpline
210
0.0
220
0.0
230
1.0
 70
     8
 71
     3
 72
     8
 73
     4
 74
     0
 42
0.0000001
 43
0.0000001
 40
0.0
 40
0.0
 40
0.0
 40
0.0
 40
1.0
 40
1.0
 40
1.0
 40
1.0
 10
12.755316
 20
5.062502
 30
0.0
 10
12.679962
 20
5.073509
 30
0.0
 10
12.603198
 20
5.078871
 30
0.0
 10
12.528973
 20
5.090724
 30
0.0
  0
LWPOLYLINE
  5
412A
330
40FE
100
AcDbEntity
  8
0
 62
     1
100
AcDbPolyline
 90
        3
 70
     0
 43
0.0
 10
13.152967
 20
5.047827
 10
12.747131
 20
5.085362
 10
12.755316
 20
5.062502
  0
SPLINE
  5
412B
330
40FE
100
AcDbEntity
  8
0
 62
     1
100
AcDbSpline
210
0.0
220
0.0
230
1.0
 70
     8
 71
     3
 72
     8
 73
     4
 74
     0
 42
0.0000001
 43
0.0000001
 40
0.0
 40
0.0
 40
0.0
 40
0.0
 40
1.0
 40
1.0
 40
1.0
 40
1.0
 10
15.391553
 20
5.090724
 30
0.0
 10
15.317047
 20
5.078871
 30
0.0
 10
15.240564
 20
5.073791
 30
0.0
 10
15.164929
 20
5.062502
 30
0.0
  0
LWPOLYLINE
  5
412C
330
40FE
100
AcDbEntity
  8
0
 62
     1
100
AcDbPolyline
 90
        6
 70
     0
 43
0.0
 10
12.528973
 20
5.090724
 10
12.151078
 20
5.15112
 10
12.278642
 20
4.787053
 10
13.958993
 20
0.0
 10
15.769449
 20
5.151967
 10
15.391553
 20
5.090724
  0
SPLINE
  5
412D
330
40FE
100
AcDbEntity
  8
0
 62
     1
100
AcDbSpline
210
0.0
220
0.0
230
1.0
 70
     8
 71
     3
 72
     8
 73
     4
 74
     0
 42
0.0000001
 43
0.0000001
 40
0.0
 40
0.0
 40
0.0
 40
0.0
 40
1.0
 40
1.0
 40
1.0
 40
1.0
 10
21.283224
 20
8.764411
 30
0.0
 10
21.241738
 20
8.705144
 30
0.0
 10
21.194042
 20
8.651522
 30
0.0
 10
21.15058
 20
8.593667
 30
0.0
  0
LWPOLYLINE
  5
412E
330
40FE
100
AcDbEntity
  8
0
 62
     1
100
AcDbPolyline
 90
        2
 70
     0
 43
0.0
 10
15.164929
 20
5.062502
 10
15.164929
 20
5.062502
  0
SPLINE
  5
412F
330
40FE
100
AcDbEntity
  8
0
 62
     1
100
AcDbSpline
210
0.0
220
0.0
230
1.0
 70
     8
 71
     3
 72
     8
 73
     4
 74
     0
 42
0.0000001
 43
0.0000001
 40
0.0
 40
0.0
 40
0.0
 40
0.0
 40
1.0
 40
1.0
 40
1.0
 40
1.0
 10
20.88134
 20
8.290842
 30
0.0
 10
20.599118
 20
7.948789
 30
0.0
 10
20.281336
 20
7.619436
 30
0.0
 10
19.953111
 20
7.319433
 30
0.0
  0
SPLINE
  5
4130
330
40FE
100
AcDbEntity
  8
0
 62
     1
100
AcDbSpline
210
0.0
220
0.0
230
1.0
 70
     8
 71
     3
 72
     8
 73
     4
 74
     0
 42
0.0000001
 43
0.0000001
 40
0.0
 40
0.0
 40
0.0
 40
0.0
 40
1.0
 40
1.0
 40
1.0
 40
1.0
 10
19.953111
 20
7.319433
 30
0.0
 10
19.784624
 20
7.168162
 30
0.0
 10
19.623476
 20
7.007013
 30
0.0
 10
19.444829
 20
6.868724
 30
0.0
  0
SPLINE
  5
4131
330
40FE
100
AcDbEntity
  8
0
 62
     1
100
AcDbSpline
210
0.0
220
0.0
230
1.0
 70
     8
 71
     3
 72
     8
 73
     4
 74
     0
 42
0.0000001
 43
0.0000001
 40
0.0
 40
0.0
 40
0.0
 40
0.0
 40
1.0
 40
1.0
 40
1.0
 40
1.0
 10
19.444829
 20
6.868724
 30
0.0
 10
19.384998
 20
6.823004
 30
0.0
 10
19.328836
 20
6.772769
 30
0.0
 10
19.268158
 20
6.727613
 30
0.0
  0
LWPOLYLINE
  5
4132
330
40FE
100
AcDbEntity
  8
0
 62
     1
100
AcDbPolyline
 90
        3
 70
     0
 43
0.0
 10
21.15058
 20
8.593667
 10
21.144089
 20
8.608624
 10
20.88134
 20
8.290842
  0
LWPOLYLINE
  5
4133
330
40FE
100
AcDbEntity
  8
0
 62
     1
100
AcDbPolyline
 90
        6
 70
     0
 43
0.0
 10
19.268158
 20
6.727613
 10
18.959689
 20
6.501271
 10
23.844673
 20
4.139353
 10
21.507591
 20
9.076831
 10
21.283224
 20
8.764411
 10
21.283224
 20
8.764411
  0
SPLINE
  5
4134
330
40FE
100
AcDbEntity
  8
0
 62
     1
100
AcDbSpline
210
0.0
220
0.0
230
1.0
 70
     8
 71
     3
 72
     8
 73
     4
 74
     0
 42
0.0000001
 43
0.0000001
 40
0.0
 40
0.0
 40
0.0
 40
0.0
 40
1.0
 40
1.0
 40
1.0
 40
1.0
 10
8.184727
 20
7.134013
 30
0.0
 10
7.780867
 20
7.475784
 30
0.0
 10
7.396762
 20
7.864404
 30
0.0
 10
7.058378
 20
8.272216
 30
0.0
  0
LWPOLYLINE
  5
4135
330
40FE
100
AcDbEntity
  8
0
 62
     1
100
AcDbPolyline
 90
        3
 70
     0
 43
0.0
 10
8.476544
 20
6.86308
 10
8.494042
 20
6.871264
 10
8.184727
 20
7.134013
  0
SPLINE
  5
4136
330
40FE
100
AcDbEntity
  8
0
 62
     1
100
AcDbSpline
210
0.0
220
0.0
230
1.0
 70
     8
 71
     3
 72
     8
 73
     4
 74
     0
 42
0.0000001
 43
0.0000001
 40
0.0
 40
0.0
 40
0.0
 40
0.0
 40
1.0
 40
1.0
 40
1.0
 40
1.0
 10
6.789138
 20
8.568267
 30
0.0
 10
6.739467
 20
8.634307
 30
0.0
 10
6.684998
 20
8.696678
 30
0.0
 10
6.63702
 20
8.763847
 30
0.0
  0
LWPOLYLINE
  5
4137
330
40FE
100
AcDbEntity
  8
0
 62
     1
100
AcDbPolyline
 90
        3
 70
     0
 43
0.0
 10
7.058378
 20
8.272216
 10
6.797322
 20
8.585764
 10
6.789138
 20
8.568267
  0
SPLINE
  5
4138
330
40FE
100
AcDbEntity
  8
0
 62
     1
100
AcDbSpline
210
0.0
220
0.0
230
1.0
 70
     8
 71
     3
 72
     8
 73
     4
 74
     0
 42
0.0000001
 43
0.0000001
 40
0.0
 40
0.0
 40
0.0
 40
0.0
 40
1.0
 40
1.0
 40
1.0
 40
1.0
 10
8.670431
 20
6.708704
 30
0.0
 10
8.603827
 20
6.756682
 30
0.0
 10
8.541456
 20
6.81228
 30
0.0
 10
8.476544
 20
6.86308
 30
0.0
  0
LWPOLYLINE
  5
4139
330
40FE
100
AcDbEntity
  8
0
 62
     1
100
AcDbPolyline
 90
        6
 70
     0
 43
0.0
 10
6.63702
 20
8.763847
 10
6.411807
 20
9.078242
 10
6.247553
 20
8.727722
 10
4.102382
 20
4.146973
 10
8.983416
 20
6.480387
 10
8.670431
 20
6.708704
  0
SPLINE
  5
413A
330
40FE
100
AcDbEntity
  8
0
 62
     1
100
AcDbSpline
210
0.0
220
0.0
230
1.0
 70
     8
 71
     3
 72
     8
 73
     4
 74
     0
 42
0.0000001
 43
0.0000001
 40
0.0
 40
0.0
 40
0.0
 40
0.0
 40
1.0
 40
1.0
 40
1.0
 40
1.0
 10
20.382089
 20
9.364698
 30
0.0
 10
21.419256
 20
10.799233
 30
0.0
 10
21.921611
 20
12.464344
 30
0.0
 10
21.921611
 20
14.113369
 30
0.0
  0
SPLINE
  5
413B
330
40FE
100
AcDbEntity
  8
0
 62
     1
100
AcDbSpline
210
0.0
220
0.0
230
1.0
 70
     8
 71
     3
 72
     8
 73
     4
 74
     0
 42
0.0000001
 43
0.0000001
 40
0.0
 40
0.0
 40
0.0
 40
0.0
 40
1.0
 40
1.0
 40
1.0
 40
1.0
 10
21.921611
 20
14.113369
 30
0.0
 10
21.921611
 20
16.587893
 30
0.0
 10
20.794698
 20
19.030527
 30
0.0
 10
18.670129
 20
20.606173
 30
0.0
  0
SPLINE
  5
413C
330
40FE
100
AcDbEntity
  8
0
 62
     1
100
AcDbSpline
210
0.0
220
0.0
230
1.0
 70
     8
 71
     3
 72
     8
 73
     4
 74
     0
 42
0.0000001
 43
0.0000001
 40
0.0
 40
0.0
 40
0.0
 40
0.0
 40
1.0
 40
1.0
 40
1.0
 40
1.0
 10
18.670129
 20
20.606173
 30
0.0
 10
17.251116
 20
21.657733
 30
0.0
 10
15.604067
 20
22.16404
 30
0.0
 10
13.971976
 20
22.16404
 30
0.0
  0
SPLINE
  5
413D
330
40FE
100
AcDbEntity
  8
0
 62
     1
100
AcDbSpline
210
0.0
220
0.0
230
1.0
 70
     8
 71
     3
 72
     8
 73
     4
 74
     0
 42
0.0000001
 43
0.0000001
 40
0.0
 40
0.0
 40
0.0
 40
0.0
 40
1.0
 40
1.0
 40
1.0
 40
1.0
 10
13.971976
 20
22.16404
 30
0.0
 10
11.524544
 20
22.16404
 30
0.0
 10
9.10844
 20
21.025556
 30
0.0
 10
7.551138
 20
18.876151
 30
0.0
  0
SPLINE
  5
413E
330
40FE
100
AcDbEntity
  8
0
 62
     1
100
AcDbSpline
210
0.0
220
0.0
230
1.0
 70
     8
 71
     3
 72
     8
 73
     4
 74
     0
 42
0.0000001
 43
0.0000001
 40
0.0
 40
0.0
 40
0.0
 40
0.0
 40
1.0
 40
1.0
 40
1.0
 40
1.0
 10
7.551138
 20
18.876151
 30
0.0
 10
6.510584
 20
17.445284
 30
0.0
 10
6.009922
 20
15.777633
 30
0.0
 10
6.009922
 20
14.127198
 30
0.0
  0
SPLINE
  5
413F
330
40FE
100
AcDbEntity
  8
0
 62
     1
100
AcDbSpline
210
0.0
220
0.0
230
1.0
 70
     8
 71
     3
 72
     8
 73
     4
 74
     0
 42
0.0000001
 43
0.0000001
 40
0.0
 40
0.0
 40
0.0
 40
0.0
 40
1.0
 40
1.0
 40
1.0
 40
1.0
 10
6.009922
 20
14.127198
 30
0.0
 10
6.009922
 20
11.65352
 30
0.0
 10
7.136271
 20
9.209476
 30
0.0
 10
9.262533
 20
7.634676
 30
0.0
  0
SPLINE
  5
4140
330
40FE
100
AcDbEntity
  8
0
 62
     1
100
AcDbSpline
210
0.0
220
0.0
230
1.0
 70
     8
 71
     3
 72
     8
 73
     4
 74
     0
 42
0.0000001
 43
0.0000001
 40
0.0
 40
0.0
 40
0.0
 40
0.0
 40
1.0
 40
1.0
 40
1.0
 40
1.0
 10
9.262533
 20
7.634676
 30
0.0
 10
10.677878
 20
6.585938
 30
0.0
 10
12.327184
 20
6.077373
 30
0.0
 10
13.958993
 20
6.077373
 30
0.0
  0
SPLINE
  5
4141
330
40FE
100
AcDbEntity
  8
0
 62
     1
100
AcDbSpline
210
0.0
220
0.0
230
1.0
 70
     8
 71
     3
 72
     8
 73
     4
 74
     0
 42
0.0000001
 43
0.0000001
 40
0.0
 40
0.0
 40
0.0
 40
0.0
 40
1.0
 40
1.0
 40
1.0
 40
1.0
 10
13.958993
 20
6.077373
 30
0.0
 10
16.406424
 20
6.077091
 30
0.0
 10
18.82394
 20
7.216422
 30
0.0
 10
20.382089
 20
9.364698
 30
0.0
  0
LWPOLYLINE
  5
4142
330
40FE
100
AcDbEntity
  8
0
 62
     1
100
AcDbPolyline
 90
        2
 70
     0
 43
0.0
 10
8.476544
 20
6.86308
 10
8.476544
 20
6.86308
  0
LWPOLYLINE
  5
4143
330
40FE
100
AcDbEntity
  8
0
 62
     1
100
AcDbPolyline
 90
        2
 70
     0
 43
0.0
 10
20.382089
 20
9.364698
 10
20.382089
 20
9.364698
  0
ENDBLK
  5
4169
330
40FE
100
AcDbEntity
  8
0
100
AcDbBlockEnd
  0
BLOCK
  5
4987
330
48C9
100
AcDbEntity
  8
0
100
AcDbBlockBegin
  2
logo
 70
     0
 10
0.0
 20
0.0
 30
0.0
  3
logo
  1

  0
SPLINE
  5
492D
330
48C9
100
AcDbEntity
  8
0
 62
     1
100
AcDbSpline
210
0.0
220
0.0
230
1.0
 70
     8
 71
     3
 72
     8
 73
     4
 74
     0
 42
0.0000001
 43
0.0000001
 40
0.0
 40
0.0
 40
0.0
 40
0.0
 40
1.0
 40
1.0
 40
1.0
 40
1.0
 10
-5.413869
 20
-227.166593
 30
0.0
 10
-6.772204
 20
-227.166593
 30
0.0
 10
-8.073249
 20
-226.877033
 30
0.0
 10
-9.280596
 20
-226.305816
 30
0.0
  0
SPLINE
  5
492E
330
48C9
100
AcDbEntity
  8
0
 62
     1
100
AcDbSpline
210
0.0
220
0.0
230
1.0
 70
     8
 71
     3
 72
     8
 73
     4
 74
     0
 42
0.0000001
 43
0.0000001
 40
0.0
 40
0.0
 40
0.0
 40
0.0
 40
1.0
 40
1.0
 40
1.0
 40
1.0
 10
-9.280596
 20
-226.305816
 30
0.0
 10
-9.447953
 20
-226.226793
 30
0.0
 10
-9.621802
 20
-226.135636
 30
0.0
 10
-9.809762
 20
-226.029238
 30
0.0
  0
SPLINE
  5
492F
330
48C9
100
AcDbEntity
  8
0
 62
     1
100
AcDbSpline
210
0.0
220
0.0
230
1.0
 70
     8
 71
     3
 72
     8
 73
     4
 74
     0
 42
0.0000001
 43
0.0000001
 40
0.0
 40
0.0
 40
0.0
 40
0.0
 40
1.0
 40
1.0
 40
1.0
 40
1.0
 10
-9.809762
 20
-226.029238
 30
0.0
 10
-10.818424
 20
-225.631022
 30
0.0
 10
-12.498211
 20
-223.836371
 30
0.0
 10
-12.95908
 20
-222.787069
 30
0.0
  0
SPLINE
  5
4930
330
48C9
100
AcDbEntity
  8
0
 62
     1
100
AcDbSpline
210
0.0
220
0.0
230
1.0
 70
     8
 71
     3
 72
     8
 73
     4
 74
     0
 42
0.0000001
 43
0.0000001
 40
0.0
 40
0.0
 40
0.0
 40
0.0
 40
1.0
 40
1.0
 40
1.0
 40
1.0
 10
-12.95908
 20
-222.787069
 30
0.0
 10
-13.445913
 20
-221.679064
 30
0.0
 10
-13.903678
 20
-220.45676
 30
0.0
 10
-13.956736
 20
-219.031256
 30
0.0
  0
SPLINE
  5
4931
330
48C9
100
AcDbEntity
  8
0
 62
     1
100
AcDbSpline
210
0.0
220
0.0
230
1.0
 70
     8
 71
     3
 72
     8
 73
     4
 74
     0
 42
0.0000001
 43
0.0000001
 40
0.0
 40
0.0
 40
0.0
 40
0.0
 40
1.0
 40
1.0
 40
1.0
 40
1.0
 10
-13.956736
 20
-219.031256
 30
0.0
 10
-14.0462
 20
-216.620796
 30
0.0
 10
-13.338387
 20
-214.3125
 30
0.0
 10
-11.852487
 20
-212.170998
 30
0.0
  0
SPLINE
  5
4932
330
48C9
100
AcDbEntity
  8
0
 62
     1
100
AcDbSpline
210
0.0
220
0.0
230
1.0
 70
     8
 71
     3
 72
     8
 73
     4
 74
     0
 42
0.0000001
 43
0.0000001
 40
0.0
 40
0.0
 40
0.0
 40
0.0
 40
1.0
 40
1.0
 40
1.0
 40
1.0
 10
-11.852487
 20
-212.170998
 30
0.0
 10
-11.259256
 20
-211.3153
 30
0.0
 10
-10.633851
 20
-210.616236
 30
0.0
 10
-9.940149
 20
-210.034576
 30
0.0
  0
SPLINE
  5
4933
330
48C9
100
AcDbEntity
  8
0
 62
     1
100
AcDbSpline
210
0.0
220
0.0
230
1.0
 70
     8
 71
     3
 72
     8
 73
     4
 74
     0
 42
0.0000001
 43
0.0000001
 40
0.0
 40
0.0
 40
0.0
 40
0.0
 40
1.0
 40
1.0
 40
1.0
 40
1.0
 10
-9.940149
 20
-210.034576
 30
0.0
 10
-9.129042
 20
-209.35442
 30
0.0
 10
-8.140418
 20
-208.814811
 30
0.0
 10
-6.918113
 20
-208.385833
 30
0.0
  0
SPLINE
  5
4934
330
48C9
100
AcDbEntity
  8
0
 62
     1
100
AcDbSpline
210
0.0
220
0.0
230
1.0
 70
     8
 71
     3
 72
     8
 73
     4
 74
     0
 42
0.0000001
 43
0.0000001
 40
0.0
 40
0.0
 40
0.0
 40
0.0
 40
1.0
 40
1.0
 40
1.0
 40
1.0
 10
-6.918113
 20
-208.385833
 30
0.0
 10
-5.826196
 20
-208.002293
 30
0.0
 10
-4.671624
 20
-207.727691
 30
0.0
 10
-3.486009
 20
-207.569647
 30
0.0
  0
SPLINE
  5
4935
330
48C9
100
AcDbEntity
  8
0
 62
     1
100
AcDbSpline
210
0.0
220
0.0
230
1.0
 70
     8
 71
     3
 72
     8
 73
     4
 74
     0
 42
0.0000001
 43
0.0000001
 40
0.0
 40
0.0
 40
0.0
 40
0.0
 40
1.0
 40
1.0
 40
1.0
 40
1.0
 10
-3.486009
 20
-207.569647
 30
0.0
 10
-2.565964
 20
-207.446598
 30
0.0
 10
-1.63322
 20
-207.346409
 30
0.0
 10
-0.730956
 20
-207.249042
 30
0.0
  0
SPLINE
  5
4936
330
48C9
100
AcDbEntity
  8
0
 62
     1
100
AcDbSpline
210
0.0
220
0.0
230
1.0
 70
     8
 71
     3
 72
     8
 73
     4
 74
     0
 42
0.0000001
 43
0.0000001
 40
0.0
 40
0.0
 40
0.0
 40
0.0
 40
1.0
 40
1.0
 40
1.0
 40
1.0
 10
-0.730956
 20
-207.249042
 30
0.0
 10
-0.39878
 20
-207.2132
 30
0.0
 10
-0.066887
 20
-207.177358
 30
0.0
 10
0.265007
 20
-207.140387
 30
0.0
  0
SPLINE
  5
4937
330
48C9
100
AcDbEntity
  8
0
 62
     1
100
AcDbSpline
210
0.0
220
0.0
230
1.0
 70
     8
 71
     3
 72
     8
 73
     4
 74
     0
 42
0.0000001
 43
0.0000001
 40
0.0
 40
0.0
 40
0.0
 40
0.0
 40
1.0
 40
1.0
 40
1.0
 40
1.0
 10
0.265007
 20
-207.140387
 30
0.0
 10
2.601242
 20
-206.88046
 30
0.0
 10
4.583007
 20
-206.366251
 30
0.0
 10
6.324036
 20
-205.567844
 30
0.0
  0
SPLINE
  5
4938
330
48C9
100
AcDbEntity
  8
0
 62
     1
100
AcDbSpline
210
0.0
220
0.0
230
1.0
 70
     8
 71
     3
 72
     8
 73
     4
 74
     0
 42
0.0000001
 43
0.0000001
 40
0.0
 40
0.0
 40
0.0
 40
0.0
 40
1.0
 40
1.0
 40
1.0
 40
1.0
 10
6.324036
 20
-205.567844
 30
0.0
 10
6.418016
 20
-205.525511
 30
0.0
 10
6.496191
 20
-205.505473
 30
0.0
 10
6.533727
 20
-205.495878
 30
0.0
  0
SPLINE
  5
4939
330
48C9
100
AcDbEntity
  8
0
 62
     1
100
AcDbSpline
210
0.0
220
0.0
230
1.0
 70
     8
 71
     3
 72
     8
 73
     4
 74
     0
 42
0.0000001
 43
0.0000001
 40
0.0
 40
0.0
 40
0.0
 40
0.0
 40
1.0
 40
1.0
 40
1.0
 40
1.0
 10
7.757442
 20
-206.502564
 30
0.0
 10
7.746153
 20
-206.62392
 30
0.0
 10
7.735993
 20
-206.743864
 30
0.0
 10
7.726116
 20
-206.863244
 30
0.0
  0
SPLINE
  5
493A
330
48C9
100
AcDbEntity
  8
0
 62
     1
100
AcDbSpline
210
0.0
220
0.0
230
1.0
 70
     8
 71
     3
 72
     8
 73
     4
 74
     0
 42
0.0000001
 43
0.0000001
 40
0.0
 40
0.0
 40
0.0
 40
0.0
 40
1.0
 40
1.0
 40
1.0
 40
1.0
 10
7.726116
 20
-206.863244
 30
0.0
 10
7.70382
 20
-207.12684
 30
0.0
 10
7.680678
 20
-207.399749
 30
0.0
 10
7.646811
 20
-207.673787
 30
0.0
  0
SPLINE
  5
493B
330
48C9
100
AcDbEntity
  8
0
 62
     1
100
AcDbSpline
210
0.0
220
0.0
230
1.0
 70
     8
 71
     3
 72
     8
 73
     4
 74
     0
 42
0.0000001
 43
0.0000001
 40
0.0
 40
0.0
 40
0.0
 40
0.0
 40
1.0
 40
1.0
 40
1.0
 40
1.0
 10
7.646811
 20
-207.673787
 30
0.0
 10
7.614356
 20
-207.936536
 30
0.0
 10
7.582464
 20
-208.199002
 30
0.0
 10
7.550856
 20
-208.462033
 30
0.0
  0
SPLINE
  5
493C
330
48C9
100
AcDbEntity
  8
0
 62
     1
100
AcDbSpline
210
0.0
220
0.0
230
1.0
 70
     8
 71
     3
 72
     8
 73
     4
 74
     0
 42
0.0000001
 43
0.0000001
 40
0.0
 40
0.0
 40
0.0
 40
0.0
 40
1.0
 40
1.0
 40
1.0
 40
1.0
 10
7.550856
 20
-208.462033
 30
0.0
 10
7.447844
 20
-209.314627
 30
0.0
 10
7.341164
 20
-210.196571
 30
0.0
 10
7.20852
 20
-211.067227
 30
0.0
  0
SPLINE
  5
493D
330
48C9
100
AcDbEntity
  8
0
 62
     1
100
AcDbSpline
210
0.0
220
0.0
230
1.0
 70
     8
 71
     3
 72
     8
 73
     4
 74
     0
 42
0.0000001
 43
0.0000001
 40
0.0
 40
0.0
 40
0.0
 40
0.0
 40
1.0
 40
1.0
 40
1.0
 40
1.0
 10
7.20852
 20
-211.067227
 30
0.0
 10
6.689513
 20
-214.469416
 30
0.0
 10
6.068907
 20
-217.030582
 30
0.0
 10
5.19684
 20
-219.371898
 30
0.0
  0
SPLINE
  5
493E
330
48C9
100
AcDbEntity
  8
0
 62
     1
100
AcDbSpline
210
0.0
220
0.0
230
1.0
 70
     8
 71
     3
 72
     8
 73
     4
 74
     0
 42
0.0000001
 43
0.0000001
 40
0.0
 40
0.0
 40
0.0
 40
0.0
 40
1.0
 40
1.0
 40
1.0
 40
1.0
 10
5.19684
 20
-219.371898
 30
0.0
 10
4.79806
 20
-220.441802
 30
0.0
 10
4.349891
 20
-221.373418
 30
0.0
 10
3.826651
 20
-222.220084
 30
0.0
  0
SPLINE
  5
493F
330
48C9
100
AcDbEntity
  8
0
 62
     1
100
AcDbSpline
210
0.0
220
0.0
230
1.0
 70
     8
 71
     3
 72
     8
 73
     4
 74
     0
 42
0.0000001
 43
0.0000001
 40
0.0
 40
0.0
 40
0.0
 40
0.0
 40
1.0
 40
1.0
 40
1.0
 40
1.0
 10
3.826651
 20
-222.220084
 30
0.0
 10
3.184596
 20
-223.258662
 30
0.0
 10
2.30124
 20
-224.155282
 30
0.0
 10
1.04648
 20
-225.042307
 30
0.0
  0
SPLINE
  5
4940
330
48C9
100
AcDbEntity
  8
0
 62
     1
100
AcDbSpline
210
0.0
220
0.0
230
1.0
 70
     8
 71
     3
 72
     8
 73
     4
 74
     0
 42
0.0000001
 43
0.0000001
 40
0.0
 40
0.0
 40
0.0
 40
0.0
 40
1.0
 40
1.0
 40
1.0
 40
1.0
 10
1.04648
 20
-225.042307
 30
0.0
 10
-0.440831
 20
-226.094149
 30
0.0
 10
-2.066713
 20
-226.764709
 30
0.0
 10
-3.785729
 20
-227.035642
 30
0.0
  0
SPLINE
  5
4941
330
48C9
100
AcDbEntity
  8
0
 62
     1
100
AcDbSpline
210
0.0
220
0.0
230
1.0
 70
     8
 71
     3
 72
     8
 73
     4
 74
     0
 42
0.0000001
 43
0.0000001
 40
0.0
 40
0.0
 40
0.0
 40
0.0
 40
1.0
 40
1.0
 40
1.0
 40
1.0
 10
-3.785729
 20
-227.035642
 30
0.0
 10
-4.337191
 20
-227.122284
 30
0.0
 10
-4.884984
 20
-227.166593
 30
0.0
 10
-5.413869
 20
-227.166593
 30
0.0
  0
LWPOLYLINE
  5
4942
330
48C9
100
AcDbEntity
  8
0
 62
     1
100
AcDbPolyline
 90
        3
 70
     0
 43
0.0
 10
6.533727
 20
-205.495878
 10
7.877951
 20
-205.112902
 10
7.757442
 20
-206.502564
  0
LWPOLYLINE
  5
4943
330
48C9
100
AcDbEntity
  8
0
 62
     1
100
AcDbPolyline
 90
        2
 70
     0
 43
0.0
 10
-5.413869
 20
-227.166593
 10
-5.413869
 20
-227.166593
  0
SPLINE
  5
4944
330
48C9
100
AcDbEntity
  8
0
 62
     1
100
AcDbSpline
210
0.0
220
0.0
230
1.0
 70
     8
 71
     3
 72
     8
 73
     4
 74
     0
 42
0.0000001
 43
0.0000001
 40
0.0
 40
0.0
 40
0.0
 40
0.0
 40
1.0
 40
1.0
 40
1.0
 40
1.0
 10
-8.930076
 20
-224.327156
 30
0.0
 10
-8.75792
 20
-224.427062
 30
0.0
 10
-8.604956
 20
-224.508342
 30
0.0
 10
-8.462433
 20
-224.575511
 30
0.0
  0
SPLINE
  5
4945
330
48C9
100
AcDbEntity
  8
0
 62
     1
100
AcDbSpline
210
0.0
220
0.0
230
1.0
 70
     8
 71
     3
 72
     8
 73
     4
 74
     0
 42
0.0000001
 43
0.0000001
 40
0.0
 40
0.0
 40
0.0
 40
0.0
 40
1.0
 40
1.0
 40
1.0
 40
1.0
 10
-8.462433
 20
-224.575511
 30
0.0
 10
-7.499209
 20
-225.031018
 30
0.0
 10
-6.502118
 20
-225.252562
 30
0.0
 10
-5.413869
 20
-225.252562
 30
0.0
  0
SPLINE
  5
4946
330
48C9
100
AcDbEntity
  8
0
 62
     1
100
AcDbSpline
210
0.0
220
0.0
230
1.0
 70
     8
 71
     3
 72
     8
 73
     4
 74
     0
 42
0.0000001
 43
0.0000001
 40
0.0
 40
0.0
 40
0.0
 40
0.0
 40
1.0
 40
1.0
 40
1.0
 40
1.0
 10
-5.413869
 20
-225.252562
 30
0.0
 10
-4.984327
 20
-225.252562
 30
0.0
 10
-4.536722
 20
-225.216156
 30
0.0
 10
-4.083756
 20
-225.144753
 30
0.0
  0
SPLINE
  5
4947
330
48C9
100
AcDbEntity
  8
0
 62
     1
100
AcDbSpline
210
0.0
220
0.0
230
1.0
 70
     8
 71
     3
 72
     8
 73
     4
 74
     0
 42
0.0000001
 43
0.0000001
 40
0.0
 40
0.0
 40
0.0
 40
0.0
 40
1.0
 40
1.0
 40
1.0
 40
1.0
 10
-4.083756
 20
-225.144753
 30
0.0
 10
-2.657969
 20
-224.920104
 30
0.0
 10
-1.303867
 20
-224.359893
 30
0.0
 10
-0.058702
 20
-223.479642
 30
0.0
  0
SPLINE
  5
4948
330
48C9
100
AcDbEntity
  8
0
 62
     1
100
AcDbSpline
210
0.0
220
0.0
230
1.0
 70
     8
 71
     3
 72
     8
 73
     4
 74
     0
 42
0.0000001
 43
0.0000001
 40
0.0
 40
0.0
 40
0.0
 40
0.0
 40
1.0
 40
1.0
 40
1.0
 40
1.0
 10
-0.058702
 20
-223.479642
 30
0.0
 10
0.978747
 20
-222.745864
 30
0.0
 10
1.696156
 20
-222.026198
 30
0.0
 10
2.198511
 20
-221.21368
 30
0.0
  0
SPLINE
  5
4949
330
48C9
100
AcDbEntity
  8
0
 62
     1
100
AcDbSpline
210
0.0
220
0.0
230
1.0
 70
     8
 71
     3
 72
     8
 73
     4
 74
     0
 42
0.0000001
 43
0.0000001
 40
0.0
 40
0.0
 40
0.0
 40
0.0
 40
1.0
 40
1.0
 40
1.0
 40
1.0
 10
2.198511
 20
-221.21368
 30
0.0
 10
2.655147
 20
-220.475387
 30
0.0
 10
3.049129
 20
-219.654402
 30
0.0
 10
3.403318
 20
-218.703878
 30
0.0
  0
SPLINE
  5
494A
330
48C9
100
AcDbEntity
  8
0
 62
     1
100
AcDbSpline
210
0.0
220
0.0
230
1.0
 70
     8
 71
     3
 72
     8
 73
     4
 74
     0
 42
0.0000001
 43
0.0000001
 40
0.0
 40
0.0
 40
0.0
 40
0.0
 40
1.0
 40
1.0
 40
1.0
 40
1.0
 10
3.403318
 20
-218.703878
 30
0.0
 10
4.227971
 20
-216.490127
 30
0.0
 10
4.818098
 20
-214.046082
 30
0.0
 10
5.316502
 20
-210.778796
 30
0.0
  0
SPLINE
  5
494B
330
48C9
100
AcDbEntity
  8
0
 62
     1
100
AcDbSpline
210
0.0
220
0.0
230
1.0
 70
     8
 71
     3
 72
     8
 73
     4
 74
     0
 42
0.0000001
 43
0.0000001
 40
0.0
 40
0.0
 40
0.0
 40
0.0
 40
1.0
 40
1.0
 40
1.0
 40
1.0
 10
5.316502
 20
-210.778796
 30
0.0
 10
5.444913
 20
-209.937491
 30
0.0
 10
5.549618
 20
-209.070504
 30
0.0
 10
5.650936
 20
-208.232587
 30
0.0
  0
SPLINE
  5
494C
330
48C9
100
AcDbEntity
  8
0
 62
     1
100
AcDbSpline
210
0.0
220
0.0
230
1.0
 70
     8
 71
     3
 72
     8
 73
     4
 74
     0
 42
0.0000001
 43
0.0000001
 40
0.0
 40
0.0
 40
0.0
 40
0.0
 40
1.0
 40
1.0
 40
1.0
 40
1.0
 10
5.650936
 20
-208.232587
 30
0.0
 10
5.664764
 20
-208.118287
 30
0.0
 10
5.678593
 20
-208.003704
 30
0.0
 10
5.692422
 20
-207.889404
 30
0.0
  0
SPLINE
  5
494D
330
48C9
100
AcDbEntity
  8
0
 62
     1
100
AcDbSpline
210
0.0
220
0.0
230
1.0
 70
     8
 71
     3
 72
     8
 73
     4
 74
     0
 42
0.0000001
 43
0.0000001
 40
0.0
 40
0.0
 40
0.0
 40
0.0
 40
1.0
 40
1.0
 40
1.0
 40
1.0
 10
5.692422
 20
-207.889404
 30
0.0
 10
4.131451
 20
-208.447922
 30
0.0
 10
2.411024
 20
-208.827511
 30
0.0
 10
0.476956
 20
-209.042847
 30
0.0
  0
SPLINE
  5
494E
330
48C9
100
AcDbEntity
  8
0
 62
     1
100
AcDbSpline
210
0.0
220
0.0
230
1.0
 70
     8
 71
     3
 72
     8
 73
     4
 74
     0
 42
0.0000001
 43
0.0000001
 40
0.0
 40
0.0
 40
0.0
 40
0.0
 40
1.0
 40
1.0
 40
1.0
 40
1.0
 10
0.476956
 20
-209.042847
 30
0.0
 10
0.142804
 20
-209.0801
 30
0.0
 10
-0.191347
 20
-209.116224
 30
0.0
 10
-0.525498
 20
-209.152067
 30
0.0
  0
SPLINE
  5
494F
330
48C9
100
AcDbEntity
  8
0
 62
     1
100
AcDbSpline
210
0.0
220
0.0
230
1.0
 70
     8
 71
     3
 72
     8
 73
     4
 74
     0
 42
0.0000001
 43
0.0000001
 40
0.0
 40
0.0
 40
0.0
 40
0.0
 40
1.0
 40
1.0
 40
1.0
 40
1.0
 10
-0.525498
 20
-209.152067
 30
0.0
 10
-1.415627
 20
-209.248022
 30
0.0
 10
-2.336236
 20
-209.347082
 30
0.0
 10
-3.232573
 20
-209.466744
 30
0.0
  0
SPLINE
  5
4950
330
48C9
100
AcDbEntity
  8
0
 62
     1
100
AcDbSpline
210
0.0
220
0.0
230
1.0
 70
     8
 71
     3
 72
     8
 73
     4
 74
     0
 42
0.0000001
 43
0.0000001
 40
0.0
 40
0.0
 40
0.0
 40
0.0
 40
1.0
 40
1.0
 40
1.0
 40
1.0
 10
-3.232573
 20
-209.466744
 30
0.0
 10
-4.288649
 20
-209.607573
 30
0.0
 10
-5.315091
 20
-209.851131
 30
0.0
 10
-6.283678
 20
-210.191491
 30
0.0
  0
SPLINE
  5
4951
330
48C9
100
AcDbEntity
  8
0
 62
     1
100
AcDbSpline
210
0.0
220
0.0
230
1.0
 70
     8
 71
     3
 72
     8
 73
     4
 74
     0
 42
0.0000001
 43
0.0000001
 40
0.0
 40
0.0
 40
0.0
 40
0.0
 40
1.0
 40
1.0
 40
1.0
 40
1.0
 10
-6.283678
 20
-210.191491
 30
0.0
 10
-7.298831
 20
-210.547938
 30
0.0
 10
-8.069862
 20
-210.963933
 30
0.0
 10
-8.709942
 20
-211.501002
 30
0.0
  0
SPLINE
  5
4952
330
48C9
100
AcDbEntity
  8
0
 62
     1
100
AcDbSpline
210
0.0
220
0.0
230
1.0
 70
     8
 71
     3
 72
     8
 73
     4
 74
     0
 42
0.0000001
 43
0.0000001
 40
0.0
 40
0.0
 40
0.0
 40
0.0
 40
1.0
 40
1.0
 40
1.0
 40
1.0
 10
-8.709942
 20
-211.501002
 30
0.0
 10
-9.271282
 20
-211.971749
 30
0.0
 10
-9.784644
 20
-212.547482
 30
0.0
 10
-10.27938
 20
-213.261504
 30
0.0
  0
SPLINE
  5
4953
330
48C9
100
AcDbEntity
  8
0
 62
     1
100
AcDbSpline
210
0.0
220
0.0
230
1.0
 70
     8
 71
     3
 72
     8
 73
     4
 74
     0
 42
0.0000001
 43
0.0000001
 40
0.0
 40
0.0
 40
0.0
 40
0.0
 40
1.0
 40
1.0
 40
1.0
 40
1.0
 10
-10.27938
 20
-213.261504
 30
0.0
 10
-11.541478
 20
-215.080709
 30
0.0
 10
-12.118622
 20
-216.944787
 30
0.0
 10
-12.043833
 20
-218.960136
 30
0.0
  0
SPLINE
  5
4954
330
48C9
100
AcDbEntity
  8
0
 62
     1
100
AcDbSpline
210
0.0
220
0.0
230
1.0
 70
     8
 71
     3
 72
     8
 73
     4
 74
     0
 42
0.0000001
 43
0.0000001
 40
0.0
 40
0.0
 40
0.0
 40
0.0
 40
1.0
 40
1.0
 40
1.0
 40
1.0
 10
-12.043833
 20
-218.960136
 30
0.0
 10
-12.005169
 20
-220.003511
 30
0.0
 10
-11.680896
 20
-220.93682
 30
0.0
 10
-11.20648
 20
-222.017167
 30
0.0
  0
SPLINE
  5
4955
330
48C9
100
AcDbEntity
  8
0
 62
     1
100
AcDbSpline
210
0.0
220
0.0
230
1.0
 70
     8
 71
     3
 72
     8
 73
     4
 74
     0
 42
0.0000001
 43
0.0000001
 40
0.0
 40
0.0
 40
0.0
 40
0.0
 40
1.0
 40
1.0
 40
1.0
 40
1.0
 10
-11.20648
 20
-222.017167
 30
0.0
 10
-10.856242
 20
-222.815291
 30
0.0
 10
-9.554916
 20
-224.018122
 30
0.0
 10
-9.142871
 20
-224.234587
 30
0.0
  0
LWPOLYLINE
  5
4956
330
48C9
100
AcDbEntity
  8
0
 62
     1
100
AcDbPolyline
 90
        3
 70
     0
 43
0.0
 10
-9.142871
 20
-224.234587
 10
-9.057358
 20
-224.253496
 10
-8.930076
 20
-224.327156
  0
SPLINE
  5
4957
330
48C9
100
AcDbEntity
  8
0
 62
     1
100
AcDbSpline
210
0.0
220
0.0
230
1.0
 70
     8
 71
     3
 72
     8
 73
     4
 74
     0
 42
0.0000001
 43
0.0000001
 40
0.0
 40
0.0
 40
0.0
 40
0.0
 40
1.0
 40
1.0
 40
1.0
 40
1.0
 10
-11.812129
 20
-222.82912
 30
0.0
 10
-11.794067
 20
-222.862422
 30
0.0
 10
-11.770924
 20
-222.892902
 30
0.0
 10
-11.768102
 20
-222.896853
 30
0.0
  0
SPLINE
  5
4958
330
48C9
100
AcDbEntity
  8
0
 62
     1
100
AcDbSpline
210
0.0
220
0.0
230
1.0
 70
     8
 71
     3
 72
     8
 73
     4
 74
     0
 42
0.0000001
 43
0.0000001
 40
0.0
 40
0.0
 40
0.0
 40
0.0
 40
1.0
 40
1.0
 40
1.0
 40
1.0
 10
-11.768102
 20
-222.896853
 30
0.0
 10
-11.396698
 20
-222.472673
 30
0.0
 10
-11.046178
 20
-222.036358
 30
0.0
 10
-10.65784
 20
-221.636731
 30
0.0
  0
SPLINE
  5
4959
330
48C9
100
AcDbEntity
  8
0
 62
     1
100
AcDbSpline
210
0.0
220
0.0
230
1.0
 70
     8
 71
     3
 72
     8
 73
     4
 74
     0
 42
0.0000001
 43
0.0000001
 40
0.0
 40
0.0
 40
0.0
 40
0.0
 40
1.0
 40
1.0
 40
1.0
 40
1.0
 10
-10.65784
 20
-221.636731
 30
0.0
 10
-9.899227
 20
-220.856104
 30
0.0
 10
-9.049738
 20
-220.177642
 30
0.0
 10
-8.1788
 20
-219.52712
 30
0.0
  0
SPLINE
  5
495A
330
48C9
100
AcDbEntity
  8
0
 62
     1
100
AcDbSpline
210
0.0
220
0.0
230
1.0
 70
     8
 71
     3
 72
     8
 73
     4
 74
     0
 42
0.0000001
 43
0.0000001
 40
0.0
 40
0.0
 40
0.0
 40
0.0
 40
1.0
 40
1.0
 40
1.0
 40
1.0
 10
-8.1788
 20
-219.52712
 30
0.0
 10
-6.157807
 20
-218.018642
 30
0.0
 10
-4.021667
 20
-216.688529
 30
0.0
 10
-1.83642
 20
-215.434051
 30
0.0
  0
SPLINE
  5
495B
330
48C9
100
AcDbEntity
  8
0
 62
     1
100
AcDbSpline
210
0.0
220
0.0
230
1.0
 70
     8
 71
     3
 72
     8
 73
     4
 74
     0
 42
0.0000001
 43
0.0000001
 40
0.0
 40
0.0
 40
0.0
 40
0.0
 40
1.0
 40
1.0
 40
1.0
 40
1.0
 10
-1.83642
 20
-215.434051
 30
0.0
 10
-1.674424
 20
-215.3412
 30
0.0
 10
-1.510453
 20
-215.250889
 30
0.0
 10
-1.347329
 20
-215.158884
 30
0.0
  0
SPLINE
  5
495C
330
48C9
100
AcDbEntity
  8
0
 62
     1
100
AcDbSpline
210
0.0
220
0.0
230
1.0
 70
     8
 71
     3
 72
     8
 73
     4
 74
     0
 42
0.0000001
 43
0.0000001
 40
0.0
 40
0.0
 40
0.0
 40
0.0
 40
1.0
 40
1.0
 40
1.0
 40
1.0
 10
-1.347329
 20
-215.158884
 30
0.0
 10
-1.33604
 20
-215.172149
 30
0.0
 10
-1.324469
 20
-215.184849
 30
0.0
 10
-1.31318
 20
-215.197831
 30
0.0
  0
SPLINE
  5
495D
330
48C9
100
AcDbEntity
  8
0
 62
     1
100
AcDbSpline
210
0.0
220
0.0
230
1.0
 70
     8
 71
     3
 72
     8
 73
     4
 74
     0
 42
0.0000001
 43
0.0000001
 40
0.0
 40
0.0
 40
0.0
 40
0.0
 40
1.0
 40
1.0
 40
1.0
 40
1.0
 10
-1.31318
 20
-215.197831
 30
0.0
 10
-4.937478
 20
-217.659091
 30
0.0
 10
-8.09498
 20
-220.573318
 30
0.0
 10
-10.864991
 20
-223.865722
 30
0.0
  0
SPLINE
  5
495E
330
48C9
100
AcDbEntity
  8
0
 62
     1
100
AcDbSpline
210
0.0
220
0.0
230
1.0
 70
     8
 71
     3
 72
     8
 73
     4
 74
     0
 42
0.0000001
 43
0.0000001
 40
0.0
 40
0.0
 40
0.0
 40
0.0
 40
1.0
 40
1.0
 40
1.0
 40
1.0
 10
-11.008078
 20
-224.305142
 30
0.0
 10
-12.1539
 20
-225.538453
 30
0.0
 10
-13.311011
 20
-227.475627
 30
0.0
 10
-13.311011
 20
-227.475627
 30
0.0
  0
SPLINE
  5
495F
330
48C9
100
AcDbEntity
  8
0
 62
     1
100
AcDbSpline
210
0.0
220
0.0
230
1.0
 70
     8
 71
     3
 72
     8
 73
     4
 74
     0
 42
0.0000001
 43
0.0000001
 40
0.0
 40
0.0
 40
0.0
 40
0.0
 40
1.0
 40
1.0
 40
1.0
 40
1.0
 10
-13.311011
 20
-227.475627
 30
0.0
 10
-13.61694
 20
-227.987578
 30
0.0
 10
-14.1732
 20
-228.325398
 30
0.0
 10
-14.546862
 20
-228.225209
 30
0.0
  0
SPLINE
  5
4960
330
48C9
100
AcDbEntity
  8
0
 62
     1
100
AcDbSpline
210
0.0
220
0.0
230
1.0
 70
     8
 71
     3
 72
     8
 73
     4
 74
     0
 42
0.0000001
 43
0.0000001
 40
0.0
 40
0.0
 40
0.0
 40
0.0
 40
1.0
 40
1.0
 40
1.0
 40
1.0
 10
-14.546862
 20
-228.225209
 30
0.0
 10
-14.920524
 20
-228.12502
 30
0.0
 10
-15.614509
 20
-227.465184
 30
0.0
 10
-15.270762
 20
-226.977222
 30
0.0
  0
SPLINE
  5
4961
330
48C9
100
AcDbEntity
  8
0
 62
     1
100
AcDbSpline
210
0.0
220
0.0
230
1.0
 70
     8
 71
     3
 72
     8
 73
     4
 74
     0
 42
0.0000001
 43
0.0000001
 40
0.0
 40
0.0
 40
0.0
 40
0.0
 40
1.0
 40
1.0
 40
1.0
 40
1.0
 10
-15.270762
 20
-226.977222
 30
0.0
 10
-15.270762
 20
-226.977222
 30
0.0
 10
-13.517033
 20
-224.488022
 30
0.0
 10
-12.201031
 20
-222.923947
 30
0.0
  0
LWPOLYLINE
  5
4962
330
48C9
100
AcDbEntity
  8
0
 62
     1
100
AcDbPolyline
 90
        2
 70
     0
 43
0.0
 10
-9.142871
 20
-224.234587
 10
-9.142871
 20
-224.234587
  0
ENDBLK
  5
4988
330
48C9
100
AcDbEntity
  8
0
100
AcDbBlockEnd
  0
ENDSEC
  0
SECTION
  2
ENTITIES
  0
LINE
  5
5042
330
1F
100
AcDbEntity
  8
0
100
AcDbLine
 10
43.2649994772496
 20
67.82294584213719
 30
0.0
 11
115.2649994772496
 21
67.82294584213719
 31
0.0
  0
LINE
  5
5043
330
1F
100
AcDbEntity
  8
0
100
AcDbLine
 10
43.2649994772496
 20
92.82294584213705
 30
0.0
 11
115.2649994772496
 21
92.82294584213705
 31
0.0
  0
LINE
  5
5044
330
1F
100
AcDbEntity
  8
0
100
AcDbLine
 10
43.2649994772496
 20
67.82294584213719
 30
0.0
 11
43.2649994772496
 21
92.82294584213705
 31
0.0
  0
LINE
  5
5045
330
1F
100
AcDbEntity
  8
0
100
AcDbLine
 10
115.2649994772496
 20
67.82294584213719
 30
0.0
 11
115.2649994772496
 21
92.82294584213705
 31
0.0
  0
LINE
  5
5046
330
1F
100
AcDbEntity
  8
0
100
AcDbLine
 10
7.764999477249603
 20
117.8229458421371
 30
0.0
 11
15.7649994772496
 21
117.8229458421371
 31
0.0
  0
LINE
  5
5047
330
1F
100
AcDbEntity
  8
0
100
AcDbLine
 10
15.7649994772496
 20
117.8229458421371
 30
0.0
 11
15.7649994772496
 21
113.8229458421371
 31
0.0
  0
LINE
  5
5048
330
1F
100
AcDbEntity
  8
0
100
AcDbLine
 10
189.7649994772496
 20
113.8229458421371
 30
0.0
 11
112.7649994772496
 21
113.8229458421371
 31
0.0
  0
LINE
  5
5049
330
1F
100
AcDbEntity
  8
0
100
AcDbLine
 10
189.7649994772496
 20
113.8229458421371
 30
0.0
 11
189.7649994772496
 21
117.8229458421371
 31
0.0
  0
LINE
  5
504A
330
1F
100
AcDbEntity
  8
0
100
AcDbLine
 10
189.7649994772496
 20
117.8229458421371
 30
0.0
 11
197.7649994772496
 21
117.8229458421371
 31
0.0
  0
LINE
  5
504B
330
1F
100
AcDbEntity
  8
0
100
AcDbLine
 10
7.764999477249603
 20
7.822945842137074
 30
0.0
 11
15.7649994772496
 21
7.822945842137074
 31
0.0
  0
LINE
  5
504C
330
1F
100
AcDbEntity
  8
0
100
AcDbLine
 10
15.7649994772496
 20
7.822945842137074
 30
0.0
 11
15.7649994772496
 21
11.82294584213707
 31
0.0
  0
LINE
  5
504D
330
1F
100
AcDbEntity
  8
0
100
AcDbLine
 10
189.7649994772496
 20
11.82294584213707
 30
0.0
 11
189.7649994772496
 21
7.822945842137074
 31
0.0
  0
LINE
  5
504E
330
1F
100
AcDbEntity
  8
0
100
AcDbLine
 10
189.7649994772496
 20
7.822945842137074
 30
0.0
 11
197.7649994772496
 21
7.822945842137074
 31
0.0
  0
LINE
  5
504F
330
1F
100
AcDbEntity
  8
0
100
AcDbLine
 10
11.7649994772496
 20
109.822945842137
 30
0.0
 11
7.764999477249603
 21
109.822945842137
 31
0.0
  0
LINE
  5
5050
330
1F
100
AcDbEntity
  8
0
100
AcDbLine
 10
7.764999477249603
 20
109.822945842137
 30
0.0
 11
7.764999477249603
 21
117.8229458421371
 31
0.0
  0
LINE
  5
5051
330
1F
100
AcDbEntity
  8
0
100
AcDbLine
 10
11.7649994772496
 20
15.82294584213707
 30
0.0
 11
7.764999477249603
 21
15.82294584213707
 31
0.0
  0
LINE
  5
5052
330
1F
100
AcDbEntity
  8
0
100
AcDbLine
 10
7.764999477249603
 20
15.82294584213707
 30
0.0
 11
7.764999477249603
 21
7.822945842137074
 31
0.0
  0
LINE
  5
5053
330
1F
100
AcDbEntity
  8
0
100
AcDbLine
 10
197.7649994772496
 20
15.82294584213707
 30
0.0
 11
197.7649994772496
 21
7.822945842137074
 31
0.0
  0
LINE
  5
5054
330
1F
100
AcDbEntity
  8
0
100
AcDbLine
 10
193.7649994772496
 20
15.82294584213707
 30
0.0
 11
197.7649994772496
 21
15.82294584213707
 31
0.0
  0
LINE
  5
5055
330
1F
100
AcDbEntity
  8
0
100
AcDbLine
 10
193.7649994772496
 20
109.822945842137
 30
0.0
 11
193.7649994772496
 21
72.82294584213705
 31
0.0
  0
LINE
  5
5056
330
1F
100
AcDbEntity
  8
0
100
AcDbLine
 10
193.7649994772496
 20
109.822945842137
 30
0.0
 11
197.7649994772496
 21
109.822945842137
 31
0.0
  0
LINE
  5
5057
330
1F
100
AcDbEntity
  8
0
100
AcDbLine
 10
197.7649994772496
 20
109.822945842137
 30
0.0
 11
197.7649994772496
 21
117.8229458421371
 31
0.0
  0
CIRCLE
  5
5058
330
1F
100
AcDbEntity
  8
0
100
AcDbCircle
 10
152.1649994772495
 20
80.07294584213707
 30
0.0
 40
10.1
  0
LINE
  5
505E
330
1F
100
AcDbEntity
  8
0
100
AcDbLine
 10
352.2649994772496
 20
87.46849415707835
 30
0.0
 11
453.2649994772496
 21
87.46849415707835
 31
0.0
  0
LINE
  5
505F
330
1F
100
AcDbEntity
  8
0
100
AcDbLine
 10
352.2649994772496
 20
87.46849415707835
 30
0.0
 11
352.2649994772496
 21
35.46849415707834
 31
0.0
  0
LINE
  5
5060
330
1F
100
AcDbEntity
  8
0
100
AcDbLine
 10
352.2649994772496
 20
35.46849415707834
 30
0.0
 11
453.2649994772496
 21
35.46849415707834
 31
0.0
  0
LINE
  5
5061
330
1F
100
AcDbEntity
  8
0
100
AcDbLine
 10
453.2649994772496
 20
35.46849415707834
 30
0.0
 11
453.2649994772496
 21
87.46849415707835
 31
0.0
  0
LINE
  5
5062
330
1F
100
AcDbEntity
  8
0
100
AcDbLine
 10
480.2072147261385
 20
69.90522047974162
 30
0.0
 11
492.2072147261385
 21
69.90522047974162
 31
0.0
  0
LINE
  5
5063
330
1F
100
AcDbEntity
  8
0
100
AcDbLine
 10
492.2072147261385
 20
69.90522047974162
 30
0.0
 11
492.2072147261385
 21
59.90522047974162
 31
0.0
  0
LINE
  5
5064
330
1F
100
AcDbEntity
  8
0
100
AcDbLine
 10
492.2072147261385
 20
59.90522047974162
 30
0.0
 11
480.2072147261385
 21
59.90522047974162
 31
0.0
  0
LINE
  5
5065
330
1F
100
AcDbEntity
  8
0
100
AcDbLine
 10
480.2072147261385
 20
59.90522047974162
 30
0.0
 11
480.2072147261385
 21
69.90522047974162
 31
0.0
  0
LINE
  5
5066
330
1F
100
AcDbEntity
  8
0
100
AcDbLine
 10
492.2072147261385
 20
39.90522047974162
 30
0.0
 11
480.2072147261385
 21
39.90522047974162
 31
0.0
  0
LINE
  5
5067
330
1F
100
AcDbEntity
  8
0
100
AcDbLine
 10
492.2072147261385
 20
39.90522047974162
 30
0.0
 11
492.2072147261385
 21
26.90522047974162
 31
0.0
  0
LINE
  5
5068
330
1F
100
AcDbEntity
  8
0
100
AcDbLine
 10
492.2072147261385
 20
26.90522047974162
 30
0.0
 11
480.2072147261385
 21
26.90522047974162
 31
0.0
  0
LINE
  5
5069
330
1F
100
AcDbEntity
  8
0
100
AcDbLine
 10
480.2072147261385
 20
39.90522047974162
 30
0.0
 11
480.2072147261385
 21
26.90522047974162
 31
0.0
  0
LINE
  5
506A
330
1F
100
AcDbEntity
  8
0
100
AcDbLine
 10
478.9572147261385
 20
98.02849415707834
 30
0.0
 11
478.9572147261385
 21
81.0284941570784
 31
0.0
  0
LINE
  5
506B
330
1F
100
AcDbEntity
  8
0
100
AcDbLine
 10
478.9572147261385
 20
81.0284941570784
 30
0.0
 11
493.4572147261385
 21
81.0284941570784
 31
0.0
  0
LINE
  5
506C
330
1F
100
AcDbEntity
  8
0
100
AcDbLine
 10
493.4572147261385
 20
81.0284941570784
 30
0.0
 11
493.4572147261385
 21
98.02849415707834
 31
0.0
  0
LINE
  5
506D
330
1F
100
AcDbEntity
  8
0
100
AcDbLine
 10
478.9572147261385
 20
98.02849415707834
 30
0.0
 11
493.4572147261385
 21
98.02849415707834
 31
0.0
  0
LINE
  5
5076
330
1F
100
AcDbEntity
  8
0
100
AcDbLine
 10
201.7649994772496
 20
117.8229458421371
 30
0.0
 11
248.7649994772496
 21
117.8229458421371
 31
0.0
  0
LINE
  5
507B
330
1F
100
AcDbEntity
  8
0
 62
     1
100
AcDbLine
 10
152.1649994772495
 20
94.17294584213704
 30
0.0
 11
154.1649994772495
 21
94.17294584213704
 31
0.0
  0
LINE
  5
507C
330
1F
100
AcDbEntity
  8
0
 62
     1
100
AcDbLine
 10
152.1649994772495
 20
94.17294584213704
 30
0.0
 11
150.1649994772495
 21
94.17294584213704
 31
0.0
  0
LINE
  5
507D
330
1F
100
AcDbEntity
  8
0
 62
     1
100
AcDbLine
 10
152.1649994772495
 20
96.17294584213704
 30
0.0
 11
150.1649994772495
 21
94.17294584213704
 31
0.0
  0
LINE
  5
507E
330
1F
100
AcDbEntity
  8
0
 62
     1
100
AcDbLine
 10
152.1649994772495
 20
96.17294584213704
 30
0.0
 11
154.1649994772495
 21
94.17294584213704
 31
0.0
  0
LINE
  5
507F
330
1F
100
AcDbEntity
  8
0
 62
     1
100
AcDbLine
 10
152.1649994772495
 20
65.97294584213708
 30
0.0
 11
154.1649994772495
 21
65.97294584213708
 31
0.0
  0
LINE
  5
5080
330
1F
100
AcDbEntity
  8
0
 62
     1
100
AcDbLine
 10
152.1649994772495
 20
65.97294584213708
 30
0.0
 11
150.1649994772495
 21
65.97294584213708
 31
0.0
  0
LINE
  5
5081
330
1F
100
AcDbEntity
  8
0
 62
     1
100
AcDbLine
 10
152.1649994772495
 20
63.97294584213708
 30
0.0
 11
150.1649994772495
 21
65.97294584213708
 31
0.0
  0
LINE
  5
5082
330
1F
100
AcDbEntity
  8
0
 62
     1
100
AcDbLine
 10
152.1649994772495
 20
63.97294584213708
 30
0.0
 11
154.1649994772495
 21
65.97294584213708
 31
0.0
  0
LINE
  5
5083
330
1F
100
AcDbEntity
  8
0
 62
     1
100
AcDbLine
 10
138.0649994772496
 20
80.07294584213707
 30
0.0
 11
138.0649994772496
 21
82.07294584213707
 31
0.0
  0
LINE
  5
5084
330
1F
100
AcDbEntity
  8
0
 62
     1
100
AcDbLine
 10
136.0649994772496
 20
80.07294584213707
 30
0.0
 11
138.0649994772496
 21
82.07294584213707
 31
0.0
  0
LINE
  5
5085
330
1F
100
AcDbEntity
  8
0
 62
     1
100
AcDbLine
 10
138.0649994772496
 20
80.07294584213707
 30
0.0
 11
138.0649994772496
 21
78.07294584213707
 31
0.0
  0
LINE
  5
5086
330
1F
100
AcDbEntity
  8
0
 62
     1
100
AcDbLine
 10
136.0649994772496
 20
80.07294584213707
 30
0.0
 11
138.0649994772496
 21
78.07294584213707
 31
0.0
  0
LINE
  5
5087
330
1F
100
AcDbEntity
  8
0
 62
     1
100
AcDbLine
 10
168.2649994772496
 20
80.07294584213707
 30
0.0
 11
166.2649994772496
 21
78.07294584213707
 31
0.0
  0
LINE
  5
5088
330
1F
100
AcDbEntity
  8
0
 62
     1
100
AcDbLine
 10
166.2649994772496
 20
80.07294584213707
 30
0.0
 11
166.2649994772496
 21
78.07294584213707
 31
0.0
  0
LINE
  5
5089
330
1F
100
AcDbEntity
  8
0
 62
     1
100
AcDbLine
 10
168.2649994772496
 20
80.07294584213707
 30
0.0
 11
166.2649994772496
 21
82.07294584213707
 31
0.0
  0
LINE
  5
508A
330
1F
100
AcDbEntity
  8
0
 62
     1
100
AcDbLine
 10
166.2649994772496
 20
80.07294584213707
 30
0.0
 11
166.2649994772496
 21
82.07294584213707
 31
0.0
  0
CIRCLE
  5
508B
330
1F
100
AcDbEntity
  8
0
100
AcDbCircle
 10
90.7649994772496
 20
52.82294584213719
 30
0.0
 40
1.599999999999909
  0
CIRCLE
  5
508C
330
1F
100
AcDbEntity
  8
0
100
AcDbCircle
 10
67.7649994772496
 20
52.82294584213719
 30
0.0
 40
1.599999999999909
  0
CIRCLE
  5
508D
330
1F
100
AcDbEntity
  8
0
100
AcDbCircle
 10
44.7649994772496
 20
52.82294584213719
 30
0.0
 40
1.599999999999909
  0
CIRCLE
  5
508E
330
1F
100
AcDbEntity
  8
0
100
AcDbCircle
 10
258.7649994772496
 20
62.82294584213712
 30
0.0
 40
4.0
  0
LINE
  5
508F
330
1F
100
AcDbEntity
  8
0
 62
     1
100
AcDbLine
 10
95.21499947724942
 20
64.82294584213719
 30
0.0
 11
95.21499947724942
 21
67.82294584213719
 31
0.0
  0
LINE
  5
5090
330
1F
100
AcDbEntity
  8
0
 62
     1
100
AcDbLine
 10
98.66499947724947
 20
62.63294584213719
 30
0.0
 11
98.66499947724947
 21
67.82294584213719
 31
0.0
  0
LINE
  5
5091
330
1F
100
AcDbEntity
  8
0
 62
     1
100
AcDbLine
 10
102.1149994772495
 20
60.4383608044176
 30
0.0
 11
102.1149994772495
 21
67.82294584213719
 31
0.0
  0
LINE
  5
5092
330
1F
100
AcDbEntity
  8
0
 62
     1
100
AcDbLine
 10
105.5649994772496
 20
65.20243302162423
 30
0.0
 11
105.5649994772496
 21
67.82294584213719
 31
0.0
  0
LINE
  5
5093
330
1F
100
AcDbEntity
  8
0
 62
     1
100
AcDbLine
 10
113.7649994772496
 20
55.81165806939335
 30
0.0
 11
113.7649994772496
 21
57.4229458421371
 31
0.0
  0
LINE
  5
5094
330
1F
100
AcDbEntity
  8
0
 62
     1
100
AcDbLine
 10
90.7649994772496
 20
55.81165806939335
 30
0.0
 11
90.7649994772496
 21
57.4383608044176
 31
0.0
  0
LINE
  5
5095
330
1F
100
AcDbEntity
  8
0
 62
     1
100
AcDbLine
 10
67.7649994772496
 20
55.81165806939335
 30
0.0
 11
67.7649994772496
 21
57.4229458421371
 31
0.0
  0
LINE
  5
5096
330
1F
100
AcDbEntity
  8
0
 62
     1
100
AcDbLine
 10
44.7649994772496
 20
55.81165806939335
 30
0.0
 11
44.7649994772496
 21
57.4229458421371
 31
0.0
  0
LINE
  5
5097
330
1F
100
AcDbEntity
  8
0
 62
     1
100
AcDbLine
 10
93.92716163941145
 20
60.4383608044176
 30
0.0
 11
102.1149994772495
 21
60.4383608044176
 31
0.0
  0
LINE
  5
5098
330
1F
100
AcDbEntity
  8
0
 62
     1
100
AcDbLine
 10
98.66499947724947
 20
62.63294584213719
 30
0.0
 11
73.25662109887116
 21
62.63294584213719
 31
0.0
  0
LINE
  5
5099
330
1F
100
AcDbEntity
  8
0
 62
     1
100
AcDbLine
 10
95.21499947724942
 20
64.82294584213719
 30
0.0
 11
52.56499947724956
 21
64.82294584213719
 31
0.0
  0
LINE
  5
509A
330
1F
100
AcDbEntity
  8
0
 62
     1
100
AcDbLine
 10
44.7649994772496
 20
57.4229458421371
 30
0.0
 11
52.56499947724956
 21
64.82294584213719
 31
0.0
  0
LINE
  5
509B
330
1F
100
AcDbEntity
  8
0
 62
     1
100
AcDbLine
 10
67.7649994772496
 20
57.4229458421371
 30
0.0
 11
73.25662109887116
 21
62.63294584213719
 31
0.0
  0
LINE
  5
509C
330
1F
100
AcDbEntity
  8
0
 62
     1
100
AcDbLine
 10
90.7649994772496
 20
57.4383608044176
 30
0.0
 11
93.92716163941145
 21
60.4383608044176
 31
0.0
  0
LINE
  5
509D
330
1F
100
AcDbEntity
  8
0
 62
     1
100
AcDbLine
 10
113.7649994772496
 20
57.4229458421371
 30
0.0
 11
105.5649994772496
 21
65.20243302162423
 31
0.0
  0
CIRCLE
  5
509E
330
1F
100
AcDbEntity
  8
0
100
AcDbCircle
 10
113.7649994772496
 20
52.82294584213719
 30
0.0
 40
2.0
  0
INSERT
  5
509F
330
1F
100
AcDbEntity
  8
0
 62
     1
100
AcDbBlockReference
  2
ventola
 10
41.74637755962362
 20
40.83213391814489
 30
0.0
 41
0.2522359323566976
 42
0.2522359323566976
 43
0.2522359323566976
  0
INSERT
  5
50A0
330
1F
100
AcDbEntity
  8
0
 62
     1
100
AcDbBlockReference
  2
serpentina
 10
61.9708323713262
 20
43.59575391851595
 30
0.0
 41
0.4169056186694119
 42
0.4169056186694119
 43
0.4169056186694119
  0
SPLINE
  5
50A1
330
1F
100
AcDbEntity
  8
0
 62
     1
100
AcDbSpline
210
0.0
220
0.0
230
1.0
 70
     8
 71
     3
 72
     8
 73
     4
 74
     0
 42
0.0000001
 43
0.0000001
 40
0.0
 40
0.0
 40
0.0
 40
0.0
 40
1.0
 40
1.0
 40
1.0
 40
1.0
 10
89.52327019724953
 20
40.82922554553981
 30
0.0
 10
89.44984747724948
 20
40.82922554553981
 30
0.0
 10
89.37795979724933
 20
40.86489850553981
 30
0.0
 10
89.33461035724963
 20
40.93073530553981
 30
0.0
  0
SPLINE
  5
50A2
330
1F
100
AcDbEntity
  8
0
 62
     1
100
AcDbSpline
210
0.0
220
0.0
230
1.0
 70
     8
 71
     3
 72
     8
 73
     4
 74
     0
 42
0.0000001
 43
0.0000001
 40
0.0
 40
0.0
 40
0.0
 40
0.0
 40
1.0
 40
1.0
 40
1.0
 40
1.0
 10
89.33461035724963
 20
40.93073530553981
 30
0.0
 10
89.13971883724957
 20
41.22623322553981
 30
0.0
 10
89.03667403724944
 20
41.56950586553981
 30
0.0
 10
89.03667403724944
 20
41.9232543455398
 30
0.0
  0
SPLINE
  5
50A3
330
1F
100
AcDbEntity
  8
0
 62
     1
100
AcDbSpline
210
0.0
220
0.0
230
1.0
 70
     8
 71
     3
 72
     8
 73
     4
 74
     0
 42
0.0000001
 43
0.0000001
 40
0.0
 40
0.0
 40
0.0
 40
0.0
 40
1.0
 40
1.0
 40
1.0
 40
1.0
 10
89.03667403724944
 20
41.9232543455398
 30
0.0
 10
89.03667403724944
 20
42.60510330553981
 30
0.0
 10
89.31212299724939
 20
43.04943386553981
 30
0.0
 10
89.64491947724946
 20
43.51905178553982
 30
0.0
  0
SPLINE
  5
50A4
330
1F
100
AcDbEntity
  8
0
 62
     1
100
AcDbSpline
210
0.0
220
0.0
230
1.0
 70
     8
 71
     3
 72
     8
 73
     4
 74
     0
 42
0.0000001
 43
0.0000001
 40
0.0
 40
0.0
 40
0.0
 40
0.0
 40
1.0
 40
1.0
 40
1.0
 40
1.0
 10
89.64491947724946
 20
43.51905178553982
 30
0.0
 10
89.71707787724972
 20
43.62074202553981
 30
0.0
 10
89.85796331724964
 20
43.64494554553981
 30
0.0
 10
89.95965355724957
 20
43.57278682553981
 30
0.0
  0
SPLINE
  5
50A5
330
1F
100
AcDbEntity
  8
0
 62
     1
100
AcDbSpline
210
0.0
220
0.0
230
1.0
 70
     8
 71
     3
 72
     8
 73
     4
 74
     0
 42
0.0000001
 43
0.0000001
 40
0.0
 40
0.0
 40
0.0
 40
0.0
 40
1.0
 40
1.0
 40
1.0
 40
1.0
 10
89.95965355724957
 20
43.57278682553981
 30
0.0
 10
90.06134379724926
 20
43.50071866553981
 30
0.0
 10
90.08545707724943
 20
43.35974298553981
 30
0.0
 10
90.01338859724956
 20
43.25805274553981
 30
0.0
  0
SPLINE
  5
50A6
330
1F
100
AcDbEntity
  8
0
 62
     1
100
AcDbSpline
210
0.0
220
0.0
230
1.0
 70
     8
 71
     3
 72
     8
 73
     4
 74
     0
 42
0.0000001
 43
0.0000001
 40
0.0
 40
0.0
 40
0.0
 40
0.0
 40
1.0
 40
1.0
 40
1.0
 40
1.0
 10
90.01338859724956
 20
43.25805274553981
 30
0.0
 10
89.71581355724948
 20
42.83810586553982
 30
0.0
 10
89.48822955724972
 20
42.4731586655398
 30
0.0
 10
89.48822955724972
 20
41.9232543455398
 30
0.0
  0
SPLINE
  5
50A7
330
1F
100
AcDbEntity
  8
0
 62
     1
100
AcDbSpline
210
0.0
220
0.0
230
1.0
 70
     8
 71
     3
 72
     8
 73
     4
 74
     0
 42
0.0000001
 43
0.0000001
 40
0.0
 40
0.0
 40
0.0
 40
0.0
 40
1.0
 40
1.0
 40
1.0
 40
1.0
 10
89.48822955724972
 20
41.9232543455398
 30
0.0
 10
89.48822955724972
 20
41.6580108255398
 30
0.0
 10
89.5654455572494
 20
41.4008047455398
 30
0.0
 10
89.71156907724935
 20
41.17927162553981
 30
0.0
  0
SPLINE
  5
50A8
330
1F
100
AcDbEntity
  8
0
 62
     1
100
AcDbSpline
210
0.0
220
0.0
230
1.0
 70
     8
 71
     3
 72
     8
 73
     4
 74
     0
 42
0.0000001
 43
0.0000001
 40
0.0
 40
0.0
 40
0.0
 40
0.0
 40
1.0
 40
1.0
 40
1.0
 40
1.0
 10
89.71156907724935
 20
41.17927162553981
 30
0.0
 10
89.78020523724945
 20
41.0752332255398
 30
0.0
 10
89.7514865172493
 20
40.9351605855398
 30
0.0
 10
89.6474481172495
 20
40.86652410553981
 30
0.0
  0
SPLINE
  5
50A9
330
1F
100
AcDbEntity
  8
0
 62
     1
100
AcDbSpline
210
0.0
220
0.0
230
1.0
 70
     8
 71
     3
 72
     8
 73
     4
 74
     0
 42
0.0000001
 43
0.0000001
 40
0.0
 40
0.0
 40
0.0
 40
0.0
 40
1.0
 40
1.0
 40
1.0
 40
1.0
 10
89.6474481172495
 20
40.86652410553981
 30
0.0
 10
89.60906571724945
 20
40.84132730553981
 30
0.0
 10
89.5658970772497
 20
40.82922554553981
 30
0.0
 10
89.52327019724953
 20
40.82922554553981
 30
0.0
  0
SPLINE
  5
50AA
330
1F
100
AcDbEntity
  8
0
 62
     1
100
AcDbSpline
210
0.0
220
0.0
230
1.0
 70
     8
 71
     3
 72
     8
 73
     4
 74
     0
 42
0.0000001
 43
0.0000001
 40
0.0
 40
0.0
 40
0.0
 40
0.0
 40
1.0
 40
1.0
 40
1.0
 40
1.0
 10
90.7649994772496
 20
47.34192122553981
 30
0.0
 10
89.63611051724956
 20
44.63258778553981
 30
0.0
 10
88.05566603724947
 20
43.9552543455398
 30
0.0
 10
88.05566603724947
 20
41.9232543455398
 30
0.0
  0
SPLINE
  5
50AB
330
1F
100
AcDbEntity
  8
0
 62
     1
100
AcDbSpline
210
0.0
220
0.0
230
1.0
 70
     8
 71
     3
 72
     8
 73
     4
 74
     0
 42
0.0000001
 43
0.0000001
 40
0.0
 40
0.0
 40
0.0
 40
0.0
 40
1.0
 40
1.0
 40
1.0
 40
1.0
 10
88.05566603724947
 20
41.9232543455398
 30
0.0
 10
88.05566603724947
 20
40.4269797855398
 30
0.0
 10
89.26863467724934
 20
39.21392122553981
 30
0.0
 10
90.7649994772496
 20
39.21392122553981
 30
0.0
  0
SPLINE
  5
50AC
330
1F
100
AcDbEntity
  8
0
 62
     1
100
AcDbSpline
210
0.0
220
0.0
230
1.0
 70
     8
 71
     3
 72
     8
 73
     4
 74
     0
 42
0.0000001
 43
0.0000001
 40
0.0
 40
0.0
 40
0.0
 40
0.0
 40
1.0
 40
1.0
 40
1.0
 40
1.0
 10
90.7649994772496
 20
39.21392122553981
 30
0.0
 10
92.26127371724942
 20
39.21392122553981
 30
0.0
 10
93.47433259724971
 20
40.4269797855398
 30
0.0
 10
93.47433259724971
 20
41.9232543455398
 30
0.0
  0
SPLINE
  5
50AD
330
1F
100
AcDbEntity
  8
0
 62
     1
100
AcDbSpline
210
0.0
220
0.0
230
1.0
 70
     8
 71
     3
 72
     8
 73
     4
 74
     0
 42
0.0000001
 43
0.0000001
 40
0.0
 40
0.0
 40
0.0
 40
0.0
 40
1.0
 40
1.0
 40
1.0
 40
1.0
 10
93.47433259724971
 20
41.9232543455398
 30
0.0
 10
93.47433259724971
 20
43.9552543455398
 30
0.0
 10
91.89388811724984
 20
44.63258778553981
 30
0.0
 10
90.7649994772496
 20
47.34192122553981
 30
0.0
  0
LWPOLYLINE
  5
50AE
330
1F
100
AcDbEntity
  8
0
 62
     1
100
AcDbPolyline
 90
        2
 70
     0
 43
0.0
 10
89.52327019724953
 20
40.82922554553981
 10
89.52327019724953
 20
40.82922554553981
  0
INSERT
  5
50AF
330
1F
100
AcDbEntity
  8
0
100
AcDbBlockReference
  2
luci
 10
109.7372729577601
 20
39.20997156469315
 30
0.0
 41
0.2885399053849795
 42
0.2885399053849795
 43
0.2885399053849795
  0
INSERT
  5
50B0
330
1F
100
AcDbEntity
  8
0
 62
     1
100
AcDbBlockReference
  2
ventola
 10
127.0715562359044
 20
77.68517221276286
 30
0.0
 41
0.2522359323566976
 42
0.2522359323566976
 43
0.2522359323566976
  0
INSERT
  5
50B1
330
1F
100
AcDbEntity
  8
0
 62
     1
100
AcDbBlockReference
  2
serpentina
 10
168.5280232005748
 20
80.55049673539511
 30
0.0
 41
0.4169056186694119
 42
0.4169056186694119
 43
0.4169056186694119
  0
LWPOLYLINE
  5
50B2
330
1F
100
AcDbEntity
  8
0
 62
     1
100
AcDbPolyline
 90
        2
 70
     0
 43
0.0
 10
150.9419054529935
 20
100.3702265016761
 10
150.9419054529935
 20
100.3702265016761
  0
SPLINE
  5
50B3
330
1F
100
AcDbEntity
  8
0
 62
     1
100
AcDbSpline
210
0.0
220
0.0
230
1.0
 70
     8
 71
     3
 72
     8
 73
     4
 74
     0
 42
0.0000001
 43
0.0000001
 40
0.0
 40
0.0
 40
0.0
 40
0.0
 40
1.0
 40
1.0
 40
1.0
 40
1.0
 10
154.8929678529937
 20
101.4642553016761
 30
0.0
 10
154.8929678529937
 20
103.4962553016761
 30
0.0
 10
153.3125233729938
 20
104.1735887416761
 30
0.0
 10
152.1836347329936
 20
106.8829221816761
 30
0.0
  0
SPLINE
  5
50B4
330
1F
100
AcDbEntity
  8
0
 62
     1
100
AcDbSpline
210
0.0
220
0.0
230
1.0
 70
     8
 71
     3
 72
     8
 73
     4
 74
     0
 42
0.0000001
 43
0.0000001
 40
0.0
 40
0.0
 40
0.0
 40
0.0
 40
1.0
 40
1.0
 40
1.0
 40
1.0
 10
152.1836347329936
 20
98.75492218167614
 30
0.0
 10
153.6799089729934
 20
98.75492218167614
 30
0.0
 10
154.8929678529937
 20
99.96798074167612
 30
0.0
 10
154.8929678529937
 20
101.4642553016761
 30
0.0
  0
SPLINE
  5
50B5
330
1F
100
AcDbEntity
  8
0
 62
     1
100
AcDbSpline
210
0.0
220
0.0
230
1.0
 70
     8
 71
     3
 72
     8
 73
     4
 74
     0
 42
0.0000001
 43
0.0000001
 40
0.0
 40
0.0
 40
0.0
 40
0.0
 40
1.0
 40
1.0
 40
1.0
 40
1.0
 10
149.4743012929935
 20
101.4642553016761
 30
0.0
 10
149.4743012929935
 20
99.96798074167612
 30
0.0
 10
150.6872699329933
 20
98.75492218167614
 30
0.0
 10
152.1836347329936
 20
98.75492218167614
 30
0.0
  0
SPLINE
  5
50B6
330
1F
100
AcDbEntity
  8
0
 62
     1
100
AcDbSpline
210
0.0
220
0.0
230
1.0
 70
     8
 71
     3
 72
     8
 73
     4
 74
     0
 42
0.0000001
 43
0.0000001
 40
0.0
 40
0.0
 40
0.0
 40
0.0
 40
1.0
 40
1.0
 40
1.0
 40
1.0
 10
152.1836347329936
 20
106.8829221816761
 30
0.0
 10
151.0547457729936
 20
104.1735887416761
 30
0.0
 10
149.4743012929935
 20
103.4962553016761
 30
0.0
 10
149.4743012929935
 20
101.4642553016761
 30
0.0
  0
SPLINE
  5
50B7
330
1F
100
AcDbEntity
  8
0
 62
     1
100
AcDbSpline
210
0.0
220
0.0
230
1.0
 70
     8
 71
     3
 72
     8
 73
     4
 74
     0
 42
0.0000001
 43
0.0000001
 40
0.0
 40
0.0
 40
0.0
 40
0.0
 40
1.0
 40
1.0
 40
1.0
 40
1.0
 10
151.0660833729935
 20
100.4075250616761
 30
0.0
 10
151.0277009729934
 20
100.3823282616761
 30
0.0
 10
150.9845323329937
 20
100.3702265016761
 30
0.0
 10
150.9419054529935
 20
100.3702265016761
 30
0.0
  0
SPLINE
  5
50B8
330
1F
100
AcDbEntity
  8
0
 62
     1
100
AcDbSpline
210
0.0
220
0.0
230
1.0
 70
     8
 71
     3
 72
     8
 73
     4
 74
     0
 42
0.0000001
 43
0.0000001
 40
0.0
 40
0.0
 40
0.0
 40
0.0
 40
1.0
 40
1.0
 40
1.0
 40
1.0
 10
151.1302043329933
 20
100.7202725816761
 30
0.0
 10
151.1988404929934
 20
100.6162341816761
 30
0.0
 10
151.1701217729933
 20
100.4761615416761
 30
0.0
 10
151.0660833729935
 20
100.4075250616761
 30
0.0
  0
SPLINE
  5
50B9
330
1F
100
AcDbEntity
  8
0
 62
     1
100
AcDbSpline
210
0.0
220
0.0
230
1.0
 70
     8
 71
     3
 72
     8
 73
     4
 74
     0
 42
0.0000001
 43
0.0000001
 40
0.0
 40
0.0
 40
0.0
 40
0.0
 40
1.0
 40
1.0
 40
1.0
 40
1.0
 10
150.9068648129937
 20
101.4642553016761
 30
0.0
 10
150.9068648129937
 20
101.1990117816761
 30
0.0
 10
150.9840808129934
 20
100.9418057016761
 30
0.0
 10
151.1302043329933
 20
100.7202725816761
 30
0.0
  0
SPLINE
  5
50BA
330
1F
100
AcDbEntity
  8
0
 62
     1
100
AcDbSpline
210
0.0
220
0.0
230
1.0
 70
     8
 71
     3
 72
     8
 73
     4
 74
     0
 42
0.0000001
 43
0.0000001
 40
0.0
 40
0.0
 40
0.0
 40
0.0
 40
1.0
 40
1.0
 40
1.0
 40
1.0
 10
151.4320238529936
 20
102.7990537016761
 30
0.0
 10
151.1344488129935
 20
102.3791068216761
 30
0.0
 10
150.9068648129937
 20
102.0141596216761
 30
0.0
 10
150.9068648129937
 20
101.4642553016761
 30
0.0
  0
SPLINE
  5
50BB
330
1F
100
AcDbEntity
  8
0
 62
     1
100
AcDbSpline
210
0.0
220
0.0
230
1.0
 70
     8
 71
     3
 72
     8
 73
     4
 74
     0
 42
0.0000001
 43
0.0000001
 40
0.0
 40
0.0
 40
0.0
 40
0.0
 40
1.0
 40
1.0
 40
1.0
 40
1.0
 10
150.4553092929934
 20
101.4642553016761
 30
0.0
 10
150.4553092929934
 20
102.1461042616761
 30
0.0
 10
150.7307582529934
 20
102.5904348216761
 30
0.0
 10
151.0635547329935
 20
103.0600527416761
 30
0.0
  0
SPLINE
  5
50BC
330
1F
100
AcDbEntity
  8
0
 62
     1
100
AcDbSpline
210
0.0
220
0.0
230
1.0
 70
     8
 71
     3
 72
     8
 73
     4
 74
     0
 42
0.0000001
 43
0.0000001
 40
0.0
 40
0.0
 40
0.0
 40
0.0
 40
1.0
 40
1.0
 40
1.0
 40
1.0
 10
150.7532456129936
 20
100.4717362616761
 30
0.0
 10
150.5583540929936
 20
100.7672341816761
 30
0.0
 10
150.4553092929934
 20
101.1105068216761
 30
0.0
 10
150.4553092929934
 20
101.4642553016761
 30
0.0
  0
SPLINE
  5
50BD
330
1F
100
AcDbEntity
  8
0
 62
     1
100
AcDbSpline
210
0.0
220
0.0
230
1.0
 70
     8
 71
     3
 72
     8
 73
     4
 74
     0
 42
0.0000001
 43
0.0000001
 40
0.0
 40
0.0
 40
0.0
 40
0.0
 40
1.0
 40
1.0
 40
1.0
 40
1.0
 10
150.9419054529935
 20
100.3702265016761
 30
0.0
 10
150.8684827329935
 20
100.3702265016761
 30
0.0
 10
150.7965950529933
 20
100.4058994616761
 30
0.0
 10
150.7532456129936
 20
100.4717362616761
 30
0.0
  0
INSERT
  5
50BE
330
1F
100
AcDbEntity
  8
0
100
AcDbBlockReference
  2
luci
 10
148.0885093976437
 20
53.36249011704197
 30
0.0
 41
0.2885399053849795
 42
0.2885399053849795
 43
0.2885399053849795
  0
TEXT
  5
50BF
330
1F
100
AcDbEntity
  8
0
 62
     1
100
AcDbText
 10
110.3641185162387
 20
23.29939035514046
 30
0.0
 40
6.163877373336284
  1
Madrenatura
100
AcDbText
  0
LINE
  5
50C0
330
1F
100
AcDbEntity
  8
0
 62
     1
100
AcDbLine
 10
111.9276730189438
 20
33.08077431614529
 30
0.0
 11
178.8303983973346
 21
33.08077431614529
 31
0.0
  0
LINE
  5
50C1
330
1F
100
AcDbEntity
  8
0
 62
     1
100
AcDbLine
 10
108.9276730189438
 20
24.19101127827486
 30
0.0
 11
108.9276730189438
 21
30.08077431614529
 31
0.0
  0
LINE
  5
50C2
330
1F
100
AcDbEntity
  8
0
 62
     1
100
AcDbLine
 10
178.8303983973346
 20
21.19101127827486
 30
0.0
 11
111.9276730189438
 21
21.19101127827486
 31
0.0
  0
LINE
  5
50C3
330
1F
100
AcDbEntity
  8
0
 62
     1
100
AcDbLine
 10
181.8303983973346
 20
24.19101127827486
 30
0.0
 11
181.8303983973346
 21
30.08077431614529
 31
0.0
  0
ARC
  5
50C4
330
1F
100
AcDbEntity
  8
0
 62
     1
100
AcDbCircle
 10
178.8303983973346
 20
30.08077431614529
 30
0.0
 40
3.000000000000001
100
AcDbArc
 50
0.0
 51
90.0
  0
ARC
  5
50C5
330
1F
100
AcDbEntity
  8
0
 62
     1
100
AcDbCircle
 10
178.8303983973346
 20
24.19101127827486
 30
0.0
 40
3.000000000000001
100
AcDbArc
 50
270.0
 51
0.0
  0
ARC
  5
50C6
330
1F
100
AcDbEntity
  8
0
 62
     1
100
AcDbCircle
 10
111.9276730189438
 20
24.19101127827486
 30
0.0
 40
3.000000000000001
100
AcDbArc
 50
180.0
 51
270.0
  0
ARC
  5
50C7
330
1F
100
AcDbEntity
  8
0
 62
     1
100
AcDbCircle
 10
111.9276730189438
 20
30.08077431614529
 30
0.0
 40
3.000000000000001
100
AcDbArc
 50
90.0
 51
180.0
  0
LINE
  5
511F
330
1F
100
AcDbEntity
  8
0
100
AcDbLine
 10
92.7649994772496
 20
113.8229458421371
 30
0.0
 11
92.7649994772496
 21
117.8229458421371
 31
0.0
  0
LINE
  5
5120
330
1F
100
AcDbEntity
  8
0
100
AcDbLine
 10
112.7649994772496
 20
113.8229458421371
 30
0.0
 11
112.7649994772496
 21
117.8229458421371
 31
0.0
  0
LINE
  5
5121
330
1F
100
AcDbEntity
  8
0
100
AcDbLine
 10
92.7649994772496
 20
117.8229458421371
 30
0.0
 11
112.7649994772496
 21
117.8229458421371
 31
0.0
  0
LINE
  5
5122
330
1F
100
AcDbEntity
  8
0
100
AcDbLine
 10
92.7649994772496
 20
113.8229458421371
 30
0.0
 11
15.7649994772496
 21
113.8229458421371
 31
0.0
  0
LINE
  5
5127
330
1F
100
AcDbEntity
  8
0
100
AcDbLine
 10
189.7649994772496
 20
11.82294584213705
 30
0.0
 11
112.7649994772496
 21
11.82294584213705
 31
0.0
  0
LINE
  5
5129
330
1F
100
AcDbEntity
  8
0
100
AcDbLine
 10
92.7649994772496
 20
11.82294584213705
 30
0.0
 11
92.7649994772496
 21
7.822945842137045
 31
0.0
  0
LINE
  5
512A
330
1F
100
AcDbEntity
  8
0
100
AcDbLine
 10
112.7649994772496
 20
11.82294584213705
 30
0.0
 11
112.7649994772496
 21
7.822945842137045
 31
0.0
  0
LINE
  5
512B
330
1F
100
AcDbEntity
  8
0
100
AcDbLine
 10
92.7649994772496
 20
7.822945842137045
 30
0.0
 11
112.7649994772496
 21
7.822945842137045
 31
0.0
  0
LINE
  5
512C
330
1F
100
AcDbEntity
  8
0
100
AcDbLine
 10
92.7649994772496
 20
11.82294584213705
 30
0.0
 11
15.7649994772496
 21
11.82294584213705
 31
0.0
  0
LINE
  5
5175
330
1F
100
AcDbEntity
  8
0
100
AcDbLine
 10
197.7649994772496
 20
72.82294584213706
 30
0.0
 11
197.7649994772496
 21
52.82294584213706
 31
0.0
  0
LINE
  5
5176
330
1F
100
AcDbEntity
  8
0
100
AcDbLine
 10
197.7649994772496
 20
72.82294584213706
 30
0.0
 11
193.7649994772496
 21
72.82294584213705
 31
0.0
  0
LINE
  5
5177
330
1F
100
AcDbEntity
  8
0
100
AcDbLine
 10
197.7649994772496
 20
52.82294584213706
 30
0.0
 11
193.7649994772496
 21
52.82294584213706
 31
0.0
  0
LINE
  5
5178
330
1F
100
AcDbEntity
  8
0
100
AcDbLine
 10
193.7649994772496
 20
15.82294584213707
 30
0.0
 11
193.7649994772496
 21
52.82294584213706
 31
0.0
  0
LINE
  5
5185
330
1F
100
AcDbEntity
  8
0
100
AcDbLine
 10
7.764999477249603
 20
72.82294584213706
 30
0.0
 11
7.764999477249603
 21
52.82294584213706
 31
0.0
  0
LINE
  5
5186
330
1F
100
AcDbEntity
  8
0
100
AcDbLine
 10
7.764999477249603
 20
52.82294584213706
 30
0.0
 11
11.7649994772496
 21
52.82294584213706
 31
0.0
  0
LINE
  5
5187
330
1F
100
AcDbEntity
  8
0
100
AcDbLine
 10
7.764999477249603
 20
72.82294584213706
 30
0.0
 11
11.7649994772496
 21
72.82294584213705
 31
0.0
  0
LINE
  5
5188
330
1F
100
AcDbEntity
  8
0
100
AcDbLine
 10
11.7649994772496
 20
15.82294584213707
 30
0.0
 11
11.7649994772496
 21
52.82294584213706
 31
0.0
  0
LINE
  5
5189
330
1F
100
AcDbEntity
  8
0
100
AcDbLine
 10
11.7649994772496
 20
109.822945842137
 30
0.0
 11
11.7649994772496
 21
72.82294584213705
 31
0.0
  0
LINE
  5
51AD
330
1F
100
AcDbEntity
  8
0
100
AcDbLine
 10
248.7649994772496
 20
113.8229458421371
 30
0.0
 11
268.7649994772496
 21
113.8229458421371
 31
0.0
  0
LINE
  5
51AE
330
1F
100
AcDbEntity
  8
0
100
AcDbLine
 10
248.7649994772496
 20
113.8229458421371
 30
0.0
 11
248.7649994772496
 21
117.8229458421371
 31
0.0
  0
LINE
  5
51AF
330
1F
100
AcDbEntity
  8
0
100
AcDbLine
 10
268.7649994772496
 20
113.8229458421371
 30
0.0
 11
268.7649994772496
 21
117.8229458421371
 31
0.0
  0
LINE
  5
51B0
330
1F
100
AcDbEntity
  8
0
100
AcDbLine
 10
268.7649994772496
 20
117.8229458421371
 30
0.0
 11
315.7649994772496
 21
117.8229458421371
 31
0.0
  0
LINE
  5
521A
330
1F
100
AcDbEntity
  8
0
100
AcDbLine
 10
92.7649994772496
 20
239.822945842137
 30
0.0
 11
112.7649994772496
 21
239.822945842137
 31
0.0
  0
LINE
  5
521C
330
1F
100
AcDbEntity
  8
0
100
AcDbLine
 10
92.7649994772496
 20
243.822945842137
 30
0.0
 11
15.7649994772496
 21
243.822945842137
 31
0.0
  0
LINE
  5
521D
330
1F
100
AcDbEntity
  8
0
100
AcDbLine
 10
189.7649994772496
 20
243.822945842137
 30
0.0
 11
112.7649994772496
 21
243.822945842137
 31
0.0
  0
LINE
  5
5231
330
1F
100
AcDbEntity
  8
0
100
AcDbLine
 10
197.7649994772496
 20
239.8229458421371
 30
0.0
 11
189.7649994772496
 21
239.8229458421371
 31
0.0
  0
LINE
  5
5232
330
1F
100
AcDbEntity
  8
0
100
AcDbLine
 10
189.7649994772496
 20
239.8229458421371
 30
0.0
 11
189.7649994772496
 21
243.822945842137
 31
0.0
  0
LINE
  5
5238
330
1F
100
AcDbEntity
  8
0
100
AcDbLine
 10
7.764999477249603
 20
235.822945842137
 30
0.0
 11
7.764999477249603
 21
239.8229458421371
 31
0.0
  0
LINE
  5
5239
330
1F
100
AcDbEntity
  8
0
100
AcDbLine
 10
11.7649994772496
 20
235.822945842137
 30
0.0
 11
7.764999477249603
 21
235.822945842137
 31
0.0
  0
LINE
  5
523A
330
1F
100
AcDbEntity
  8
0
100
AcDbLine
 10
7.764999477249603
 20
121.8229458421371
 30
0.0
 11
11.7649994772496
 21
121.8229458421371
 31
0.0
  0
LINE
  5
523B
330
1F
100
AcDbEntity
  8
0
100
AcDbLine
 10
7.764999477249603
 20
117.8229458421371
 30
0.0
 11
7.764999477249603
 21
121.8229458421371
 31
0.0
  0
LINE
  5
523D
330
1F
100
AcDbEntity
  8
0
100
AcDbLine
 10
15.7649994772496
 20
239.8229458421371
 30
0.0
 11
7.764999477249603
 21
239.8229458421371
 31
0.0
  0
LINE
  5
523E
330
1F
100
AcDbEntity
  8
0
100
AcDbLine
 10
15.7649994772496
 20
243.822945842137
 30
0.0
 11
15.7649994772496
 21
239.8229458421371
 31
0.0
  0
LINE
  5
523F
330
1F
100
AcDbEntity
  8
0
100
AcDbLine
 10
189.7649994772496
 20
239.8229458421371
 30
0.0
 11
189.7649994772496
 21
243.822945842137
 31
0.0
  0
LINE
  5
5240
330
1F
100
AcDbEntity
  8
0
100
AcDbLine
 10
197.7649994772496
 20
239.8229458421371
 30
0.0
 11
189.7649994772496
 21
239.8229458421371
 31
0.0
  0
LINE
  5
5241
330
1F
100
AcDbEntity
  8
0
100
AcDbLine
 10
197.7649994772496
 20
235.822945842137
 30
0.0
 11
197.7649994772496
 21
239.8229458421371
 31
0.0
  0
LINE
  5
5242
330
1F
100
AcDbEntity
  8
0
100
AcDbLine
 10
193.7649994772496
 20
235.822945842137
 30
0.0
 11
197.7649994772496
 21
235.822945842137
 31
0.0
  0
LINE
  5
5243
330
1F
100
AcDbEntity
  8
0
100
AcDbLine
 10
197.7649994772496
 20
121.8229458421371
 30
0.0
 11
193.7649994772496
 21
121.8229458421371
 31
0.0
  0
LINE
  5
5244
330
1F
100
AcDbEntity
  8
0
100
AcDbLine
 10
197.7649994772496
 20
117.8229458421371
 30
0.0
 11
197.7649994772496
 21
121.8229458421371
 31
0.0
  0
LINE
  5
5247
330
1F
100
AcDbEntity
  8
0
100
AcDbLine
 10
197.7649994772496
 20
188.822945842137
 30
0.0
 11
197.7649994772496
 21
168.822945842137
 31
0.0
  0
LINE
  5
5248
330
1F
100
AcDbEntity
  8
0
100
AcDbLine
 10
197.7649994772496
 20
188.822945842137
 30
0.0
 11
193.7649994772496
 21
188.822945842137
 31
0.0
  0
LINE
  5
5249
330
1F
100
AcDbEntity
  8
0
100
AcDbLine
 10
197.7649994772496
 20
168.822945842137
 30
0.0
 11
193.7649994772496
 21
168.822945842137
 31
0.0
  0
LINE
  5
524A
330
1F
100
AcDbEntity
  8
0
100
AcDbLine
 10
193.7649994772496
 20
188.822945842137
 30
0.0
 11
193.7649994772496
 21
235.822945842137
 31
0.0
  0
LINE
  5
524B
330
1F
100
AcDbEntity
  8
0
100
AcDbLine
 10
193.7649994772496
 20
121.8229458421371
 30
0.0
 11
193.7649994772496
 21
168.822945842137
 31
0.0
  0
LINE
  5
5256
330
1F
100
AcDbEntity
  8
0
100
AcDbLine
 10
11.7649994772496
 20
121.8229458421371
 30
0.0
 11
11.7649994772496
 21
168.822945842137
 31
0.0
  0
LINE
  5
5257
330
1F
100
AcDbEntity
  8
0
100
AcDbLine
 10
11.7649994772496
 20
188.822945842137
 30
0.0
 11
11.7649994772496
 21
235.822945842137
 31
0.0
  0
LINE
  5
5258
330
1F
100
AcDbEntity
  8
0
100
AcDbLine
 10
7.764999477249603
 20
168.822945842137
 30
0.0
 11
11.7649994772496
 21
168.822945842137
 31
0.0
  0
LINE
  5
5259
330
1F
100
AcDbEntity
  8
0
100
AcDbLine
 10
7.764999477249603
 20
188.822945842137
 30
0.0
 11
11.7649994772496
 21
188.822945842137
 31
0.0
  0
LINE
  5
525A
330
1F
100
AcDbEntity
  8
0
100
AcDbLine
 10
7.764999477249603
 20
188.822945842137
 30
0.0
 11
7.764999477249603
 21
168.822945842137
 31
0.0
  0
LINE
  5
5305
330
1F
100
AcDbEntity
  8
0
100
AcDbLine
 10
92.7649994772496
 20
243.822945842137
 30
0.0
 11
92.7649994772496
 21
239.822945842137
 31
0.0
  0
LINE
  5
5306
330
1F
100
AcDbEntity
  8
0
100
AcDbLine
 10
112.7649994772496
 20
243.822945842137
 30
0.0
 11
112.7649994772496
 21
239.822945842137
 31
0.0
  0
LINE
  5
532A
330
1F
100
AcDbEntity
  8
0
100
AcDbLine
 10
197.7649994772496
 20
113.8229458421371
 30
0.0
 11
201.7649994772496
 21
113.8229458421371
 31
0.0
  0
LINE
  5
532B
330
1F
100
AcDbEntity
  8
0
100
AcDbLine
 10
201.7649994772496
 20
113.8229458421371
 30
0.0
 11
201.7649994772496
 21
117.8229458421371
 31
0.0
  0
LINE
  5
533F
330
1F
100
AcDbEntity
  8
0
100
AcDbLine
 10
197.7649994772496
 20
11.82294584213707
 30
0.0
 11
201.7649994772496
 21
11.82294584213707
 31
0.0
  0
LINE
  5
5340
330
1F
100
AcDbEntity
  8
0
100
AcDbLine
 10
201.7649994772496
 20
11.82294584213707
 30
0.0
 11
201.7649994772496
 21
7.822945842137074
 31
0.0
  0
LINE
  5
5341
330
1F
100
AcDbEntity
  8
0
100
AcDbLine
 10
323.7649994772496
 20
52.8229458421371
 30
0.0
 11
323.7649994772496
 21
15.82294584213707
 31
0.0
  0
LINE
  5
5342
330
1F
100
AcDbEntity
  8
0
100
AcDbLine
 10
319.7649994772496
 20
52.8229458421371
 30
0.0
 11
323.7649994772496
 21
52.8229458421371
 31
0.0
  0
LINE
  5
5343
330
1F
100
AcDbEntity
  8
0
100
AcDbLine
 10
319.7649994772496
 20
72.8229458421371
 30
0.0
 11
319.7649994772496
 21
52.8229458421371
 31
0.0
  0
LINE
  5
5344
330
1F
100
AcDbEntity
  8
0
100
AcDbLine
 10
323.7649994772496
 20
72.8229458421371
 30
0.0
 11
319.7649994772496
 21
72.8229458421371
 31
0.0
  0
LINE
  5
5345
330
1F
100
AcDbEntity
  8
0
100
AcDbLine
 10
323.7649994772496
 20
109.8229458421371
 30
0.0
 11
323.7649994772496
 21
72.8229458421371
 31
0.0
  0
LINE
  5
5346
330
1F
100
AcDbEntity
  8
0
100
AcDbLine
 10
315.7649994772496
 20
11.82294584213707
 30
0.0
 11
315.7649994772496
 21
7.822945842137074
 31
0.0
  0
LINE
  5
5347
330
1F
100
AcDbEntity
  8
0
100
AcDbLine
 10
319.7649994772496
 20
11.82294584213707
 30
0.0
 11
315.7649994772496
 21
11.82294584213707
 31
0.0
  0
LINE
  5
5348
330
1F
100
AcDbEntity
  8
0
100
AcDbLine
 10
319.7649994772496
 20
15.82294584213707
 30
0.0
 11
319.7649994772496
 21
11.82294584213707
 31
0.0
  0
LINE
  5
5349
330
1F
100
AcDbEntity
  8
0
100
AcDbLine
 10
323.7649994772496
 20
15.82294584213707
 30
0.0
 11
319.7649994772496
 21
15.82294584213707
 31
0.0
  0
LINE
  5
534A
330
1F
100
AcDbEntity
  8
0
100
AcDbLine
 10
323.7649994772496
 20
109.8229458421371
 30
0.0
 11
319.7649994772496
 21
109.8229458421371
 31
0.0
  0
LINE
  5
534B
330
1F
100
AcDbEntity
  8
0
100
AcDbLine
 10
319.7649994772496
 20
109.8229458421371
 30
0.0
 11
319.7649994772496
 21
113.8229458421371
 31
0.0
  0
LINE
  5
534C
330
1F
100
AcDbEntity
  8
0
100
AcDbLine
 10
319.7649994772496
 20
113.8229458421371
 30
0.0
 11
315.7649994772496
 21
113.8229458421371
 31
0.0
  0
LINE
  5
534D
330
1F
100
AcDbEntity
  8
0
100
AcDbLine
 10
315.7649994772496
 20
113.8229458421371
 30
0.0
 11
315.7649994772496
 21
117.8229458421371
 31
0.0
  0
LINE
  5
534E
330
1F
100
AcDbEntity
  8
0
100
AcDbLine
 10
268.7649994772496
 20
7.822945842137074
 30
0.0
 11
315.7649994772496
 21
7.822945842137074
 31
0.0
  0
LINE
  5
534F
330
1F
100
AcDbEntity
  8
0
100
AcDbLine
 10
268.7649994772496
 20
11.82294584213707
 30
0.0
 11
268.7649994772496
 21
7.822945842137074
 31
0.0
  0
LINE
  5
5350
330
1F
100
AcDbEntity
  8
0
100
AcDbLine
 10
248.7649994772496
 20
11.82294584213707
 30
0.0
 11
248.7649994772496
 21
7.822945842137074
 31
0.0
  0
LINE
  5
5351
330
1F
100
AcDbEntity
  8
0
100
AcDbLine
 10
248.7649994772496
 20
11.82294584213707
 30
0.0
 11
268.7649994772496
 21
11.82294584213707
 31
0.0
  0
LINE
  5
5352
330
1F
100
AcDbEntity
  8
0
100
AcDbLine
 10
201.7649994772496
 20
7.822945842137074
 30
0.0
 11
248.7649994772496
 21
7.822945842137074
 31
0.0
  0
LINE
  5
5355
330
1F
100
AcDbEntity
  8
0
100
AcDbLine
 10
404.7649994772496
 20
11.82294584213705
 30
0.0
 11
327.7649994772496
 21
11.82294584213705
 31
0.0
  0
LINE
  5
5356
330
1F
100
AcDbEntity
  8
0
100
AcDbLine
 10
404.7649994772496
 20
7.822945842137045
 30
0.0
 11
424.7649994772496
 21
7.822945842137045
 31
0.0
  0
LINE
  5
5357
330
1F
100
AcDbEntity
  8
0
100
AcDbLine
 10
424.7649994772496
 20
11.82294584213705
 30
0.0
 11
424.7649994772496
 21
7.822945842137045
 31
0.0
  0
LINE
  5
5358
330
1F
100
AcDbEntity
  8
0
100
AcDbLine
 10
404.7649994772496
 20
11.82294584213705
 30
0.0
 11
404.7649994772496
 21
7.822945842137045
 31
0.0
  0
LINE
  5
5359
330
1F
100
AcDbEntity
  8
0
100
AcDbLine
 10
501.7649994772496
 20
11.82294584213705
 30
0.0
 11
424.7649994772496
 21
11.82294584213705
 31
0.0
  0
LINE
  5
535A
330
1F
100
AcDbEntity
  8
0
100
AcDbLine
 10
509.7649994772496
 20
15.82294584213707
 30
0.0
 11
509.7649994772496
 21
7.822945842137074
 31
0.0
  0
LINE
  5
535B
330
1F
100
AcDbEntity
  8
0
100
AcDbLine
 10
319.7649994772496
 20
11.82294584213707
 30
0.0
 11
319.7649994772496
 21
7.822945842137074
 31
0.0
  0
LINE
  5
535C
330
1F
100
AcDbEntity
  8
0
100
AcDbLine
 10
501.7649994772496
 20
7.822945842137074
 30
0.0
 11
509.7649994772496
 21
7.822945842137074
 31
0.0
  0
LINE
  5
535D
330
1F
100
AcDbEntity
  8
0
100
AcDbLine
 10
501.7649994772496
 20
11.82294584213707
 30
0.0
 11
501.7649994772496
 21
7.822945842137074
 31
0.0
  0
LINE
  5
535E
330
1F
100
AcDbEntity
  8
0
100
AcDbLine
 10
327.7649994772496
 20
7.822945842137074
 30
0.0
 11
327.7649994772496
 21
11.82294584213707
 31
0.0
  0
LINE
  5
535F
330
1F
100
AcDbEntity
  8
0
100
AcDbLine
 10
319.7649994772496
 20
7.822945842137074
 30
0.0
 11
327.7649994772496
 21
7.822945842137074
 31
0.0
  0
LINE
  5
5365
330
1F
100
AcDbEntity
  8
0
100
AcDbLine
 10
404.7649994772496
 20
113.8229458421371
 30
0.0
 11
327.7649994772496
 21
113.8229458421371
 31
0.0
  0
LINE
  5
5367
330
1F
100
AcDbEntity
  8
0
100
AcDbLine
 10
319.7649994772496
 20
113.8229458421371
 30
0.0
 11
319.7649994772496
 21
117.8229458421371
 31
0.0
  0
LINE
  5
5369
330
1F
100
AcDbEntity
  8
0
100
AcDbLine
 10
327.7649994772496
 20
117.8229458421371
 30
0.0
 11
327.7649994772496
 21
113.8229458421371
 31
0.0
  0
LINE
  5
536A
330
1F
100
AcDbEntity
  8
0
100
AcDbLine
 10
319.7649994772496
 20
117.8229458421371
 30
0.0
 11
327.7649994772496
 21
117.8229458421371
 31
0.0
  0
LINE
  5
536B
330
1F
100
AcDbEntity
  8
0
100
AcDbLine
 10
404.7649994772496
 20
117.8229458421371
 30
0.0
 11
424.7649994772496
 21
117.8229458421371
 31
0.0
  0
LINE
  5
536C
330
1F
100
AcDbEntity
  8
0
100
AcDbLine
 10
424.7649994772496
 20
113.8229458421371
 30
0.0
 11
424.7649994772496
 21
117.8229458421371
 31
0.0
  0
LINE
  5
536D
330
1F
100
AcDbEntity
  8
0
100
AcDbLine
 10
404.7649994772496
 20
113.8229458421371
 30
0.0
 11
404.7649994772496
 21
117.8229458421371
 31
0.0
  0
LINE
  5
536E
330
1F
100
AcDbEntity
  8
0
100
AcDbLine
 10
509.7649994772496
 20
109.822945842137
 30
0.0
 11
509.7649994772496
 21
117.8229458421371
 31
0.0
  0
LINE
  5
536F
330
1F
100
AcDbEntity
  8
0
100
AcDbLine
 10
505.7649994772496
 20
109.822945842137
 30
0.0
 11
509.7649994772496
 21
109.822945842137
 31
0.0
  0
LINE
  5
5370
330
1F
100
AcDbEntity
  8
0
100
AcDbLine
 10
505.7649994772496
 20
109.822945842137
 30
0.0
 11
505.7649994772496
 21
72.82294584213705
 31
0.0
  0
LINE
  5
5371
330
1F
100
AcDbEntity
  8
0
100
AcDbLine
 10
501.7649994772496
 20
117.8229458421371
 30
0.0
 11
509.7649994772496
 21
117.8229458421371
 31
0.0
  0
LINE
  5
5372
330
1F
100
AcDbEntity
  8
0
100
AcDbLine
 10
501.7649994772496
 20
113.8229458421371
 30
0.0
 11
501.7649994772496
 21
117.8229458421371
 31
0.0
  0
LINE
  5
5373
330
1F
100
AcDbEntity
  8
0
100
AcDbLine
 10
501.7649994772496
 20
113.8229458421371
 30
0.0
 11
424.7649994772496
 21
113.8229458421371
 31
0.0
  0
LINE
  5
5374
330
1F
100
AcDbEntity
  8
0
100
AcDbLine
 10
505.7649994772496
 20
15.82294584213707
 30
0.0
 11
505.7649994772496
 21
52.82294584213706
 31
0.0
  0
LINE
  5
5375
330
1F
100
AcDbEntity
  8
0
100
AcDbLine
 10
509.7649994772496
 20
72.82294584213706
 30
0.0
 11
509.7649994772496
 21
52.82294584213706
 31
0.0
  0
LINE
  5
5376
330
1F
100
AcDbEntity
  8
0
100
AcDbLine
 10
505.7649994772496
 20
72.82294584213705
 30
0.0
 11
509.7649994772496
 21
72.82294584213705
 31
0.0
  0
LINE
  5
5377
330
1F
100
AcDbEntity
  8
0
100
AcDbLine
 10
505.7649994772496
 20
52.82294584213706
 30
0.0
 11
509.7649994772496
 21
52.82294584213706
 31
0.0
  0
LINE
  5
5378
330
1F
100
AcDbEntity
  8
0
100
AcDbLine
 10
505.7649994772496
 20
15.82294584213707
 30
0.0
 11
509.7649994772496
 21
15.82294584213707
 31
0.0
  0
LINE
  5
537A
330
1F
100
AcDbEntity
  8
0
100
AcDbLine
 10
203.7649994772496
 20
192.8229458421372
 30
0.0
 11
203.7649994772496
 21
239.8229458421372
 31
0.0
  0
LINE
  5
537B
330
1F
100
AcDbEntity
  8
0
100
AcDbLine
 10
207.7649994772496
 20
192.8229458421372
 30
0.0
 11
203.7649994772496
 21
192.8229458421372
 31
0.0
  0
LINE
  5
537C
330
1F
100
AcDbEntity
  8
0
100
AcDbLine
 10
207.7649994772496
 20
172.8229458421371
 30
0.0
 11
203.7649994772496
 21
172.8229458421371
 31
0.0
  0
LINE
  5
537D
330
1F
100
AcDbEntity
  8
0
100
AcDbLine
 10
207.7649994772496
 20
172.8229458421371
 30
0.0
 11
207.7649994772496
 21
192.8229458421372
 31
0.0
  0
LINE
  5
537F
330
1F
100
AcDbEntity
  8
0
100
AcDbLine
 10
268.7649994772496
 20
121.8229458421371
 30
0.0
 11
268.7649994772496
 21
117.8229458421371
 31
0.0
  0
LINE
  5
5380
330
1F
100
AcDbEntity
  8
0
100
AcDbLine
 10
248.7649994772496
 20
121.8229458421371
 30
0.0
 11
268.7649994772496
 21
121.8229458421371
 31
0.0
  0
LINE
  5
5381
330
1F
100
AcDbEntity
  8
0
100
AcDbLine
 10
248.7649994772496
 20
117.8229458421371
 30
0.0
 11
248.7649994772496
 21
121.8229458421371
 31
0.0
  0
LINE
  5
5383
330
1F
100
AcDbEntity
  8
0
100
AcDbLine
 10
203.7649994772496
 20
125.8229458421371
 30
0.0
 11
203.7649994772496
 21
172.8229458421371
 31
0.0
  0
LINE
  5
5388
330
1F
100
AcDbEntity
  8
0
100
AcDbLine
 10
211.7649994772496
 20
117.8229458421371
 30
0.0
 11
211.7649994772496
 21
121.8229458421371
 31
0.0
  0
LINE
  5
5389
330
1F
100
AcDbEntity
  8
0
100
AcDbLine
 10
211.7649994772496
 20
121.8229458421371
 30
0.0
 11
207.7649994772496
 21
121.8229458421371
 31
0.0
  0
LINE
  5
538A
330
1F
100
AcDbEntity
  8
0
100
AcDbLine
 10
207.7649994772496
 20
121.8229458421371
 30
0.0
 11
207.7649994772496
 21
125.8229458421371
 31
0.0
  0
LINE
  5
538B
330
1F
100
AcDbEntity
  8
0
100
AcDbLine
 10
207.7649994772496
 20
125.8229458421371
 30
0.0
 11
203.7649994772496
 21
125.8229458421371
 31
0.0
  0
LINE
  5
538C
330
1F
100
AcDbEntity
  8
0
100
AcDbLine
 10
309.7649994772496
 20
125.8229458421371
 30
0.0
 11
313.7649994772496
 21
125.8229458421371
 31
0.0
  0
LINE
  5
538D
330
1F
100
AcDbEntity
  8
0
100
AcDbLine
 10
309.7649994772496
 20
121.8229458421371
 30
0.0
 11
309.7649994772496
 21
125.8229458421371
 31
0.0
  0
LINE
  5
538E
330
1F
100
AcDbEntity
  8
0
100
AcDbLine
 10
305.7649994772496
 20
121.8229458421371
 30
0.0
 11
309.7649994772496
 21
121.8229458421371
 31
0.0
  0
LINE
  5
538F
330
1F
100
AcDbEntity
  8
0
100
AcDbLine
 10
305.7649994772496
 20
117.8229458421371
 30
0.0
 11
305.7649994772496
 21
121.8229458421371
 31
0.0
  0
LINE
  5
5390
330
1F
100
AcDbEntity
  8
0
100
AcDbLine
 10
207.7649994772496
 20
239.8229458421372
 30
0.0
 11
203.7649994772496
 21
239.8229458421372
 31
0.0
  0
LINE
  5
5391
330
1F
100
AcDbEntity
  8
0
100
AcDbLine
 10
207.7649994772496
 20
243.8229458421372
 30
0.0
 11
207.7649994772496
 21
239.8229458421372
 31
0.0
  0
LINE
  5
5392
330
1F
100
AcDbEntity
  8
0
100
AcDbLine
 10
211.7649994772496
 20
243.8229458421372
 30
0.0
 11
207.7649994772496
 21
243.8229458421372
 31
0.0
  0
LINE
  5
5393
330
1F
100
AcDbEntity
  8
0
100
AcDbLine
 10
211.7649994772496
 20
247.8229458421372
 30
0.0
 11
211.7649994772496
 21
243.8229458421372
 31
0.0
  0
LINE
  5
5394
330
1F
100
AcDbEntity
  8
0
100
AcDbLine
 10
305.7649994772496
 20
247.8229458421372
 30
0.0
 11
305.7649994772496
 21
243.8229458421372
 31
0.0
  0
LINE
  5
5395
330
1F
100
AcDbEntity
  8
0
100
AcDbLine
 10
305.7649994772496
 20
243.8229458421372
 30
0.0
 11
309.7649994772496
 21
243.8229458421372
 31
0.0
  0
LINE
  5
5396
330
1F
100
AcDbEntity
  8
0
100
AcDbLine
 10
309.7649994772496
 20
243.8229458421372
 30
0.0
 11
309.7649994772496
 21
239.8229458421372
 31
0.0
  0
LINE
  5
5397
330
1F
100
AcDbEntity
  8
0
100
AcDbLine
 10
309.7649994772496
 20
239.8229458421372
 30
0.0
 11
313.7649994772496
 21
239.8229458421372
 31
0.0
  0
LINE
  5
5398
330
1F
100
AcDbEntity
  8
0
100
AcDbLine
 10
211.7649994772496
 20
247.8229458421372
 30
0.0
 11
248.7649994772496
 21
247.8229458421372
 31
0.0
  0
LINE
  5
5399
330
1F
100
AcDbEntity
  8
0
100
AcDbLine
 10
248.7649994772496
 20
247.8229458421372
 30
0.0
 11
248.7649994772496
 21
243.8229458421372
 31
0.0
  0
LINE
  5
539A
330
1F
100
AcDbEntity
  8
0
100
AcDbLine
 10
248.7649994772496
 20
243.8229458421372
 30
0.0
 11
268.7649994772496
 21
243.8229458421372
 31
0.0
  0
LINE
  5
539B
330
1F
100
AcDbEntity
  8
0
100
AcDbLine
 10
268.7649994772496
 20
243.8229458421372
 30
0.0
 11
268.7649994772496
 21
247.8229458421372
 31
0.0
  0
LINE
  5
539C
330
1F
100
AcDbEntity
  8
0
100
AcDbLine
 10
268.7649994772496
 20
247.8229458421372
 30
0.0
 11
305.7649994772496
 21
247.8229458421372
 31
0.0
  0
LINE
  5
539D
330
1F
100
AcDbEntity
  8
0
100
AcDbLine
 10
313.7649994772496
 20
125.8229458421371
 30
0.0
 11
313.7649994772496
 21
172.8229458421371
 31
0.0
  0
LINE
  5
539E
330
1F
100
AcDbEntity
  8
0
100
AcDbLine
 10
309.7649994772496
 20
172.8229458421371
 30
0.0
 11
309.7649994772496
 21
192.8229458421372
 31
0.0
  0
LINE
  5
539F
330
1F
100
AcDbEntity
  8
0
100
AcDbLine
 10
309.7649994772496
 20
172.8229458421371
 30
0.0
 11
313.7649994772496
 21
172.8229458421371
 31
0.0
  0
LINE
  5
53A0
330
1F
100
AcDbEntity
  8
0
100
AcDbLine
 10
309.7649994772496
 20
192.8229458421372
 30
0.0
 11
313.7649994772496
 21
192.8229458421372
 31
0.0
  0
LINE
  5
53A1
330
1F
100
AcDbEntity
  8
0
100
AcDbLine
 10
313.7649994772496
 20
192.8229458421372
 30
0.0
 11
313.7649994772496
 21
239.8229458421372
 31
0.0
  0
LINE
  5
5411
330
1F
100
AcDbEntity
  8
0
100
AcDbLine
 10
319.7649994772496
 20
188.822945842137
 30
0.0
 11
319.7649994772496
 21
168.822945842137
 31
0.0
  0
LINE
  5
5412
330
1F
100
AcDbEntity
  8
0
100
AcDbLine
 10
323.7649994772496
 20
188.822945842137
 30
0.0
 11
323.7649994772496
 21
235.822945842137
 31
0.0
  0
LINE
  5
5413
330
1F
100
AcDbEntity
  8
0
100
AcDbLine
 10
323.7649994772496
 20
121.8229458421371
 30
0.0
 11
323.7649994772496
 21
168.822945842137
 31
0.0
  0
LINE
  5
5414
330
1F
100
AcDbEntity
  8
0
100
AcDbLine
 10
505.7649994772496
 20
121.8229458421371
 30
0.0
 11
505.7649994772496
 21
168.822945842137
 31
0.0
  0
LINE
  5
5415
330
1F
100
AcDbEntity
  8
0
100
AcDbLine
 10
505.7649994772496
 20
188.822945842137
 30
0.0
 11
505.7649994772496
 21
235.822945842137
 31
0.0
  0
LINE
  5
5416
330
1F
100
AcDbEntity
  8
0
100
AcDbLine
 10
509.7649994772496
 20
168.822945842137
 30
0.0
 11
505.7649994772496
 21
168.822945842137
 31
0.0
  0
LINE
  5
5417
330
1F
100
AcDbEntity
  8
0
100
AcDbLine
 10
509.7649994772496
 20
188.822945842137
 30
0.0
 11
505.7649994772496
 21
188.822945842137
 31
0.0
  0
LINE
  5
5418
330
1F
100
AcDbEntity
  8
0
100
AcDbLine
 10
509.7649994772496
 20
188.822945842137
 30
0.0
 11
509.7649994772496
 21
168.822945842137
 31
0.0
  0
LINE
  5
541B
330
1F
100
AcDbEntity
  8
0
100
AcDbLine
 10
509.7649994772496
 20
117.8229458421371
 30
0.0
 11
509.7649994772496
 21
121.8229458421371
 31
0.0
  0
LINE
  5
541C
330
1F
100
AcDbEntity
  8
0
100
AcDbLine
 10
509.7649994772496
 20
121.8229458421371
 30
0.0
 11
505.7649994772496
 21
121.8229458421371
 31
0.0
  0
LINE
  5
541D
330
1F
100
AcDbEntity
  8
0
100
AcDbLine
 10
505.7649994772496
 20
235.822945842137
 30
0.0
 11
509.7649994772496
 21
235.822945842137
 31
0.0
  0
LINE
  5
541E
330
1F
100
AcDbEntity
  8
0
100
AcDbLine
 10
509.7649994772496
 20
235.822945842137
 30
0.0
 11
509.7649994772496
 21
239.8229458421371
 31
0.0
  0
LINE
  5
541F
330
1F
100
AcDbEntity
  8
0
100
AcDbLine
 10
509.7649994772496
 20
239.8229458421371
 30
0.0
 11
501.7649994772496
 21
239.8229458421371
 31
0.0
  0
LINE
  5
5420
330
1F
100
AcDbEntity
  8
0
100
AcDbLine
 10
501.7649994772496
 20
239.8229458421371
 30
0.0
 11
501.7649994772496
 21
243.822945842137
 31
0.0
  0
LINE
  5
5421
330
1F
100
AcDbEntity
  8
0
100
AcDbLine
 10
327.7649994772496
 20
243.822945842137
 30
0.0
 11
327.7649994772496
 21
239.8229458421371
 31
0.0
  0
LINE
  5
5422
330
1F
100
AcDbEntity
  8
0
100
AcDbLine
 10
327.7649994772496
 20
239.8229458421371
 30
0.0
 11
319.7649994772496
 21
239.8229458421371
 31
0.0
  0
LINE
  5
5424
330
1F
100
AcDbEntity
  8
0
100
AcDbLine
 10
319.7649994772496
 20
117.8229458421371
 30
0.0
 11
319.7649994772496
 21
121.8229458421371
 31
0.0
  0
LINE
  5
5425
330
1F
100
AcDbEntity
  8
0
100
AcDbLine
 10
319.7649994772496
 20
121.8229458421371
 30
0.0
 11
323.7649994772496
 21
121.8229458421371
 31
0.0
  0
LINE
  5
5426
330
1F
100
AcDbEntity
  8
0
100
AcDbLine
 10
323.7649994772496
 20
235.822945842137
 30
0.0
 11
319.7649994772496
 21
235.822945842137
 31
0.0
  0
LINE
  5
5427
330
1F
100
AcDbEntity
  8
0
100
AcDbLine
 10
319.7649994772496
 20
235.822945842137
 30
0.0
 11
319.7649994772496
 21
239.8229458421371
 31
0.0
  0
LINE
  5
5429
330
1F
100
AcDbEntity
  8
0
100
AcDbLine
 10
501.7649994772496
 20
239.8229458421371
 30
0.0
 11
501.7649994772496
 21
243.822945842137
 31
0.0
  0
LINE
  5
542A
330
1F
100
AcDbEntity
  8
0
100
AcDbLine
 10
509.7649994772496
 20
239.8229458421371
 30
0.0
 11
501.7649994772496
 21
239.8229458421371
 31
0.0
  0
LINE
  5
5430
330
1F
100
AcDbEntity
  8
0
100
AcDbLine
 10
501.7649994772496
 20
243.822945842137
 30
0.0
 11
424.7649994772496
 21
243.822945842137
 31
0.0
  0
LINE
  5
5431
330
1F
100
AcDbEntity
  8
0
100
AcDbLine
 10
404.7649994772496
 20
243.822945842137
 30
0.0
 11
327.7649994772496
 21
243.822945842137
 31
0.0
  0
LINE
  5
5432
330
1F
100
AcDbEntity
  8
0
100
AcDbLine
 10
404.7649994772496
 20
239.822945842137
 30
0.0
 11
424.7649994772496
 21
239.822945842137
 31
0.0
  0
LINE
  5
5433
330
1F
100
AcDbEntity
  8
0
100
AcDbLine
 10
319.7649994772496
 20
188.822945842137
 30
0.0
 11
323.7649994772496
 21
188.822945842137
 31
0.0
  0
LINE
  5
5434
330
1F
100
AcDbEntity
  8
0
100
AcDbLine
 10
319.7649994772496
 20
168.822945842137
 30
0.0
 11
323.7649994772496
 21
168.822945842137
 31
0.0
  0
LINE
  5
5435
330
1F
100
AcDbEntity
  8
0
100
AcDbLine
 10
404.7649994772496
 20
243.822945842137
 30
0.0
 11
404.7649994772496
 21
239.822945842137
 31
0.0
  0
LINE
  5
5436
330
1F
100
AcDbEntity
  8
0
100
AcDbLine
 10
424.7649994772496
 20
243.822945842137
 30
0.0
 11
424.7649994772496
 21
239.822945842137
 31
0.0
  0
ENDSEC
  0
SECTION
  2
OBJECTS
  0
DICTIONARY
  5
C
330
0
100
AcDbDictionary
281
     1
  3
ACAD_GROUP
350
D
  3
ACAD_IMAGE_DICT
350
3D8F
  3
ACAD_IMAGE_VARS
350
6A
  3
ACAD_LAYOUT
350
1A
  3
ACAD_MLINESTYLE
350
17
  3
ACAD_PLOTSETTINGS
350
19
  3
ACAD_PLOTSTYLENAME
350
E
  3
ACAD_SCALELIST
350
40
  3
ACDB_RECOMPOSE_DATA
350
65
  3
AcDbVariableDictionary
350
3D
  3
APPDATA
350
71
  0
DICTIONARY
  5
D
102
{ACAD_REACTORS
330
C
102
}
330
C
100
AcDbDictionary
281
     1
  0
DICTIONARY
  5
3D8F
102
{ACAD_REACTORS
330
C
102
}
330
C
100
AcDbDictionary
281
     1
  0
RASTERVARIABLES
  5
6A
102
{ACAD_REACTORS
330
C
102
}
330
C
100
AcDbRasterVariables
 90
        0
 70
     1
 71
     1
 72
     1
  0
DICTIONARY
  5
1A
102
{ACAD_REACTORS
330
C
102
}
330
C
100
AcDbDictionary
281
     1
  3
Model
350
22
  3
Sheet1
350
1E
  3
Sheet2
350
26
  0
DICTIONARY
  5
17
102
{ACAD_REACTORS
330
C
102
}
330
C
100
AcDbDictionary
281
     1
  3
Standard
350
18
  0
DICTIONARY
  5
19
102
{ACAD_REACTORS
330
C
102
}
330
C
100
AcDbDictionary
281
     1
  0
ACDBDICTIONARYWDFLT
  5
E
102
{ACAD_REACTORS
330
C
102
}
330
C
100
AcDbDictionary
281
     1
  3
Normal
350
F
100
AcDbDictionaryWithDefault
340
F
  0
DICTIONARY
  5
40
102
{ACAD_REACTORS
330
C
102
}
330
C
100
AcDbDictionary
281
     1
  3
A0
350
41
  3
A1
350
42
  3
A2
350
43
  3
A3
350
44
  3
A4
350
45
  3
A5
350
46
  3
A6
350
47
  3
A7
350
48
  3
A8
350
49
  3
A9
350
4A
  3
B0
350
4B
  3
B1
350
4C
  3
B2
350
4D
  3
B3
350
4E
  3
B4
350
4F
  3
B5
350
50
  3
B6
350
51
  3
B7
350
52
  3
B8
350
53
  3
B9
350
54
  3
C0
350
55
  3
C1
350
56
  3
C2
350
57
  3
C3
350
58
  3
C4
350
59
  3
C5
350
5A
  3
C6
350
5B
  3
C7
350
5C
  3
C8
350
5D
  3
C9
350
5E
  3
D0
350
5F
  3
D1
350
60
  3
D2
350
61
  0
XRECORD
  5
65
102
{ACAD_REACTORS
330
C
102
}
330
C
100
AcDbXrecord
280
     1
 90
        1
330
0
330
3D98
  0
DICTIONARY
  5
3D
102
{ACAD_REACTORS
330
C
102
}
330
C
100
AcDbDictionary
281
     1
  3
CANNOSCALE
350
585A
  0
DICTIONARY
  5
71
102
{ACAD_REACTORS
330
C
102
}
330
C
100
AcDbDictionary
281
     1
  0
LAYOUT
  5
22
102
{ACAD_REACTORS
330
1A
102
}
330
1A
100
AcDbPlotSettings
  1

  2
none_device
  4
ISO_A3_(420.00_x_297.00_MM)
  6

 40
7.5
 41
20.0
 42
7.5
 43
20.0
 44
420.0
 45
297.0
 46
20.78282828282826
 47
0.0
 48
0.0
 49
0.0
140
0.0
141
0.0
142
1.0
143
1.155642023346303
 70
  1204
 72
     1
 73
     0
 74
     1
  7
monochrome.ctb
 75
     0
147
0.8653198653198654
148
-134.1869158878504
149
0.0
100
AcDbLayout
  1
Model
 70
     1
 71
     0
 10
0.0
 20
0.0
 11
420.0
 21
297.0
 12
0.0
 22
0.0
 32
0.0
 14
1.000000000000000E+20
 24
1.000000000000000E+20
 34
1.000000000000000E+20
 15
-1.000000000000000E+20
 25
-1.000000000000000E+20
 35
-1.000000000000000E+20
146
0.0
 13
0.0
 23
0.0
 33
0.0
 16
1.0
 26
0.0
 36
0.0
 17
0.0
 27
1.0
 37
0.0
 76
     0
330
1F
331
29
  0
LAYOUT
  5
1E
102
{ACAD_REACTORS
330
1A
102
}
330
1A
100
AcDbPlotSettings
  1

  2
none_device
  4

  6

 40
0.0
 41
0.0
 42
0.0
 43
0.0
 44
0.0
 45
0.0
 46
0.0
 47
0.0
 48
0.0
 49
0.0
140
0.0
141
0.0
142
1.0
143
1.0
 70
   688
 72
     0
 73
     0
 74
     5
  7

 75
    16
147
1.0
148
0.0
149
0.0
100
AcDbLayout
  1
Sheet1
 70
     1
 71
     1
 10
0.0
 20
0.0
 11
420.0
 21
297.0
 12
0.0
 22
0.0
 32
0.0
 14
1.000000000000000E+20
 24
1.000000000000000E+20
 34
1.000000000000000E+20
 15
-1.000000000000000E+20
 25
-1.000000000000000E+20
 35
-1.000000000000000E+20
146
0.0
 13
0.0
 23
0.0
 33
0.0
 16
1.0
 26
0.0
 36
0.0
 17
0.0
 27
1.0
 37
0.0
 76
     0
330
1B
  0
LAYOUT
  5
26
102
{ACAD_REACTORS
330
1A
102
}
330
1A
100
AcDbPlotSettings
  1

  2
none_device
  4

  6

 40
0.0
 41
0.0
 42
0.0
 43
0.0
 44
0.0
 45
0.0
 46
0.0
 47
0.0
 48
0.0
 49
0.0
140
0.0
141
0.0
142
1.0
143
1.0
 70
   688
 72
     0
 73
     0
 74
     5
  7

 75
    16
147
1.0
148
0.0
149
0.0
100
AcDbLayout
  1
Sheet2
 70
     1
 71
     2
 10
0.0
 20
0.0
 11
0.0
 21
0.0
 12
0.0
 22
0.0
 32
0.0
 14
0.0
 24
0.0
 34
0.0
 15
0.0
 25
0.0
 35
0.0
146
0.0
 13
0.0
 23
0.0
 33
0.0
 16
1.0
 26
0.0
 36
0.0
 17
0.0
 27
1.0
 37
0.0
 76
     0
330
23
  0
MLINESTYLE
  5
18
102
{ACAD_REACTORS
330
17
102
}
330
17
100
AcDbMlineStyle
  2
Standard
 70
     0
  3

 62
   256
 51
90.0
 52
90.0
 71
     2
 49
0.5
 62
   256
  6
BYLAYER
 49
-0.5
 62
   256
  6
BYLAYER
  0
ACDBPLACEHOLDER
  5
F
102
{ACAD_REACTORS
330
E
102
}
330
E
  0
SCALE
  5
41
102
{ACAD_REACTORS
330
40
102
}
330
40
100
AcDbScale
 70
     0
300
1:1
140
1.0
141
1.0
290
     1
  0
SCALE
  5
42
102
{ACAD_REACTORS
330
40
102
}
330
40
100
AcDbScale
 70
     0
300
1:2
140
1.0
141
2.0
290
     0
  0
SCALE
  5
43
102
{ACAD_REACTORS
330
40
102
}
330
40
100
AcDbScale
 70
     0
300
1:4
140
1.0
141
4.0
290
     0
  0
SCALE
  5
44
102
{ACAD_REACTORS
330
40
102
}
330
40
100
AcDbScale
 70
     0
300
1:5
140
1.0
141
5.0
290
     0
  0
SCALE
  5
45
102
{ACAD_REACTORS
330
40
102
}
330
40
100
AcDbScale
 70
     0
300
1:8
140
1.0
141
8.0
290
     0
  0
SCALE
  5
46
102
{ACAD_REACTORS
330
40
102
}
330
40
100
AcDbScale
 70
     0
300
1:10
140
1.0
141
10.0
290
     0
  0
SCALE
  5
47
102
{ACAD_REACTORS
330
40
102
}
330
40
100
AcDbScale
 70
     0
300
1:16
140
1.0
141
16.0
290
     0
  0
SCALE
  5
48
102
{ACAD_REACTORS
330
40
102
}
330
40
100
AcDbScale
 70
     0
300
1:20
140
1.0
141
20.0
290
     0
  0
SCALE
  5
49
102
{ACAD_REACTORS
330
40
102
}
330
40
100
AcDbScale
 70
     0
300
1:30
140
1.0
141
30.0
290
     0
  0
SCALE
  5
4A
102
{ACAD_REACTORS
330
40
102
}
330
40
100
AcDbScale
 70
     0
300
1:40
140
1.0
141
40.0
290
     0
  0
SCALE
  5
4B
102
{ACAD_REACTORS
330
40
102
}
330
40
100
AcDbScale
 70
     0
300
1:50
140
1.0
141
50.0
290
     0
  0
SCALE
  5
4C
102
{ACAD_REACTORS
330
40
102
}
330
40
100
AcDbScale
 70
     0
300
1:100
140
1.0
141
100.0
290
     0
  0
SCALE
  5
4D
102
{ACAD_REACTORS
330
40
102
}
330
40
100
AcDbScale
 70
     0
300
2:1
140
2.0
141
1.0
290
     0
  0
SCALE
  5
4E
102
{ACAD_REACTORS
330
40
102
}
330
40
100
AcDbScale
 70
     0
300
4:1
140
4.0
141
1.0
290
     0
  0
SCALE
  5
4F
102
{ACAD_REACTORS
330
40
102
}
330
40
100
AcDbScale
 70
     0
300
8:1
140
8.0
141
1.0
290
     0
  0
SCALE
  5
50
102
{ACAD_REACTORS
330
40
102
}
330
40
100
AcDbScale
 70
     0
300
10:1
140
10.0
141
1.0
290
     0
  0
SCALE
  5
51
102
{ACAD_REACTORS
330
40
102
}
330
40
100
AcDbScale
 70
     0
300
100:1
140
100.0
141
1.0
290
     0
  0
SCALE
  5
52
102
{ACAD_REACTORS
330
40
102
}
330
40
100
AcDbScale
 70
     0
300
1/128" = 1'-0"
140
0.0078125
141
12.0
290
     0
  0
SCALE
  5
53
102
{ACAD_REACTORS
330
40
102
}
330
40
100
AcDbScale
 70
     0
300
1/64" = 1'-0"
140
0.015625
141
12.0
290
     0
  0
SCALE
  5
54
102
{ACAD_REACTORS
330
40
102
}
330
40
100
AcDbScale
 70
     0
300
1/32" = 1'-0"
140
0.03125
141
12.0
290
     0
  0
SCALE
  5
55
102
{ACAD_REACTORS
330
40
102
}
330
40
100
AcDbScale
 70
     0
300
1/16" = 1'-0"
140
0.0625
141
12.0
290
     0
  0
SCALE
  5
56
102
{ACAD_REACTORS
330
40
102
}
330
40
100
AcDbScale
 70
     0
300
3/32" = 1'-0"
140
0.09375
141
12.0
290
     0
  0
SCALE
  5
57
102
{ACAD_REACTORS
330
40
102
}
330
40
100
AcDbScale
 70
     0
300
1/8" = 1'-0"
140
0.125
141
12.0
290
     0
  0
SCALE
  5
58
102
{ACAD_REACTORS
330
40
102
}
330
40
100
AcDbScale
 70
     0
300
3/16" = 1'-0"
140
0.1875
141
12.0
290
     0
  0
SCALE
  5
59
102
{ACAD_REACTORS
330
40
102
}
330
40
100
AcDbScale
 70
     0
300
1/4" = 1'-0"
140
0.25
141
12.0
290
     0
  0
SCALE
  5
5A
102
{ACAD_REACTORS
330
40
102
}
330
40
100
AcDbScale
 70
     0
300
3/8" = 1'-0"
140
0.375
141
12.0
290
     0
  0
SCALE
  5
5B
102
{ACAD_REACTORS
330
40
102
}
330
40
100
AcDbScale
 70
     0
300
1/2" = 1'-0"
140
0.5
141
12.0
290
     0
  0
SCALE
  5
5C
102
{ACAD_REACTORS
330
40
102
}
330
40
100
AcDbScale
 70
     0
300
3/4" = 1'-0"
140
0.75
141
12.0
290
     0
  0
SCALE
  5
5D
102
{ACAD_REACTORS
330
40
102
}
330
40
100
AcDbScale
 70
     0
300
1" = 1'-0"
140
1.0
141
12.0
290
     0
  0
SCALE
  5
5E
102
{ACAD_REACTORS
330
40
102
}
330
40
100
AcDbScale
 70
     0
300
1-1/2" = 1'-0"
140
1.5
141
12.0
290
     0
  0
SCALE
  5
5F
102
{ACAD_REACTORS
330
40
102
}
330
40
100
AcDbScale
 70
     0
300
3" = 1'-0"
140
3.0
141
12.0
290
     0
  0
SCALE
  5
60
102
{ACAD_REACTORS
330
40
102
}
330
40
100
AcDbScale
 70
     0
300
6" = 1'-0"
140
6.0
141
12.0
290
     0
  0
SCALE
  5
61
102
{ACAD_REACTORS
330
40
102
}
330
40
100
AcDbScale
 70
     0
300
1'-0" = 1'-0"
140
12.0
141
12.0
290
     0
  0
DICTIONARYVAR
  5
585A
102
{ACAD_REACTORS
330
3D
102
}
330
3D
100
DictionaryVariables
280
     0
  1
1:1
  0
ENDSEC
  0
EOF
