  0
SECTION
  2
HEADER
  9
$ACADVER
  1
AC1015
  9
$ACADMAINTVER
 70
     6
  9
$DWGCODEPAGE
  3
ANSI_1252
  9
$INSBASE
 10
0.0
 20
0.0
 30
0.0
  9
$EXTMIN
 10
-232.5324895664855
 20
1922.361827008169
 30
0.0
  9
$EXTMAX
 10
585.4324019913176
 20
2286.707794680845
 30
0.0
  9
$LIMMIN
 10
0.0
 20
0.0
  9
$LIMMAX
 10
420.0
 20
297.0
  9
$ORTHOMODE
 70
     0
  9
$REGENMODE
 70
     1
  9
$FILLMODE
 70
     1
  9
$QTEXTMODE
 70
     0
  9
$MIRRTEXT
 70
     0
  9
$LTSCALE
 40
1.0
  9
$ATTMODE
 70
     1
  9
$TEXTSIZE
 40
2.5
  9
$TRACEWID
 40
1.0
  9
$TEXTSTYLE
  7
Standard
  9
$CLAYER
  8
0
  9
$CELTYPE
  6
ByLayer
  9
$CECOLOR
 62
   256
  9
$CELTSCALE
 40
1.0
  9
$DISPSILH
 70
     0
  9
$DIMSCALE
 40
1.0
  9
$DIMASZ
 40
2.5
  9
$DIMEXO
 40
0.625
  9
$DIMDLI
 40
3.75
  9
$DIMRND
 40
0.0
  9
$DIMDLE
 40
0.0
  9
$DIMEXE
 40
1.25
  9
$DIMTP
 40
0.0
  9
$DIMTM
 40
0.0
  9
$DIMTXT
 40
2.5
  9
$DIMCEN
 40
2.5
  9
$DIMTSZ
 40
0.0
  9
$DIMTOL
 70
     0
  9
$DIMLIM
 70
     0
  9
$DIMTIH
 70
     0
  9
$DIMTOH
 70
     0
  9
$DIMSE1
 70
     0
  9
$DIMSE2
 70
     0
  9
$DIMTAD
 70
     1
  9
$DIMZIN
 70
     8
  9
$DIMBLK
  1

  9
$DIMASO
 70
     1
  9
$DIMSHO
 70
     1
  9
$DIMPOST
  1

  9
$DIMAPOST
  1

  9
$DIMALT
 70
     0
  9
$DIMALTD
 70
     3
  9
$DIMALTF
 40
0.03937007874016
  9
$DIMLFAC
 40
1.0
  9
$DIMTOFL
 70
     1
  9
$DIMTVP
 40
0.0
  9
$DIMTIX
 70
     0
  9
$DIMSOXD
 70
     0
  9
$DIMSAH
 70
     0
  9
$DIMBLK1
  1

  9
$DIMBLK2
  1

  9
$DIMSTYLE
  2
ISO-25
  9
$DIMCLRD
 70
     0
  9
$DIMCLRE
 70
     0
  9
$DIMCLRT
 70
     0
  9
$DIMTFAC
 40
1.0
  9
$DIMGAP
 40
0.625
  9
$DIMJUST
 70
     0
  9
$DIMSD1
 70
     0
  9
$DIMSD2
 70
     0
  9
$DIMTOLJ
 70
     0
  9
$DIMTZIN
 70
     8
  9
$DIMALTZ
 70
     0
  9
$DIMALTTZ
 70
     0
  9
$DIMUPT
 70
     0
  9
$DIMDEC
 70
     2
  9
$DIMTDEC
 70
     2
  9
$DIMALTU
 70
     2
  9
$DIMALTTD
 70
     3
  9
$DIMTXSTY
  7
Standard
  9
$DIMAUNIT
 70
     0
  9
$DIMADEC
 70
     0
  9
$DIMALTRND
 40
0.0
  9
$DIMAZIN
 70
     0
  9
$DIMDSEP
 70
    44
  9
$DIMATFIT
 70
     3
  9
$DIMFRAC
 70
     0
  9
$DIMLDRBLK
  1

  9
$DIMLUNIT
 70
     2
  9
$DIMLWD
 70
    -2
  9
$DIMLWE
 70
    -2
  9
$DIMTMOVE
 70
     0
  9
$LUNITS
 70
     2
  9
$LUPREC
 70
     3
  9
$SKETCHINC
 40
1.0
  9
$FILLETRAD
 40
0.0
  9
$AUNITS
 70
     0
  9
$AUPREC
 70
     0
  9
$MENU
  1
.
  9
$ELEVATION
 40
0.0
  9
$PELEVATION
 40
0.0
  9
$THICKNESS
 40
0.0
  9
$LIMCHECK
 70
     0
  9
$CHAMFERA
 40
10.0
  9
$CHAMFERB
 40
10.0
  9
$CHAMFERC
 40
20.0
  9
$CHAMFERD
 40
0.0
  9
$SKPOLY
 70
     0
  9
$TDCREATE
 40
2455022.67902618
  9
$TDUCREATE
 40
2455022.637359514
  9
$TDUPDATE
 40
2457448.960428241
  9
$TDUUPDATE
 40
2457448.918761574
  9
$TDINDWG
 40
0.0000000116
  9
$TDUSRTIMER
 40
2457448.917986111
  9
$USRTIMER
 70
     1
  9
$ANGBASE
 50
0.0
  9
$ANGDIR
 70
     0
  9
$PDMODE
 70
     0
  9
$PDSIZE
 40
5.0
  9
$PLINEWID
 40
0.0
  9
$SPLFRAME
 70
     0
  9
$SPLINETYPE
 70
     6
  9
$SPLINESEGS
 70
     8
  9
$HANDSEED
  5
2B3
  9
$SURFTAB1
 70
     6
  9
$SURFTAB2
 70
     6
  9
$SURFTYPE
 70
     6
  9
$SURFU
 70
     6
  9
$SURFV
 70
     6
  9
$UCSBASE
  2

  9
$UCSNAME
  2

  9
$UCSORG
 10
0.0
 20
0.0
 30
0.0
  9
$UCSXDIR
 10
1.0
 20
0.0
 30
0.0
  9
$UCSYDIR
 10
0.0
 20
1.0
 30
0.0
  9
$UCSORTHOREF
  2

  9
$UCSORTHOVIEW
 70
     0
  9
$UCSORGTOP
 10
0.0
 20
0.0
 30
0.0
  9
$UCSORGBOTTOM
 10
0.0
 20
0.0
 30
0.0
  9
$UCSORGLEFT
 10
0.0
 20
0.0
 30
0.0
  9
$UCSORGRIGHT
 10
0.0
 20
0.0
 30
0.0
  9
$UCSORGFRONT
 10
0.0
 20
0.0
 30
0.0
  9
$UCSORGBACK
 10
0.0
 20
0.0
 30
0.0
  9
$PUCSBASE
  2

  9
$PUCSNAME
  2

  9
$PUCSORG
 10
0.0
 20
0.0
 30
0.0
  9
$PUCSXDIR
 10
1.0
 20
0.0
 30
0.0
  9
$PUCSYDIR
 10
0.0
 20
1.0
 30
0.0
  9
$PUCSORTHOREF
  2

  9
$PUCSORTHOVIEW
 70
     0
  9
$PUCSORGTOP
 10
0.0
 20
0.0
 30
0.0
  9
$PUCSORGBOTTOM
 10
0.0
 20
0.0
 30
0.0
  9
$PUCSORGLEFT
 10
0.0
 20
0.0
 30
0.0
  9
$PUCSORGRIGHT
 10
0.0
 20
0.0
 30
0.0
  9
$PUCSORGFRONT
 10
0.0
 20
0.0
 30
0.0
  9
$PUCSORGBACK
 10
0.0
 20
0.0
 30
0.0
  9
$USERI1
 70
     0
  9
$USERI2
 70
     0
  9
$USERI3
 70
     0
  9
$USERI4
 70
     0
  9
$USERI5
 70
     0
  9
$USERR1
 40
0.0
  9
$USERR2
 40
0.0
  9
$USERR3
 40
0.0
  9
$USERR4
 40
0.0
  9
$USERR5
 40
0.0
  9
$WORLDVIEW
 70
     1
  9
$SHADEDGE
 70
     3
  9
$SHADEDIF
 70
    70
  9
$TILEMODE
 70
     1
  9
$MAXACTVP
 70
    64
  9
$PINSBASE
 10
0.0
 20
0.0
 30
0.0
  9
$PLIMCHECK
 70
     0
  9
$PEXTMIN
 10
1.000000000000000E+20
 20
1.000000000000000E+20
 30
1.000000000000000E+20
  9
$PEXTMAX
 10
-1.000000000000000E+20
 20
-1.000000000000000E+20
 30
-1.000000000000000E+20
  9
$PLIMMIN
 10
0.0
 20
0.0
  9
$PLIMMAX
 10
0.0
 20
0.0
  9
$UNITMODE
 70
     0
  9
$VISRETAIN
 70
     1
  9
$PLINEGEN
 70
     0
  9
$PSLTSCALE
 70
     1
  9
$TREEDEPTH
 70
  3020
  9
$CMLSTYLE
  2
Standard
  9
$CMLJUST
 70
     0
  9
$CMLSCALE
 40
20.0
  9
$PROXYGRAPHICS
 70
     1
  9
$MEASUREMENT
 70
     1
  9
$CELWEIGHT
370
    -1
  9
$ENDCAPS
280
     0
  9
$JOINSTYLE
280
     0
  9
$LWDISPLAY
290
     0
  9
$INSUNITS
 70
     4
  9
$HYPERLINKBASE
  1

  9
$STYLESHEET
  1

  9
$XEDIT
290
     1
  9
$CEPSNTYPE
380
     0
  9
$PSTYLEMODE
290
     1
  9
$FINGERPRINTGUID
  2
{EC6BB858-51AA-46EC-B484-6C9CC7AB3E2E}
  9
$VERSIONGUID
  2
{FAEB1C32-E019-11D5-929B-00C0DF256EC4}
  9
$EXTNAMES
290
     1
  9
$PSVPSCALE
 40
0.0
  9
$OLESTARTUP
290
     0
  0
ENDSEC
  0
SECTION
  2
CLASSES
  0
CLASS
  1
ACDBDICTIONARYWDFLT
  2
AcDbDictionaryWithDefault
  3
ObjectDBX Classes
 90
        0
280
     0
281
     0
  0
CLASS
  1
MATERIAL
  2
AcDbMaterial
  3
ObjectDBX Classes
 90
     1153
280
     0
281
     0
  0
CLASS
  1
VISUALSTYLE
  2
AcDbVisualStyle
  3
ObjectDBX Classes
 90
     4095
280
     0
281
     0
  0
CLASS
  1
SUN
  2
AcDbSun
  3
SCENEOE
 90
     1153
280
     0
281
     0
  0
CLASS
  1
SCALE
  2
AcDbScale
  3
ObjectDBX Classes
 90
     1153
280
     0
281
     0
  0
CLASS
  1
RASTERVARIABLES
  2
AcDbRasterVariables
  3
ISM
 90
        0
280
     0
281
     0
  0
CLASS
  1
DICTIONARYVAR
  2
AcDbDictionaryVar
  3
ObjectDBX Classes
 90
        0
280
     0
281
     0
  0
CLASS
  1
TABLESTYLE
  2
AcDbTableStyle
  3
ObjectDBX Classes
 90
     4095
280
     0
281
     0
  0
CLASS
  1
MLEADERSTYLE
  2
AcDbMLeaderStyle
  3
ACDB_MLEADERSTYLE_CLASS
 90
     4095
280
     0
281
     0
  0
CLASS
  1
DIMASSOC
  2
AcDbDimAssoc
  3
"AcDbDimAssoc|Product Desc:     AcDim ARX App For Dimension|Company:          Autodesk, Inc.|WEB Address:      www.autodesk.com"
 90
        0
280
     0
281
     0
  0
CLASS
  1
ACDBPLACEHOLDER
  2
AcDbPlaceHolder
  3
ObjectDBX Classes
 90
        0
280
     0
281
     0
  0
CLASS
  1
LAYOUT
  2
AcDbLayout
  3
ObjectDBX Classes
 90
        0
280
     0
281
     0
  0
ENDSEC
  0
SECTION
  2
TABLES
  0
TABLE
  2
VPORT
  5
20
330
0
100
AcDbSymbolTable
 70
     1
  0
VPORT
  5
24
330
20
100
AcDbSymbolTableRecord
100
AcDbViewportTableRecord
  2
*Active
 70
     0
 10
0.0
 20
0.0
 11
1.0
 21
1.0
 12
231.8377200711982
 22
2046.911610015448
 13
0.0
 23
0.0
 14
10.0
 24
10.0
 15
10.0
 25
10.0
 16
0.0
 26
0.0
 36
1.0
 17
-134.186915887869
 27
0.0
 37
0.0
 40
583.1021931532565
 41
2.203412073490814
 42
50.0
 43
0.0
 44
0.0
 50
0.0
 51
0.0
 71
    16
 72
  1000
 73
     1
 74
     3
 75
     0
 76
     0
 77
     0
 78
     0
281
     0
 65
     1
110
0.0
120
0.0
130
0.0
111
1.0
121
0.0
131
0.0
112
0.0
122
1.0
132
0.0
 79
     0
146
0.0
  0
ENDTAB
  0
TABLE
  2
LTYPE
  5
9
330
0
100
AcDbSymbolTable
 70
     1
  0
LTYPE
  5
A
330
9
100
AcDbSymbolTableRecord
100
AcDbLinetypeTableRecord
  2
ByBlock
 70
     0
  3

 72
    65
 73
     0
 40
0.0
  0
LTYPE
  5
B
330
9
100
AcDbSymbolTableRecord
100
AcDbLinetypeTableRecord
  2
ByLayer
 70
     0
  3

 72
    65
 73
     0
 40
0.0
  0
LTYPE
  5
8
330
9
100
AcDbSymbolTableRecord
100
AcDbLinetypeTableRecord
  2
Continuous
 70
     0
  3
Solid line
 72
    65
 73
     0
 40
0.0
  0
ENDTAB
  0
TABLE
  2
LAYER
  5
2
330
0
100
AcDbSymbolTable
 70
     2
  0
LAYER
  5
1
330
2
100
AcDbSymbolTableRecord
100
AcDbLayerTableRecord
  2
0
 70
     0
 62
     7
  6
Continuous
370
    -3
390
3
  0
LAYER
  5
269
330
2
100
AcDbSymbolTableRecord
100
AcDbLayerTableRecord
  2
Defpoints
 70
     0
 62
     7
  6
Continuous
290
     0
370
    -3
390
3
  0
ENDTAB
  0
TABLE
  2
STYLE
  5
D
330
0
100
AcDbSymbolTable
 70
     1
  0
STYLE
  5
C
330
D
100
AcDbSymbolTableRecord
100
AcDbTextStyleTableRecord
  2
Standard
 70
     0
 40
0.0
 41
1.0
 50
0.0
 71
     0
 42
2.5
  3
Organo.ttf
  4

1001
ACAD
1000
Organo (colored version at: log
1071
        0
  0
ENDTAB
  0
TABLE
  2
VIEW
  5
1E
330
0
100
AcDbSymbolTable
 70
     0
  0
ENDTAB
  0
TABLE
  2
UCS
  5
1F
330
0
100
AcDbSymbolTable
 70
     0
  0
ENDTAB
  0
TABLE
  2
APPID
  5
F
330
0
100
AcDbSymbolTable
 70
     1
  0
APPID
  5
E
330
F
100
AcDbSymbolTableRecord
100
AcDbRegAppTableRecord
  2
ACAD
 70
     0
  0
ENDTAB
  0
TABLE
  2
DIMSTYLE
  5
11
330
0
100
AcDbSymbolTable
 70
     1
100
AcDbDimStyleTable
  0
DIMSTYLE
105
10
330
11
100
AcDbSymbolTableRecord
100
AcDbDimStyleTableRecord
  2
ISO-25
 70
     0
 41
2.5
 42
0.625
 43
3.75
 44
1.25
 73
     0
 74
     0
 77
     1
 78
     8
140
2.5
141
2.5
143
0.03937007874016
147
0.625
171
     3
172
     1
178
     0
271
     2
272
     2
274
     3
278
    44
283
     0
284
     8
340
C
  0
ENDTAB
  0
TABLE
  2
BLOCK_RECORD
  5
14
330
0
100
AcDbSymbolTable
 70
    52
  0
BLOCK_RECORD
  5
15
330
14
100
AcDbSymbolTableRecord
100
AcDbBlockTableRecord
  2
*Model_Space
340
18
  0
BLOCK_RECORD
  5
1A
330
14
100
AcDbSymbolTableRecord
100
AcDbBlockTableRecord
  2
*Paper_Space
340
1D
  0
BLOCK_RECORD
  5
139
330
14
100
AcDbSymbolTableRecord
100
AcDbBlockTableRecord
  2
ventola
340
0
102
{BLKREFS
331
138
331
1CA
102
}
  0
BLOCK_RECORD
  5
15B
330
14
100
AcDbSymbolTableRecord
100
AcDbBlockTableRecord
  2
serpentina
340
0
102
{BLKREFS
331
15A
331
1F0
102
}
  0
BLOCK_RECORD
  5
182
330
14
100
AcDbSymbolTableRecord
100
AcDbBlockTableRecord
  2
luci
340
0
102
{BLKREFS
331
181
331
1D7
102
}
  0
ENDTAB
  0
ENDSEC
  0
SECTION
  2
BLOCKS
  0
BLOCK
  5
16
330
15
100
AcDbEntity
  8
0
100
AcDbBlockBegin
  2
*Model_Space
 70
     0
 10
0.0
 20
0.0
 30
0.0
  3
*Model_Space
  1
*Model_Space
  0
ENDBLK
  5
17
330
15
100
AcDbEntity
  8
0
100
AcDbBlockEnd
  0
BLOCK
  5
1B
330
1A
100
AcDbEntity
 67
     1
  8
0
100
AcDbBlockBegin
  2
*Paper_Space
 70
     0
 10
0.0
 20
0.0
 30
0.0
  3
*Paper_Space
  1
*Paper_Space
  0
ENDBLK
  5
1C
330
1A
100
AcDbEntity
 67
     1
  8
0
100
AcDbBlockEnd
  0
BLOCK
  5
13A
330
139
100
AcDbEntity
  8
0
100
AcDbBlockBegin
  2
ventola
 70
     0
 10
0.0
 20
0.0
 30
0.0
  3
ventola
  1
ventola
  0
SPLINE
  5
13B
330
139
100
AcDbEntity
  8
0
 62
     1
100
AcDbSpline
210
0.0
220
0.0
230
1.0
 70
     8
 71
     3
 72
     8
 73
     4
 74
     0
 42
0.000000001
 43
0.0000001
 40
0.0
 40
0.0
 40
0.0
 40
0.0
 40
1.0
 40
1.0
 40
1.0
 40
1.0
 10
15.591469
 20
10.57992
 30
0.0
 10
16.729107
 20
10.988295
 30
0.0
 10
18.627334
 20
11.247658
 30
0.0
 10
20.450207
 20
10.235044
 30
0.0
  0
SPLINE
  5
13C
330
139
100
AcDbEntity
  8
0
 62
     1
100
AcDbSpline
210
0.0
220
0.0
230
1.0
 70
     8
 71
     3
 72
     8
 73
     4
 74
     0
 42
0.000000001
 43
0.0000001
 40
0.0
 40
0.0
 40
0.0
 40
0.0
 40
1.0
 40
1.0
 40
1.0
 40
1.0
 10
20.450207
 20
10.235044
 30
0.0
 10
23.548725
 20
8.514335
 30
0.0
 10
26.461258
 20
11.132511
 30
0.0
 10
26.037361
 20
14.031498
 30
0.0
  0
SPLINE
  5
13D
330
139
100
AcDbEntity
  8
0
 62
     1
100
AcDbSpline
210
0.0
220
0.0
230
1.0
 70
     8
 71
     3
 72
     8
 73
     4
 74
     0
 42
0.000000001
 43
0.0000001
 40
0.0
 40
0.0
 40
0.0
 40
0.0
 40
1.0
 40
1.0
 40
1.0
 40
1.0
 10
26.037361
 20
14.031498
 30
0.0
 10
25.661441
 20
16.600567
 30
0.0
 10
24.074787
 20
19.216202
 30
0.0
 10
22.059721
 20
20.267197
 30
0.0
  0
SPLINE
  5
13E
330
139
100
AcDbEntity
  8
0
 62
     1
100
AcDbSpline
210
0.0
220
0.0
230
1.0
 70
     8
 71
     3
 72
     8
 73
     4
 74
     0
 42
0.000000001
 43
0.0000001
 40
0.0
 40
0.0
 40
0.0
 40
0.0
 40
1.0
 40
1.0
 40
1.0
 40
1.0
 10
22.059721
 20
20.267197
 30
0.0
 10
19.046152
 20
21.837764
 30
0.0
 10
16.764667
 20
20.963722
 30
0.0
 10
14.998803
 20
19.047151
 30
0.0
  0
SPLINE
  5
13F
330
139
100
AcDbEntity
  8
0
 62
     1
100
AcDbSpline
210
0.0
220
0.0
230
1.0
 70
     8
 71
     3
 72
     8
 73
     4
 74
     0
 42
0.000000001
 43
0.0000001
 40
0.0
 40
0.0
 40
0.0
 40
0.0
 40
1.0
 40
1.0
 40
1.0
 40
1.0
 10
14.998803
 20
19.047151
 30
0.0
 10
13.842538
 20
17.791262
 30
0.0
 10
12.633216
 20
15.576382
 30
0.0
 10
12.539518
 20
13.469875
 30
0.0
  0
SPLINE
  5
140
330
139
100
AcDbEntity
  8
0
 62
     1
100
AcDbSpline
210
0.0
220
0.0
230
1.0
 70
     8
 71
     3
 72
     8
 73
     4
 74
     0
 42
0.000000001
 43
0.0000001
 40
0.0
 40
0.0
 40
0.0
 40
0.0
 40
1.0
 40
1.0
 40
1.0
 40
1.0
 10
12.539518
 20
13.469875
 30
0.0
 10
12.495209
 20
12.478147
 30
0.0
 10
11.343743
 20
12.530358
 30
0.0
 10
11.066883
 20
13.303082
 30
0.0
  0
SPLINE
  5
141
330
139
100
AcDbEntity
  8
0
 62
     1
100
AcDbSpline
210
0.0
220
0.0
230
1.0
 70
     8
 71
     3
 72
     8
 73
     4
 74
     0
 42
0.000000001
 43
0.0000001
 40
0.0
 40
0.0
 40
0.0
 40
0.0
 40
1.0
 40
1.0
 40
1.0
 40
1.0
 10
11.066883
 20
13.303082
 30
0.0
 10
10.658225
 20
14.44072
 30
0.0
 10
10.398863
 20
16.339229
 30
0.0
 10
11.410912
 20
18.161538
 30
0.0
  0
SPLINE
  5
142
330
139
100
AcDbEntity
  8
0
 62
     1
100
AcDbSpline
210
0.0
220
0.0
230
1.0
 70
     8
 71
     3
 72
     8
 73
     4
 74
     0
 42
0.000000001
 43
0.0000001
 40
0.0
 40
0.0
 40
0.0
 40
0.0
 40
1.0
 40
1.0
 40
1.0
 40
1.0
 10
11.410912
 20
18.161538
 30
0.0
 10
13.132467
 20
21.26062
 30
0.0
 10
10.514009
 20
24.173435
 30
0.0
 10
7.615305
 20
23.749255
 30
0.0
  0
SPLINE
  5
143
330
139
100
AcDbEntity
  8
0
 62
     1
100
AcDbSpline
210
0.0
220
0.0
230
1.0
 70
     8
 71
     3
 72
     8
 73
     4
 74
     0
 42
0.000000001
 43
0.0000001
 40
0.0
 40
0.0
 40
0.0
 40
0.0
 40
1.0
 40
1.0
 40
1.0
 40
1.0
 10
7.615305
 20
23.749255
 30
0.0
 10
5.045954
 20
23.372771
 30
0.0
 10
2.430601
 20
21.786964
 30
0.0
 10
1.379605
 20
19.771051
 30
0.0
  0
SPLINE
  5
144
330
139
100
AcDbEntity
  8
0
 62
     1
100
AcDbSpline
210
0.0
220
0.0
230
1.0
 70
     8
 71
     3
 72
     8
 73
     4
 74
     0
 42
0.000000001
 43
0.0000001
 40
0.0
 40
0.0
 40
0.0
 40
0.0
 40
1.0
 40
1.0
 40
1.0
 40
1.0
 10
1.379605
 20
19.771051
 30
0.0
 10
-0.191244
 20
16.757764
 30
0.0
 10
0.682798
 20
14.47628
 30
0.0
 10
2.599369
 20
12.71098
 30
0.0
  0
SPLINE
  5
145
330
139
100
AcDbEntity
  8
0
 62
     1
100
AcDbSpline
210
0.0
220
0.0
230
1.0
 70
     8
 71
     3
 72
     8
 73
     4
 74
     0
 42
0.000000001
 43
0.0000001
 40
0.0
 40
0.0
 40
0.0
 40
0.0
 40
1.0
 40
1.0
 40
1.0
 40
1.0
 10
2.599369
 20
12.71098
 30
0.0
 10
3.854976
 20
11.554433
 30
0.0
 10
6.070985
 20
10.344547
 30
0.0
 10
8.176645
 20
10.250849
 30
0.0
  0
SPLINE
  5
146
330
139
100
AcDbEntity
  8
0
 62
     1
100
AcDbSpline
210
0.0
220
0.0
230
1.0
 70
     8
 71
     3
 72
     8
 73
     4
 74
     0
 42
0.000000001
 43
0.0000001
 40
0.0
 40
0.0
 40
0.0
 40
0.0
 40
1.0
 40
1.0
 40
1.0
 40
1.0
 10
8.176645
 20
10.250849
 30
0.0
 10
9.168656
 20
10.206822
 30
0.0
 10
9.116445
 20
9.055355
 30
0.0
 10
8.343721
 20
8.778778
 30
0.0
  0
SPLINE
  5
147
330
139
100
AcDbEntity
  8
0
 62
     1
100
AcDbSpline
210
0.0
220
0.0
230
1.0
 70
     8
 71
     3
 72
     8
 73
     4
 74
     0
 42
0.000000001
 43
0.0000001
 40
0.0
 40
0.0
 40
0.0
 40
0.0
 40
1.0
 40
1.0
 40
1.0
 40
1.0
 10
8.343721
 20
8.778778
 30
0.0
 10
7.205518
 20
8.369838
 30
0.0
 10
5.307009
 20
8.110193
 30
0.0
 10
3.484983
 20
9.122807
 30
0.0
  0
SPLINE
  5
148
330
139
100
AcDbEntity
  8
0
 62
     1
100
AcDbSpline
210
0.0
220
0.0
230
1.0
 70
     8
 71
     3
 72
     8
 73
     4
 74
     0
 42
0.000000001
 43
0.0000001
 40
0.0
 40
0.0
 40
0.0
 40
0.0
 40
1.0
 40
1.0
 40
1.0
 40
1.0
 10
3.484983
 20
9.122807
 30
0.0
 10
0.385901
 20
10.844362
 30
0.0
 10
-2.526915
 20
8.225622
 30
0.0
 10
-2.102453
 20
5.326635
 30
0.0
  0
SPLINE
  5
149
330
139
100
AcDbEntity
  8
0
 62
     1
100
AcDbSpline
210
0.0
220
0.0
230
1.0
 70
     8
 71
     3
 72
     8
 73
     4
 74
     0
 42
0.000000001
 43
0.0000001
 40
0.0
 40
0.0
 40
0.0
 40
0.0
 40
1.0
 40
1.0
 40
1.0
 40
1.0
 10
-2.102453
 20
5.326635
 30
0.0
 10
-1.726533
 20
2.757284
 30
0.0
 10
-0.140162
 20
0.141931
 30
0.0
 10
1.875752
 20
-0.908782
 30
0.0
  0
SPLINE
  5
14A
330
139
100
AcDbEntity
  8
0
 62
     1
100
AcDbSpline
210
0.0
220
0.0
230
1.0
 70
     8
 71
     3
 72
     8
 73
     4
 74
     0
 42
0.000000001
 43
0.0000001
 40
0.0
 40
0.0
 40
0.0
 40
0.0
 40
1.0
 40
1.0
 40
1.0
 40
1.0
 10
1.875752
 20
-0.908782
 30
0.0
 10
4.889038
 20
-2.479913
 30
0.0
 10
7.170523
 20
-1.605589
 30
0.0
 10
8.935823
 20
0.310982
 30
0.0
  0
SPLINE
  5
14B
330
139
100
AcDbEntity
  8
0
 62
     1
100
AcDbSpline
210
0.0
220
0.0
230
1.0
 70
     8
 71
     3
 72
     8
 73
     4
 74
     0
 42
0.000000001
 43
0.0000001
 40
0.0
 40
0.0
 40
0.0
 40
0.0
 40
1.0
 40
1.0
 40
1.0
 40
1.0
 10
8.935823
 20
0.310982
 30
0.0
 10
10.092369
 20
1.566307
 30
0.0
 10
11.301974
 20
3.782033
 30
0.0
 10
11.395389
 20
5.887975
 30
0.0
  0
SPLINE
  5
14C
330
139
100
AcDbEntity
  8
0
 62
     1
100
AcDbSpline
210
0.0
220
0.0
230
1.0
 70
     8
 71
     3
 72
     8
 73
     4
 74
     0
 42
0.000000001
 43
0.0000001
 40
0.0
 40
0.0
 40
0.0
 40
0.0
 40
1.0
 40
1.0
 40
1.0
 40
1.0
 10
11.395389
 20
5.887975
 30
0.0
 10
11.439698
 20
6.880269
 30
0.0
 10
12.590883
 20
6.827493
 30
0.0
 10
12.868025
 20
6.05618
 30
0.0
  0
SPLINE
  5
14D
330
139
100
AcDbEntity
  8
0
 62
     1
100
AcDbSpline
210
0.0
220
0.0
230
1.0
 70
     8
 71
     3
 72
     8
 73
     4
 74
     0
 42
0.000000001
 43
0.0000001
 40
0.0
 40
0.0
 40
0.0
 40
0.0
 40
1.0
 40
1.0
 40
1.0
 40
1.0
 10
12.868025
 20
6.05618
 30
0.0
 10
13.276401
 20
4.917695
 30
0.0
 10
13.536045
 20
3.019469
 30
0.0
 10
12.523714
 20
1.196595
 30
0.0
  0
SPLINE
  5
14E
330
139
100
AcDbEntity
  8
0
 62
     1
100
AcDbSpline
210
0.0
220
0.0
230
1.0
 70
     8
 71
     3
 72
     8
 73
     4
 74
     0
 42
0.000000001
 43
0.0000001
 40
0.0
 40
0.0
 40
0.0
 40
0.0
 40
1.0
 40
1.0
 40
1.0
 40
1.0
 10
12.523714
 20
1.196595
 30
0.0
 10
10.802158
 20
-1.90164
 30
0.0
 10
13.420616
 20
-4.814456
 30
0.0
 10
16.319603
 20
-4.389993
 30
0.0
  0
SPLINE
  5
14F
330
139
100
AcDbEntity
  8
0
 62
     1
100
AcDbSpline
210
0.0
220
0.0
230
1.0
 70
     8
 71
     3
 72
     8
 73
     4
 74
     0
 42
0.000000001
 43
0.0000001
 40
0.0
 40
0.0
 40
0.0
 40
0.0
 40
1.0
 40
1.0
 40
1.0
 40
1.0
 10
16.319603
 20
-4.389993
 30
0.0
 10
18.888954
 20
-4.014073
 30
0.0
 10
21.504307
 20
-2.428831
 30
0.0
 10
22.555021
 20
-0.412918
 30
0.0
  0
SPLINE
  5
150
330
139
100
AcDbEntity
  8
0
 62
     1
100
AcDbSpline
210
0.0
220
0.0
230
1.0
 70
     8
 71
     3
 72
     8
 73
     4
 74
     0
 42
0.000000001
 43
0.0000001
 40
0.0
 40
0.0
 40
0.0
 40
0.0
 40
1.0
 40
1.0
 40
1.0
 40
1.0
 10
22.555021
 20
-0.412918
 30
0.0
 10
24.126716
 20
2.600933
 30
0.0
 10
23.252109
 20
4.881571
 30
0.0
 10
21.335538
 20
6.648
 30
0.0
  0
SPLINE
  5
151
330
139
100
AcDbEntity
  8
0
 62
     1
100
AcDbSpline
210
0.0
220
0.0
230
1.0
 70
     8
 71
     3
 72
     8
 73
     4
 74
     0
 42
0.000000001
 43
0.0000001
 40
0.0
 40
0.0
 40
0.0
 40
0.0
 40
1.0
 40
1.0
 40
1.0
 40
1.0
 10
21.335538
 20
6.648
 30
0.0
 10
20.080214
 20
7.8037
 30
0.0
 10
17.863923
 20
9.013869
 30
0.0
 10
15.758545
 20
9.107002
 30
0.0
  0
SPLINE
  5
152
330
139
100
AcDbEntity
  8
0
 62
     1
100
AcDbSpline
210
0.0
220
0.0
230
1.0
 70
     8
 71
     3
 72
     8
 73
     4
 74
     0
 42
0.000000001
 43
0.0000001
 40
0.0
 40
0.0
 40
0.0
 40
0.0
 40
1.0
 40
1.0
 40
1.0
 40
1.0
 10
15.758545
 20
9.107002
 30
0.0
 10
14.766534
 20
9.151311
 30
0.0
 10
14.819027
 20
10.302495
 30
0.0
 10
15.591469
 20
10.57992
 30
0.0
  0
SPLINE
  5
153
330
139
100
AcDbEntity
  8
0
 62
     1
100
AcDbSpline
210
0.0
220
0.0
230
1.0
 70
     8
 71
     3
 72
     8
 73
     4
 74
     0
 42
0.000000001
 43
0.0000001
 40
0.0
 40
0.0
 40
0.0
 40
0.0
 40
1.0
 40
1.0
 40
1.0
 40
1.0
 10
11.967454
 20
8.247353
 30
0.0
 10
11.176949
 20
8.247353
 30
0.0
 10
10.536023
 20
8.88828
 30
0.0
 10
10.536023
 20
9.678784
 30
0.0
  0
SPLINE
  5
154
330
139
100
AcDbEntity
  8
0
 62
     1
100
AcDbSpline
210
0.0
220
0.0
230
1.0
 70
     8
 71
     3
 72
     8
 73
     4
 74
     0
 42
0.000000001
 43
0.0000001
 40
0.0
 40
0.0
 40
0.0
 40
0.0
 40
1.0
 40
1.0
 40
1.0
 40
1.0
 10
10.536023
 20
9.678784
 30
0.0
 10
10.536023
 20
10.469289
 30
0.0
 10
11.176949
 20
11.110215
 30
0.0
 10
11.967454
 20
11.110215
 30
0.0
  0
SPLINE
  5
155
330
139
100
AcDbEntity
  8
0
 62
     1
100
AcDbSpline
210
0.0
220
0.0
230
1.0
 70
     8
 71
     3
 72
     8
 73
     4
 74
     0
 42
0.000000001
 43
0.0000001
 40
0.0
 40
0.0
 40
0.0
 40
0.0
 40
1.0
 40
1.0
 40
1.0
 40
1.0
 10
11.967454
 20
11.110215
 30
0.0
 10
12.758241
 20
11.110215
 30
0.0
 10
13.398885
 20
10.469289
 30
0.0
 10
13.398885
 20
9.678784
 30
0.0
  0
SPLINE
  5
156
330
139
100
AcDbEntity
  8
0
 62
     1
100
AcDbSpline
210
0.0
220
0.0
230
1.0
 70
     8
 71
     3
 72
     8
 73
     4
 74
     0
 42
0.000000001
 43
0.0000001
 40
0.0
 40
0.0
 40
0.0
 40
0.0
 40
1.0
 40
1.0
 40
1.0
 40
1.0
 10
13.398885
 20
9.678784
 30
0.0
 10
13.398885
 20
8.88828
 30
0.0
 10
12.758241
 20
8.247353
 30
0.0
 10
11.967454
 20
8.247353
 30
0.0
  0
LWPOLYLINE
  5
157
330
139
100
AcDbEntity
  8
0
 62
     1
100
AcDbPolyline
 90
        2
 70
     0
 43
0.0
 10
15.591469
 20
10.57992
 10
15.591469
 20
10.57992
  0
LWPOLYLINE
  5
158
330
139
100
AcDbEntity
  8
0
 62
     1
100
AcDbPolyline
 90
        2
 70
     0
 43
0.0
 10
11.967454
 20
8.247353
 10
11.967454
 20
8.247353
  0
ENDBLK
  5
159
330
139
100
AcDbEntity
  8
0
100
AcDbBlockEnd
  0
BLOCK
  5
15C
330
15B
100
AcDbEntity
  8
0
100
AcDbBlockBegin
  2
serpentina
 70
     0
 10
0.0
 20
0.0
 30
0.0
  3
serpentina
  1
serpentina
  0
SPLINE
  5
15D
330
15B
100
AcDbEntity
  8
0
 62
     1
100
AcDbSpline
210
0.0
220
0.0
230
1.0
 70
     8
 71
     3
 72
     8
 73
     4
 74
     0
 42
0.000000001
 43
0.0000001
 40
0.0
 40
0.0
 40
0.0
 40
0.0
 40
1.0
 40
1.0
 40
1.0
 40
1.0
 10
8.202224
 20
5.942614
 30
0.0
 10
8.030916
 20
6.028691
 30
0.0
 10
5.848773
 20
4.211745
 30
0.0
 10
5.848773
 20
2.872883
 30
0.0
  0
SPLINE
  5
15E
330
15B
100
AcDbEntity
  8
0
 62
     1
100
AcDbSpline
210
0.0
220
0.0
230
1.0
 70
     8
 71
     3
 72
     8
 73
     4
 74
     0
 42
0.000000001
 43
0.0000001
 40
0.0
 40
0.0
 40
0.0
 40
0.0
 40
1.0
 40
1.0
 40
1.0
 40
1.0
 10
5.848773
 20
2.872883
 30
0.0
 10
5.846516
 20
1.044929
 30
0.0
 10
8.393571
 20
-3.098375
 30
0.0
 10
8.823113
 20
-4.699422
 30
0.0
  0
SPLINE
  5
15F
330
15B
100
AcDbEntity
  8
0
 62
     1
100
AcDbSpline
210
0.0
220
0.0
230
1.0
 70
     8
 71
     3
 72
     8
 73
     4
 74
     0
 42
0.000000001
 43
0.0000001
 40
0.0
 40
0.0
 40
0.0
 40
0.0
 40
1.0
 40
1.0
 40
1.0
 40
1.0
 10
8.823113
 20
-4.699422
 30
0.0
 10
9.192542
 20
-6.073562
 30
0.0
 10
8.197144
 20
-7.722586
 30
0.0
 10
8.470336
 20
-7.797375
 30
0.0
  0
SPLINE
  5
160
330
15B
100
AcDbEntity
  8
0
 62
     1
100
AcDbSpline
210
0.0
220
0.0
230
1.0
 70
     8
 71
     3
 72
     8
 73
     4
 74
     0
 42
0.000000001
 43
0.0000001
 40
0.0
 40
0.0
 40
0.0
 40
0.0
 40
1.0
 40
1.0
 40
1.0
 40
1.0
 10
8.470336
 20
-7.797375
 30
0.0
 10
8.720949
 20
-7.958806
 30
0.0
 10
11.09726
 20
-5.532824
 30
0.0
 10
11.190111
 20
-4.497351
 30
0.0
  0
SPLINE
  5
161
330
15B
100
AcDbEntity
  8
0
 62
     1
100
AcDbSpline
210
0.0
220
0.0
230
1.0
 70
     8
 71
     3
 72
     8
 73
     4
 74
     0
 42
0.000000001
 43
0.0000001
 40
0.0
 40
0.0
 40
0.0
 40
0.0
 40
1.0
 40
1.0
 40
1.0
 40
1.0
 10
11.190111
 20
-4.497351
 30
0.0
 10
11.309209
 20
-2.850302
 30
0.0
 10
8.41502
 20
1.954814
 30
0.0
 10
8.184162
 20
3.196874
 30
0.0
  0
SPLINE
  5
162
330
15B
100
AcDbEntity
  8
0
 62
     1
100
AcDbSpline
210
0.0
220
0.0
230
1.0
 70
     8
 71
     3
 72
     8
 73
     4
 74
     0
 42
0.000000001
 43
0.0000001
 40
0.0
 40
0.0
 40
0.0
 40
0.0
 40
1.0
 40
1.0
 40
1.0
 40
1.0
 10
8.184162
 20
3.196874
 30
0.0
 10
7.915204
 20
4.642134
 30
0.0
 10
8.394136
 20
5.910158
 30
0.0
 10
8.202224
 20
5.942614
 30
0.0
  0
SPLINE
  5
163
330
15B
100
AcDbEntity
  8
0
 62
     1
100
AcDbSpline
210
0.0
220
0.0
230
1.0
 70
     8
 71
     3
 72
     8
 73
     4
 74
     0
 42
0.000000001
 43
0.0000001
 40
0.0
 40
0.0
 40
0.0
 40
0.0
 40
1.0
 40
1.0
 40
1.0
 40
1.0
 10
13.646573
 20
7.833503
 30
0.0
 10
13.428133
 20
7.943287
 30
0.0
 10
10.645422
 20
5.626525
 30
0.0
 10
10.645422
 20
3.91908
 30
0.0
  0
SPLINE
  5
164
330
15B
100
AcDbEntity
  8
0
 62
     1
100
AcDbSpline
210
0.0
220
0.0
230
1.0
 70
     8
 71
     3
 72
     8
 73
     4
 74
     0
 42
0.000000001
 43
0.0000001
 40
0.0
 40
0.0
 40
0.0
 40
0.0
 40
1.0
 40
1.0
 40
1.0
 40
1.0
 10
10.645422
 20
3.91908
 30
0.0
 10
10.642318
 20
1.588489
 30
0.0
 10
13.890978
 20
-3.694993
 30
0.0
 10
14.438489
 20
-5.736589
 30
0.0
  0
SPLINE
  5
165
330
15B
100
AcDbEntity
  8
0
 62
     1
100
AcDbSpline
210
0.0
220
0.0
230
1.0
 70
     8
 71
     3
 72
     8
 73
     4
 74
     0
 42
0.000000001
 43
0.0000001
 40
0.0
 40
0.0
 40
0.0
 40
0.0
 40
1.0
 40
1.0
 40
1.0
 40
1.0
 10
14.438489
 20
-5.736589
 30
0.0
 10
14.908671
 20
-7.489189
 30
0.0
 10
13.640364
 20
-9.591744
 30
0.0
 10
13.98778
 20
-9.686571
 30
0.0
  0
SPLINE
  5
166
330
15B
100
AcDbEntity
  8
0
 62
     1
100
AcDbSpline
210
0.0
220
0.0
230
1.0
 70
     8
 71
     3
 72
     8
 73
     4
 74
     0
 42
0.000000001
 43
0.0000001
 40
0.0
 40
0.0
 40
0.0
 40
0.0
 40
1.0
 40
1.0
 40
1.0
 40
1.0
 10
13.98778
 20
-9.686571
 30
0.0
 10
14.308102
 20
-9.892593
 30
0.0
 10
17.337758
 20
-6.799437
 30
0.0
 10
17.456573
 20
-5.47892
 30
0.0
  0
SPLINE
  5
167
330
15B
100
AcDbEntity
  8
0
 62
     1
100
AcDbSpline
210
0.0
220
0.0
230
1.0
 70
     8
 71
     3
 72
     8
 73
     4
 74
     0
 42
0.000000001
 43
0.0000001
 40
0.0
 40
0.0
 40
0.0
 40
0.0
 40
1.0
 40
1.0
 40
1.0
 40
1.0
 10
17.456573
 20
-5.47892
 30
0.0
 10
17.608973
 20
-3.378904
 30
0.0
 10
13.917507
 20
2.748423
 30
0.0
 10
13.623149
 20
4.332254
 30
0.0
  0
SPLINE
  5
168
330
15B
100
AcDbEntity
  8
0
 62
     1
100
AcDbSpline
210
0.0
220
0.0
230
1.0
 70
     8
 71
     3
 72
     8
 73
     4
 74
     0
 42
0.000000001
 43
0.0000001
 40
0.0
 40
0.0
 40
0.0
 40
0.0
 40
1.0
 40
1.0
 40
1.0
 40
1.0
 10
13.623149
 20
4.332254
 30
0.0
 10
13.280531
 20
6.175729
 30
0.0
 10
13.890978
 20
7.792298
 30
0.0
 10
13.646573
 20
7.833503
 30
0.0
  0
LWPOLYLINE
  5
169
330
15B
100
AcDbEntity
  8
0
 62
     1
100
AcDbPolyline
 90
        2
 70
     0
 43
0.0
 10
8.202224
 20
5.942614
 10
8.202224
 20
5.942614
  0
SPLINE
  5
16A
330
15B
100
AcDbEntity
  8
0
 62
     1
100
AcDbSpline
210
0.0
220
0.0
230
1.0
 70
     8
 71
     3
 72
     8
 73
     4
 74
     0
 42
0.000000001
 43
0.0000001
 40
0.0
 40
0.0
 40
0.0
 40
0.0
 40
1.0
 40
1.0
 40
1.0
 40
1.0
 10
19.266182
 20
5.942614
 30
0.0
 10
19.095156
 20
6.028691
 30
0.0
 10
16.913013
 20
4.211745
 30
0.0
 10
16.913013
 20
2.872883
 30
0.0
  0
SPLINE
  5
16B
330
15B
100
AcDbEntity
  8
0
 62
     1
100
AcDbSpline
210
0.0
220
0.0
230
1.0
 70
     8
 71
     3
 72
     8
 73
     4
 74
     0
 42
0.000000001
 43
0.0000001
 40
0.0
 40
0.0
 40
0.0
 40
0.0
 40
1.0
 40
1.0
 40
1.0
 40
1.0
 10
16.913013
 20
2.872883
 30
0.0
 10
16.910191
 20
1.044929
 30
0.0
 10
19.457529
 20
-3.098375
 30
0.0
 10
19.887353
 20
-4.699422
 30
0.0
  0
SPLINE
  5
16C
330
15B
100
AcDbEntity
  8
0
 62
     1
100
AcDbSpline
210
0.0
220
0.0
230
1.0
 70
     8
 71
     3
 72
     8
 73
     4
 74
     0
 42
0.000000001
 43
0.0000001
 40
0.0
 40
0.0
 40
0.0
 40
0.0
 40
1.0
 40
1.0
 40
1.0
 40
1.0
 10
19.887353
 20
-4.699422
 30
0.0
 10
20.256218
 20
-6.073562
 30
0.0
 10
19.261384
 20
-7.722586
 30
0.0
 10
19.534011
 20
-7.797375
 30
0.0
  0
SPLINE
  5
16D
330
15B
100
AcDbEntity
  8
0
 62
     1
100
AcDbSpline
210
0.0
220
0.0
230
1.0
 70
     8
 71
     3
 72
     8
 73
     4
 74
     0
 42
0.000000001
 43
0.0000001
 40
0.0
 40
0.0
 40
0.0
 40
0.0
 40
1.0
 40
1.0
 40
1.0
 40
1.0
 10
19.534011
 20
-7.797375
 30
0.0
 10
19.784907
 20
-7.958806
 30
0.0
 10
22.1615
 20
-5.532824
 30
0.0
 10
22.253787
 20
-4.497351
 30
0.0
  0
SPLINE
  5
16E
330
15B
100
AcDbEntity
  8
0
 62
     1
100
AcDbSpline
210
0.0
220
0.0
230
1.0
 70
     8
 71
     3
 72
     8
 73
     4
 74
     0
 42
0.000000001
 43
0.0000001
 40
0.0
 40
0.0
 40
0.0
 40
0.0
 40
1.0
 40
1.0
 40
1.0
 40
1.0
 10
22.253787
 20
-4.497351
 30
0.0
 10
22.373449
 20
-2.850302
 30
0.0
 10
19.478696
 20
1.954814
 30
0.0
 10
19.24812
 20
3.196874
 30
0.0
  0
SPLINE
  5
16F
330
15B
100
AcDbEntity
  8
0
 62
     1
100
AcDbSpline
210
0.0
220
0.0
230
1.0
 70
     8
 71
     3
 72
     8
 73
     4
 74
     0
 42
0.000000001
 43
0.0000001
 40
0.0
 40
0.0
 40
0.0
 40
0.0
 40
1.0
 40
1.0
 40
1.0
 40
1.0
 10
19.24812
 20
3.196874
 30
0.0
 10
18.979162
 20
4.642134
 30
0.0
 10
19.458093
 20
5.910158
 30
0.0
 10
19.266182
 20
5.942614
 30
0.0
  0
LWPOLYLINE
  5
170
330
15B
100
AcDbEntity
  8
0
 62
     1
100
AcDbPolyline
 90
        2
 70
     0
 43
0.0
 10
13.646573
 20
7.833503
 10
13.646573
 20
7.833503
  0
LWPOLYLINE
  5
171
330
15B
100
AcDbEntity
  8
0
 62
     1
100
AcDbPolyline
 90
        2
 70
     0
 43
0.0
 10
19.266182
 20
5.942614
 10
19.266182
 20
5.942614
  0
ENDBLK
  5
172
330
15B
100
AcDbEntity
  8
0
100
AcDbBlockEnd
  0
BLOCK
  5
183
330
182
100
AcDbEntity
  8
0
100
AcDbBlockBegin
  2
luci
 70
     0
 10
0.0
 20
0.0
 30
0.0
  3
luci
  1
luci
  0
SPLINE
  5
184
330
182
100
AcDbEntity
  8
0
 62
     1
100
AcDbSpline
210
0.0
220
0.0
230
1.0
 70
     8
 71
     3
 72
     8
 73
     4
 74
     0
 42
0.000000001
 43
0.0000001
 40
0.0
 40
0.0
 40
0.0
 40
0.0
 40
1.0
 40
1.0
 40
1.0
 40
1.0
 10
6.63702
 20
19.459787
 30
0.0
 10
6.684433
 20
19.525544
 30
0.0
 10
6.73862
 20
19.58848
 30
0.0
 10
6.788291
 20
19.653956
 30
0.0
  0
LWPOLYLINE
  5
185
330
182
100
AcDbEntity
  8
0
 62
     1
100
AcDbPolyline
 90
        2
 70
     0
 43
0.0
 10
6.410396
 20
19.142569
 10
6.63702
 20
19.459787
  0
SPLINE
  5
186
330
182
100
AcDbEntity
  8
0
 62
     1
100
AcDbSpline
210
0.0
220
0.0
230
1.0
 70
     8
 71
     3
 72
     8
 73
     4
 74
     0
 42
0.000000001
 43
0.0000001
 40
0.0
 40
0.0
 40
0.0
 40
0.0
 40
1.0
 40
1.0
 40
1.0
 40
1.0
 10
7.058378
 20
19.950289
 30
0.0
 10
7.402124
 20
20.363462
 30
0.0
 10
7.793849
 20
20.763936
 30
0.0
 10
8.202507
 20
21.108529
 30
0.0
  0
LWPOLYLINE
  5
187
330
182
100
AcDbEntity
  8
0
 62
     1
100
AcDbPolyline
 90
        3
 70
     0
 43
0.0
 10
6.788291
 20
19.653956
 10
6.795911
 20
19.636176
 10
7.058378
 20
19.950289
  0
SPLINE
  5
188
330
182
100
AcDbEntity
  8
0
 62
     1
100
AcDbSpline
210
0.0
220
0.0
230
1.0
 70
     8
 71
     3
 72
     8
 73
     4
 74
     0
 42
0.000000001
 43
0.0000001
 40
0.0
 40
0.0
 40
0.0
 40
0.0
 40
1.0
 40
1.0
 40
1.0
 40
1.0
 10
8.501944
 20
21.381156
 30
0.0
 10
8.558953
 20
21.423771
 30
0.0
 10
8.612858
 20
21.472596
 30
0.0
 10
8.670713
 20
21.514929
 30
0.0
  0
LWPOLYLINE
  5
189
330
182
100
AcDbEntity
  8
0
 62
     1
100
AcDbPolyline
 90
        3
 70
     0
 43
0.0
 10
8.202507
 20
21.108529
 10
8.516902
 20
21.373818
 10
8.501944
 20
21.381156
  0
SPLINE
  5
18A
330
182
100
AcDbEntity
  8
0
 62
     1
100
AcDbSpline
210
0.0
220
0.0
230
1.0
 70
     8
 71
     3
 72
     8
 73
     4
 74
     0
 42
0.000000001
 43
0.0000001
 40
0.0
 40
0.0
 40
0.0
 40
0.0
 40
1.0
 40
1.0
 40
1.0
 40
1.0
 10
5.036538
 20
12.684478
 30
0.0
 10
5.024684
 20
12.759831
 30
0.0
 10
5.019604
 20
12.837442
 30
0.0
 10
5.009444
 20
12.913642
 30
0.0
  0
LWPOLYLINE
  5
18B
330
182
100
AcDbEntity
  8
0
 62
     1
100
AcDbPolyline
 90
        6
 70
     0
 43
0.0
 10
8.670713
 20
21.514929
 10
8.981158
 20
21.7424
 10
4.102664
 20
24.09952
 10
4.375009
 20
23.515038
 10
6.410396
 20
19.142569
 10
6.410396
 20
19.142569
  0
SPLINE
  5
18C
330
182
100
AcDbEntity
  8
0
 62
     1
100
AcDbSpline
210
0.0
220
0.0
230
1.0
 70
     8
 71
     3
 72
     8
 73
     4
 74
     0
 42
0.000000001
 43
0.0000001
 40
0.0
 40
0.0
 40
0.0
 40
0.0
 40
1.0
 40
1.0
 40
1.0
 40
1.0
 10
4.994769
 20
13.315527
 30
0.0
 10
4.971909
 20
13.580251
 30
0.0
 10
4.95808
 20
13.84554
 30
0.0
 10
4.95808
 20
14.111111
 30
0.0
  0
SPLINE
  5
18D
330
182
100
AcDbEntity
  8
0
 62
     1
100
AcDbSpline
210
0.0
220
0.0
230
1.0
 70
     8
 71
     3
 72
     8
 73
     4
 74
     0
 42
0.000000001
 43
0.0000001
 40
0.0
 40
0.0
 40
0.0
 40
0.0
 40
1.0
 40
1.0
 40
1.0
 40
1.0
 10
4.95808
 20
14.111111
 30
0.0
 10
4.95808
 20
14.392769
 30
0.0
 10
4.97078
 20
14.67104
 30
0.0
 10
4.994769
 20
14.945924
 30
0.0
  0
LWPOLYLINE
  5
18E
330
182
100
AcDbEntity
  8
0
 62
     1
100
AcDbPolyline
 90
        3
 70
     0
 43
0.0
 10
5.009444
 20
12.913642
 10
5.030893
 20
12.906587
 10
4.994769
 20
13.315527
  0
SPLINE
  5
18F
330
182
100
AcDbEntity
  8
0
 62
     1
100
AcDbSpline
210
0.0
220
0.0
230
1.0
 70
     8
 71
     3
 72
     8
 73
     4
 74
     0
 42
0.000000001
 43
0.0000001
 40
0.0
 40
0.0
 40
0.0
 40
0.0
 40
1.0
 40
1.0
 40
1.0
 40
1.0
 10
5.010009
 20
15.348656
 30
0.0
 10
5.019887
 20
15.425702
 30
0.0
 10
5.024684
 20
15.502467
 30
0.0
 10
5.036538
 20
15.57782
 30
0.0
  0
LWPOLYLINE
  5
190
330
182
100
AcDbEntity
  8
0
 62
     1
100
AcDbPolyline
 90
        3
 70
     0
 43
0.0
 10
4.994769
 20
14.945924
 10
5.032022
 20
15.357687
 10
5.010009
 20
15.348656
  0
LWPOLYLINE
  5
191
330
182
100
AcDbEntity
  8
0
 62
     1
100
AcDbPolyline
 90
        7
 70
     0
 43
0.0
 10
5.036538
 20
15.57782
 10
5.09778
 20
15.96136
 10
4.735971
 20
15.831538
 10
0.0
 20
14.131149
 10
5.096369
 20
12.302349
 10
5.036538
 20
12.684478
 10
5.036538
 20
12.684478
  0
SPLINE
  5
192
330
182
100
AcDbEntity
  8
0
 62
     1
100
AcDbSpline
210
0.0
220
0.0
230
1.0
 70
     8
 71
     3
 72
     8
 73
     4
 74
     0
 42
0.000000001
 43
0.0000001
 40
0.0
 40
0.0
 40
0.0
 40
0.0
 40
1.0
 40
1.0
 40
1.0
 40
1.0
 10
13.153531
 20
23.17496
 30
0.0
 10
13.421078
 20
23.198102
 30
0.0
 10
13.689471
 20
23.211931
 30
0.0
 10
13.960404
 20
23.211931
 30
0.0
  0
SPLINE
  5
193
330
182
100
AcDbEntity
  8
0
 62
     1
100
AcDbSpline
210
0.0
220
0.0
230
1.0
 70
     8
 71
     3
 72
     8
 73
     4
 74
     0
 42
0.000000001
 43
0.0000001
 40
0.0
 40
0.0
 40
0.0
 40
0.0
 40
1.0
 40
1.0
 40
1.0
 40
1.0
 10
13.960404
 20
23.211931
 30
0.0
 10
14.231338
 20
23.211931
 30
0.0
 10
14.500013
 20
23.198102
 30
0.0
 10
14.76756
 20
23.17496
 30
0.0
  0
LWPOLYLINE
  5
194
330
182
100
AcDbEntity
  8
0
 62
     1
100
AcDbPolyline
 90
        3
 70
     0
 43
0.0
 10
12.756444
 20
23.160284
 10
12.748824
 20
23.137424
 10
13.153531
 20
23.17496
  0
SPLINE
  5
195
330
182
100
AcDbEntity
  8
0
 62
     1
100
AcDbSpline
210
0.0
220
0.0
230
1.0
 70
     8
 71
     3
 72
     8
 73
     4
 74
     0
 42
0.000000001
 43
0.0000001
 40
0.0
 40
0.0
 40
0.0
 40
0.0
 40
1.0
 40
1.0
 40
1.0
 40
1.0
 10
15.164082
 20
23.160284
 30
0.0
 10
15.24
 20
23.149842
 30
0.0
 10
15.317047
 20
23.145044
 30
0.0
 10
15.392118
 20
23.132627
 30
0.0
  0
LWPOLYLINE
  5
196
330
182
100
AcDbEntity
  8
0
 62
     1
100
AcDbPolyline
 90
        3
 70
     0
 43
0.0
 10
14.76756
 20
23.17496
 10
15.171984
 20
23.137424
 10
15.164082
 20
23.160284
  0
SPLINE
  5
197
330
182
100
AcDbEntity
  8
0
 62
     1
100
AcDbSpline
210
0.0
220
0.0
230
1.0
 70
     8
 71
     3
 72
     8
 73
     4
 74
     0
 42
0.000000001
 43
0.0000001
 40
0.0
 40
0.0
 40
0.0
 40
0.0
 40
1.0
 40
1.0
 40
1.0
 40
1.0
 10
12.528973
 20
23.132909
 30
0.0
 10
12.604044
 20
23.145044
 30
0.0
 10
12.681091
 20
23.149842
 30
0.0
 10
12.756444
 20
23.160284
 30
0.0
  0
LWPOLYLINE
  5
198
330
182
100
AcDbEntity
  8
0
 62
     1
100
AcDbPolyline
 90
        6
 70
     0
 43
0.0
 10
15.392118
 20
23.132627
 10
15.770013
 20
23.07082
 10
13.960122
 20
28.222222
 10
13.745916
 20
27.611776
 10
12.149667
 20
23.071102
 10
12.528973
 20
23.132909
  0
LWPOLYLINE
  5
199
330
182
100
AcDbEntity
  8
0
 62
     1
100
AcDbPolyline
 90
        2
 70
     0
 43
0.0
 10
12.756444
 20
23.160284
 10
12.756444
 20
23.160284
  0
SPLINE
  5
19A
330
182
100
AcDbEntity
  8
0
 62
     1
100
AcDbSpline
210
0.0
220
0.0
230
1.0
 70
     8
 71
     3
 72
     8
 73
     4
 74
     0
 42
0.000000001
 43
0.0000001
 40
0.0
 40
0.0
 40
0.0
 40
0.0
 40
1.0
 40
1.0
 40
1.0
 40
1.0
 10
19.498451
 20
21.310882
 30
0.0
 10
19.650851
 20
21.190656
 30
0.0
 10
19.789422
 20
21.055189
 30
0.0
 10
19.933356
 20
20.925367
 30
0.0
  0
SPLINE
  5
19B
330
182
100
AcDbEntity
  8
0
 62
     1
100
AcDbSpline
210
0.0
220
0.0
230
1.0
 70
     8
 71
     3
 72
     8
 73
     4
 74
     0
 42
0.000000001
 43
0.0000001
 40
0.0
 40
0.0
 40
0.0
 40
0.0
 40
1.0
 40
1.0
 40
1.0
 40
1.0
 10
19.933356
 20
20.925367
 30
0.0
 10
20.197516
 20
20.688864
 30
0.0
 10
20.447847
 20
20.435711
 30
0.0
 10
20.68322
 20
20.17014
 30
0.0
  0
SPLINE
  5
19C
330
182
100
AcDbEntity
  8
0
 62
     1
100
AcDbSpline
210
0.0
220
0.0
230
1.0
 70
     8
 71
     3
 72
     8
 73
     4
 74
     0
 42
0.000000001
 43
0.0000001
 40
0.0
 40
0.0
 40
0.0
 40
0.0
 40
1.0
 40
1.0
 40
1.0
 40
1.0
 10
20.68322
 20
20.17014
 30
0.0
 10
20.806551
 20
20.031287
 30
0.0
 10
20.932987
 20
19.896102
 30
0.0
 10
21.047287
 20
19.749629
 30
0.0
  0
LWPOLYLINE
  5
19D
330
182
100
AcDbEntity
  8
0
 62
     1
100
AcDbPolyline
 90
        3
 70
     0
 43
0.0
 10
19.426202
 20
21.373818
 10
19.424227
 20
21.373818
 10
19.498451
 20
21.310882
  0
SPLINE
  5
19E
330
182
100
AcDbEntity
  8
0
 62
     1
100
AcDbSpline
210
0.0
220
0.0
230
1.0
 70
     8
 71
     3
 72
     8
 73
     4
 74
     0
 42
0.000000001
 43
0.0000001
 40
0.0
 40
0.0
 40
0.0
 40
0.0
 40
1.0
 40
1.0
 40
1.0
 40
1.0
 10
21.144089
 20
19.637022
 30
0.0
 10
21.189809
 20
19.577473
 30
0.0
 10
21.239198
 20
19.520747
 30
0.0
 10
21.283224
 20
19.459222
 30
0.0
  0
LWPOLYLINE
  5
19F
330
182
100
AcDbEntity
  8
0
 62
     1
100
AcDbPolyline
 90
        3
 70
     0
 43
0.0
 10
21.047287
 20
19.749629
 10
21.142396
 20
19.633636
 10
21.144089
 20
19.637022
  0
SPLINE
  5
1A0
330
182
100
AcDbEntity
  8
0
 62
     1
100
AcDbSpline
210
0.0
220
0.0
230
1.0
 70
     8
 71
     3
 72
     8
 73
     4
 74
     0
 42
0.000000001
 43
0.0000001
 40
0.0
 40
0.0
 40
0.0
 40
0.0
 40
1.0
 40
1.0
 40
1.0
 40
1.0
 10
19.250096
 20
21.514364
 30
0.0
 10
19.310773
 20
21.47062
 30
0.0
 10
19.367218
 20
21.420384
 30
0.0
 10
19.426202
 20
21.373818
 30
0.0
  0
LWPOLYLINE
  5
1A1
330
182
100
AcDbEntity
  8
0
 62
     1
100
AcDbPolyline
 90
        6
 70
     0
 43
0.0
 10
21.283224
 20
19.459222
 10
21.507591
 20
19.143698
 10
23.841569
 20
24.101778
 10
23.261038
 20
23.820967
 10
18.939651
 20
21.740424
 10
19.250096
 20
21.514364
  0
LWPOLYLINE
  5
1A2
330
182
100
AcDbEntity
  8
0
 62
     1
100
AcDbPolyline
 90
        2
 70
     0
 43
0.0
 10
19.426202
 20
21.373818
 10
19.426202
 20
21.373818
  0
SPLINE
  5
1A3
330
182
100
AcDbEntity
  8
0
 62
     1
100
AcDbSpline
210
0.0
220
0.0
230
1.0
 70
     8
 71
     3
 72
     8
 73
     4
 74
     0
 42
0.000000001
 43
0.0000001
 40
0.0
 40
0.0
 40
0.0
 40
0.0
 40
1.0
 40
1.0
 40
1.0
 40
1.0
 10
22.883989
 20
15.558347
 30
0.0
 10
22.895278
 20
15.482993
 30
0.0
 10
22.901204
 20
15.405382
 30
0.0
 10
22.911082
 20
15.329182
 30
0.0
  0
LWPOLYLINE
  5
1A4
330
182
100
AcDbEntity
  8
0
 62
     1
100
AcDbPolyline
 90
        4
 70
     0
 43
0.0
 10
22.822464
 20
12.282593
 10
27.920809
 20
14.113087
 10
22.822464
 20
15.940476
 10
22.883989
 20
15.558347
  0
SPLINE
  5
1A5
330
182
100
AcDbEntity
  8
0
 62
     1
100
AcDbSpline
210
0.0
220
0.0
230
1.0
 70
     8
 71
     3
 72
     8
 73
     4
 74
     0
 42
0.000000001
 43
0.0000001
 40
0.0
 40
0.0
 40
0.0
 40
0.0
 40
1.0
 40
1.0
 40
1.0
 40
1.0
 10
22.92604
 20
14.926451
 30
0.0
 10
22.948618
 20
14.656647
 30
0.0
 10
22.962729
 20
14.384867
 30
0.0
 10
22.962729
 20
14.110829
 30
0.0
  0
SPLINE
  5
1A6
330
182
100
AcDbEntity
  8
0
 62
     1
100
AcDbSpline
210
0.0
220
0.0
230
1.0
 70
     8
 71
     3
 72
     8
 73
     4
 74
     0
 42
0.000000001
 43
0.0000001
 40
0.0
 40
0.0
 40
0.0
 40
0.0
 40
1.0
 40
1.0
 40
1.0
 40
1.0
 10
22.962729
 20
14.110829
 30
0.0
 10
22.962729
 20
13.837638
 30
0.0
 10
22.948618
 20
13.565576
 30
0.0
 10
22.92604
 20
13.296053
 30
0.0
  0
LWPOLYLINE
  5
1A7
330
182
100
AcDbEntity
  8
0
 62
     1
100
AcDbPolyline
 90
        3
 70
     0
 43
0.0
 10
22.911082
 20
15.329182
 10
22.889069
 20
15.338213
 10
22.92604
 20
14.926451
  0
SPLINE
  5
1A8
330
182
100
AcDbEntity
  8
0
 62
     1
100
AcDbSpline
210
0.0
220
0.0
230
1.0
 70
     8
 71
     3
 72
     8
 73
     4
 74
     0
 42
0.000000001
 43
0.0000001
 40
0.0
 40
0.0
 40
0.0
 40
0.0
 40
1.0
 40
1.0
 40
1.0
 40
1.0
 10
22.911082
 20
12.893322
 30
0.0
 10
22.901204
 20
12.81684
 30
0.0
 10
22.895278
 20
12.739511
 30
0.0
 10
22.883989
 20
12.664158
 30
0.0
  0
LWPOLYLINE
  5
1A9
330
182
100
AcDbEntity
  8
0
 62
     1
100
AcDbPolyline
 90
        3
 70
     0
 43
0.0
 10
22.92604
 20
13.296053
 10
22.889069
 20
12.885138
 10
22.911082
 20
12.893322
  0
LWPOLYLINE
  5
1AA
330
182
100
AcDbEntity
  8
0
 62
     1
100
AcDbPolyline
 90
        3
 70
     0
 43
0.0
 10
22.883989
 20
12.664158
 10
22.822464
 20
12.282593
 10
22.822464
 20
12.282593
  0
SPLINE
  5
1AB
330
182
100
AcDbEntity
  8
0
 62
     1
100
AcDbSpline
210
0.0
220
0.0
230
1.0
 70
     8
 71
     3
 72
     8
 73
     4
 74
     0
 42
0.000000001
 43
0.0000001
 40
0.0
 40
0.0
 40
0.0
 40
0.0
 40
1.0
 40
1.0
 40
1.0
 40
1.0
 10
14.766996
 20
5.047827
 30
0.0
 10
14.499449
 20
5.024684
 30
0.0
 10
14.231056
 20
5.010573
 30
0.0
 10
13.95984
 20
5.010573
 30
0.0
  0
SPLINE
  5
1AC
330
182
100
AcDbEntity
  8
0
 62
     1
100
AcDbSpline
210
0.0
220
0.0
230
1.0
 70
     8
 71
     3
 72
     8
 73
     4
 74
     0
 42
0.000000001
 43
0.0000001
 40
0.0
 40
0.0
 40
0.0
 40
0.0
 40
1.0
 40
1.0
 40
1.0
 40
1.0
 10
13.95984
 20
5.010573
 30
0.0
 10
13.688907
 20
5.010573
 30
0.0
 10
13.420513
 20
5.024684
 30
0.0
 10
13.152967
 20
5.047827
 30
0.0
  0
LWPOLYLINE
  5
1AD
330
182
100
AcDbEntity
  8
0
 62
     1
100
AcDbPolyline
 90
        3
 70
     0
 43
0.0
 10
15.164929
 20
5.062502
 10
15.172831
 20
5.085362
 10
14.766996
 20
5.047827
  0
SPLINE
  5
1AE
330
182
100
AcDbEntity
  8
0
 62
     1
100
AcDbSpline
210
0.0
220
0.0
230
1.0
 70
     8
 71
     3
 72
     8
 73
     4
 74
     0
 42
0.000000001
 43
0.0000001
 40
0.0
 40
0.0
 40
0.0
 40
0.0
 40
1.0
 40
1.0
 40
1.0
 40
1.0
 10
12.755316
 20
5.062502
 30
0.0
 10
12.679962
 20
5.073509
 30
0.0
 10
12.603198
 20
5.078871
 30
0.0
 10
12.528973
 20
5.090724
 30
0.0
  0
LWPOLYLINE
  5
1AF
330
182
100
AcDbEntity
  8
0
 62
     1
100
AcDbPolyline
 90
        3
 70
     0
 43
0.0
 10
13.152967
 20
5.047827
 10
12.747131
 20
5.085362
 10
12.755316
 20
5.062502
  0
SPLINE
  5
1B0
330
182
100
AcDbEntity
  8
0
 62
     1
100
AcDbSpline
210
0.0
220
0.0
230
1.0
 70
     8
 71
     3
 72
     8
 73
     4
 74
     0
 42
0.000000001
 43
0.0000001
 40
0.0
 40
0.0
 40
0.0
 40
0.0
 40
1.0
 40
1.0
 40
1.0
 40
1.0
 10
15.391553
 20
5.090724
 30
0.0
 10
15.317047
 20
5.078871
 30
0.0
 10
15.240564
 20
5.073791
 30
0.0
 10
15.164929
 20
5.062502
 30
0.0
  0
LWPOLYLINE
  5
1B1
330
182
100
AcDbEntity
  8
0
 62
     1
100
AcDbPolyline
 90
        6
 70
     0
 43
0.0
 10
12.528973
 20
5.090724
 10
12.151078
 20
5.15112
 10
12.278642
 20
4.787053
 10
13.958993
 20
0.0
 10
15.769449
 20
5.151967
 10
15.391553
 20
5.090724
  0
SPLINE
  5
1B2
330
182
100
AcDbEntity
  8
0
 62
     1
100
AcDbSpline
210
0.0
220
0.0
230
1.0
 70
     8
 71
     3
 72
     8
 73
     4
 74
     0
 42
0.000000001
 43
0.0000001
 40
0.0
 40
0.0
 40
0.0
 40
0.0
 40
1.0
 40
1.0
 40
1.0
 40
1.0
 10
21.283224
 20
8.764411
 30
0.0
 10
21.241738
 20
8.705144
 30
0.0
 10
21.194042
 20
8.651522
 30
0.0
 10
21.15058
 20
8.593667
 30
0.0
  0
LWPOLYLINE
  5
1B3
330
182
100
AcDbEntity
  8
0
 62
     1
100
AcDbPolyline
 90
        2
 70
     0
 43
0.0
 10
15.164929
 20
5.062502
 10
15.164929
 20
5.062502
  0
SPLINE
  5
1B4
330
182
100
AcDbEntity
  8
0
 62
     1
100
AcDbSpline
210
0.0
220
0.0
230
1.0
 70
     8
 71
     3
 72
     8
 73
     4
 74
     0
 42
0.000000001
 43
0.0000001
 40
0.0
 40
0.0
 40
0.0
 40
0.0
 40
1.0
 40
1.0
 40
1.0
 40
1.0
 10
20.88134
 20
8.290842
 30
0.0
 10
20.599118
 20
7.948789
 30
0.0
 10
20.281336
 20
7.619436
 30
0.0
 10
19.953111
 20
7.319433
 30
0.0
  0
SPLINE
  5
1B5
330
182
100
AcDbEntity
  8
0
 62
     1
100
AcDbSpline
210
0.0
220
0.0
230
1.0
 70
     8
 71
     3
 72
     8
 73
     4
 74
     0
 42
0.000000001
 43
0.0000001
 40
0.0
 40
0.0
 40
0.0
 40
0.0
 40
1.0
 40
1.0
 40
1.0
 40
1.0
 10
19.953111
 20
7.319433
 30
0.0
 10
19.784624
 20
7.168162
 30
0.0
 10
19.623476
 20
7.007013
 30
0.0
 10
19.444829
 20
6.868724
 30
0.0
  0
SPLINE
  5
1B6
330
182
100
AcDbEntity
  8
0
 62
     1
100
AcDbSpline
210
0.0
220
0.0
230
1.0
 70
     8
 71
     3
 72
     8
 73
     4
 74
     0
 42
0.000000001
 43
0.0000001
 40
0.0
 40
0.0
 40
0.0
 40
0.0
 40
1.0
 40
1.0
 40
1.0
 40
1.0
 10
19.444829
 20
6.868724
 30
0.0
 10
19.384998
 20
6.823004
 30
0.0
 10
19.328836
 20
6.772769
 30
0.0
 10
19.268158
 20
6.727613
 30
0.0
  0
LWPOLYLINE
  5
1B7
330
182
100
AcDbEntity
  8
0
 62
     1
100
AcDbPolyline
 90
        3
 70
     0
 43
0.0
 10
21.15058
 20
8.593667
 10
21.144089
 20
8.608624
 10
20.88134
 20
8.290842
  0
LWPOLYLINE
  5
1B8
330
182
100
AcDbEntity
  8
0
 62
     1
100
AcDbPolyline
 90
        6
 70
     0
 43
0.0
 10
19.268158
 20
6.727613
 10
18.959689
 20
6.501271
 10
23.844673
 20
4.139353
 10
21.507591
 20
9.076831
 10
21.283224
 20
8.764411
 10
21.283224
 20
8.764411
  0
SPLINE
  5
1B9
330
182
100
AcDbEntity
  8
0
 62
     1
100
AcDbSpline
210
0.0
220
0.0
230
1.0
 70
     8
 71
     3
 72
     8
 73
     4
 74
     0
 42
0.000000001
 43
0.0000001
 40
0.0
 40
0.0
 40
0.0
 40
0.0
 40
1.0
 40
1.0
 40
1.0
 40
1.0
 10
8.184727
 20
7.134013
 30
0.0
 10
7.780867
 20
7.475784
 30
0.0
 10
7.396762
 20
7.864404
 30
0.0
 10
7.058378
 20
8.272216
 30
0.0
  0
LWPOLYLINE
  5
1BA
330
182
100
AcDbEntity
  8
0
 62
     1
100
AcDbPolyline
 90
        3
 70
     0
 43
0.0
 10
8.476544
 20
6.86308
 10
8.494042
 20
6.871264
 10
8.184727
 20
7.134013
  0
SPLINE
  5
1BB
330
182
100
AcDbEntity
  8
0
 62
     1
100
AcDbSpline
210
0.0
220
0.0
230
1.0
 70
     8
 71
     3
 72
     8
 73
     4
 74
     0
 42
0.000000001
 43
0.0000001
 40
0.0
 40
0.0
 40
0.0
 40
0.0
 40
1.0
 40
1.0
 40
1.0
 40
1.0
 10
6.789138
 20
8.568267
 30
0.0
 10
6.739467
 20
8.634307
 30
0.0
 10
6.684998
 20
8.696678
 30
0.0
 10
6.63702
 20
8.763847
 30
0.0
  0
LWPOLYLINE
  5
1BC
330
182
100
AcDbEntity
  8
0
 62
     1
100
AcDbPolyline
 90
        3
 70
     0
 43
0.0
 10
7.058378
 20
8.272216
 10
6.797322
 20
8.585764
 10
6.789138
 20
8.568267
  0
SPLINE
  5
1BD
330
182
100
AcDbEntity
  8
0
 62
     1
100
AcDbSpline
210
0.0
220
0.0
230
1.0
 70
     8
 71
     3
 72
     8
 73
     4
 74
     0
 42
0.000000001
 43
0.0000001
 40
0.0
 40
0.0
 40
0.0
 40
0.0
 40
1.0
 40
1.0
 40
1.0
 40
1.0
 10
8.670431
 20
6.708704
 30
0.0
 10
8.603827
 20
6.756682
 30
0.0
 10
8.541456
 20
6.81228
 30
0.0
 10
8.476544
 20
6.86308
 30
0.0
  0
LWPOLYLINE
  5
1BE
330
182
100
AcDbEntity
  8
0
 62
     1
100
AcDbPolyline
 90
        6
 70
     0
 43
0.0
 10
6.63702
 20
8.763847
 10
6.411807
 20
9.078242
 10
6.247553
 20
8.727722
 10
4.102382
 20
4.146973
 10
8.983416
 20
6.480387
 10
8.670431
 20
6.708704
  0
SPLINE
  5
1BF
330
182
100
AcDbEntity
  8
0
 62
     1
100
AcDbSpline
210
0.0
220
0.0
230
1.0
 70
     8
 71
     3
 72
     8
 73
     4
 74
     0
 42
0.000000001
 43
0.0000001
 40
0.0
 40
0.0
 40
0.0
 40
0.0
 40
1.0
 40
1.0
 40
1.0
 40
1.0
 10
20.382089
 20
9.364698
 30
0.0
 10
21.419256
 20
10.799233
 30
0.0
 10
21.921611
 20
12.464344
 30
0.0
 10
21.921611
 20
14.113369
 30
0.0
  0
SPLINE
  5
1C0
330
182
100
AcDbEntity
  8
0
 62
     1
100
AcDbSpline
210
0.0
220
0.0
230
1.0
 70
     8
 71
     3
 72
     8
 73
     4
 74
     0
 42
0.000000001
 43
0.0000001
 40
0.0
 40
0.0
 40
0.0
 40
0.0
 40
1.0
 40
1.0
 40
1.0
 40
1.0
 10
21.921611
 20
14.113369
 30
0.0
 10
21.921611
 20
16.587893
 30
0.0
 10
20.794698
 20
19.030527
 30
0.0
 10
18.670129
 20
20.606173
 30
0.0
  0
SPLINE
  5
1C1
330
182
100
AcDbEntity
  8
0
 62
     1
100
AcDbSpline
210
0.0
220
0.0
230
1.0
 70
     8
 71
     3
 72
     8
 73
     4
 74
     0
 42
0.000000001
 43
0.0000001
 40
0.0
 40
0.0
 40
0.0
 40
0.0
 40
1.0
 40
1.0
 40
1.0
 40
1.0
 10
18.670129
 20
20.606173
 30
0.0
 10
17.251116
 20
21.657733
 30
0.0
 10
15.604067
 20
22.16404
 30
0.0
 10
13.971976
 20
22.16404
 30
0.0
  0
SPLINE
  5
1C2
330
182
100
AcDbEntity
  8
0
 62
     1
100
AcDbSpline
210
0.0
220
0.0
230
1.0
 70
     8
 71
     3
 72
     8
 73
     4
 74
     0
 42
0.000000001
 43
0.0000001
 40
0.0
 40
0.0
 40
0.0
 40
0.0
 40
1.0
 40
1.0
 40
1.0
 40
1.0
 10
13.971976
 20
22.16404
 30
0.0
 10
11.524544
 20
22.16404
 30
0.0
 10
9.10844
 20
21.025556
 30
0.0
 10
7.551138
 20
18.876151
 30
0.0
  0
SPLINE
  5
1C3
330
182
100
AcDbEntity
  8
0
 62
     1
100
AcDbSpline
210
0.0
220
0.0
230
1.0
 70
     8
 71
     3
 72
     8
 73
     4
 74
     0
 42
0.000000001
 43
0.0000001
 40
0.0
 40
0.0
 40
0.0
 40
0.0
 40
1.0
 40
1.0
 40
1.0
 40
1.0
 10
7.551138
 20
18.876151
 30
0.0
 10
6.510584
 20
17.445284
 30
0.0
 10
6.009922
 20
15.777633
 30
0.0
 10
6.009922
 20
14.127198
 30
0.0
  0
SPLINE
  5
1C4
330
182
100
AcDbEntity
  8
0
 62
     1
100
AcDbSpline
210
0.0
220
0.0
230
1.0
 70
     8
 71
     3
 72
     8
 73
     4
 74
     0
 42
0.000000001
 43
0.0000001
 40
0.0
 40
0.0
 40
0.0
 40
0.0
 40
1.0
 40
1.0
 40
1.0
 40
1.0
 10
6.009922
 20
14.127198
 30
0.0
 10
6.009922
 20
11.65352
 30
0.0
 10
7.136271
 20
9.209476
 30
0.0
 10
9.262533
 20
7.634676
 30
0.0
  0
SPLINE
  5
1C5
330
182
100
AcDbEntity
  8
0
 62
     1
100
AcDbSpline
210
0.0
220
0.0
230
1.0
 70
     8
 71
     3
 72
     8
 73
     4
 74
     0
 42
0.000000001
 43
0.0000001
 40
0.0
 40
0.0
 40
0.0
 40
0.0
 40
1.0
 40
1.0
 40
1.0
 40
1.0
 10
9.262533
 20
7.634676
 30
0.0
 10
10.677878
 20
6.585938
 30
0.0
 10
12.327184
 20
6.077373
 30
0.0
 10
13.958993
 20
6.077373
 30
0.0
  0
SPLINE
  5
1C6
330
182
100
AcDbEntity
  8
0
 62
     1
100
AcDbSpline
210
0.0
220
0.0
230
1.0
 70
     8
 71
     3
 72
     8
 73
     4
 74
     0
 42
0.000000001
 43
0.0000001
 40
0.0
 40
0.0
 40
0.0
 40
0.0
 40
1.0
 40
1.0
 40
1.0
 40
1.0
 10
13.958993
 20
6.077373
 30
0.0
 10
16.406424
 20
6.077091
 30
0.0
 10
18.82394
 20
7.216422
 30
0.0
 10
20.382089
 20
9.364698
 30
0.0
  0
LWPOLYLINE
  5
1C7
330
182
100
AcDbEntity
  8
0
 62
     1
100
AcDbPolyline
 90
        2
 70
     0
 43
0.0
 10
8.476544
 20
6.86308
 10
8.476544
 20
6.86308
  0
LWPOLYLINE
  5
1C8
330
182
100
AcDbEntity
  8
0
 62
     1
100
AcDbPolyline
 90
        2
 70
     0
 43
0.0
 10
20.382089
 20
9.364698
 10
20.382089
 20
9.364698
  0
ENDBLK
  5
1C9
330
182
100
AcDbEntity
  8
0
100
AcDbBlockEnd
  0
ENDSEC
  0
SECTION
  2
ENTITIES
  0
LINE
  5
4D
330
15
100
AcDbEntity
  8
0
100
AcDbLine
 10
203.7020692657682
 20
2019.963907792194
 30
0.0
 11
203.7020692657682
 21
2071.963907792194
 31
0.0
  0
LINE
  5
4E
330
15
100
AcDbEntity
  8
0
100
AcDbLine
 10
102.7020692657682
 20
2071.963907792194
 30
0.0
 11
203.7020692657682
 21
2071.963907792194
 31
0.0
  0
LINE
  5
4F
330
15
100
AcDbEntity
  8
0
100
AcDbLine
 10
102.7020692657682
 20
2071.963907792194
 30
0.0
 11
102.7020692657682
 21
2019.963907792194
 31
0.0
  0
LINE
  5
50
330
15
100
AcDbEntity
  8
0
100
AcDbLine
 10
102.7020692657682
 20
2019.963907792194
 30
0.0
 11
203.7020692657682
 21
2019.963907792194
 31
0.0
  0
LINE
  5
51
330
15
100
AcDbEntity
  8
0
100
AcDbLine
 10
172.763591680148
 20
2286.707794680845
 30
0.0
 11
172.763591680148
 21
2108.707794680845
 31
0.0
  0
LINE
  5
52
330
15
100
AcDbEntity
  8
0
100
AcDbLine
 10
-56.03640831985126
 20
2108.707794680845
 30
0.0
 11
172.763591680148
 21
2108.707794680845
 31
0.0
  0
CIRCLE
  5
53
330
15
100
AcDbEntity
  8
0
100
AcDbCircle
 10
249.3672166143954
 20
2088.937067272168
 30
0.0
 40
3.0
  0
LINE
  5
54
330
15
100
AcDbEntity
  8
0
100
AcDbLine
 10
45.8020692657667
 20
2094.318359477252
 30
0.0
 11
42.8020692657667
 21
2094.318359477252
 31
0.0
  0
LINE
  5
55
330
15
100
AcDbEntity
  8
0
100
AcDbLine
 10
143.2020692657682
 20
1923.318359477252
 30
0.0
 11
163.2020692657682
 21
1923.318359477252
 31
0.0
  0
LINE
  5
56
330
15
100
AcDbEntity
  8
0
100
AcDbLine
 10
42.8020692657667
 20
2037.318359477252
 30
0.0
 11
45.8020692657667
 21
2037.318359477252
 31
0.0
  0
LINE
  5
57
330
15
100
AcDbEntity
  8
0
100
AcDbLine
 10
42.8020692657667
 20
2057.318359477252
 30
0.0
 11
45.8020692657667
 21
2057.318359477252
 31
0.0
  0
LINE
  5
58
330
15
100
AcDbEntity
  8
0
100
AcDbLine
 10
45.8020692657667
 20
2000.318359477252
 30
0.0
 11
45.8020692657667
 21
2037.318359477252
 31
0.0
  0
LINE
  5
59
330
15
100
AcDbEntity
  8
0
100
AcDbLine
 10
45.8020692657667
 20
2094.318359477252
 30
0.0
 11
45.8020692657667
 21
2057.318359477252
 31
0.0
  0
LINE
  5
5A
330
15
100
AcDbEntity
  8
0
100
AcDbLine
 10
255.602069265766
 20
1923.318359477252
 30
0.0
 11
263.602069265766
 21
1923.318359477252
 31
0.0
  0
LINE
  5
5B
330
15
100
AcDbEntity
  8
0
100
AcDbLine
 10
42.8020692657667
 20
1923.318359477252
 30
0.0
 11
143.2020692657682
 21
1923.318359477252
 31
0.0
  0
LINE
  5
5C
330
15
100
AcDbEntity
  8
0
100
AcDbLine
 10
255.602069265766
 20
1923.318359477252
 30
0.0
 11
163.2020692657682
 21
1923.318359477252
 31
0.0
  0
LINE
  5
5D
330
15
100
AcDbEntity
  8
0
100
AcDbLine
 10
255.602069265766
 20
2099.318359477253
 30
0.0
 11
163.2020692657682
 21
2099.318359477253
 31
0.0
  0
LINE
  5
5E
330
15
100
AcDbEntity
  8
0
100
AcDbLine
 10
255.602069265766
 20
2099.318359477253
 30
0.0
 11
255.602069265766
 21
2102.318359477253
 31
0.0
  0
LINE
  5
5F
330
15
100
AcDbEntity
  8
0
100
AcDbLine
 10
255.602069265766
 20
2102.318359477253
 30
0.0
 11
263.602069265766
 21
2102.318359477253
 31
0.0
  0
LINE
  5
60
330
15
100
AcDbEntity
  8
0
100
AcDbLine
 10
143.2020692657682
 20
2099.318359477253
 30
0.0
 11
143.2020692657682
 21
2102.318359477253
 31
0.0
  0
LINE
  5
61
330
15
100
AcDbEntity
  8
0
100
AcDbLine
 10
163.2020692657682
 20
2099.318359477253
 30
0.0
 11
163.2020692657682
 21
2102.318359477253
 31
0.0
  0
LINE
  5
62
330
15
100
AcDbEntity
  8
0
100
AcDbLine
 10
143.2020692657682
 20
2102.318359477253
 30
0.0
 11
163.2020692657682
 21
2102.318359477253
 31
0.0
  0
LINE
  5
63
330
15
100
AcDbEntity
  8
0
100
AcDbLine
 10
143.2020692657682
 20
2099.318359477253
 30
0.0
 11
50.8020692657667
 21
2099.318359477253
 31
0.0
  0
LINE
  5
64
330
15
100
AcDbEntity
  8
0
100
AcDbLine
 10
42.8020692657667
 20
2102.318359477253
 30
0.0
 11
50.8020692657667
 21
2102.318359477253
 31
0.0
  0
LINE
  5
65
330
15
100
AcDbEntity
  8
0
100
AcDbLine
 10
50.8020692657667
 20
2102.318359477253
 30
0.0
 11
50.8020692657667
 21
2099.318359477253
 31
0.0
  0
LINE
  5
66
330
15
100
AcDbEntity
  8
0
100
AcDbLine
 10
260.602069265766
 20
2094.318359477252
 30
0.0
 11
260.602069265766
 21
2057.318359477253
 31
0.0
  0
LINE
  5
67
330
15
100
AcDbEntity
  8
0
100
AcDbLine
 10
260.602069265766
 20
2094.318359477252
 30
0.0
 11
263.602069265766
 21
2094.318359477252
 31
0.0
  0
LINE
  5
68
330
15
100
AcDbEntity
  8
0
100
AcDbLine
 10
263.602069265766
 20
2057.318359477253
 30
0.0
 11
260.602069265766
 21
2057.318359477253
 31
0.0
  0
LINE
  5
69
330
15
100
AcDbEntity
  8
0
100
AcDbLine
 10
263.602069265766
 20
2000.318359477253
 30
0.0
 11
263.602069265766
 21
1923.318359477253
 31
0.0
  0
LINE
  5
6A
330
15
100
AcDbEntity
  8
0
100
AcDbLine
 10
260.602069265766
 20
2000.318359477253
 30
0.0
 11
263.602069265766
 21
2000.318359477253
 31
0.0
  0
LINE
  5
6B
330
15
100
AcDbEntity
  8
0
100
AcDbLine
 10
263.602069265766
 20
2057.318359477253
 30
0.0
 11
263.602069265766
 21
2037.318359477253
 31
0.0
  0
LINE
  5
6C
330
15
100
AcDbEntity
  8
0
100
AcDbLine
 10
263.602069265766
 20
2037.318359477253
 30
0.0
 11
260.602069265766
 21
2037.318359477253
 31
0.0
  0
LINE
  5
6D
330
15
100
AcDbEntity
  8
0
100
AcDbLine
 10
260.602069265766
 20
2000.318359477253
 30
0.0
 11
260.602069265766
 21
2037.318359477253
 31
0.0
  0
LINE
  5
6E
330
15
100
AcDbEntity
  8
0
100
AcDbLine
 10
263.602069265766
 20
2094.318359477252
 30
0.0
 11
263.602069265766
 21
2102.318359477252
 31
0.0
  0
LINE
  5
6F
330
15
100
AcDbEntity
  8
0
100
AcDbLine
 10
143.2020692657682
 20
1931.318359477252
 30
0.0
 11
143.2020692657682
 21
1928.318359477252
 31
0.0
  0
LINE
  5
70
330
15
100
AcDbEntity
  8
0
100
AcDbLine
 10
143.2020692657682
 20
1931.318359477252
 30
0.0
 11
50.8020692657667
 21
1931.318359477252
 31
0.0
  0
LINE
  5
71
330
15
100
AcDbEntity
  8
0
100
AcDbLine
 10
255.602069265766
 20
1931.318359477252
 30
0.0
 11
163.2020692657682
 21
1931.318359477252
 31
0.0
  0
LINE
  5
72
330
15
100
AcDbEntity
  8
0
100
AcDbLine
 10
50.8020692657667
 20
1928.318359477252
 30
0.0
 11
143.2020692657682
 21
1928.318359477252
 31
0.0
  0
LINE
  5
73
330
15
100
AcDbEntity
  8
0
100
AcDbLine
 10
50.8020692657667
 20
1928.318359477252
 30
0.0
 11
50.8020692657667
 21
1931.318359477252
 31
0.0
  0
LINE
  5
74
330
15
100
AcDbEntity
  8
0
100
AcDbLine
 10
255.602069265766
 20
1928.318359477252
 30
0.0
 11
163.2020692657682
 21
1928.318359477252
 31
0.0
  0
LINE
  5
75
330
15
100
AcDbEntity
  8
0
100
AcDbLine
 10
163.2020692657682
 20
1931.318359477252
 30
0.0
 11
255.602069265766
 21
1931.318359477252
 31
0.0
  0
LINE
  5
76
330
15
100
AcDbEntity
  8
0
100
AcDbLine
 10
255.602069265766
 20
1928.318359477252
 30
0.0
 11
255.602069265766
 21
1931.318359477252
 31
0.0
  0
LINE
  5
77
330
15
100
AcDbEntity
  8
0
100
AcDbLine
 10
163.2020692657682
 20
1931.318359477252
 30
0.0
 11
163.2020692657682
 21
1928.318359477252
 31
0.0
  0
LINE
  5
79
330
15
100
AcDbEntity
  8
0
100
AcDbLine
 10
-227.5135480520789
 20
1992.976330267888
 30
0.0
 11
-227.5135480520789
 21
2096.976330267888
 31
0.0
  0
LINE
  5
7A
330
15
100
AcDbEntity
  8
0
100
AcDbLine
 10
-188.5135480520789
 20
1992.976330267888
 30
0.0
 11
-188.5135480520789
 21
2096.976330267888
 31
0.0
  0
LINE
  5
7B
330
15
100
AcDbEntity
  8
0
100
AcDbLine
 10
-198.0135480520789
 20
2099.976330267888
 30
0.0
 11
-198.0135480520789
 21
2096.976330267888
 31
0.0
  0
LINE
  5
7C
330
15
100
AcDbEntity
  8
0
100
AcDbLine
 10
-218.0135480520789
 20
2099.976330267888
 30
0.0
 11
-218.0135480520789
 21
2096.976330267888
 31
0.0
  0
LINE
  5
7D
330
15
100
AcDbEntity
  8
0
100
AcDbLine
 10
-218.0135480520789
 20
2096.976330267888
 30
0.0
 11
-227.5135480520789
 21
2096.976330267888
 31
0.0
  0
LINE
  5
7E
330
15
100
AcDbEntity
  8
0
100
AcDbLine
 10
-198.0135480520789
 20
2096.976330267888
 30
0.0
 11
-188.5135480520789
 21
2096.976330267888
 31
0.0
  0
LINE
  5
7F
330
15
100
AcDbEntity
  8
0
 62
     1
100
AcDbLine
 10
-225.0135480520789
 20
2045.509120258866
 30
0.0
 11
-191.0135480520789
 21
2045.509120258866
 31
0.0
  0
LINE
  5
80
330
15
100
AcDbEntity
  8
0
 62
     1
100
AcDbLine
 10
-225.0135480520789
 20
2045.509120258866
 30
0.0
 11
-225.0135480520789
 21
2072.509120258866
 31
0.0
  0
LINE
  5
81
330
15
100
AcDbEntity
  8
0
 62
     1
100
AcDbLine
 10
-225.0135480520789
 20
2072.509120258866
 30
0.0
 11
-191.0135480520789
 21
2072.509120258866
 31
0.0
  0
LINE
  5
82
330
15
100
AcDbEntity
  8
0
 62
     1
100
AcDbLine
 10
-191.0135480520789
 20
2045.509120258866
 30
0.0
 11
-191.0135480520789
 21
2072.509120258866
 31
0.0
  0
LINE
  5
83
330
15
100
AcDbEntity
  8
0
100
AcDbLine
 10
-218.0135480520789
 20
2099.976330267888
 30
0.0
 11
-198.0135480520789
 21
2099.976330267888
 31
0.0
  0
LINE
  5
84
330
15
100
AcDbEntity
  8
0
100
AcDbLine
 10
-218.0135480520789
 20
1989.976330267888
 30
0.0
 11
-198.0135480520789
 21
1989.976330267888
 31
0.0
  0
LINE
  5
85
330
15
100
AcDbEntity
  8
0
100
AcDbLine
 10
-218.0135480520789
 20
1989.976330267888
 30
0.0
 11
-218.0135480520789
 21
1992.976330267888
 31
0.0
  0
LINE
  5
86
330
15
100
AcDbEntity
  8
0
100
AcDbLine
 10
-198.0135480520789
 20
1989.976330267888
 30
0.0
 11
-198.0135480520789
 21
1992.976330267888
 31
0.0
  0
LINE
  5
87
330
15
100
AcDbEntity
  8
0
100
AcDbLine
 10
-218.0135480520789
 20
1992.976330267888
 30
0.0
 11
-227.5135480520789
 21
1992.976330267888
 31
0.0
  0
LINE
  5
88
330
15
100
AcDbEntity
  8
0
100
AcDbLine
 10
-198.0135480520789
 20
1992.976330267888
 30
0.0
 11
-188.5135480520789
 21
1992.976330267888
 31
0.0
  0
LINE
  5
89
330
15
100
AcDbEntity
  8
0
100
AcDbLine
 10
-49.03640831985126
 20
2207.707794680844
 30
0.0
 11
-49.03640831985126
 21
2279.707794680845
 31
0.0
  0
LINE
  5
8A
330
15
100
AcDbEntity
  8
0
100
AcDbLine
 10
-44.03640831985126
 20
2282.707794680845
 30
0.0
 11
-44.03640831985126
 21
2279.707794680845
 31
0.0
  0
LINE
  5
8B
330
15
100
AcDbEntity
  8
0
100
AcDbLine
 10
-44.03640831985126
 20
2279.707794680845
 30
0.0
 11
-49.03640831985126
 21
2279.707794680845
 31
0.0
  0
LINE
  5
8C
330
15
100
AcDbEntity
  8
0
100
AcDbLine
 10
48.36359168015019
 20
2279.707794680845
 30
0.0
 11
68.3635916801502
 21
2279.707794680845
 31
0.0
  0
LINE
  5
8D
330
15
100
AcDbEntity
  8
0
100
AcDbLine
 10
-52.03640831985126
 20
2207.707794680844
 30
0.0
 11
-49.03640831985126
 21
2207.707794680844
 31
0.0
  0
LINE
  5
8E
330
15
100
AcDbEntity
  8
0
100
AcDbLine
 10
48.36359168015019
 20
2282.707794680845
 30
0.0
 11
48.36359168015019
 21
2279.707794680845
 31
0.0
  0
LINE
  5
8F
330
15
100
AcDbEntity
  8
0
100
AcDbLine
 10
68.3635916801502
 20
2282.707794680845
 30
0.0
 11
68.3635916801502
 21
2279.707794680845
 31
0.0
  0
LINE
  5
90
330
15
100
AcDbEntity
  8
0
100
AcDbLine
 10
48.36359168015019
 20
2115.707794680845
 30
0.0
 11
68.3635916801502
 21
2115.707794680845
 31
0.0
  0
LINE
  5
91
330
15
100
AcDbEntity
  8
0
100
AcDbLine
 10
68.3635916801502
 20
2112.707794680845
 30
0.0
 11
68.3635916801502
 21
2115.707794680845
 31
0.0
  0
LINE
  5
92
330
15
100
AcDbEntity
  8
0
100
AcDbLine
 10
48.36359168015019
 20
2112.707794680845
 30
0.0
 11
48.36359168015019
 21
2115.707794680845
 31
0.0
  0
LINE
  5
93
330
15
100
AcDbEntity
  8
0
100
AcDbLine
 10
68.3635916801502
 20
2112.707794680845
 30
0.0
 11
48.36359168015019
 21
2112.707794680845
 31
0.0
  0
LINE
  5
94
330
15
100
AcDbEntity
  8
0
100
AcDbLine
 10
68.3635916801502
 20
2112.707794680845
 30
0.0
 11
68.3635916801502
 21
2112.707794680845
 31
0.0
  0
LINE
  5
95
330
15
100
AcDbEntity
  8
0
100
AcDbLine
 10
-52.03640831985126
 20
2207.707794680844
 30
0.0
 11
-52.03640831985126
 21
2282.707794680845
 31
0.0
  0
LINE
  5
96
330
15
100
AcDbEntity
  8
0
100
AcDbLine
 10
-56.03640831985126
 20
2286.707794680845
 30
0.0
 11
-56.03640831985126
 21
2108.707794680845
 31
0.0
  0
LINE
  5
97
330
15
100
AcDbEntity
  8
0
100
AcDbLine
 10
48.36359168015019
 20
2279.707794680845
 30
0.0
 11
68.3635916801502
 21
2279.707794680845
 31
0.0
  0
LINE
  5
98
330
15
100
AcDbEntity
  8
0
100
AcDbLine
 10
68.3635916801502
 20
2282.707794680845
 30
0.0
 11
68.3635916801502
 21
2279.707794680845
 31
0.0
  0
LINE
  5
99
330
15
100
AcDbEntity
  8
0
100
AcDbLine
 10
48.36359168015019
 20
2282.707794680845
 30
0.0
 11
48.36359168015019
 21
2279.707794680845
 31
0.0
  0
LINE
  5
9A
330
15
100
AcDbEntity
  8
0
100
AcDbLine
 10
68.3635916801502
 20
2282.707794680845
 30
0.0
 11
48.36359168015019
 21
2282.707794680845
 31
0.0
  0
LINE
  5
9B
330
15
100
AcDbEntity
  8
0
100
AcDbLine
 10
68.3635916801502
 20
2282.707794680845
 30
0.0
 11
68.3635916801502
 21
2282.707794680845
 31
0.0
  0
LINE
  5
9C
330
15
100
AcDbEntity
  8
0
100
AcDbLine
 10
-56.03640831985126
 20
2286.707794680845
 30
0.0
 11
172.763591680148
 21
2286.707794680845
 31
0.0
  0
LINE
  5
9D
330
15
100
AcDbEntity
  8
0
100
AcDbLine
 10
-52.03640831985126
 20
2282.707794680845
 30
0.0
 11
-44.03640831985126
 21
2282.707794680845
 31
0.0
  0
LINE
  5
9E
330
15
100
AcDbEntity
  8
0
100
AcDbLine
 10
-49.03640831985126
 20
2187.707794680844
 30
0.0
 11
-49.03640831985126
 21
2115.707794680845
 31
0.0
  0
LINE
  5
9F
330
15
100
AcDbEntity
  8
0
100
AcDbLine
 10
-44.03640831985126
 20
2112.707794680845
 30
0.0
 11
-44.03640831985126
 21
2115.707794680845
 31
0.0
  0
LINE
  5
A0
330
15
100
AcDbEntity
  8
0
100
AcDbLine
 10
-44.03640831985126
 20
2115.707794680845
 30
0.0
 11
-49.03640831985126
 21
2115.707794680845
 31
0.0
  0
LINE
  5
A1
330
15
100
AcDbEntity
  8
0
100
AcDbLine
 10
-52.03640831985126
 20
2187.707794680844
 30
0.0
 11
-49.03640831985126
 21
2187.707794680844
 31
0.0
  0
LINE
  5
A2
330
15
100
AcDbEntity
  8
0
100
AcDbLine
 10
-52.03640831985126
 20
2187.707794680844
 30
0.0
 11
-52.03640831985126
 21
2112.707794680845
 31
0.0
  0
LINE
  5
A3
330
15
100
AcDbEntity
  8
0
100
AcDbLine
 10
-52.03640831985126
 20
2112.707794680845
 30
0.0
 11
-44.03640831985126
 21
2112.707794680845
 31
0.0
  0
LINE
  5
B0
330
15
100
AcDbEntity
  8
0
100
AcDbLine
 10
275.3698618457895
 20
1935.818478217455
 30
0.0
 11
280.3698618457895
 21
1935.818478217455
 31
0.0
  0
LINE
  5
B1
330
15
100
AcDbEntity
  8
0
100
AcDbLine
 10
280.3698618457895
 20
1935.818478217455
 30
0.0
 11
280.3698618457895
 21
1932.818478217455
 31
0.0
  0
LINE
  5
B2
330
15
100
AcDbEntity
  8
0
100
AcDbLine
 10
372.7698618457873
 20
1932.818478217455
 30
0.0
 11
372.7698618457873
 21
1935.818478217455
 31
0.0
  0
LINE
  5
B3
330
15
100
AcDbEntity
  8
0
100
AcDbLine
 10
392.7698618457873
 20
1932.818478217455
 30
0.0
 11
392.7698618457873
 21
1935.818478217455
 31
0.0
  0
LINE
  5
B4
330
15
100
AcDbEntity
  8
0
100
AcDbLine
 10
372.7698618457873
 20
1935.818478217455
 30
0.0
 11
392.7698618457873
 21
1935.818478217455
 31
0.0
  0
LINE
  5
B5
330
15
100
AcDbEntity
  8
0
100
AcDbLine
 10
372.7698618457873
 20
1932.818478217455
 30
0.0
 11
280.3698618457895
 21
1932.818478217455
 31
0.0
  0
LINE
  5
B6
330
15
100
AcDbEntity
  8
0
100
AcDbLine
 10
485.1698618457888
 20
1932.818478217455
 30
0.0
 11
392.7698618457873
 21
1932.818478217455
 31
0.0
  0
LINE
  5
B7
330
15
100
AcDbEntity
  8
0
100
AcDbLine
 10
485.1698618457888
 20
1932.818478217455
 30
0.0
 11
485.1698618457888
 21
1935.818478217455
 31
0.0
  0
LINE
  5
B8
330
15
100
AcDbEntity
  8
0
100
AcDbLine
 10
485.1698618457888
 20
1935.818478217455
 30
0.0
 11
490.1698618457888
 21
1935.818478217455
 31
0.0
  0
LINE
  5
B9
330
15
100
AcDbEntity
  8
0
100
AcDbLine
 10
372.7698618457873
 20
2099.818478217455
 30
0.0
 11
392.7698618457873
 21
2099.818478217455
 31
0.0
  0
LINE
  5
BA
330
15
100
AcDbEntity
  8
0
100
AcDbLine
 10
372.7698618457873
 20
2102.818478217455
 30
0.0
 11
280.3698618457895
 21
2102.818478217455
 31
0.0
  0
LINE
  5
BB
330
15
100
AcDbEntity
  8
0
100
AcDbLine
 10
485.1698618457888
 20
2102.818478217455
 30
0.0
 11
392.7698618457873
 21
2102.818478217455
 31
0.0
  0
LINE
  5
BC
330
15
100
AcDbEntity
  8
0
100
AcDbLine
 10
490.1698618457888
 20
2099.818478217455
 30
0.0
 11
485.1698618457888
 21
2099.818478217455
 31
0.0
  0
LINE
  5
BD
330
15
100
AcDbEntity
  8
0
100
AcDbLine
 10
485.1698618457888
 20
2099.818478217455
 30
0.0
 11
485.1698618457888
 21
2102.818478217455
 31
0.0
  0
LINE
  5
BE
330
15
100
AcDbEntity
  8
0
100
AcDbLine
 10
280.3698618457895
 20
2099.818478217455
 30
0.0
 11
275.3698618457895
 21
2099.818478217455
 31
0.0
  0
LINE
  5
BF
330
15
100
AcDbEntity
  8
0
100
AcDbLine
 10
280.3698618457895
 20
2102.818478217455
 30
0.0
 11
280.3698618457895
 21
2099.818478217455
 31
0.0
  0
LINE
  5
C0
330
15
100
AcDbEntity
  8
0
100
AcDbLine
 10
485.1698618457888
 20
2099.818478217455
 30
0.0
 11
485.1698618457888
 21
2102.818478217455
 31
0.0
  0
LINE
  5
C1
330
15
100
AcDbEntity
  8
0
100
AcDbLine
 10
490.1698618457888
 20
2099.818478217455
 30
0.0
 11
485.1698618457888
 21
2099.818478217455
 31
0.0
  0
LINE
  5
C2
330
15
100
AcDbEntity
  8
0
100
AcDbLine
 10
493.1698618457888
 20
2063.318478217455
 30
0.0
 11
493.1698618457888
 21
1972.318478217455
 31
0.0
  0
LINE
  5
C3
330
15
100
AcDbEntity
  8
0
100
AcDbLine
 10
493.1698618457888
 20
2063.318478217455
 30
0.0
 11
490.1698618457888
 21
2063.318478217455
 31
0.0
  0
LINE
  5
C5
330
15
100
AcDbEntity
  8
0
100
AcDbLine
 10
490.1698618457888
 20
2063.318478217455
 30
0.0
 11
490.1698618457888
 21
2099.818478217455
 31
0.0
  0
LINE
  5
C6
330
15
100
AcDbEntity
  8
0
100
AcDbLine
 10
275.3698618457895
 20
2063.318478217455
 30
0.0
 11
275.3698618457895
 21
2099.818478217455
 31
0.0
  0
LINE
  5
C7
330
15
100
AcDbEntity
  8
0
100
AcDbLine
 10
272.3698618457895
 20
1972.318478217455
 30
0.0
 11
275.3698618457895
 21
1972.318478217455
 31
0.0
  0
LINE
  5
C8
330
15
100
AcDbEntity
  8
0
100
AcDbLine
 10
272.3698618457895
 20
2063.318478217455
 30
0.0
 11
275.3698618457895
 21
2063.318478217455
 31
0.0
  0
LINE
  5
C9
330
15
100
AcDbEntity
  8
0
100
AcDbLine
 10
272.3698618457895
 20
2063.318478217455
 30
0.0
 11
272.3698618457895
 21
1972.318478217455
 31
0.0
  0
LINE
  5
CA
330
15
100
AcDbEntity
  8
0
100
AcDbLine
 10
372.7698618457873
 20
2102.818478217455
 30
0.0
 11
372.7698618457873
 21
2099.818478217455
 31
0.0
  0
LINE
  5
CB
330
15
100
AcDbEntity
  8
0
100
AcDbLine
 10
392.7698618457873
 20
2102.818478217455
 30
0.0
 11
392.7698618457873
 21
2099.818478217455
 31
0.0
  0
LINE
  5
CC
330
15
100
AcDbEntity
  8
0
100
AcDbLine
 10
490.1698618457888
 20
1935.818478217455
 30
0.0
 11
490.1698618457888
 21
1972.318478217455
 31
0.0
  0
LINE
  5
CD
330
15
100
AcDbEntity
  8
0
100
AcDbLine
 10
275.3698618457895
 20
1935.818478217455
 30
0.0
 11
275.3698618457895
 21
1972.318478217455
 31
0.0
  0
LINE
  5
CE
330
15
100
AcDbEntity
  8
0
100
AcDbLine
 10
42.8020692657667
 20
2094.318359477252
 30
0.0
 11
42.8020692657667
 21
2102.318359477252
 31
0.0
  0
LINE
  5
CF
330
15
100
AcDbEntity
  8
0
100
AcDbLine
 10
42.8020692657667
 20
2057.318359477252
 30
0.0
 11
42.8020692657667
 21
2037.318359477252
 31
0.0
  0
LINE
  5
D0
330
15
100
AcDbEntity
  8
0
100
AcDbLine
 10
182.5862123446968
 20
2114.794729742679
 30
0.0
 11
397.3862123446925
 21
2114.794729742679
 31
0.0
  0
LINE
  5
D1
330
15
100
AcDbEntity
  8
0
100
AcDbLine
 10
397.3862123446925
 20
2276.794729742679
 30
0.0
 11
182.5862123446968
 21
2276.794729742679
 31
0.0
  0
LINE
  5
D2
330
15
100
AcDbEntity
  8
0
100
AcDbLine
 10
182.5862123446968
 20
2241.294729742679
 30
0.0
 11
182.5862123446968
 21
2276.794729742679
 31
0.0
  0
LINE
  5
D3
330
15
100
AcDbEntity
  8
0
100
AcDbLine
 10
179.5862123446968
 20
2241.294729742679
 30
0.0
 11
179.5862123446968
 21
2150.294729742679
 31
0.0
  0
LINE
  5
D4
330
15
100
AcDbEntity
  8
0
100
AcDbLine
 10
182.5862123446968
 20
2114.794729742679
 30
0.0
 11
182.5862123446968
 21
2150.294729742679
 31
0.0
  0
LINE
  5
D5
330
15
100
AcDbEntity
  8
0
 62
     0
100
AcDbLine
 10
347.5631102798616
 20
2132.794729742679
 30
0.0
 11
367.5631102798616
 21
2132.794729742679
 31
0.0
  0
LINE
  5
D6
330
15
100
AcDbEntity
  8
0
 62
     0
100
AcDbLine
 10
347.5631102798616
 20
2135.794729742679
 30
0.0
 11
367.5631102798616
 21
2135.794729742679
 31
0.0
  0
LINE
  5
D7
330
15
100
AcDbEntity
  8
0
 62
     0
100
AcDbLine
 10
367.5631102798616
 20
2132.794729742679
 30
0.0
 11
367.5631102798616
 21
2135.794729742679
 31
0.0
  0
CIRCLE
  5
D8
330
15
100
AcDbEntity
  8
0
 62
     0
100
AcDbCircle
 10
374.9374537757722
 20
2205.31173571473
 30
0.0
 40
3.0
  0
CIRCLE
  5
D9
330
15
100
AcDbEntity
  8
0
 62
     0
100
AcDbCircle
 10
374.9374537757722
 20
2217.547355927857
 30
0.0
 40
3.0
  0
CIRCLE
  5
DA
330
15
100
AcDbEntity
  8
0
 62
     0
100
AcDbCircle
 10
374.9374537757722
 20
2247.941321915709
 30
0.0
 40
3.0
  0
CIRCLE
  5
DB
330
15
100
AcDbEntity
  8
0
 62
     0
100
AcDbCircle
 10
227.2969929394749
 20
2247.941321915709
 30
0.0
 40
3.0
  0
CIRCLE
  5
DC
330
15
100
AcDbEntity
  8
0
 62
     0
100
AcDbCircle
 10
374.9374537757722
 20
2232.26443351764
 30
0.0
 40
3.0
  0
CIRCLE
  5
DD
330
15
100
AcDbEntity
  8
0
 62
     0
100
AcDbCircle
 10
227.0522805352084
 20
2232.26443351764
 30
0.0
 40
3.0
  0
LINE
  5
DE
330
15
100
AcDbEntity
  8
0
 62
     0
100
AcDbLine
 10
235.2397215891469
 20
2146.65039423719
 30
0.0
 11
235.2397215891469
 21
2151.65039423719
 31
0.0
  0
LINE
  5
DF
330
15
100
AcDbEntity
  8
0
 62
     0
100
AcDbLine
 10
235.2397215891469
 20
2151.65039423719
 30
0.0
 11
205.2397215891469
 21
2151.65039423719
 31
0.0
  0
LINE
  5
E0
330
15
100
AcDbEntity
  8
0
 62
     0
100
AcDbLine
 10
205.2397215891469
 20
2151.65039423719
 30
0.0
 11
205.2397215891469
 21
2146.65039423719
 31
0.0
  0
LINE
  5
E1
330
15
100
AcDbEntity
  8
0
 62
     0
100
AcDbLine
 10
205.2397215891469
 20
2146.65039423719
 30
0.0
 11
235.2397215891469
 21
2146.65039423719
 31
0.0
  0
LINE
  5
E2
330
15
100
AcDbEntity
  8
0
 62
     0
100
AcDbLine
 10
378.3475356018789
 20
2154.179669335432
 30
0.0
 11
378.3475356018789
 21
2159.179669335432
 31
0.0
  0
LINE
  5
E3
330
15
100
AcDbEntity
  8
0
 62
     0
100
AcDbLine
 10
378.3475356018789
 20
2159.179669335432
 30
0.0
 11
348.3475356018789
 21
2159.179669335432
 31
0.0
  0
LINE
  5
E4
330
15
100
AcDbEntity
  8
0
 62
     0
100
AcDbLine
 10
348.3475356018789
 20
2159.179669335432
 30
0.0
 11
348.3475356018789
 21
2154.179669335432
 31
0.0
  0
LINE
  5
E5
330
15
100
AcDbEntity
  8
0
 62
     0
100
AcDbLine
 10
348.3475356018789
 20
2154.179669335432
 30
0.0
 11
378.3475356018789
 21
2154.179669335432
 31
0.0
  0
LINE
  5
E6
330
15
100
AcDbEntity
  8
0
100
AcDbLine
 10
115.9404896153171
 20
2134.707794680845
 30
0.0
 11
135.9404896153171
 21
2134.707794680845
 31
0.0
  0
LINE
  5
E7
330
15
100
AcDbEntity
  8
0
100
AcDbLine
 10
115.9404896153171
 20
2134.707794680845
 30
0.0
 11
115.9404896153171
 21
2137.707794680845
 31
0.0
  0
LINE
  5
E8
330
15
100
AcDbEntity
  8
0
100
AcDbLine
 10
115.9404896153171
 20
2137.707794680845
 30
0.0
 11
135.9404896153171
 21
2137.707794680845
 31
0.0
  0
LINE
  5
E9
330
15
100
AcDbEntity
  8
0
100
AcDbLine
 10
135.9404896153171
 20
2134.707794680845
 30
0.0
 11
135.9404896153171
 21
2137.707794680845
 31
0.0
  0
LINE
  5
EA
330
15
100
AcDbEntity
  8
0
100
AcDbLine
 10
42.8020692657667
 20
1923.318359477252
 30
0.0
 11
42.8020692657667
 21
2000.318359477253
 31
0.0
  0
LINE
  5
EB
330
15
100
AcDbEntity
  8
0
100
AcDbLine
 10
42.8020692657667
 20
2000.318359477253
 30
0.0
 11
45.8020692657667
 21
2000.318359477252
 31
0.0
  0
LINE
  5
EC
330
15
100
AcDbEntity
  8
0
100
AcDbLine
 10
182.5862123446968
 20
2241.294729742679
 30
0.0
 11
179.5862123446968
 21
2241.294729742679
 31
0.0
  0
LINE
  5
ED
330
15
100
AcDbEntity
  8
0
100
AcDbLine
 10
182.5862123446968
 20
2150.294729742679
 30
0.0
 11
179.5862123446968
 21
2150.294729742679
 31
0.0
  0
LINE
  5
EE
330
15
100
AcDbEntity
  8
0
100
AcDbLine
 10
397.3862123446925
 20
2241.294729742679
 30
0.0
 11
397.3862123446925
 21
2276.794729742679
 31
0.0
  0
LINE
  5
EF
330
15
100
AcDbEntity
  8
0
100
AcDbLine
 10
400.3862123446925
 20
2241.294729742679
 30
0.0
 11
400.3862123446925
 21
2150.294729742679
 31
0.0
  0
LINE
  5
F0
330
15
100
AcDbEntity
  8
0
100
AcDbLine
 10
397.3862123446925
 20
2114.794729742679
 30
0.0
 11
397.3862123446925
 21
2150.294729742679
 31
0.0
  0
LINE
  5
F1
330
15
100
AcDbEntity
  8
0
100
AcDbLine
 10
397.3862123446925
 20
2241.294729742679
 30
0.0
 11
400.3862123446925
 21
2241.294729742679
 31
0.0
  0
LINE
  5
F2
330
15
100
AcDbEntity
  8
0
100
AcDbLine
 10
397.3862123446925
 20
2150.294729742679
 30
0.0
 11
400.3862123446925
 21
2150.294729742679
 31
0.0
  0
LINE
  5
F3
330
15
100
AcDbEntity
  8
0
 62
     0
100
AcDbLine
 10
310.7590559788514
 20
2138.407390027319
 30
0.0
 11
221.7590559788514
 21
2138.407390027319
 31
0.0
  0
LINE
  5
F4
330
15
100
AcDbEntity
  8
0
 62
     0
100
AcDbLine
 10
310.7590559788514
 20
2133.407390027319
 30
0.0
 11
221.7590559788514
 21
2133.407390027319
 31
0.0
  0
LINE
  5
F5
330
15
100
AcDbEntity
  8
0
 62
     0
100
AcDbLine
 10
310.7590559788514
 20
2133.407390027319
 30
0.0
 11
310.7590559788514
 21
2138.407390027319
 31
0.0
  0
LINE
  5
F6
330
15
100
AcDbEntity
  8
0
 62
     0
100
AcDbLine
 10
221.7590559788514
 20
2133.407390027319
 30
0.0
 11
221.7590559788514
 21
2138.407390027319
 31
0.0
  0
LINE
  5
F7
330
15
100
AcDbEntity
  8
0
100
AcDbLine
 10
577.4324019913176
 20
2280.105793034133
 30
0.0
 11
540.4324019913176
 21
2280.105793034133
 31
0.0
  0
LINE
  5
F8
330
15
100
AcDbEntity
  8
0
100
AcDbLine
 10
577.4324019913176
 20
2280.105793034133
 30
0.0
 11
577.4324019913176
 21
2277.105793034133
 31
0.0
  0
LINE
  5
F9
330
15
100
AcDbEntity
  8
0
100
AcDbLine
 10
540.4324019913176
 20
2277.105793034133
 30
0.0
 11
540.4324019913176
 21
2280.105793034133
 31
0.0
  0
LINE
  5
FA
330
15
100
AcDbEntity
  8
0
100
AcDbLine
 10
483.4324019913176
 20
2277.105793034133
 30
0.0
 11
406.4324019913176
 21
2277.105793034137
 31
0.0
  0
LINE
  5
FB
330
15
100
AcDbEntity
  8
0
100
AcDbLine
 10
483.4324019913176
 20
2280.105793034133
 30
0.0
 11
483.4324019913176
 21
2277.105793034133
 31
0.0
  0
LINE
  5
FC
330
15
100
AcDbEntity
  8
0
100
AcDbLine
 10
540.4324019913176
 20
2277.105793034133
 30
0.0
 11
520.4324019913176
 21
2277.105793034133
 31
0.0
  0
LINE
  5
FD
330
15
100
AcDbEntity
  8
0
100
AcDbLine
 10
520.4324019913176
 20
2277.105793034133
 30
0.0
 11
520.4324019913176
 21
2280.105793034133
 31
0.0
  0
LINE
  5
FE
330
15
100
AcDbEntity
  8
0
100
AcDbLine
 10
483.4324019913176
 20
2280.105793034133
 30
0.0
 11
520.4324019913176
 21
2280.105793034133
 31
0.0
  0
LINE
  5
FF
330
15
100
AcDbEntity
  8
0
100
AcDbLine
 10
577.4324019913176
 20
2277.105793034133
 30
0.0
 11
585.4324019913176
 21
2277.105793034133
 31
0.0
  0
LINE
  5
100
330
15
100
AcDbEntity
  8
0
100
AcDbLine
 10
585.4324019913176
 20
2277.105793034133
 30
0.0
 11
585.4324019913176
 21
2205.105793034137
 31
0.0
  0
LINE
  5
101
330
15
100
AcDbEntity
  8
0
100
AcDbLine
 10
582.4324019913176
 20
2205.105793034137
 30
0.0
 11
582.4324019913176
 21
2185.105793034137
 31
0.0
  0
LINE
  5
102
330
15
100
AcDbEntity
  8
0
100
AcDbLine
 10
582.4324019913176
 20
2205.105793034137
 30
0.0
 11
585.4324019913176
 21
2205.105793034137
 31
0.0
  0
LINE
  5
103
330
15
100
AcDbEntity
  8
0
100
AcDbLine
 10
582.4324019913176
 20
2185.105793034137
 30
0.0
 11
585.4324019913176
 21
2185.105793034137
 31
0.0
  0
LINE
  5
104
330
15
100
AcDbEntity
  8
0
100
AcDbLine
 10
585.4324019913176
 20
2185.105793034137
 30
0.0
 11
585.4324019913176
 21
2113.105793034133
 31
0.0
  0
LINE
  5
105
330
15
100
AcDbEntity
  8
0
100
AcDbLine
 10
436.9324019913176
 20
2208.605793034137
 30
0.0
 11
453.9324019913176
 21
2208.605793034137
 31
0.0
  0
LINE
  5
106
330
15
100
AcDbEntity
  8
0
100
AcDbLine
 10
455.9324019913176
 20
2206.605793034137
 30
0.0
 11
455.9324019913176
 21
2183.605793034137
 31
0.0
  0
LINE
  5
107
330
15
100
AcDbEntity
  8
0
100
AcDbLine
 10
453.9324019913176
 20
2181.605793034137
 30
0.0
 11
436.9324019913176
 21
2181.605793034137
 31
0.0
  0
LINE
  5
108
330
15
100
AcDbEntity
  8
0
100
AcDbLine
 10
436.9324019913176
 20
2181.605793034137
 30
0.0
 11
436.9324019913176
 21
2208.605793034137
 31
0.0
  0
LINE
  5
109
330
15
100
AcDbEntity
  8
0
100
AcDbLine
 10
453.9324019913176
 20
2208.605793034137
 30
0.0
 11
455.9324019913176
 21
2206.605793034137
 31
0.0
  0
LINE
  5
10A
330
15
100
AcDbEntity
  8
0
100
AcDbLine
 10
453.9324019913176
 20
2181.605793034137
 30
0.0
 11
455.9324019913176
 21
2183.605793034137
 31
0.0
  0
LINE
  5
10B
330
15
100
AcDbEntity
  8
0
100
AcDbLine
 10
406.4324019913176
 20
2277.105793034137
 30
0.0
 11
406.4324019913176
 21
2113.105793034137
 31
0.0
  0
LINE
  5
10C
330
15
100
AcDbEntity
  8
0
100
AcDbLine
 10
520.4324019913176
 20
2113.105793034133
 30
0.0
 11
520.4324019913176
 21
2110.105793034133
 31
0.0
  0
LINE
  5
10D
330
15
100
AcDbEntity
  8
0
100
AcDbLine
 10
540.4324019913176
 20
2113.105793034133
 30
0.0
 11
520.4324019913176
 21
2113.105793034133
 31
0.0
  0
LINE
  5
10E
330
15
100
AcDbEntity
  8
0
100
AcDbLine
 10
540.4324019913176
 20
2110.105793034133
 30
0.0
 11
540.4324019913176
 21
2113.105793034133
 31
0.0
  0
LINE
  5
10F
330
15
100
AcDbEntity
  8
0
100
AcDbLine
 10
577.4324019913176
 20
2110.105793034133
 30
0.0
 11
577.4324019913176
 21
2113.105793034133
 31
0.0
  0
LINE
  5
110
330
15
100
AcDbEntity
  8
0
100
AcDbLine
 10
577.4324019913176
 20
2113.105793034133
 30
0.0
 11
585.4324019913176
 21
2113.105793034133
 31
0.0
  0
LINE
  5
111
330
15
100
AcDbEntity
  8
0
100
AcDbLine
 10
483.4324019913176
 20
2113.105793034133
 30
0.0
 11
406.4324019913176
 21
2113.105793034137
 31
0.0
  0
LINE
  5
112
330
15
100
AcDbEntity
  8
0
100
AcDbLine
 10
483.4324019913176
 20
2110.105793034133
 30
0.0
 11
483.4324019913176
 21
2113.105793034133
 31
0.0
  0
LINE
  5
113
330
15
100
AcDbEntity
  8
0
100
AcDbLine
 10
520.4324019913176
 20
2110.105793034133
 30
0.0
 11
483.4324019913176
 21
2110.105793034133
 31
0.0
  0
LINE
  5
114
330
15
100
AcDbEntity
  8
0
100
AcDbLine
 10
577.4324019913176
 20
2110.105793034133
 30
0.0
 11
540.4324019913176
 21
2110.105793034133
 31
0.0
  0
LINE
  5
115
330
15
100
AcDbEntity
  8
0
100
AcDbLine
 10
414.4324019913176
 20
2240.605793034137
 30
0.0
 11
411.4324019913176
 21
2240.605793034137
 31
0.0
  0
LINE
  5
116
330
15
100
AcDbEntity
  8
0
100
AcDbLine
 10
414.4324019913176
 20
2149.605793034137
 30
0.0
 11
411.4324019913176
 21
2149.605793034137
 31
0.0
  0
LINE
  5
117
330
15
100
AcDbEntity
  8
0
100
AcDbLine
 10
411.4324019913176
 20
2149.605793034137
 30
0.0
 11
411.4324019913176
 21
2240.605793034137
 31
0.0
  0
LINE
  5
118
330
15
100
AcDbEntity
  8
0
100
AcDbLine
 10
414.4324019913176
 20
2149.605793034137
 30
0.0
 11
414.4324019913176
 21
2240.605793034137
 31
0.0
  0
LINE
  5
119
330
15
100
AcDbEntity
  8
0
100
AcDbLine
 10
478.4324019913176
 20
2240.605793034137
 30
0.0
 11
475.4324019913176
 21
2240.605793034137
 31
0.0
  0
LINE
  5
11A
330
15
100
AcDbEntity
  8
0
100
AcDbLine
 10
478.4324019913176
 20
2149.605793034137
 30
0.0
 11
475.4324019913176
 21
2149.605793034137
 31
0.0
  0
LINE
  5
11B
330
15
100
AcDbEntity
  8
0
100
AcDbLine
 10
475.4324019913176
 20
2149.605793034137
 30
0.0
 11
475.4324019913176
 21
2240.605793034137
 31
0.0
  0
LINE
  5
11C
330
15
100
AcDbEntity
  8
0
100
AcDbLine
 10
478.4324019913176
 20
2149.605793034137
 30
0.0
 11
478.4324019913176
 21
2240.605793034137
 31
0.0
  0
TEXT
  5
11D
330
15
100
AcDbEntity
  8
0
 62
     1
100
AcDbText
 10
350.5676239651511
 20
2202.171805001683
 30
0.0
 40
4.315
  1
220 N
100
AcDbText
  0
TEXT
  5
11E
330
15
100
AcDbEntity
  8
0
 62
     1
100
AcDbText
 10
350.5676239651511
 20
2216.267239487206
 30
0.0
 40
4.315
  1
Terra
100
AcDbText
  0
TEXT
  5
11F
330
15
100
AcDbEntity
  8
0
 62
     1
100
AcDbText
 10
351.1378038670846
 20
2230.436087694006
 30
0.0
 40
4.315
  1
Rele L
100
AcDbText
  0
TEXT
  5
120
330
15
100
AcDbEntity
  8
0
 62
     1
100
AcDbText
 10
351.1378038670846
 20
2246.495339223735
 30
0.0
 40
4.315
  1
Rele U
100
AcDbText
  0
TEXT
  5
121
330
15
100
AcDbEntity
  8
0
 62
     1
100
AcDbText
 10
198.1925512030029
 20
2247.642428618716
 30
0.0
 40
4.315
  1
Rele V
100
AcDbText
  0
TEXT
  5
122
330
15
100
AcDbEntity
  8
0
 62
     1
100
AcDbText
 10
199.3396405979838
 20
2230.436087694006
 30
0.0
 40
4.315
  1
Rele S
100
AcDbText
  0
LINE
  5
123
330
15
100
AcDbEntity
  8
0
100
AcDbLine
 10
347.5631102798616
 20
2132.794729742679
 30
0.0
 11
347.5631102798616
 21
2135.794729742679
 31
0.0
  0
LINE
  5
124
330
15
100
AcDbEntity
  8
0
100
AcDbLine
 10
-184.0378890533641
 20
1922.361827008169
 30
0.0
 11
-176.0378890533641
 21
1922.361827008169
 31
0.0
  0
LINE
  5
125
330
15
100
AcDbEntity
  8
0
100
AcDbLine
 10
-181.0378890533641
 20
2093.361827008169
 30
0.0
 11
-184.0378890533641
 21
2093.361827008169
 31
0.0
  0
LINE
  5
126
330
15
100
AcDbEntity
  8
0
100
AcDbLine
 10
-181.0378890533641
 20
1999.361827008169
 30
0.0
 11
-184.0378890533641
 21
1999.361827008169
 31
0.0
  0
LINE
  5
127
330
15
100
AcDbEntity
  8
0
100
AcDbLine
 10
-184.0378890533641
 20
1999.361827008169
 30
0.0
 11
-184.0378890533641
 21
1922.361827008169
 31
0.0
  0
LINE
  5
128
330
15
100
AcDbEntity
  8
0
 62
     1
100
AcDbLine
 10
-6.060991118195943
 20
2065.515057716619
 30
0.0
 11
-4.060991118195943
 21
2065.515057716619
 31
0.0
  0
LINE
  5
129
330
15
100
AcDbEntity
  8
0
 62
     1
100
AcDbLine
 10
-6.060991118195943
 20
2065.515057716619
 30
0.0
 11
-8.060991118195943
 21
2065.515057716619
 31
0.0
  0
LINE
  5
12A
330
15
100
AcDbEntity
  8
0
 62
     1
100
AcDbLine
 10
-6.060991118195943
 20
2067.515057716619
 30
0.0
 11
-8.060991118195943
 21
2065.515057716619
 31
0.0
  0
LINE
  5
12B
330
15
100
AcDbEntity
  8
0
 62
     1
100
AcDbLine
 10
-6.060991118195943
 20
2067.515057716619
 30
0.0
 11
-4.060991118195943
 21
2065.515057716619
 31
0.0
  0
LINE
  5
12C
330
15
100
AcDbEntity
  8
0
 62
     1
100
AcDbLine
 10
-6.060991118195943
 20
2034.903694232053
 30
0.0
 11
-4.060991118195943
 21
2034.903694232053
 31
0.0
  0
LINE
  5
12D
330
15
100
AcDbEntity
  8
0
 62
     1
100
AcDbLine
 10
-6.060991118195943
 20
2034.903694232053
 30
0.0
 11
-8.060991118195943
 21
2034.903694232053
 31
0.0
  0
LINE
  5
12E
330
15
100
AcDbEntity
  8
0
 62
     1
100
AcDbLine
 10
-6.060991118195943
 20
2032.903694232053
 30
0.0
 11
-8.060991118195943
 21
2034.903694232053
 31
0.0
  0
LINE
  5
12F
330
15
100
AcDbEntity
  8
0
 62
     1
100
AcDbLine
 10
-6.060991118195943
 20
2032.903694232053
 30
0.0
 11
-4.060991118195943
 21
2034.903694232053
 31
0.0
  0
LINE
  5
130
330
15
100
AcDbEntity
  8
0
 62
     1
100
AcDbLine
 10
-21.61235059182536
 20
2050.394616999147
 30
0.0
 11
-21.61235059182536
 21
2052.394616999147
 31
0.0
  0
LINE
  5
131
330
15
100
AcDbEntity
  8
0
 62
     1
100
AcDbLine
 10
-23.61235059182536
 20
2050.394616999147
 30
0.0
 11
-21.61235059182536
 21
2052.394616999147
 31
0.0
  0
LINE
  5
132
330
15
100
AcDbEntity
  8
0
 62
     1
100
AcDbLine
 10
-21.61235059182536
 20
2050.394616999147
 30
0.0
 11
-21.61235059182536
 21
2048.394616999147
 31
0.0
  0
LINE
  5
133
330
15
100
AcDbEntity
  8
0
 62
     1
100
AcDbLine
 10
-23.61235059182536
 20
2050.394616999147
 30
0.0
 11
-21.61235059182536
 21
2048.394616999147
 31
0.0
  0
LINE
  5
134
330
15
100
AcDbEntity
  8
0
 62
     1
100
AcDbLine
 10
11.14771388431882
 20
2049.872294872963
 30
0.0
 11
9.147713884318819
 21
2047.872294872963
 31
0.0
  0
LINE
  5
135
330
15
100
AcDbEntity
  8
0
 62
     1
100
AcDbLine
 10
9.147713884318819
 20
2049.872294872963
 30
0.0
 11
9.147713884318819
 21
2047.872294872963
 31
0.0
  0
LINE
  5
136
330
15
100
AcDbEntity
  8
0
 62
     1
100
AcDbLine
 10
11.14771388431882
 20
2049.872294872963
 30
0.0
 11
9.147713884318819
 21
2051.872294872963
 31
0.0
  0
LINE
  5
137
330
15
100
AcDbEntity
  8
0
 62
     1
100
AcDbLine
 10
9.147713884318819
 20
2049.872294872963
 30
0.0
 11
9.147713884318819
 21
2051.872294872963
 31
0.0
  0
INSERT
  5
138
330
15
100
AcDbEntity
  8
0
 62
     1
100
AcDbBlockReference
  2
ventola
 10
-134.8836673368307
 20
1988.037970139971
 30
0.0
 41
0.2522359323566976
 42
0.2522359323566976
 43
0.2522359323566976
  0
INSERT
  5
15A
330
15
100
AcDbEntity
  8
0
 62
     1
100
AcDbBlockReference
  2
serpentina
 10
-114.6592125251293
 20
1990.801590140342
 30
0.0
 41
0.4169056186694119
 42
0.4169056186694119
 43
0.4169056186694119
  0
SPLINE
  5
173
330
15
100
AcDbEntity
  8
0
 62
     1
100
AcDbSpline
210
0.0
220
0.0
230
1.0
 70
     8
 71
     3
 72
     8
 73
     4
 74
     0
 42
0.000000001
 43
0.0000001
 40
0.0
 40
0.0
 40
0.0
 40
0.0
 40
1.0
 40
1.0
 40
1.0
 40
1.0
 10
-87.10677469920415
 20
1988.035061767366
 30
0.0
 10
-87.18019741920511
 20
1988.035061767366
 30
0.0
 10
-87.25208509920344
 20
1988.070734727366
 30
0.0
 10
-87.29543453920564
 20
1988.136571527366
 30
0.0
  0
SPLINE
  5
174
330
15
100
AcDbEntity
  8
0
 62
     1
100
AcDbSpline
210
0.0
220
0.0
230
1.0
 70
     8
 71
     3
 72
     8
 73
     4
 74
     0
 42
0.000000001
 43
0.0000001
 40
0.0
 40
0.0
 40
0.0
 40
0.0
 40
1.0
 40
1.0
 40
1.0
 40
1.0
 10
-87.29543453920564
 20
1988.136571527366
 30
0.0
 10
-87.49032605920297
 20
1988.432069447365
 30
0.0
 10
-87.59337085920492
 20
1988.775342087366
 30
0.0
 10
-87.59337085920492
 20
1989.129090567365
 30
0.0
  0
SPLINE
  5
175
330
15
100
AcDbEntity
  8
0
 62
     1
100
AcDbSpline
210
0.0
220
0.0
230
1.0
 70
     8
 71
     3
 72
     8
 73
     4
 74
     0
 42
0.000000001
 43
0.0000001
 40
0.0
 40
0.0
 40
0.0
 40
0.0
 40
1.0
 40
1.0
 40
1.0
 40
1.0
 10
-87.59337085920492
 20
1989.129090567365
 30
0.0
 10
-87.59337085920492
 20
1989.810939527365
 30
0.0
 10
-87.31792189920384
 20
1990.255270087366
 30
0.0
 10
-86.98512541920286
 20
1990.724888007366
 30
0.0
  0
SPLINE
  5
176
330
15
100
AcDbEntity
  8
0
 62
     1
100
AcDbSpline
210
0.0
220
0.0
230
1.0
 70
     8
 71
     3
 72
     8
 73
     4
 74
     0
 42
0.000000001
 43
0.0000001
 40
0.0
 40
0.0
 40
0.0
 40
0.0
 40
1.0
 40
1.0
 40
1.0
 40
1.0
 10
-86.98512541920286
 20
1990.724888007366
 30
0.0
 10
-86.91296701920442
 20
1990.826578247365
 30
0.0
 10
-86.77208157920472
 20
1990.850781767366
 30
0.0
 10
-86.67039133920412
 20
1990.778623047366
 30
0.0
  0
SPLINE
  5
177
330
15
100
AcDbEntity
  8
0
 62
     1
100
AcDbSpline
210
0.0
220
0.0
230
1.0
 70
     8
 71
     3
 72
     8
 73
     4
 74
     0
 42
0.000000001
 43
0.0000001
 40
0.0
 40
0.0
 40
0.0
 40
0.0
 40
1.0
 40
1.0
 40
1.0
 40
1.0
 10
-86.67039133920412
 20
1990.778623047366
 30
0.0
 10
-86.56870109920351
 20
1990.706554887366
 30
0.0
 10
-86.54458781920334
 20
1990.565579207365
 30
0.0
 10
-86.61665629920321
 20
1990.463888967366
 30
0.0
  0
SPLINE
  5
178
330
15
100
AcDbEntity
  8
0
 62
     1
100
AcDbSpline
210
0.0
220
0.0
230
1.0
 70
     8
 71
     3
 72
     8
 73
     4
 74
     0
 42
0.000000001
 43
0.0000001
 40
0.0
 40
0.0
 40
0.0
 40
0.0
 40
1.0
 40
1.0
 40
1.0
 40
1.0
 10
-86.61665629920321
 20
1990.463888967366
 30
0.0
 10
-86.9142313392033
 20
1990.043942087365
 30
0.0
 10
-87.1418153392035
 20
1989.678994887366
 30
0.0
 10
-87.1418153392035
 20
1989.129090567365
 30
0.0
  0
SPLINE
  5
179
330
15
100
AcDbEntity
  8
0
 62
     1
100
AcDbSpline
210
0.0
220
0.0
230
1.0
 70
     8
 71
     3
 72
     8
 73
     4
 74
     0
 42
0.000000001
 43
0.0000001
 40
0.0
 40
0.0
 40
0.0
 40
0.0
 40
1.0
 40
1.0
 40
1.0
 40
1.0
 10
-87.1418153392035
 20
1989.129090567365
 30
0.0
 10
-87.1418153392035
 20
1988.863847047366
 30
0.0
 10
-87.06459933920564
 20
1988.606640967365
 30
0.0
 10
-86.91847581920524
 20
1988.385107847365
 30
0.0
  0
SPLINE
  5
17A
330
15
100
AcDbEntity
  8
0
 62
     1
100
AcDbSpline
210
0.0
220
0.0
230
1.0
 70
     8
 71
     3
 72
     8
 73
     4
 74
     0
 42
0.000000001
 43
0.0000001
 40
0.0
 40
0.0
 40
0.0
 40
0.0
 40
1.0
 40
1.0
 40
1.0
 40
1.0
 10
-86.91847581920524
 20
1988.385107847365
 30
0.0
 10
-86.84983965920333
 20
1988.281069447366
 30
0.0
 10
-86.87855837920438
 20
1988.140996807365
 30
0.0
 10
-86.9825967792051
 20
1988.072360327365
 30
0.0
  0
SPLINE
  5
17B
330
15
100
AcDbEntity
  8
0
 62
     1
100
AcDbSpline
210
0.0
220
0.0
230
1.0
 70
     8
 71
     3
 72
     8
 73
     4
 74
     0
 42
0.000000001
 43
0.0000001
 40
0.0
 40
0.0
 40
0.0
 40
0.0
 40
1.0
 40
1.0
 40
1.0
 40
1.0
 10
-86.9825967792051
 20
1988.072360327365
 30
0.0
 10
-87.02097917920332
 20
1988.047163527366
 30
0.0
 10
-87.06414781920398
 20
1988.035061767366
 30
0.0
 10
-87.10677469920415
 20
1988.035061767366
 30
0.0
  0
SPLINE
  5
17C
330
15
100
AcDbEntity
  8
0
 62
     1
100
AcDbSpline
210
0.0
220
0.0
230
1.0
 70
     8
 71
     3
 72
     8
 73
     4
 74
     0
 42
0.000000001
 43
0.0000001
 40
0.0
 40
0.0
 40
0.0
 40
0.0
 40
1.0
 40
1.0
 40
1.0
 40
1.0
 10
-85.8650454192059
 20
1994.547757447366
 30
0.0
 10
-86.99393437920594
 20
1991.838424007366
 30
0.0
 10
-88.57437885920376
 20
1991.161090567366
 30
0.0
 10
-88.57437885920376
 20
1989.129090567365
 30
0.0
  0
SPLINE
  5
17D
330
15
100
AcDbEntity
  8
0
 62
     1
100
AcDbSpline
210
0.0
220
0.0
230
1.0
 70
     8
 71
     3
 72
     8
 73
     4
 74
     0
 42
0.000000001
 43
0.0000001
 40
0.0
 40
0.0
 40
0.0
 40
0.0
 40
1.0
 40
1.0
 40
1.0
 40
1.0
 10
-88.57437885920376
 20
1989.129090567365
 30
0.0
 10
-88.57437885920376
 20
1987.632816007365
 30
0.0
 10
-87.36141021920344
 20
1986.419757447366
 30
0.0
 10
-85.8650454192059
 20
1986.419757447366
 30
0.0
  0
SPLINE
  5
17E
330
15
100
AcDbEntity
  8
0
 62
     1
100
AcDbSpline
210
0.0
220
0.0
230
1.0
 70
     8
 71
     3
 72
     8
 73
     4
 74
     0
 42
0.000000001
 43
0.0000001
 40
0.0
 40
0.0
 40
0.0
 40
0.0
 40
1.0
 40
1.0
 40
1.0
 40
1.0
 10
-85.8650454192059
 20
1986.419757447366
 30
0.0
 10
-84.3687711792038
 20
1986.419757447366
 30
0.0
 10
-83.15571229920465
 20
1987.632816007365
 30
0.0
 10
-83.15571229920465
 20
1989.129090567365
 30
0.0
  0
SPLINE
  5
17F
330
15
100
AcDbEntity
  8
0
 62
     1
100
AcDbSpline
210
0.0
220
0.0
230
1.0
 70
     8
 71
     3
 72
     8
 73
     4
 74
     0
 42
0.000000001
 43
0.0000001
 40
0.0
 40
0.0
 40
0.0
 40
0.0
 40
1.0
 40
1.0
 40
1.0
 40
1.0
 10
-83.15571229920465
 20
1989.129090567365
 30
0.0
 10
-83.15571229920465
 20
1991.161090567366
 30
0.0
 10
-84.73615677920247
 20
1991.838424007366
 30
0.0
 10
-85.8650454192059
 20
1994.547757447366
 30
0.0
  0
LWPOLYLINE
  5
180
330
15
100
AcDbEntity
  8
0
 62
     1
100
AcDbPolyline
 90
        2
 70
     0
 43
0.0
 10
-87.10677469920415
 20
1988.035061767366
 10
-87.10677469920415
 20
1988.035061767366
  0
INSERT
  5
181
330
15
100
AcDbEntity
  8
0
100
AcDbBlockReference
  2
luci
 10
-66.89277193869498
 20
1986.415807786519
 30
0.0
 41
0.2885399053849795
 42
0.2885399053849795
 43
0.2885399053849795
  0
INSERT
  5
1CA
330
15
100
AcDbEntity
  8
0
 62
     1
100
AcDbBlockReference
  2
ventola
 10
-32.6057938331719
 20
2048.006843369773
 30
0.0
 41
0.2522359323566976
 42
0.2522359323566976
 43
0.2522359323566976
  0
LWPOLYLINE
  5
1CB
330
15
100
AcDbEntity
  8
0
 62
     1
100
AcDbPolyline
 90
        2
 70
     0
 43
0.0
 10
-7.284085142451204
 20
2071.712338376158
 10
-7.284085142451204
 20
2071.712338376158
  0
SPLINE
  5
1CC
330
15
100
AcDbEntity
  8
0
 62
     1
100
AcDbSpline
210
0.0
220
0.0
230
1.0
 70
     8
 71
     3
 72
     8
 73
     4
 74
     0
 42
0.000000001
 43
0.0000001
 40
0.0
 40
0.0
 40
0.0
 40
0.0
 40
1.0
 40
1.0
 40
1.0
 40
1.0
 10
-3.333022742451703
 20
2072.806367176158
 30
0.0
 10
-3.333022742451703
 20
2074.838367176158
 30
0.0
 10
-4.913467222449526
 20
2075.515700616158
 30
0.0
 10
-6.042355862452951
 20
2078.225034056158
 30
0.0
  0
SPLINE
  5
1CD
330
15
100
AcDbEntity
  8
0
 62
     1
100
AcDbSpline
210
0.0
220
0.0
230
1.0
 70
     8
 71
     3
 72
     8
 73
     4
 74
     0
 42
0.000000001
 43
0.0000001
 40
0.0
 40
0.0
 40
0.0
 40
0.0
 40
1.0
 40
1.0
 40
1.0
 40
1.0
 10
-6.042355862452951
 20
2070.097034056158
 30
0.0
 10
-4.546081622450856
 20
2070.097034056158
 30
0.0
 10
-3.333022742451703
 20
2071.310092616158
 30
0.0
 10
-3.333022742451703
 20
2072.806367176158
 30
0.0
  0
SPLINE
  5
1CE
330
15
100
AcDbEntity
  8
0
 62
     1
100
AcDbSpline
210
0.0
220
0.0
230
1.0
 70
     8
 71
     3
 72
     8
 73
     4
 74
     0
 42
0.000000001
 43
0.0000001
 40
0.0
 40
0.0
 40
0.0
 40
0.0
 40
1.0
 40
1.0
 40
1.0
 40
1.0
 10
-8.751689302450814
 20
2072.806367176158
 30
0.0
 10
-8.751689302450814
 20
2071.310092616158
 30
0.0
 10
-7.538720662450487
 20
2070.097034056158
 30
0.0
 10
-6.042355862452951
 20
2070.097034056158
 30
0.0
  0
SPLINE
  5
1CF
330
15
100
AcDbEntity
  8
0
 62
     1
100
AcDbSpline
210
0.0
220
0.0
230
1.0
 70
     8
 71
     3
 72
     8
 73
     4
 74
     0
 42
0.000000001
 43
0.0000001
 40
0.0
 40
0.0
 40
0.0
 40
0.0
 40
1.0
 40
1.0
 40
1.0
 40
1.0
 10
-6.042355862452951
 20
2078.225034056158
 30
0.0
 10
-7.171244822452991
 20
2075.515700616158
 30
0.0
 10
-8.751689302450814
 20
2074.838367176158
 30
0.0
 10
-8.751689302450814
 20
2072.806367176158
 30
0.0
  0
SPLINE
  5
1D0
330
15
100
AcDbEntity
  8
0
 62
     1
100
AcDbSpline
210
0.0
220
0.0
230
1.0
 70
     8
 71
     3
 72
     8
 73
     4
 74
     0
 42
0.000000001
 43
0.0000001
 40
0.0
 40
0.0
 40
0.0
 40
0.0
 40
1.0
 40
1.0
 40
1.0
 40
1.0
 10
-7.159907222452148
 20
2071.749636936158
 30
0.0
 10
-7.198289622450375
 20
2071.724440136158
 30
0.0
 10
-7.241458262451033
 20
2071.712338376158
 30
0.0
 10
-7.284085142451204
 20
2071.712338376158
 30
0.0
  0
SPLINE
  5
1D1
330
15
100
AcDbEntity
  8
0
 62
     1
100
AcDbSpline
210
0.0
220
0.0
230
1.0
 70
     8
 71
     3
 72
     8
 73
     4
 74
     0
 42
0.000000001
 43
0.0000001
 40
0.0
 40
0.0
 40
0.0
 40
0.0
 40
1.0
 40
1.0
 40
1.0
 40
1.0
 10
-7.095786262452293
 20
2072.062384456158
 30
0.0
 10
-7.027150102450378
 20
2071.958346056158
 30
0.0
 10
-7.05586882245143
 20
2071.818273416158
 30
0.0
 10
-7.159907222452148
 20
2071.749636936158
 30
0.0
  0
SPLINE
  5
1D2
330
15
100
AcDbEntity
  8
0
 62
     1
100
AcDbSpline
210
0.0
220
0.0
230
1.0
 70
     8
 71
     3
 72
     8
 73
     4
 74
     0
 42
0.000000001
 43
0.0000001
 40
0.0
 40
0.0
 40
0.0
 40
0.0
 40
1.0
 40
1.0
 40
1.0
 40
1.0
 10
-7.319125782450556
 20
2072.806367176158
 30
0.0
 10
-7.319125782450556
 20
2072.541123656158
 30
0.0
 10
-7.241909782452694
 20
2072.283917576158
 30
0.0
 10
-7.095786262452293
 20
2072.062384456158
 30
0.0
  0
SPLINE
  5
1D3
330
15
100
AcDbEntity
  8
0
 62
     1
100
AcDbSpline
210
0.0
220
0.0
230
1.0
 70
     8
 71
     3
 72
     8
 73
     4
 74
     0
 42
0.000000001
 43
0.0000001
 40
0.0
 40
0.0
 40
0.0
 40
0.0
 40
1.0
 40
1.0
 40
1.0
 40
1.0
 10
-6.793966742450266
 20
2074.141165576159
 30
0.0
 10
-7.091541782450349
 20
2073.721218696158
 30
0.0
 10
-7.319125782450556
 20
2073.356271496158
 30
0.0
 10
-7.319125782450556
 20
2072.806367176158
 30
0.0
  0
SPLINE
  5
1D4
330
15
100
AcDbEntity
  8
0
 62
     1
100
AcDbSpline
210
0.0
220
0.0
230
1.0
 70
     8
 71
     3
 72
     8
 73
     4
 74
     0
 42
0.000000001
 43
0.0000001
 40
0.0
 40
0.0
 40
0.0
 40
0.0
 40
1.0
 40
1.0
 40
1.0
 40
1.0
 10
-7.770681302451976
 20
2072.806367176158
 30
0.0
 10
-7.770681302451976
 20
2073.488216136158
 30
0.0
 10
-7.49523234245089
 20
2073.932546696158
 30
0.0
 10
-7.162435862449911
 20
2074.402164616158
 30
0.0
  0
SPLINE
  5
1D5
330
15
100
AcDbEntity
  8
0
 62
     1
100
AcDbSpline
210
0.0
220
0.0
230
1.0
 70
     8
 71
     3
 72
     8
 73
     4
 74
     0
 42
0.000000001
 43
0.0000001
 40
0.0
 40
0.0
 40
0.0
 40
0.0
 40
1.0
 40
1.0
 40
1.0
 40
1.0
 10
-7.472744982452696
 20
2071.813848136158
 30
0.0
 10
-7.667636502450023
 20
2072.109346056158
 30
0.0
 10
-7.770681302451976
 20
2072.452618696158
 30
0.0
 10
-7.770681302451976
 20
2072.806367176158
 30
0.0
  0
SPLINE
  5
1D6
330
15
100
AcDbEntity
  8
0
 62
     1
100
AcDbSpline
210
0.0
220
0.0
230
1.0
 70
     8
 71
     3
 72
     8
 73
     4
 74
     0
 42
0.000000001
 43
0.0000001
 40
0.0
 40
0.0
 40
0.0
 40
0.0
 40
1.0
 40
1.0
 40
1.0
 40
1.0
 10
-7.284085142451204
 20
2071.712338376158
 30
0.0
 10
-7.357507862452167
 20
2071.712338376158
 30
0.0
 10
-7.429395542450493
 20
2071.748011336158
 30
0.0
 10
-7.472744982452696
 20
2071.813848136158
 30
0.0
  0
INSERT
  5
1D7
330
15
100
AcDbEntity
  8
0
100
AcDbBlockReference
  2
luci
 10
-10.13748119780166
 20
2022.293238506958
 30
0.0
 41
0.2885399053849795
 42
0.2885399053849795
 43
0.2885399053849795
  0
TEXT
  5
1D8
330
15
100
AcDbEntity
  8
0
 62
     1
100
AcDbText
 10
-15.91074170216916
 20
1989.004548754411
 30
0.0
 40
4.315
  1
Smebu
100
AcDbText
  0
LINE
  5
1D9
330
15
100
AcDbEntity
  8
0
 62
     1
100
AcDbLine
 10
-19.99865097493557
 20
1995.090845489113
 30
0.0
 11
7.876668738543685
 21
1995.090845489113
 31
0.0
  0
LINE
  5
1DA
330
15
100
AcDbEntity
  8
0
 62
     1
100
AcDbLine
 10
-22.09865097493412
 20
1988.868011362603
 30
0.0
 11
-22.09865097493412
 21
1992.990845489113
 31
0.0
  0
LINE
  5
1DB
330
15
100
AcDbEntity
  8
0
 62
     1
100
AcDbLine
 10
7.876668738543685
 20
1986.768011362603
 30
0.0
 11
-19.99865097493557
 21
1986.768011362603
 31
0.0
  0
LINE
  5
1DC
330
15
100
AcDbEntity
  8
0
 62
     1
100
AcDbLine
 10
9.976668738545868
 20
1988.868011362603
 30
0.0
 11
9.976668738545868
 21
1992.990845489113
 31
0.0
  0
ARC
  5
1DD
330
15
100
AcDbEntity
  8
0
 62
     1
100
AcDbCircle
 10
7.876668738543685
 20
1992.990845489113
 30
0.0
 40
2.100000000000001
100
AcDbArc
 50
0.0
 51
90.0
  0
ARC
  5
1DE
330
15
100
AcDbEntity
  8
0
 62
     1
100
AcDbCircle
 10
7.876668738543685
 20
1988.868011362603
 30
0.0
 40
2.100000000000001
100
AcDbArc
 50
270.0
 51
0.0
  0
ARC
  5
1DF
330
15
100
AcDbEntity
  8
0
 62
     1
100
AcDbCircle
 10
-19.99865097493557
 20
1988.868011362603
 30
0.0
 40
2.100000000000001
100
AcDbArc
 50
180.0
 51
270.0
  0
ARC
  5
1E0
330
15
100
AcDbEntity
  8
0
 62
     1
100
AcDbCircle
 10
-19.99865097493557
 20
1992.990845489113
 30
0.0
 40
2.100000000000001
100
AcDbArc
 50
90.0
 51
180.0
  0
LINE
  5
1E1
330
15
100
AcDbEntity
  8
0
100
AcDbLine
 10
-83.63788905336628
 20
1922.361827008169
 30
0.0
 11
-63.63788905336628
 21
1922.361827008169
 31
0.0
  0
LINE
  5
1E2
330
15
100
AcDbEntity
  8
0
100
AcDbLine
 10
-184.0378890533641
 20
2056.361827008169
 30
0.0
 11
-184.0378890533641
 21
2036.361827008169
 31
0.0
  0
LINE
  5
1E3
330
15
100
AcDbEntity
  8
0
100
AcDbLine
 10
-184.0378890533641
 20
2036.361827008169
 30
0.0
 11
-181.0378890533641
 21
2036.361827008169
 31
0.0
  0
LINE
  5
1E4
330
15
100
AcDbEntity
  8
0
100
AcDbLine
 10
-184.0378890533641
 20
2056.361827008169
 30
0.0
 11
-181.0378890533641
 21
2056.361827008169
 31
0.0
  0
LINE
  5
1E5
330
15
100
AcDbEntity
  8
0
100
AcDbLine
 10
-181.0378890533641
 20
1999.361827008169
 30
0.0
 11
-181.0378890533641
 21
2036.361827008169
 31
0.0
  0
LINE
  5
1E6
330
15
100
AcDbEntity
  8
0
100
AcDbLine
 10
-181.0378890533641
 20
2093.361827008169
 30
0.0
 11
-181.0378890533641
 21
2056.361827008169
 31
0.0
  0
LINE
  5
1E7
330
15
100
AcDbEntity
  8
0
100
AcDbLine
 10
-145.6378890533663
 20
2070.394616999147
 30
0.0
 11
-48.63788905336651
 21
2070.394616999147
 31
0.0
  0
LINE
  5
1E8
330
15
100
AcDbEntity
  8
0
100
AcDbLine
 10
-145.6378890533663
 20
2030.394616999147
 30
0.0
 11
-48.63788905336651
 21
2030.394616999147
 31
0.0
  0
LINE
  5
1E9
330
15
100
AcDbEntity
  8
0
100
AcDbLine
 10
-145.6378890533663
 20
2030.394616999147
 30
0.0
 11
-145.6378890533663
 21
2070.394616999147
 31
0.0
  0
LINE
  5
1EA
330
15
100
AcDbEntity
  8
0
100
AcDbLine
 10
-48.63788905336651
 20
2030.394616999147
 30
0.0
 11
-48.63788905336651
 21
2070.394616999147
 31
0.0
  0
CIRCLE
  5
1EB
330
15
100
AcDbEntity
  8
0
100
AcDbCircle
 10
-132.2261037520941
 20
2007.861827008169
 30
0.0
 40
2.49
  0
CIRCLE
  5
1EC
330
15
100
AcDbEntity
  8
0
100
AcDbCircle
 10
-108.8650454192059
 20
2007.861827008169
 30
0.0
 40
2.49
  0
CIRCLE
  5
1ED
330
15
100
AcDbEntity
  8
0
100
AcDbCircle
 10
-85.8650454192059
 20
2007.861827008169
 30
0.0
 40
2.49
  0
CIRCLE
  5
1EE
330
15
100
AcDbEntity
  8
0
100
AcDbCircle
 10
-62.87589727115778
 20
2007.861827008169
 30
0.0
 40
2.49
  0
CIRCLE
  5
1EF
330
15
100
AcDbEntity
  8
0
100
AcDbCircle
 10
-6.060991118195943
 20
2050.394616999147
 30
0.0
 40
13.0
  0
INSERT
  5
1F0
330
15
100
AcDbEntity
  8
0
 62
     1
100
AcDbBlockReference
  2
serpentina
 10
11.41073760764675
 20
2050.349845766221
 30
0.0
 41
0.4169056186694119
 42
0.4169056186694119
 43
0.4169056186694119
  0
LINE
  5
1F1
330
15
100
AcDbEntity
  8
0
100
AcDbLine
 10
28.76211094663495
 20
1922.361827008169
 30
0.0
 11
36.76211094663495
 21
1922.361827008169
 31
0.0
  0
LINE
  5
1F2
330
15
100
AcDbEntity
  8
0
100
AcDbLine
 10
-176.0378890533641
 20
1922.361827008169
 30
0.0
 11
-83.63788905336628
 21
1922.361827008169
 31
0.0
  0
LINE
  5
1F3
330
15
100
AcDbEntity
  8
0
100
AcDbLine
 10
28.76211094663495
 20
1922.361827008169
 30
0.0
 11
-63.63788905336628
 21
1922.361827008169
 31
0.0
  0
LINE
  5
1F4
330
15
100
AcDbEntity
  8
0
100
AcDbLine
 10
28.76211094663495
 20
2098.361827008169
 30
0.0
 11
-63.63788905336628
 21
2098.361827008169
 31
0.0
  0
LINE
  5
1F5
330
15
100
AcDbEntity
  8
0
100
AcDbLine
 10
-83.63788905336628
 20
2098.361827008169
 30
0.0
 11
-176.0378890533641
 21
2098.361827008169
 31
0.0
  0
LINE
  5
1F6
330
15
100
AcDbEntity
  8
0
100
AcDbLine
 10
33.76211094663495
 20
2093.361827008169
 30
0.0
 11
33.76211094663495
 21
2056.361827008169
 31
0.0
  0
LINE
  5
1F7
330
15
100
AcDbEntity
  8
0
100
AcDbLine
 10
33.76211094663495
 20
2093.361827008169
 30
0.0
 11
36.76211094663495
 21
2093.361827008169
 31
0.0
  0
LINE
  5
1F8
330
15
100
AcDbEntity
  8
0
100
AcDbLine
 10
36.76211094663495
 20
2056.361827008169
 30
0.0
 11
33.76211094663495
 21
2056.361827008169
 31
0.0
  0
LINE
  5
1F9
330
15
100
AcDbEntity
  8
0
100
AcDbLine
 10
36.76211094663495
 20
1999.361827008169
 30
0.0
 11
36.76211094663495
 21
1922.361827008169
 31
0.0
  0
LINE
  5
1FA
330
15
100
AcDbEntity
  8
0
100
AcDbLine
 10
33.76211094663495
 20
1999.361827008169
 30
0.0
 11
36.76211094663495
 21
1999.361827008169
 31
0.0
  0
LINE
  5
1FB
330
15
100
AcDbEntity
  8
0
100
AcDbLine
 10
36.76211094663495
 20
2056.361827008169
 30
0.0
 11
36.76211094663495
 21
2036.361827008169
 31
0.0
  0
LINE
  5
1FC
330
15
100
AcDbEntity
  8
0
100
AcDbLine
 10
36.76211094663495
 20
2036.361827008169
 30
0.0
 11
33.76211094663495
 21
2036.361827008169
 31
0.0
  0
LINE
  5
1FD
330
15
100
AcDbEntity
  8
0
100
AcDbLine
 10
33.76211094663495
 20
1999.361827008169
 30
0.0
 11
33.76211094663495
 21
2036.361827008169
 31
0.0
  0
LINE
  5
1FE
330
15
100
AcDbEntity
  8
0
100
AcDbLine
 10
-83.63788905336628
 20
1930.361827008169
 30
0.0
 11
-83.63788905336628
 21
1927.361827008169
 31
0.0
  0
LINE
  5
1FF
330
15
100
AcDbEntity
  8
0
100
AcDbLine
 10
-83.63788905336628
 20
1930.361827008169
 30
0.0
 11
-176.0378890533641
 21
1930.361827008169
 31
0.0
  0
LINE
  5
200
330
15
100
AcDbEntity
  8
0
100
AcDbLine
 10
28.76211094663495
 20
1930.361827008169
 30
0.0
 11
-63.63788905336628
 21
1930.361827008169
 31
0.0
  0
LINE
  5
201
330
15
100
AcDbEntity
  8
0
100
AcDbLine
 10
-176.0378890533641
 20
1927.361827008169
 30
0.0
 11
-83.63788905336628
 21
1927.361827008169
 31
0.0
  0
LINE
  5
202
330
15
100
AcDbEntity
  8
0
100
AcDbLine
 10
-176.0378890533641
 20
1927.361827008169
 30
0.0
 11
-176.0378890533641
 21
1930.361827008169
 31
0.0
  0
LINE
  5
203
330
15
100
AcDbEntity
  8
0
100
AcDbLine
 10
28.76211094663495
 20
1927.361827008169
 30
0.0
 11
-63.63788905336628
 21
1927.361827008169
 31
0.0
  0
LINE
  5
204
330
15
100
AcDbEntity
  8
0
100
AcDbLine
 10
-63.63788905336628
 20
1930.361827008169
 30
0.0
 11
28.76211094663495
 21
1930.361827008169
 31
0.0
  0
LINE
  5
205
330
15
100
AcDbEntity
  8
0
100
AcDbLine
 10
28.76211094663495
 20
1927.361827008169
 30
0.0
 11
28.76211094663495
 21
1930.361827008169
 31
0.0
  0
LINE
  5
206
330
15
100
AcDbEntity
  8
0
100
AcDbLine
 10
-63.63788905336628
 20
1930.361827008169
 30
0.0
 11
-63.63788905336628
 21
1927.361827008169
 31
0.0
  0
LINE
  5
208
330
15
100
AcDbEntity
  8
0
100
AcDbLine
 10
-184.0378890533641
 20
2093.361827008169
 30
0.0
 11
-184.0378890533641
 21
2101.361827008169
 31
0.0
  0
LINE
  5
209
330
15
100
AcDbEntity
  8
0
100
AcDbLine
 10
28.76211094663495
 20
2098.361827008169
 30
0.0
 11
28.76211094663495
 21
2101.361827008169
 31
0.0
  0
LINE
  5
20A
330
15
100
AcDbEntity
  8
0
100
AcDbLine
 10
28.76211094663495
 20
2101.361827008169
 30
0.0
 11
36.76211094663495
 21
2101.361827008169
 31
0.0
  0
LINE
  5
20B
330
15
100
AcDbEntity
  8
0
100
AcDbLine
 10
-83.63788905336628
 20
2098.361827008169
 30
0.0
 11
-83.63788905336628
 21
2101.361827008169
 31
0.0
  0
LINE
  5
20C
330
15
100
AcDbEntity
  8
0
100
AcDbLine
 10
-63.63788905336628
 20
2098.361827008169
 30
0.0
 11
-63.63788905336628
 21
2101.361827008169
 31
0.0
  0
LINE
  5
20D
330
15
100
AcDbEntity
  8
0
100
AcDbLine
 10
-83.63788905336628
 20
2101.361827008169
 30
0.0
 11
-63.63788905336628
 21
2101.361827008169
 31
0.0
  0
LINE
  5
20E
330
15
100
AcDbEntity
  8
0
100
AcDbLine
 10
-184.0378890533641
 20
2101.361827008169
 30
0.0
 11
-176.0378890533641
 21
2101.361827008169
 31
0.0
  0
LINE
  5
20F
330
15
100
AcDbEntity
  8
0
100
AcDbLine
 10
-176.0378890533641
 20
2101.361827008169
 30
0.0
 11
-176.0378890533641
 21
2098.361827008169
 31
0.0
  0
LINE
  5
210
330
15
100
AcDbEntity
  8
0
100
AcDbLine
 10
36.76211094663495
 20
2093.361827008169
 30
0.0
 11
36.76211094663495
 21
2101.361827008169
 31
0.0
  0
LINE
  5
25A
330
15
100
AcDbEntity
  8
0
100
AcDbLine
 10
165.7635916801516
 20
2207.707794680844
 30
0.0
 11
165.7635916801516
 21
2279.707794680845
 31
0.0
  0
LINE
  5
25B
330
15
100
AcDbEntity
  8
0
100
AcDbLine
 10
160.7635916801516
 20
2282.707794680845
 30
0.0
 11
160.7635916801516
 21
2279.707794680845
 31
0.0
  0
LINE
  5
25C
330
15
100
AcDbEntity
  8
0
100
AcDbLine
 10
160.7635916801516
 20
2279.707794680845
 30
0.0
 11
165.7635916801516
 21
2279.707794680845
 31
0.0
  0
LINE
  5
25D
330
15
100
AcDbEntity
  8
0
100
AcDbLine
 10
168.7635916801516
 20
2207.707794680844
 30
0.0
 11
165.7635916801516
 21
2207.707794680844
 31
0.0
  0
LINE
  5
25E
330
15
100
AcDbEntity
  8
0
100
AcDbLine
 10
168.7635916801516
 20
2207.707794680844
 30
0.0
 11
168.7635916801516
 21
2282.707794680845
 31
0.0
  0
LINE
  5
25F
330
15
100
AcDbEntity
  8
0
100
AcDbLine
 10
168.7635916801516
 20
2282.707794680845
 30
0.0
 11
160.7635916801516
 21
2282.707794680845
 31
0.0
  0
LINE
  5
260
330
15
100
AcDbEntity
  8
0
100
AcDbLine
 10
165.7635916801516
 20
2187.707794680844
 30
0.0
 11
165.7635916801516
 21
2115.707794680845
 31
0.0
  0
LINE
  5
261
330
15
100
AcDbEntity
  8
0
100
AcDbLine
 10
160.7635916801516
 20
2112.707794680845
 30
0.0
 11
160.7635916801516
 21
2115.707794680845
 31
0.0
  0
LINE
  5
262
330
15
100
AcDbEntity
  8
0
100
AcDbLine
 10
160.7635916801516
 20
2115.707794680845
 30
0.0
 11
165.7635916801516
 21
2115.707794680845
 31
0.0
  0
LINE
  5
263
330
15
100
AcDbEntity
  8
0
100
AcDbLine
 10
168.7635916801516
 20
2187.707794680844
 30
0.0
 11
165.7635916801516
 21
2187.707794680844
 31
0.0
  0
LINE
  5
264
330
15
100
AcDbEntity
  8
0
100
AcDbLine
 10
168.7635916801516
 20
2187.707794680844
 30
0.0
 11
168.7635916801516
 21
2112.707794680845
 31
0.0
  0
LINE
  5
265
330
15
100
AcDbEntity
  8
0
100
AcDbLine
 10
168.7635916801516
 20
2112.707794680845
 30
0.0
 11
160.7635916801516
 21
2112.707794680845
 31
0.0
  0
LINE
  5
268
330
15
100
AcDbEntity
  8
0
100
AcDbLine
 10
490.1698618457888
 20
1972.318478217455
 30
0.0
 11
493.1698618457888
 21
1972.318478217455
 31
0.0
  0
LINE
  5
284
330
15
100
AcDbEntity
  8
0
100
AcDbLine
 10
-232.5324895664855
 20
2277.70754789193
 30
0.0
 11
-232.5324895664855
 21
2240.70754789193
 31
0.0
  0
LINE
  5
285
330
15
100
AcDbEntity
  8
0
100
AcDbLine
 10
-232.5324895664855
 20
2277.70754789193
 30
0.0
 11
-229.5324895664855
 21
2277.70754789193
 31
0.0
  0
LINE
  5
286
330
15
100
AcDbEntity
  8
0
100
AcDbLine
 10
-229.5324895664855
 20
2240.70754789193
 30
0.0
 11
-232.5324895664855
 21
2240.70754789193
 31
0.0
  0
LINE
  5
287
330
15
100
AcDbEntity
  8
0
100
AcDbLine
 10
-229.5324895664855
 20
2183.70754789193
 30
0.0
 11
-229.5324895664892
 21
2106.70754789193
 31
0.0
  0
LINE
  5
288
330
15
100
AcDbEntity
  8
0
100
AcDbLine
 10
-232.5324895664855
 20
2183.70754789193
 30
0.0
 11
-229.5324895664855
 21
2183.70754789193
 31
0.0
  0
LINE
  5
289
330
15
100
AcDbEntity
  8
0
100
AcDbLine
 10
-229.5324895664855
 20
2240.70754789193
 30
0.0
 11
-229.5324895664855
 21
2220.70754789193
 31
0.0
  0
LINE
  5
28A
330
15
100
AcDbEntity
  8
0
100
AcDbLine
 10
-229.5324895664855
 20
2220.70754789193
 30
0.0
 11
-232.5324895664855
 21
2220.70754789193
 31
0.0
  0
LINE
  5
28B
330
15
100
AcDbEntity
  8
0
100
AcDbLine
 10
-232.5324895664855
 20
2183.70754789193
 30
0.0
 11
-232.5324895664855
 21
2220.70754789193
 31
0.0
  0
LINE
  5
28C
330
15
100
AcDbEntity
  8
0
100
AcDbLine
 10
-229.5324895664855
 20
2277.70754789193
 30
0.0
 11
-229.5324895664855
 21
2285.70754789193
 31
0.0
  0
LINE
  5
28D
330
15
100
AcDbEntity
  8
0
100
AcDbLine
 10
-229.5324895664855
 20
2285.70754789193
 30
0.0
 11
-157.5324895664892
 21
2285.70754789193
 31
0.0
  0
LINE
  5
28E
330
15
100
AcDbEntity
  8
0
100
AcDbLine
 10
-157.5324895664892
 20
2282.70754789193
 30
0.0
 11
-137.5324895664892
 21
2282.70754789193
 31
0.0
  0
LINE
  5
28F
330
15
100
AcDbEntity
  8
0
100
AcDbLine
 10
-157.5324895664892
 20
2282.70754789193
 30
0.0
 11
-157.5324895664892
 21
2285.70754789193
 31
0.0
  0
LINE
  5
290
330
15
100
AcDbEntity
  8
0
100
AcDbLine
 10
-137.5324895664892
 20
2282.70754789193
 30
0.0
 11
-137.5324895664892
 21
2285.70754789193
 31
0.0
  0
LINE
  5
291
330
15
100
AcDbEntity
  8
0
100
AcDbLine
 10
-137.5324895664892
 20
2285.70754789193
 30
0.0
 11
-65.53248956648554
 21
2285.70754789193
 31
0.0
  0
LINE
  5
298
330
15
100
AcDbEntity
  8
0
100
AcDbLine
 10
-229.5324895664892
 20
2106.70754789193
 30
0.0
 11
-65.53248956648918
 21
2106.70754789193
 31
0.0
  0
LINE
  5
299
330
15
100
AcDbEntity
  8
0
100
AcDbLine
 10
-65.53248956648554
 20
2220.70754789193
 30
0.0
 11
-62.53248956648554
 21
2220.70754789193
 31
0.0
  0
LINE
  5
29A
330
15
100
AcDbEntity
  8
0
100
AcDbLine
 10
-65.53248956648554
 20
2240.70754789193
 30
0.0
 11
-65.53248956648554
 21
2220.70754789193
 31
0.0
  0
LINE
  5
29B
330
15
100
AcDbEntity
  8
0
100
AcDbLine
 10
-62.53248956648554
 20
2240.70754789193
 30
0.0
 11
-65.53248956648554
 21
2240.70754789193
 31
0.0
  0
LINE
  5
29C
330
15
100
AcDbEntity
  8
0
100
AcDbLine
 10
-62.53248956648554
 20
2277.70754789193
 30
0.0
 11
-65.53248956648554
 21
2277.70754789193
 31
0.0
  0
LINE
  5
29D
330
15
100
AcDbEntity
  8
0
100
AcDbLine
 10
-65.53248956648554
 20
2277.70754789193
 30
0.0
 11
-65.53248956648554
 21
2285.70754789193
 31
0.0
  0
LINE
  5
29E
330
15
100
AcDbEntity
  8
0
100
AcDbLine
 10
-65.53248956648554
 20
2183.70754789193
 30
0.0
 11
-65.53248956648918
 21
2106.70754789193
 31
0.0
  0
LINE
  5
29F
330
15
100
AcDbEntity
  8
0
100
AcDbLine
 10
-62.53248956648554
 20
2183.70754789193
 30
0.0
 11
-65.53248956648554
 21
2183.70754789193
 31
0.0
  0
LINE
  5
2A0
330
15
100
AcDbEntity
  8
0
100
AcDbLine
 10
-62.53248956648554
 20
2220.70754789193
 30
0.0
 11
-62.53248956648554
 21
2183.70754789193
 31
0.0
  0
LINE
  5
2A1
330
15
100
AcDbEntity
  8
0
100
AcDbLine
 10
-62.53248956648554
 20
2277.70754789193
 30
0.0
 11
-62.53248956648554
 21
2240.70754789193
 31
0.0
  0
LINE
  5
2A2
330
15
100
AcDbEntity
  8
0
100
AcDbLine
 10
-193.0324895664892
 20
2114.70754789193
 30
0.0
 11
-193.0324895664892
 21
2111.70754789193
 31
0.0
  0
LINE
  5
2A3
330
15
100
AcDbEntity
  8
0
100
AcDbLine
 10
-102.0324895664892
 20
2114.70754789193
 30
0.0
 11
-102.0324895664892
 21
2111.70754789193
 31
0.0
  0
LINE
  5
2A4
330
15
100
AcDbEntity
  8
0
100
AcDbLine
 10
-102.0324895664892
 20
2111.70754789193
 30
0.0
 11
-193.0324895664892
 21
2111.70754789193
 31
0.0
  0
LINE
  5
2A5
330
15
100
AcDbEntity
  8
0
100
AcDbLine
 10
-102.0324895664892
 20
2114.70754789193
 30
0.0
 11
-193.0324895664892
 21
2114.70754789193
 31
0.0
  0
LINE
  5
2A6
330
15
100
AcDbEntity
  8
0
100
AcDbLine
 10
-193.0324895664892
 20
2178.70754789193
 30
0.0
 11
-193.0324895664892
 21
2175.70754789193
 31
0.0
  0
LINE
  5
2A7
330
15
100
AcDbEntity
  8
0
100
AcDbLine
 10
-102.0324895664892
 20
2178.70754789193
 30
0.0
 11
-102.0324895664892
 21
2175.70754789193
 31
0.0
  0
LINE
  5
2A8
330
15
100
AcDbEntity
  8
0
100
AcDbLine
 10
-102.0324895664892
 20
2175.70754789193
 30
0.0
 11
-193.0324895664892
 21
2175.70754789193
 31
0.0
  0
LINE
  5
2A9
330
15
100
AcDbEntity
  8
0
100
AcDbLine
 10
-102.0324895664892
 20
2178.70754789193
 30
0.0
 11
-193.0324895664892
 21
2178.70754789193
 31
0.0
  0
ENDSEC
  0
SECTION
  2
OBJECTS
  0
DICTIONARY
  5
5
330
0
100
AcDbDictionary
281
     1
  3
ACAD_DETAILVIEWSTYLE
350
23A
  3
ACAD_GROUP
350
21
  3
ACAD_IMAGE_VARS
350
235
  3
ACAD_LAYOUT
350
19
  3
ACAD_MLINESTYLE
350
13
  3
ACAD_PLOTSETTINGS
350
22
  3
ACAD_PLOTSTYLENAME
350
4
  3
ACAD_SCALELIST
350
28
  3
ACAD_SECTIONVIEWSTYLE
350
23B
  3
AcDbVariableDictionary
350
236
  3
APPDATA
350
255
  3
DWGPROPS
350
2B2
  0
DICTIONARY
  5
23A
102
{ACAD_REACTORS
330
5
102
}
330
5
100
AcDbDictionary
281
     1
  0
DICTIONARY
  5
21
102
{ACAD_REACTORS
330
5
102
}
330
5
100
AcDbDictionary
281
     1
  0
RASTERVARIABLES
  5
235
102
{ACAD_REACTORS
330
5
102
}
330
5
100
AcDbRasterVariables
 90
        0
 70
     1
 71
     1
 72
     1
  0
DICTIONARY
  5
19
102
{ACAD_REACTORS
330
5
102
}
330
5
100
AcDbDictionary
281
     1
  3
Model
350
18
  3
Sheet1
350
1D
  0
DICTIONARY
  5
13
102
{ACAD_REACTORS
330
5
102
}
330
5
100
AcDbDictionary
281
     1
  3
Standard
350
12
  0
DICTIONARY
  5
22
102
{ACAD_REACTORS
330
5
102
}
330
5
100
AcDbDictionary
281
     1
  0
ACDBDICTIONARYWDFLT
  5
4
102
{ACAD_REACTORS
330
5
102
}
330
5
100
AcDbDictionary
281
     1
  3
Normal
350
3
100
AcDbDictionaryWithDefault
340
3
  0
DICTIONARY
  5
28
102
{ACAD_REACTORS
330
5
102
}
330
5
100
AcDbDictionary
281
     1
  3
*A1
350
4A
  0
DICTIONARY
  5
23B
102
{ACAD_REACTORS
330
5
102
}
330
5
100
AcDbDictionary
281
     1
  0
DICTIONARY
  5
236
102
{ACAD_REACTORS
330
5
102
}
330
5
100
AcDbDictionary
281
     1
  0
DICTIONARY
  5
255
102
{ACAD_REACTORS
330
5
102
}
330
5
100
AcDbDictionary
281
     1
  0
XRECORD
  5
2B2
102
{ACAD_REACTORS
330
5
102
}
330
5
100
AcDbXrecord
280
     1
  1
DWGPROPS COOKIE
  2

  3

  4

  6

  7

  8
alessandro
  9

300
=
301
=
302
=
303
=
304
=
305
=
306
=
307
=
308
=
309
=
 40
0.0
 41
2455022.637359514
 42
2457448.918761574
  1

 90
        0
  0
LAYOUT
  5
18
102
{ACAD_REACTORS
330
19
330
19
102
}
330
19
100
AcDbPlotSettings
  1

  2
none_device
  4
ISO_A3_(420.00_x_297.00_MM)
  6

 40
7.5
 41
20.0
 42
7.5
 43
20.0
 44
420.0
 45
297.0
 46
20.78282828282826
 47
0.0
 48
0.0
 49
0.0
140
0.0
141
0.0
142
1.0
143
1.155642023346303
 70
  1204
 72
     1
 73
     0
 74
     1
  7
monochrome.ctb
 75
     0
147
0.8653198653198654
148
-134.1869158878504
149
0.0
100
AcDbLayout
  1
Model
 70
     1
 71
     0
 10
0.0
 20
0.0
 11
420.0
 21
297.0
 12
0.0
 22
0.0
 32
0.0
 14
-232.5324895664855
 24
1922.361827008169
 34
0.0
 15
585.4324019913176
 25
2286.707794680845
 35
0.0
146
0.0
 13
0.0
 23
0.0
 33
0.0
 16
1.0
 26
0.0
 36
0.0
 17
0.0
 27
1.0
 37
0.0
 76
     0
330
15
331
24
  0
LAYOUT
  5
1D
102
{ACAD_REACTORS
330
19
330
19
102
}
330
19
100
AcDbPlotSettings
  1

  2
none_device
  4

  6

 40
0.0
 41
0.0
 42
0.0
 43
0.0
 44
0.0
 45
0.0
 46
0.0
 47
0.0
 48
0.0
 49
0.0
140
0.0
141
0.0
142
1.0
143
1.0
 70
   688
 72
     0
 73
     0
 74
     5
  7

 75
    16
147
1.0
148
0.0
149
0.0
100
AcDbLayout
  1
Sheet1
 70
     1
 71
     1
 10
0.0
 20
0.0
 11
420.0
 21
297.0
 12
0.0
 22
0.0
 32
0.0
 14
1.000000000000000E+20
 24
1.000000000000000E+20
 34
1.000000000000000E+20
 15
-1.000000000000000E+20
 25
-1.000000000000000E+20
 35
-1.000000000000000E+20
146
0.0
 13
0.0
 23
0.0
 33
0.0
 16
1.0
 26
0.0
 36
0.0
 17
0.0
 27
1.0
 37
0.0
 76
     0
330
1A
  0
MLINESTYLE
  5
12
102
{ACAD_REACTORS
330
13
102
}
330
13
100
AcDbMlineStyle
  2
Standard
 70
     0
  3

 62
   256
 51
90.0
 52
90.0
 71
     2
 49
0.5
 62
   256
  6
BYLAYER
 49
-0.5
 62
   256
  6
BYLAYER
  0
ACDBPLACEHOLDER
  5
3
102
{ACAD_REACTORS
330
4
102
}
330
4
  0
SCALE
  5
4A
102
{ACAD_REACTORS
330
28
102
}
330
28
100
AcDbScale
 70
     0
300
1:1
140
1.0
141
1.0
290
     1
  0
ENDSEC
  0
EOF
